G04 #@! TF.GenerationSoftware,KiCad,Pcbnew,(6.0.2)*
G04 #@! TF.CreationDate,2022-02-23T13:26:13+01:00*
G04 #@! TF.ProjectId,esp32-wled-adv-pcb,65737033-322d-4776-9c65-642d6164762d,rev?*
G04 #@! TF.SameCoordinates,Original*
G04 #@! TF.FileFunction,Copper,L2,Bot*
G04 #@! TF.FilePolarity,Positive*
%FSLAX46Y46*%
G04 Gerber Fmt 4.6, Leading zero omitted, Abs format (unit mm)*
G04 Created by KiCad (PCBNEW (6.0.2)) date 2022-02-23 13:26:13*
%MOMM*%
%LPD*%
G01*
G04 APERTURE LIST*
G04 #@! TA.AperFunction,ComponentPad*
%ADD10R,1.700000X1.700000*%
G04 #@! TD*
G04 #@! TA.AperFunction,ComponentPad*
%ADD11O,1.700000X1.700000*%
G04 #@! TD*
G04 #@! TA.AperFunction,ComponentPad*
%ADD12R,3.000000X3.000000*%
G04 #@! TD*
G04 #@! TA.AperFunction,ComponentPad*
%ADD13C,3.000000*%
G04 #@! TD*
G04 #@! TA.AperFunction,ComponentPad*
%ADD14C,1.000000*%
G04 #@! TD*
G04 #@! TA.AperFunction,ComponentPad*
%ADD15C,2.300000*%
G04 #@! TD*
G04 #@! TA.AperFunction,ComponentPad*
%ADD16R,0.900000X0.500000*%
G04 #@! TD*
G04 #@! TA.AperFunction,ViaPad*
%ADD17C,0.800000*%
G04 #@! TD*
G04 #@! TA.AperFunction,ViaPad*
%ADD18C,0.500000*%
G04 #@! TD*
G04 #@! TA.AperFunction,ViaPad*
%ADD19C,1.200000*%
G04 #@! TD*
G04 #@! TA.AperFunction,ViaPad*
%ADD20C,0.600000*%
G04 #@! TD*
G04 #@! TA.AperFunction,Conductor*
%ADD21C,0.750000*%
G04 #@! TD*
G04 #@! TA.AperFunction,Conductor*
%ADD22C,1.250000*%
G04 #@! TD*
G04 #@! TA.AperFunction,Conductor*
%ADD23C,0.250000*%
G04 #@! TD*
G04 APERTURE END LIST*
D10*
G04 #@! TO.P,J6,1,Pin_1*
G04 #@! TO.N,GND*
X162809000Y-114808000D03*
D11*
G04 #@! TO.P,J6,2,Pin_2*
G04 #@! TO.N,/WLED_CTRL_IO19*
X165349000Y-114808000D03*
G04 #@! TD*
D12*
G04 #@! TO.P,J2,1,Pin_1*
G04 #@! TO.N,GND*
X96881500Y-92188000D03*
D13*
G04 #@! TO.P,J2,2,Pin_2*
G04 #@! TO.N,/LED_DATA*
X96881500Y-97188000D03*
G04 #@! TO.P,J2,3,Pin_3*
G04 #@! TO.N,+5V*
X96881500Y-102188000D03*
G04 #@! TD*
D14*
G04 #@! TO.P,TP1,1,1*
G04 #@! TO.N,+3V3*
X115950000Y-91125000D03*
G04 #@! TD*
D15*
G04 #@! TO.P,RV3,1,1*
G04 #@! TO.N,Net-(R12-Pad2)*
X147000000Y-128000000D03*
G04 #@! TO.P,RV3,2,2*
G04 #@! TO.N,/WLED_CTRL_IO33*
X152000000Y-128000000D03*
G04 #@! TO.P,RV3,3,3*
G04 #@! TO.N,Net-(R13-Pad1)*
X157000000Y-128000000D03*
G04 #@! TD*
G04 #@! TO.P,RV2,1,1*
G04 #@! TO.N,Net-(R10-Pad2)*
X122000000Y-128000000D03*
G04 #@! TO.P,RV2,2,2*
G04 #@! TO.N,/WLED_CTRL_IO32*
X127000000Y-128000000D03*
G04 #@! TO.P,RV2,3,3*
G04 #@! TO.N,Net-(R11-Pad1)*
X132000000Y-128000000D03*
G04 #@! TD*
G04 #@! TO.P,RV1,1,1*
G04 #@! TO.N,Net-(R8-Pad2)*
X97000000Y-128000000D03*
G04 #@! TO.P,RV1,2,2*
G04 #@! TO.N,/WLED_CTRL_IO35*
X102000000Y-128000000D03*
G04 #@! TO.P,RV1,3,3*
G04 #@! TO.N,Net-(R9-Pad1)*
X107000000Y-128000000D03*
G04 #@! TD*
D10*
G04 #@! TO.P,J1,1,Pin_1*
G04 #@! TO.N,GND*
X162814000Y-99568000D03*
D11*
G04 #@! TO.P,J1,2,Pin_2*
G04 #@! TO.N,/ESP_TXD*
X162814000Y-102108000D03*
G04 #@! TO.P,J1,3,Pin_3*
G04 #@! TO.N,/ESP_RXD*
X162814000Y-104648000D03*
G04 #@! TD*
D16*
G04 #@! TO.P,AE1,2,Shield*
G04 #@! TO.N,GND*
X147861600Y-92050800D03*
G04 #@! TD*
D10*
G04 #@! TO.P,J5,1,Pin_1*
G04 #@! TO.N,GND*
X162809000Y-109728000D03*
D11*
G04 #@! TO.P,J5,2,Pin_2*
G04 #@! TO.N,/WLED_CTRL_IO22*
X165349000Y-109728000D03*
G04 #@! TD*
D14*
G04 #@! TO.P,TP2,1,1*
G04 #@! TO.N,GND*
X118516400Y-89255600D03*
G04 #@! TD*
D12*
G04 #@! TO.P,J4,1,Pin_1*
G04 #@! TO.N,GND*
X96881500Y-109056700D03*
D13*
G04 #@! TO.P,J4,2,Pin_2*
G04 #@! TO.N,/+5Vin*
X96881500Y-114056700D03*
G04 #@! TD*
G04 #@! TO.P,F1,1*
G04 #@! TO.N,+5V*
X109474000Y-92205000D03*
G04 #@! TO.P,F1,2*
G04 #@! TO.N,/+5Vin*
X109474000Y-114805000D03*
G04 #@! TD*
D17*
G04 #@! TO.N,GND*
X117906800Y-104038400D03*
X108077000Y-126492000D03*
X151180800Y-118364000D03*
D18*
X146658755Y-103040360D03*
D17*
X171704000Y-116840000D03*
X154330400Y-107950000D03*
X82296000Y-130048000D03*
X127762000Y-126365000D03*
X133400800Y-120192800D03*
X108000800Y-122275600D03*
X99364800Y-109474000D03*
D18*
X143865600Y-104495600D03*
D17*
X161188400Y-96774000D03*
X126849562Y-95645019D03*
X121412000Y-130048000D03*
X154178000Y-92862400D03*
X107086400Y-96926400D03*
D18*
X145710225Y-99989484D03*
D17*
X135026400Y-115062000D03*
X154330400Y-100076000D03*
X131933381Y-93038585D03*
D18*
X147711600Y-99991200D03*
D17*
X94234000Y-110540800D03*
X125730000Y-87376000D03*
X123952000Y-114655600D03*
X95707200Y-98958400D03*
X107696000Y-117602000D03*
X113131600Y-120192800D03*
X133096000Y-122555000D03*
X142392400Y-106146600D03*
X153416000Y-95046800D03*
X86868000Y-120015000D03*
X131038600Y-106603800D03*
X160172400Y-99161600D03*
X159512000Y-101092000D03*
X149860000Y-119583200D03*
X124333000Y-100899007D03*
X141325600Y-102260400D03*
X112166400Y-110845600D03*
X147320000Y-130048000D03*
X137160000Y-130048000D03*
X105994200Y-104749600D03*
X86600000Y-104000000D03*
X100761800Y-99669600D03*
X82296000Y-87376000D03*
X98425000Y-120396000D03*
X105156000Y-120192800D03*
X163626800Y-103378000D03*
X110794800Y-111709200D03*
X125577600Y-88696800D03*
X106273600Y-109575600D03*
X118770400Y-101396800D03*
X130657600Y-120192800D03*
D18*
X154355800Y-106019600D03*
D17*
X114960400Y-90068400D03*
X120396000Y-106553000D03*
D18*
X154355800Y-105206800D03*
D17*
X123063000Y-97155000D03*
X120904000Y-126492000D03*
X148082000Y-122555000D03*
X101600000Y-130048000D03*
X144145000Y-106578400D03*
X111760000Y-87376000D03*
D18*
X148761600Y-101041200D03*
D17*
X133350000Y-92837000D03*
X113665000Y-111887000D03*
X171704000Y-111760000D03*
X101650800Y-107594400D03*
X144678400Y-92659200D03*
X105714800Y-106603800D03*
X117475000Y-106975000D03*
X167030400Y-108051600D03*
X122377200Y-116281200D03*
X116840000Y-87376000D03*
X160121600Y-103022400D03*
X155575000Y-119126000D03*
X141452600Y-116230400D03*
X82296000Y-101600000D03*
X114604800Y-91643200D03*
X166014400Y-122326400D03*
X137312400Y-101168200D03*
X95504000Y-118872000D03*
X90170000Y-122047000D03*
X95631000Y-91059000D03*
X136144000Y-110744000D03*
X160578800Y-100228400D03*
X169748200Y-92710000D03*
X117398800Y-91236800D03*
X165811200Y-95300800D03*
X161137600Y-104292400D03*
D18*
X152501600Y-102819200D03*
D17*
X126492000Y-118160800D03*
X109321600Y-110210600D03*
X141351000Y-108178600D03*
X151485600Y-113436400D03*
X133350000Y-118160800D03*
X140868400Y-126898400D03*
X125984000Y-90170000D03*
X132080000Y-98298000D03*
X171704000Y-101600000D03*
X137160000Y-106680000D03*
X141376400Y-112064800D03*
X122428000Y-109728000D03*
X114909600Y-107315000D03*
X118770400Y-99923600D03*
X112903000Y-106756200D03*
X134315200Y-103708200D03*
X116840000Y-130048000D03*
X131445000Y-110617000D03*
X147929600Y-113588800D03*
X105130600Y-99695000D03*
X125730000Y-106680000D03*
X140411200Y-113284000D03*
X143154400Y-105308400D03*
X169113200Y-119684800D03*
X126111000Y-126365000D03*
X171704000Y-121920000D03*
X156870400Y-96520000D03*
X117906800Y-114020600D03*
X101752400Y-123596400D03*
X88800000Y-96400000D03*
X163068000Y-94742000D03*
X161163000Y-123469400D03*
X157226000Y-92862400D03*
X163169600Y-92710000D03*
X152349200Y-97332800D03*
X138125200Y-115062000D03*
D18*
X146398700Y-95808800D03*
D17*
X110032800Y-118110000D03*
X132080000Y-130048000D03*
X144576800Y-111582200D03*
X156718000Y-105613200D03*
X138430000Y-123698000D03*
D18*
X148756532Y-99039484D03*
D17*
X86360000Y-130048000D03*
X127889000Y-122555000D03*
X168656000Y-96621600D03*
X161848800Y-119075200D03*
D18*
X148761600Y-103041200D03*
D17*
X82804000Y-117144800D03*
X116179600Y-92557600D03*
X128576762Y-95594219D03*
X156921200Y-111760000D03*
X137439400Y-97815400D03*
X103632000Y-117602000D03*
X162052000Y-130048000D03*
X138938000Y-112141000D03*
X109778800Y-120192800D03*
X169519600Y-106222800D03*
X160274000Y-92862400D03*
X159359600Y-95046800D03*
X87071200Y-87223600D03*
D18*
X143408400Y-99187000D03*
D17*
X156565600Y-103073200D03*
X108559600Y-104749600D03*
X142544800Y-115112800D03*
X134772400Y-98653600D03*
X115722400Y-115976400D03*
D18*
X143408400Y-102666800D03*
D17*
X117475000Y-109321600D03*
X125272800Y-116535200D03*
D18*
X145711600Y-101041200D03*
X142062200Y-98856800D03*
D17*
X113614200Y-89052400D03*
X124968000Y-111125000D03*
X120650000Y-95605600D03*
X118110000Y-118110000D03*
X156972000Y-109728000D03*
X163880800Y-105664000D03*
X116230400Y-120192800D03*
X111887000Y-93294200D03*
X125603000Y-91312000D03*
X128143000Y-112903000D03*
X159461200Y-118313200D03*
X151587200Y-108204000D03*
X154127200Y-114808000D03*
X137820400Y-113182400D03*
X120396000Y-103886000D03*
X108661200Y-107416600D03*
X102260400Y-120142000D03*
X130302000Y-116535200D03*
X107086400Y-99720400D03*
X127762000Y-120192800D03*
X96875600Y-99720400D03*
X154355800Y-109753400D03*
D18*
X161696400Y-102743000D03*
D17*
X137185400Y-98679000D03*
X123037600Y-118160800D03*
X148082000Y-126492000D03*
D18*
X146660602Y-102091199D03*
D17*
X113842800Y-94183200D03*
X165709600Y-92710000D03*
X98044000Y-126492000D03*
X131445000Y-109093000D03*
X132156200Y-101193600D03*
X160274000Y-107188000D03*
X138988800Y-110058200D03*
X104902000Y-122580400D03*
X114858800Y-97028000D03*
X113030000Y-126085600D03*
X158115000Y-126492000D03*
X110388400Y-109118400D03*
X105968800Y-124460000D03*
X130937000Y-122555000D03*
X107111800Y-89992200D03*
X142189200Y-95478600D03*
X99771200Y-105257600D03*
X143840200Y-96520000D03*
X141427200Y-110413800D03*
D18*
X147711600Y-103041200D03*
D17*
X142113000Y-104394000D03*
X91440000Y-87376000D03*
X120500000Y-89200000D03*
X156362400Y-101092000D03*
X107061000Y-93573600D03*
X130098800Y-114655600D03*
X91313000Y-93218000D03*
D18*
X148761600Y-102091200D03*
D17*
X146507200Y-108305600D03*
X94843600Y-97688400D03*
X110134400Y-121716800D03*
X148971000Y-105664000D03*
X139192000Y-93573600D03*
D18*
X108153200Y-121412000D03*
D17*
X148234400Y-120192800D03*
X157937200Y-101092000D03*
X143129000Y-107543600D03*
X147904200Y-115062000D03*
X155829000Y-122555000D03*
X171831000Y-92837000D03*
X161848800Y-92862400D03*
X171704000Y-127000000D03*
X82804000Y-121920000D03*
X97002600Y-117551200D03*
X137160000Y-103251000D03*
X102514400Y-99720400D03*
X100025200Y-117703600D03*
X113436400Y-121767600D03*
X82296000Y-111810800D03*
D18*
X149706532Y-99989484D03*
D17*
X148691600Y-109118400D03*
X136525000Y-108966000D03*
X94259400Y-114300000D03*
X116255800Y-96977200D03*
X129413000Y-107721400D03*
X120599200Y-120192800D03*
X138938000Y-104013000D03*
X166116000Y-104521000D03*
X103835200Y-96164400D03*
X145745200Y-118160800D03*
X111760000Y-89916000D03*
X154432000Y-97383600D03*
X159715200Y-112268000D03*
X146354800Y-105511600D03*
X123063000Y-126492000D03*
X138938000Y-106553000D03*
X168960800Y-112268000D03*
D18*
X105816400Y-121412000D03*
D17*
X112217200Y-113182400D03*
X93446600Y-99695000D03*
X130302000Y-103886000D03*
X150926800Y-96672400D03*
X128371600Y-116332000D03*
X95885000Y-122555000D03*
X149453600Y-114452400D03*
X120497600Y-118160800D03*
X152781000Y-126365000D03*
D18*
X152425400Y-106959400D03*
D17*
X126238000Y-120192800D03*
X158089600Y-107035600D03*
X98958400Y-99720400D03*
X115214400Y-113385600D03*
X137160000Y-92837000D03*
X101981000Y-93472000D03*
X158597600Y-104851200D03*
X102768400Y-124764800D03*
X145923000Y-122555000D03*
X149453600Y-117144800D03*
X167640000Y-130048000D03*
X157480000Y-130048000D03*
D18*
X147711600Y-101041200D03*
X123190000Y-92252800D03*
D17*
X157022800Y-114808000D03*
X117348000Y-111252000D03*
X120904000Y-122555000D03*
X115519200Y-118160800D03*
X138684000Y-117856000D03*
X139039600Y-97663000D03*
X106019600Y-122478800D03*
X151485600Y-116535200D03*
X133604000Y-113030000D03*
D18*
X146660602Y-99991199D03*
D17*
X112115600Y-115417600D03*
X106680000Y-130048000D03*
X152654000Y-92862400D03*
X120599200Y-99923600D03*
X121412000Y-87376000D03*
X155702000Y-92862400D03*
X130657600Y-118160800D03*
X93776800Y-104190800D03*
X134645400Y-101168200D03*
D18*
X146661600Y-101041200D03*
D17*
X133096000Y-126492000D03*
X152730200Y-118338600D03*
X96520000Y-87376000D03*
X146761200Y-92710000D03*
X143764000Y-109347000D03*
D18*
X146651419Y-99038477D03*
D17*
X119229562Y-95615807D03*
X161086800Y-101295200D03*
X98501200Y-98552000D03*
X129647381Y-101801585D03*
X102743000Y-126365000D03*
D18*
X154329900Y-101701600D03*
D17*
X120421400Y-109220000D03*
D18*
X149711600Y-101041200D03*
D17*
X147904200Y-111760000D03*
X101219000Y-126365000D03*
X150012400Y-109118400D03*
X137668000Y-120192800D03*
X168148000Y-100584000D03*
X165354000Y-112268000D03*
X142519400Y-117830600D03*
X111912400Y-117348000D03*
X127000000Y-130048000D03*
X96520000Y-130048000D03*
X113182400Y-118110000D03*
X146151600Y-93522800D03*
X112852200Y-109194600D03*
X153212800Y-111760000D03*
X128504381Y-92911585D03*
X132943600Y-105054400D03*
X152400000Y-130048000D03*
X126111000Y-122555000D03*
D18*
X139192000Y-101600000D03*
X145796000Y-95300800D03*
D17*
X132187381Y-95705585D03*
X145389600Y-115112800D03*
X126136400Y-114681000D03*
X110490000Y-107442000D03*
X154381200Y-103073200D03*
X145923000Y-126492000D03*
X94945200Y-99720400D03*
X142240000Y-130048000D03*
X151130000Y-126365000D03*
X105918000Y-126492000D03*
X158115000Y-122555000D03*
X135382000Y-94488000D03*
X115239800Y-104749600D03*
X116128800Y-124358400D03*
X98171000Y-122555000D03*
X133604000Y-96266000D03*
X122218779Y-95586221D03*
D18*
X143408400Y-102006400D03*
D17*
X149352000Y-108051600D03*
X128727200Y-118160800D03*
X82296000Y-91440000D03*
D18*
X141249400Y-96926400D03*
D17*
X147878800Y-92964000D03*
X95885000Y-126492000D03*
X116154200Y-94513400D03*
X155956000Y-126492000D03*
X120396000Y-116078000D03*
X94437200Y-117297200D03*
D18*
X147711600Y-99041200D03*
D17*
X149098000Y-94132400D03*
X125020762Y-93232019D03*
X87757000Y-112522000D03*
X120425000Y-110900000D03*
X123393200Y-120192800D03*
X91440000Y-130048000D03*
X124942500Y-92241419D03*
X116484400Y-89814400D03*
X130937000Y-126492000D03*
X152908000Y-122555000D03*
X165455600Y-119126000D03*
X124734077Y-95561552D03*
X141732000Y-120650000D03*
X103530400Y-109575600D03*
X151130000Y-122555000D03*
X171704000Y-106680000D03*
X110947200Y-104749600D03*
X106680000Y-87376000D03*
X145643600Y-112979200D03*
X123545600Y-99923600D03*
X106984800Y-108026200D03*
X127101600Y-102057200D03*
X149098000Y-92659200D03*
D18*
X147711600Y-102091200D03*
D17*
X158750000Y-92862400D03*
X141376400Y-106705400D03*
X113182400Y-104749600D03*
D18*
X148761600Y-99991200D03*
D17*
X151384000Y-104648000D03*
X141782800Y-92710000D03*
X156108400Y-117195600D03*
X133985000Y-106680000D03*
X111760000Y-130048000D03*
X92202000Y-108000800D03*
X140131800Y-97790000D03*
X102565200Y-105206800D03*
X103886000Y-121462800D03*
D18*
X158851600Y-115824000D03*
D17*
X111861600Y-95097600D03*
X142849600Y-113538000D03*
X123063000Y-122555000D03*
X164465000Y-92710000D03*
X136652000Y-96774000D03*
X167030400Y-116484400D03*
X123088400Y-88087200D03*
X113436400Y-97028000D03*
X150876000Y-95351600D03*
X111861600Y-97028000D03*
X157480000Y-99441000D03*
D18*
X145084800Y-96367600D03*
D17*
X82296000Y-106324400D03*
D18*
X146431000Y-109855000D03*
D17*
X107213400Y-105943400D03*
D18*
X126847600Y-108966000D03*
X145745200Y-96723200D03*
D17*
X116054500Y-111252000D03*
X123240800Y-113284000D03*
X165455600Y-97637600D03*
X150317200Y-111760000D03*
D18*
X145709218Y-102084371D03*
D17*
X145643600Y-120192800D03*
X162864800Y-112268000D03*
X82296000Y-127000000D03*
X125730000Y-103886000D03*
X150876000Y-92862400D03*
X118465600Y-120243600D03*
X117449600Y-121412000D03*
X120503381Y-91209785D03*
X139039600Y-108204000D03*
X104343200Y-105206800D03*
D18*
X139065000Y-96062800D03*
X149707967Y-102090063D03*
D17*
X131826000Y-115112800D03*
X150876000Y-94132400D03*
X171704000Y-130048000D03*
X148437600Y-118160800D03*
D18*
X144119600Y-95250000D03*
X144119600Y-94386400D03*
D17*
X171704000Y-96520000D03*
X122859800Y-106553000D03*
X152400000Y-109601000D03*
X121900381Y-101346000D03*
X149098000Y-95758000D03*
X82804000Y-96621600D03*
X101600000Y-87376000D03*
G04 #@! TO.N,+5V*
X123826962Y-98740007D03*
X131476181Y-94638785D03*
D19*
G04 #@! TO.N,+3V3*
X117553162Y-92517007D03*
X117553162Y-95057007D03*
D17*
X152781000Y-110744000D03*
X153365200Y-107086400D03*
D19*
X117553162Y-93787007D03*
D17*
X98450400Y-119176800D03*
X153365200Y-97078800D03*
X123698000Y-105283000D03*
X123596400Y-119176800D03*
X141478000Y-94259400D03*
X125731962Y-102092807D03*
X142621000Y-99923600D03*
X145161000Y-110744000D03*
X148894800Y-119176800D03*
G04 #@! TO.N,Net-(Q1-Pad2)*
X142138400Y-107467400D03*
X137896600Y-107442000D03*
D20*
G04 #@! TO.N,/BOOT*
X143129000Y-104223141D03*
D17*
X145663780Y-106238194D03*
G04 #@! TD*
D21*
G04 #@! TO.N,+5V*
X131116762Y-98032619D02*
X129520374Y-99629007D01*
X129520374Y-99629007D02*
X124715962Y-99629007D01*
X131476181Y-94638785D02*
X131116762Y-94998204D01*
X124715962Y-99629007D02*
X123826962Y-98740007D01*
X131116762Y-94998204D02*
X131116762Y-98032619D01*
G04 #@! TO.N,+3V3*
X148894800Y-119176800D02*
X150469600Y-117602000D01*
X98450400Y-119176800D02*
X123596400Y-119176800D01*
X119146834Y-104746834D02*
X119146834Y-119155966D01*
X153365200Y-107086400D02*
X153365200Y-110159800D01*
X153365200Y-97078800D02*
X153365200Y-107086400D01*
X123596400Y-119176800D02*
X148894800Y-119176800D01*
D22*
X117553162Y-101932162D02*
X117553162Y-95057007D01*
X133375400Y-98262590D02*
X133375400Y-99949000D01*
X123698000Y-105283000D02*
X119683000Y-105283000D01*
X140741400Y-94996000D02*
X136641990Y-94996000D01*
X136641990Y-94996000D02*
X133375400Y-98262590D01*
D21*
X152781000Y-110744000D02*
X145161000Y-110744000D01*
D22*
X130937000Y-105283000D02*
X123698000Y-105283000D01*
X142621000Y-99923600D02*
X133858000Y-99923600D01*
D21*
X153365200Y-110159800D02*
X152781000Y-110744000D01*
D22*
X141478000Y-94259400D02*
X140741400Y-94996000D01*
X133400800Y-99872800D02*
X133400800Y-102819200D01*
D21*
X150469600Y-117602000D02*
X150469600Y-113055400D01*
D22*
X118237000Y-102616000D02*
X117553162Y-101932162D01*
X125208769Y-102616000D02*
X118237000Y-102616000D01*
X133400800Y-102819200D02*
X130937000Y-105283000D01*
X119126000Y-102870000D02*
X119146834Y-102890834D01*
X119683000Y-105283000D02*
X119146834Y-104746834D01*
X117553162Y-101932162D02*
X118177981Y-102556981D01*
D21*
X150469600Y-113055400D02*
X152781000Y-110744000D01*
D22*
X125731962Y-102092807D02*
X125208769Y-102616000D01*
X119146834Y-102890834D02*
X119146834Y-104746834D01*
D23*
G04 #@! TO.N,Net-(Q1-Pad2)*
X142113000Y-107442000D02*
X137896600Y-107442000D01*
X142138400Y-107467400D02*
X142113000Y-107442000D01*
G04 #@! TO.N,/BOOT*
X145629489Y-104100489D02*
X144780000Y-103251000D01*
X143129000Y-103886000D02*
X143129000Y-104223141D01*
X145629489Y-106203903D02*
X145629489Y-104100489D01*
X143764000Y-103251000D02*
X143129000Y-103886000D01*
X144780000Y-103251000D02*
X143764000Y-103251000D01*
X143129000Y-104013000D02*
X143129000Y-104223141D01*
X145663780Y-106238194D02*
X145629489Y-106203903D01*
G04 #@! TD*
G04 #@! TA.AperFunction,Conductor*
G04 #@! TO.N,/+5Vin*
G36*
X110099531Y-111983202D02*
G01*
X110120505Y-112000105D01*
X111418295Y-113297895D01*
X111452321Y-113360207D01*
X111455200Y-113386990D01*
X111455200Y-116764800D01*
X111435198Y-116832921D01*
X111381542Y-116879414D01*
X111329200Y-116890800D01*
X95020400Y-116890800D01*
X94952279Y-116870798D01*
X94905786Y-116817142D01*
X94894400Y-116764800D01*
X94894400Y-112089200D01*
X94914402Y-112021079D01*
X94968058Y-111974586D01*
X95020400Y-111963200D01*
X110031410Y-111963200D01*
X110099531Y-111983202D01*
G37*
G04 #@! TD.AperFunction*
G04 #@! TD*
G04 #@! TA.AperFunction,Conductor*
G04 #@! TO.N,+3V3*
G36*
X117321345Y-91832285D02*
G01*
X117390612Y-91841404D01*
X117398800Y-91842482D01*
X117406988Y-91841404D01*
X117476255Y-91832285D01*
X117492701Y-91831207D01*
X118189162Y-91831207D01*
X118257283Y-91851209D01*
X118303776Y-91904865D01*
X118315162Y-91957207D01*
X118315162Y-95566007D01*
X118295160Y-95634128D01*
X118241504Y-95680621D01*
X118189162Y-95692007D01*
X116917162Y-95692007D01*
X116849041Y-95672005D01*
X116802548Y-95618349D01*
X116791162Y-95566007D01*
X116791162Y-91957207D01*
X116811164Y-91889086D01*
X116864820Y-91842593D01*
X116917162Y-91831207D01*
X117304899Y-91831207D01*
X117321345Y-91832285D01*
G37*
G04 #@! TD.AperFunction*
G04 #@! TD*
G04 #@! TA.AperFunction,Conductor*
G04 #@! TO.N,GND*
G36*
X126307121Y-86720002D02*
G01*
X126353614Y-86773658D01*
X126365000Y-86826000D01*
X126365000Y-92252800D01*
X147218400Y-92252800D01*
X147364959Y-91875538D01*
X147408271Y-91819284D01*
X147475121Y-91795376D01*
X147482464Y-91795165D01*
X148232773Y-91795559D01*
X148300883Y-91815597D01*
X148345405Y-91865210D01*
X148539200Y-92252800D01*
X165974453Y-92252800D01*
X166042574Y-92272802D01*
X166084383Y-92319660D01*
X166085182Y-92319192D01*
X166220875Y-92550938D01*
X166223728Y-92554505D01*
X166335225Y-92693925D01*
X166388601Y-92760669D01*
X166584846Y-92943991D01*
X166677039Y-93007948D01*
X166801746Y-93094461D01*
X166801751Y-93094464D01*
X166805499Y-93097064D01*
X166809584Y-93099096D01*
X166809587Y-93099098D01*
X166925719Y-93156872D01*
X167045938Y-93216680D01*
X167050272Y-93218101D01*
X167050275Y-93218102D01*
X167296793Y-93298915D01*
X167296798Y-93298916D01*
X167301126Y-93300335D01*
X167305617Y-93301115D01*
X167305618Y-93301115D01*
X167561936Y-93345620D01*
X167561944Y-93345621D01*
X167565717Y-93346276D01*
X167569554Y-93346467D01*
X167648996Y-93350422D01*
X167649004Y-93350422D01*
X167650567Y-93350500D01*
X167818223Y-93350500D01*
X167820491Y-93350335D01*
X167820503Y-93350335D01*
X167950823Y-93340879D01*
X168017846Y-93336016D01*
X168022301Y-93335032D01*
X168022304Y-93335032D01*
X168275620Y-93279105D01*
X168275624Y-93279104D01*
X168280080Y-93278120D01*
X168447617Y-93214646D01*
X168526941Y-93184593D01*
X168526944Y-93184592D01*
X168531211Y-93182975D01*
X168765976Y-93052574D01*
X168908254Y-92943991D01*
X168975833Y-92892417D01*
X168975837Y-92892413D01*
X168979458Y-92889650D01*
X169167185Y-92697614D01*
X169325225Y-92480491D01*
X169409595Y-92320130D01*
X169459012Y-92269160D01*
X169521101Y-92252800D01*
X172424000Y-92252800D01*
X172492121Y-92272802D01*
X172538614Y-92326458D01*
X172550000Y-92378800D01*
X172550000Y-130674000D01*
X172529998Y-130742121D01*
X172476342Y-130788614D01*
X172424000Y-130800000D01*
X81576000Y-130800000D01*
X81507879Y-130779998D01*
X81461386Y-130726342D01*
X81450000Y-130674000D01*
X81450000Y-128000000D01*
X95644341Y-128000000D01*
X95664937Y-128235408D01*
X95726097Y-128463663D01*
X95825965Y-128677829D01*
X95961505Y-128871401D01*
X96128599Y-129038495D01*
X96133107Y-129041652D01*
X96133110Y-129041654D01*
X96317661Y-129170878D01*
X96322170Y-129174035D01*
X96327152Y-129176358D01*
X96327157Y-129176361D01*
X96531355Y-129271580D01*
X96536337Y-129273903D01*
X96541645Y-129275325D01*
X96541647Y-129275326D01*
X96759277Y-129333639D01*
X96764592Y-129335063D01*
X97000000Y-129355659D01*
X97235408Y-129335063D01*
X97240723Y-129333639D01*
X97458353Y-129275326D01*
X97458355Y-129275325D01*
X97463663Y-129273903D01*
X97468645Y-129271580D01*
X97672843Y-129176361D01*
X97672848Y-129176358D01*
X97677830Y-129174035D01*
X97682339Y-129170878D01*
X97866890Y-129041654D01*
X97866893Y-129041652D01*
X97871401Y-129038495D01*
X98038495Y-128871401D01*
X98174035Y-128677829D01*
X98273903Y-128463663D01*
X98335063Y-128235408D01*
X98355659Y-128000000D01*
X100644341Y-128000000D01*
X100664937Y-128235408D01*
X100726097Y-128463663D01*
X100825965Y-128677829D01*
X100961505Y-128871401D01*
X101128599Y-129038495D01*
X101133107Y-129041652D01*
X101133110Y-129041654D01*
X101317661Y-129170878D01*
X101322170Y-129174035D01*
X101327152Y-129176358D01*
X101327157Y-129176361D01*
X101531355Y-129271580D01*
X101536337Y-129273903D01*
X101541645Y-129275325D01*
X101541647Y-129275326D01*
X101759277Y-129333639D01*
X101764592Y-129335063D01*
X102000000Y-129355659D01*
X102235408Y-129335063D01*
X102240723Y-129333639D01*
X102458353Y-129275326D01*
X102458355Y-129275325D01*
X102463663Y-129273903D01*
X102468645Y-129271580D01*
X102672843Y-129176361D01*
X102672848Y-129176358D01*
X102677830Y-129174035D01*
X102682339Y-129170878D01*
X102866890Y-129041654D01*
X102866893Y-129041652D01*
X102871401Y-129038495D01*
X103038495Y-128871401D01*
X103174035Y-128677829D01*
X103273903Y-128463663D01*
X103335063Y-128235408D01*
X103355659Y-128000000D01*
X105644341Y-128000000D01*
X105664937Y-128235408D01*
X105726097Y-128463663D01*
X105825965Y-128677829D01*
X105961505Y-128871401D01*
X106128599Y-129038495D01*
X106133107Y-129041652D01*
X106133110Y-129041654D01*
X106317661Y-129170878D01*
X106322170Y-129174035D01*
X106327152Y-129176358D01*
X106327157Y-129176361D01*
X106531355Y-129271580D01*
X106536337Y-129273903D01*
X106541645Y-129275325D01*
X106541647Y-129275326D01*
X106759277Y-129333639D01*
X106764592Y-129335063D01*
X107000000Y-129355659D01*
X107235408Y-129335063D01*
X107240723Y-129333639D01*
X107458353Y-129275326D01*
X107458355Y-129275325D01*
X107463663Y-129273903D01*
X107468645Y-129271580D01*
X107672843Y-129176361D01*
X107672848Y-129176358D01*
X107677830Y-129174035D01*
X107682339Y-129170878D01*
X107866890Y-129041654D01*
X107866893Y-129041652D01*
X107871401Y-129038495D01*
X108038495Y-128871401D01*
X108174035Y-128677829D01*
X108273903Y-128463663D01*
X108335063Y-128235408D01*
X108355659Y-128000000D01*
X120644341Y-128000000D01*
X120664937Y-128235408D01*
X120726097Y-128463663D01*
X120825965Y-128677829D01*
X120961505Y-128871401D01*
X121128599Y-129038495D01*
X121133107Y-129041652D01*
X121133110Y-129041654D01*
X121317661Y-129170878D01*
X121322170Y-129174035D01*
X121327152Y-129176358D01*
X121327157Y-129176361D01*
X121531355Y-129271580D01*
X121536337Y-129273903D01*
X121541645Y-129275325D01*
X121541647Y-129275326D01*
X121759277Y-129333639D01*
X121764592Y-129335063D01*
X122000000Y-129355659D01*
X122235408Y-129335063D01*
X122240723Y-129333639D01*
X122458353Y-129275326D01*
X122458355Y-129275325D01*
X122463663Y-129273903D01*
X122468645Y-129271580D01*
X122672843Y-129176361D01*
X122672848Y-129176358D01*
X122677830Y-129174035D01*
X122682339Y-129170878D01*
X122866890Y-129041654D01*
X122866893Y-129041652D01*
X122871401Y-129038495D01*
X123038495Y-128871401D01*
X123174035Y-128677829D01*
X123273903Y-128463663D01*
X123335063Y-128235408D01*
X123355659Y-128000000D01*
X125644341Y-128000000D01*
X125664937Y-128235408D01*
X125726097Y-128463663D01*
X125825965Y-128677829D01*
X125961505Y-128871401D01*
X126128599Y-129038495D01*
X126133107Y-129041652D01*
X126133110Y-129041654D01*
X126317661Y-129170878D01*
X126322170Y-129174035D01*
X126327152Y-129176358D01*
X126327157Y-129176361D01*
X126531355Y-129271580D01*
X126536337Y-129273903D01*
X126541645Y-129275325D01*
X126541647Y-129275326D01*
X126759277Y-129333639D01*
X126764592Y-129335063D01*
X127000000Y-129355659D01*
X127235408Y-129335063D01*
X127240723Y-129333639D01*
X127458353Y-129275326D01*
X127458355Y-129275325D01*
X127463663Y-129273903D01*
X127468645Y-129271580D01*
X127672843Y-129176361D01*
X127672848Y-129176358D01*
X127677830Y-129174035D01*
X127682339Y-129170878D01*
X127866890Y-129041654D01*
X127866893Y-129041652D01*
X127871401Y-129038495D01*
X128038495Y-128871401D01*
X128174035Y-128677829D01*
X128273903Y-128463663D01*
X128335063Y-128235408D01*
X128355659Y-128000000D01*
X130644341Y-128000000D01*
X130664937Y-128235408D01*
X130726097Y-128463663D01*
X130825965Y-128677829D01*
X130961505Y-128871401D01*
X131128599Y-129038495D01*
X131133107Y-129041652D01*
X131133110Y-129041654D01*
X131317661Y-129170878D01*
X131322170Y-129174035D01*
X131327152Y-129176358D01*
X131327157Y-129176361D01*
X131531355Y-129271580D01*
X131536337Y-129273903D01*
X131541645Y-129275325D01*
X131541647Y-129275326D01*
X131759277Y-129333639D01*
X131764592Y-129335063D01*
X132000000Y-129355659D01*
X132235408Y-129335063D01*
X132240723Y-129333639D01*
X132458353Y-129275326D01*
X132458355Y-129275325D01*
X132463663Y-129273903D01*
X132468645Y-129271580D01*
X132672843Y-129176361D01*
X132672848Y-129176358D01*
X132677830Y-129174035D01*
X132682339Y-129170878D01*
X132866890Y-129041654D01*
X132866893Y-129041652D01*
X132871401Y-129038495D01*
X133038495Y-128871401D01*
X133174035Y-128677829D01*
X133273903Y-128463663D01*
X133335063Y-128235408D01*
X133355659Y-128000000D01*
X145644341Y-128000000D01*
X145664937Y-128235408D01*
X145726097Y-128463663D01*
X145825965Y-128677829D01*
X145961505Y-128871401D01*
X146128599Y-129038495D01*
X146133107Y-129041652D01*
X146133110Y-129041654D01*
X146317661Y-129170878D01*
X146322170Y-129174035D01*
X146327152Y-129176358D01*
X146327157Y-129176361D01*
X146531355Y-129271580D01*
X146536337Y-129273903D01*
X146541645Y-129275325D01*
X146541647Y-129275326D01*
X146759277Y-129333639D01*
X146764592Y-129335063D01*
X147000000Y-129355659D01*
X147235408Y-129335063D01*
X147240723Y-129333639D01*
X147458353Y-129275326D01*
X147458355Y-129275325D01*
X147463663Y-129273903D01*
X147468645Y-129271580D01*
X147672843Y-129176361D01*
X147672848Y-129176358D01*
X147677830Y-129174035D01*
X147682339Y-129170878D01*
X147866890Y-129041654D01*
X147866893Y-129041652D01*
X147871401Y-129038495D01*
X148038495Y-128871401D01*
X148174035Y-128677829D01*
X148273903Y-128463663D01*
X148335063Y-128235408D01*
X148355659Y-128000000D01*
X150644341Y-128000000D01*
X150664937Y-128235408D01*
X150726097Y-128463663D01*
X150825965Y-128677829D01*
X150961505Y-128871401D01*
X151128599Y-129038495D01*
X151133107Y-129041652D01*
X151133110Y-129041654D01*
X151317661Y-129170878D01*
X151322170Y-129174035D01*
X151327152Y-129176358D01*
X151327157Y-129176361D01*
X151531355Y-129271580D01*
X151536337Y-129273903D01*
X151541645Y-129275325D01*
X151541647Y-129275326D01*
X151759277Y-129333639D01*
X151764592Y-129335063D01*
X152000000Y-129355659D01*
X152235408Y-129335063D01*
X152240723Y-129333639D01*
X152458353Y-129275326D01*
X152458355Y-129275325D01*
X152463663Y-129273903D01*
X152468645Y-129271580D01*
X152672843Y-129176361D01*
X152672848Y-129176358D01*
X152677830Y-129174035D01*
X152682339Y-129170878D01*
X152866890Y-129041654D01*
X152866893Y-129041652D01*
X152871401Y-129038495D01*
X153038495Y-128871401D01*
X153174035Y-128677829D01*
X153273903Y-128463663D01*
X153335063Y-128235408D01*
X153355659Y-128000000D01*
X155644341Y-128000000D01*
X155664937Y-128235408D01*
X155726097Y-128463663D01*
X155825965Y-128677829D01*
X155961505Y-128871401D01*
X156128599Y-129038495D01*
X156133107Y-129041652D01*
X156133110Y-129041654D01*
X156317661Y-129170878D01*
X156322170Y-129174035D01*
X156327152Y-129176358D01*
X156327157Y-129176361D01*
X156531355Y-129271580D01*
X156536337Y-129273903D01*
X156541645Y-129275325D01*
X156541647Y-129275326D01*
X156759277Y-129333639D01*
X156764592Y-129335063D01*
X157000000Y-129355659D01*
X157235408Y-129335063D01*
X157240723Y-129333639D01*
X157458353Y-129275326D01*
X157458355Y-129275325D01*
X157463663Y-129273903D01*
X157468645Y-129271580D01*
X157672843Y-129176361D01*
X157672848Y-129176358D01*
X157677830Y-129174035D01*
X157682339Y-129170878D01*
X157866890Y-129041654D01*
X157866893Y-129041652D01*
X157871401Y-129038495D01*
X158038495Y-128871401D01*
X158174035Y-128677829D01*
X158273903Y-128463663D01*
X158335063Y-128235408D01*
X158355659Y-128000000D01*
X158335063Y-127764592D01*
X158273903Y-127536337D01*
X158230841Y-127443991D01*
X158176358Y-127327152D01*
X158176356Y-127327149D01*
X158174035Y-127322171D01*
X158038495Y-127128599D01*
X157871401Y-126961505D01*
X157866893Y-126958348D01*
X157866890Y-126958346D01*
X157682339Y-126829122D01*
X157682336Y-126829120D01*
X157677830Y-126825965D01*
X157672848Y-126823642D01*
X157672843Y-126823639D01*
X157468645Y-126728420D01*
X157468644Y-126728419D01*
X157463663Y-126726097D01*
X157458355Y-126724675D01*
X157458353Y-126724674D01*
X157240723Y-126666361D01*
X157240722Y-126666361D01*
X157235408Y-126664937D01*
X157000000Y-126644341D01*
X156764592Y-126664937D01*
X156759278Y-126666361D01*
X156759277Y-126666361D01*
X156541647Y-126724674D01*
X156541645Y-126724675D01*
X156536337Y-126726097D01*
X156531357Y-126728419D01*
X156531355Y-126728420D01*
X156327152Y-126823642D01*
X156327149Y-126823644D01*
X156322171Y-126825965D01*
X156128599Y-126961505D01*
X155961505Y-127128599D01*
X155825965Y-127322171D01*
X155823644Y-127327149D01*
X155823642Y-127327152D01*
X155769159Y-127443991D01*
X155726097Y-127536337D01*
X155664937Y-127764592D01*
X155644341Y-128000000D01*
X153355659Y-128000000D01*
X153335063Y-127764592D01*
X153273903Y-127536337D01*
X153230841Y-127443991D01*
X153176358Y-127327152D01*
X153176356Y-127327149D01*
X153174035Y-127322171D01*
X153038495Y-127128599D01*
X152871401Y-126961505D01*
X152866893Y-126958348D01*
X152866890Y-126958346D01*
X152682339Y-126829122D01*
X152682336Y-126829120D01*
X152677830Y-126825965D01*
X152672848Y-126823642D01*
X152672843Y-126823639D01*
X152468645Y-126728420D01*
X152468644Y-126728419D01*
X152463663Y-126726097D01*
X152458355Y-126724675D01*
X152458353Y-126724674D01*
X152240723Y-126666361D01*
X152240722Y-126666361D01*
X152235408Y-126664937D01*
X152000000Y-126644341D01*
X151764592Y-126664937D01*
X151759278Y-126666361D01*
X151759277Y-126666361D01*
X151541647Y-126724674D01*
X151541645Y-126724675D01*
X151536337Y-126726097D01*
X151531357Y-126728419D01*
X151531355Y-126728420D01*
X151327152Y-126823642D01*
X151327149Y-126823644D01*
X151322171Y-126825965D01*
X151128599Y-126961505D01*
X150961505Y-127128599D01*
X150825965Y-127322171D01*
X150823644Y-127327149D01*
X150823642Y-127327152D01*
X150769159Y-127443991D01*
X150726097Y-127536337D01*
X150664937Y-127764592D01*
X150644341Y-128000000D01*
X148355659Y-128000000D01*
X148335063Y-127764592D01*
X148273903Y-127536337D01*
X148230841Y-127443991D01*
X148176358Y-127327152D01*
X148176356Y-127327149D01*
X148174035Y-127322171D01*
X148038495Y-127128599D01*
X147871401Y-126961505D01*
X147866893Y-126958348D01*
X147866890Y-126958346D01*
X147682339Y-126829122D01*
X147682336Y-126829120D01*
X147677830Y-126825965D01*
X147672848Y-126823642D01*
X147672843Y-126823639D01*
X147468645Y-126728420D01*
X147468644Y-126728419D01*
X147463663Y-126726097D01*
X147458355Y-126724675D01*
X147458353Y-126724674D01*
X147240723Y-126666361D01*
X147240722Y-126666361D01*
X147235408Y-126664937D01*
X147000000Y-126644341D01*
X146764592Y-126664937D01*
X146759278Y-126666361D01*
X146759277Y-126666361D01*
X146541647Y-126724674D01*
X146541645Y-126724675D01*
X146536337Y-126726097D01*
X146531357Y-126728419D01*
X146531355Y-126728420D01*
X146327152Y-126823642D01*
X146327149Y-126823644D01*
X146322171Y-126825965D01*
X146128599Y-126961505D01*
X145961505Y-127128599D01*
X145825965Y-127322171D01*
X145823644Y-127327149D01*
X145823642Y-127327152D01*
X145769159Y-127443991D01*
X145726097Y-127536337D01*
X145664937Y-127764592D01*
X145644341Y-128000000D01*
X133355659Y-128000000D01*
X133335063Y-127764592D01*
X133273903Y-127536337D01*
X133230841Y-127443991D01*
X133176358Y-127327152D01*
X133176356Y-127327149D01*
X133174035Y-127322171D01*
X133038495Y-127128599D01*
X132871401Y-126961505D01*
X132866893Y-126958348D01*
X132866890Y-126958346D01*
X132682339Y-126829122D01*
X132682336Y-126829120D01*
X132677830Y-126825965D01*
X132672848Y-126823642D01*
X132672843Y-126823639D01*
X132468645Y-126728420D01*
X132468644Y-126728419D01*
X132463663Y-126726097D01*
X132458355Y-126724675D01*
X132458353Y-126724674D01*
X132240723Y-126666361D01*
X132240722Y-126666361D01*
X132235408Y-126664937D01*
X132000000Y-126644341D01*
X131764592Y-126664937D01*
X131759278Y-126666361D01*
X131759277Y-126666361D01*
X131541647Y-126724674D01*
X131541645Y-126724675D01*
X131536337Y-126726097D01*
X131531357Y-126728419D01*
X131531355Y-126728420D01*
X131327152Y-126823642D01*
X131327149Y-126823644D01*
X131322171Y-126825965D01*
X131128599Y-126961505D01*
X130961505Y-127128599D01*
X130825965Y-127322171D01*
X130823644Y-127327149D01*
X130823642Y-127327152D01*
X130769159Y-127443991D01*
X130726097Y-127536337D01*
X130664937Y-127764592D01*
X130644341Y-128000000D01*
X128355659Y-128000000D01*
X128335063Y-127764592D01*
X128273903Y-127536337D01*
X128230841Y-127443991D01*
X128176358Y-127327152D01*
X128176356Y-127327149D01*
X128174035Y-127322171D01*
X128038495Y-127128599D01*
X127871401Y-126961505D01*
X127866893Y-126958348D01*
X127866890Y-126958346D01*
X127682339Y-126829122D01*
X127682336Y-126829120D01*
X127677830Y-126825965D01*
X127672848Y-126823642D01*
X127672843Y-126823639D01*
X127468645Y-126728420D01*
X127468644Y-126728419D01*
X127463663Y-126726097D01*
X127458355Y-126724675D01*
X127458353Y-126724674D01*
X127240723Y-126666361D01*
X127240722Y-126666361D01*
X127235408Y-126664937D01*
X127000000Y-126644341D01*
X126764592Y-126664937D01*
X126759278Y-126666361D01*
X126759277Y-126666361D01*
X126541647Y-126724674D01*
X126541645Y-126724675D01*
X126536337Y-126726097D01*
X126531357Y-126728419D01*
X126531355Y-126728420D01*
X126327152Y-126823642D01*
X126327149Y-126823644D01*
X126322171Y-126825965D01*
X126128599Y-126961505D01*
X125961505Y-127128599D01*
X125825965Y-127322171D01*
X125823644Y-127327149D01*
X125823642Y-127327152D01*
X125769159Y-127443991D01*
X125726097Y-127536337D01*
X125664937Y-127764592D01*
X125644341Y-128000000D01*
X123355659Y-128000000D01*
X123335063Y-127764592D01*
X123273903Y-127536337D01*
X123230841Y-127443991D01*
X123176358Y-127327152D01*
X123176356Y-127327149D01*
X123174035Y-127322171D01*
X123038495Y-127128599D01*
X122871401Y-126961505D01*
X122866893Y-126958348D01*
X122866890Y-126958346D01*
X122682339Y-126829122D01*
X122682336Y-126829120D01*
X122677830Y-126825965D01*
X122672848Y-126823642D01*
X122672843Y-126823639D01*
X122468645Y-126728420D01*
X122468644Y-126728419D01*
X122463663Y-126726097D01*
X122458355Y-126724675D01*
X122458353Y-126724674D01*
X122240723Y-126666361D01*
X122240722Y-126666361D01*
X122235408Y-126664937D01*
X122000000Y-126644341D01*
X121764592Y-126664937D01*
X121759278Y-126666361D01*
X121759277Y-126666361D01*
X121541647Y-126724674D01*
X121541645Y-126724675D01*
X121536337Y-126726097D01*
X121531357Y-126728419D01*
X121531355Y-126728420D01*
X121327152Y-126823642D01*
X121327149Y-126823644D01*
X121322171Y-126825965D01*
X121128599Y-126961505D01*
X120961505Y-127128599D01*
X120825965Y-127322171D01*
X120823644Y-127327149D01*
X120823642Y-127327152D01*
X120769159Y-127443991D01*
X120726097Y-127536337D01*
X120664937Y-127764592D01*
X120644341Y-128000000D01*
X108355659Y-128000000D01*
X108335063Y-127764592D01*
X108273903Y-127536337D01*
X108230841Y-127443991D01*
X108176358Y-127327152D01*
X108176356Y-127327149D01*
X108174035Y-127322171D01*
X108038495Y-127128599D01*
X107871401Y-126961505D01*
X107866893Y-126958348D01*
X107866890Y-126958346D01*
X107682339Y-126829122D01*
X107682336Y-126829120D01*
X107677830Y-126825965D01*
X107672848Y-126823642D01*
X107672843Y-126823639D01*
X107468645Y-126728420D01*
X107468644Y-126728419D01*
X107463663Y-126726097D01*
X107458355Y-126724675D01*
X107458353Y-126724674D01*
X107240723Y-126666361D01*
X107240722Y-126666361D01*
X107235408Y-126664937D01*
X107000000Y-126644341D01*
X106764592Y-126664937D01*
X106759278Y-126666361D01*
X106759277Y-126666361D01*
X106541647Y-126724674D01*
X106541645Y-126724675D01*
X106536337Y-126726097D01*
X106531357Y-126728419D01*
X106531355Y-126728420D01*
X106327152Y-126823642D01*
X106327149Y-126823644D01*
X106322171Y-126825965D01*
X106128599Y-126961505D01*
X105961505Y-127128599D01*
X105825965Y-127322171D01*
X105823644Y-127327149D01*
X105823642Y-127327152D01*
X105769159Y-127443991D01*
X105726097Y-127536337D01*
X105664937Y-127764592D01*
X105644341Y-128000000D01*
X103355659Y-128000000D01*
X103335063Y-127764592D01*
X103273903Y-127536337D01*
X103230841Y-127443991D01*
X103176358Y-127327152D01*
X103176356Y-127327149D01*
X103174035Y-127322171D01*
X103038495Y-127128599D01*
X102871401Y-126961505D01*
X102866893Y-126958348D01*
X102866890Y-126958346D01*
X102682339Y-126829122D01*
X102682336Y-126829120D01*
X102677830Y-126825965D01*
X102672848Y-126823642D01*
X102672843Y-126823639D01*
X102468645Y-126728420D01*
X102468644Y-126728419D01*
X102463663Y-126726097D01*
X102458355Y-126724675D01*
X102458353Y-126724674D01*
X102240723Y-126666361D01*
X102240722Y-126666361D01*
X102235408Y-126664937D01*
X102000000Y-126644341D01*
X101764592Y-126664937D01*
X101759278Y-126666361D01*
X101759277Y-126666361D01*
X101541647Y-126724674D01*
X101541645Y-126724675D01*
X101536337Y-126726097D01*
X101531357Y-126728419D01*
X101531355Y-126728420D01*
X101327152Y-126823642D01*
X101327149Y-126823644D01*
X101322171Y-126825965D01*
X101128599Y-126961505D01*
X100961505Y-127128599D01*
X100825965Y-127322171D01*
X100823644Y-127327149D01*
X100823642Y-127327152D01*
X100769159Y-127443991D01*
X100726097Y-127536337D01*
X100664937Y-127764592D01*
X100644341Y-128000000D01*
X98355659Y-128000000D01*
X98335063Y-127764592D01*
X98273903Y-127536337D01*
X98230841Y-127443991D01*
X98176358Y-127327152D01*
X98176356Y-127327149D01*
X98174035Y-127322171D01*
X98038495Y-127128599D01*
X97871401Y-126961505D01*
X97866893Y-126958348D01*
X97866890Y-126958346D01*
X97682339Y-126829122D01*
X97682336Y-126829120D01*
X97677830Y-126825965D01*
X97672848Y-126823642D01*
X97672843Y-126823639D01*
X97468645Y-126728420D01*
X97468644Y-126728419D01*
X97463663Y-126726097D01*
X97458355Y-126724675D01*
X97458353Y-126724674D01*
X97240723Y-126666361D01*
X97240722Y-126666361D01*
X97235408Y-126664937D01*
X97000000Y-126644341D01*
X96764592Y-126664937D01*
X96759278Y-126666361D01*
X96759277Y-126666361D01*
X96541647Y-126724674D01*
X96541645Y-126724675D01*
X96536337Y-126726097D01*
X96531357Y-126728419D01*
X96531355Y-126728420D01*
X96327152Y-126823642D01*
X96327149Y-126823644D01*
X96322171Y-126825965D01*
X96128599Y-126961505D01*
X95961505Y-127128599D01*
X95825965Y-127322171D01*
X95823644Y-127327149D01*
X95823642Y-127327152D01*
X95769159Y-127443991D01*
X95726097Y-127536337D01*
X95664937Y-127764592D01*
X95644341Y-128000000D01*
X81450000Y-128000000D01*
X81450000Y-126042095D01*
X84395028Y-126042095D01*
X84420534Y-126309431D01*
X84484364Y-126570285D01*
X84486076Y-126574511D01*
X84486077Y-126574515D01*
X84548415Y-126728420D01*
X84585182Y-126819192D01*
X84720875Y-127050938D01*
X84831789Y-127189629D01*
X84835225Y-127193925D01*
X84888601Y-127260669D01*
X85084846Y-127443991D01*
X85177039Y-127507948D01*
X85301746Y-127594461D01*
X85301751Y-127594464D01*
X85305499Y-127597064D01*
X85309584Y-127599096D01*
X85309587Y-127599098D01*
X85425718Y-127656872D01*
X85545938Y-127716680D01*
X85550272Y-127718101D01*
X85550275Y-127718102D01*
X85796793Y-127798915D01*
X85796798Y-127798916D01*
X85801126Y-127800335D01*
X85805617Y-127801115D01*
X85805618Y-127801115D01*
X86061936Y-127845620D01*
X86061944Y-127845621D01*
X86065717Y-127846276D01*
X86069554Y-127846467D01*
X86148996Y-127850422D01*
X86149004Y-127850422D01*
X86150567Y-127850500D01*
X86318223Y-127850500D01*
X86320491Y-127850335D01*
X86320503Y-127850335D01*
X86450823Y-127840879D01*
X86517846Y-127836016D01*
X86522301Y-127835032D01*
X86522304Y-127835032D01*
X86775620Y-127779105D01*
X86775624Y-127779104D01*
X86780080Y-127778120D01*
X86947617Y-127714646D01*
X87026941Y-127684593D01*
X87026944Y-127684592D01*
X87031211Y-127682975D01*
X87265976Y-127552574D01*
X87408254Y-127443991D01*
X87475833Y-127392417D01*
X87475837Y-127392413D01*
X87479458Y-127389650D01*
X87667185Y-127197614D01*
X87825225Y-126980491D01*
X87907747Y-126823642D01*
X87948140Y-126746868D01*
X87948143Y-126746862D01*
X87950265Y-126742828D01*
X87956174Y-126726097D01*
X88038165Y-126493916D01*
X88038165Y-126493915D01*
X88039688Y-126489603D01*
X88091620Y-126226122D01*
X88091847Y-126221566D01*
X88100781Y-126042095D01*
X165895028Y-126042095D01*
X165920534Y-126309431D01*
X165984364Y-126570285D01*
X165986076Y-126574511D01*
X165986077Y-126574515D01*
X166048415Y-126728420D01*
X166085182Y-126819192D01*
X166220875Y-127050938D01*
X166331789Y-127189629D01*
X166335225Y-127193925D01*
X166388601Y-127260669D01*
X166584846Y-127443991D01*
X166677039Y-127507948D01*
X166801746Y-127594461D01*
X166801751Y-127594464D01*
X166805499Y-127597064D01*
X166809584Y-127599096D01*
X166809587Y-127599098D01*
X166925718Y-127656872D01*
X167045938Y-127716680D01*
X167050272Y-127718101D01*
X167050275Y-127718102D01*
X167296793Y-127798915D01*
X167296798Y-127798916D01*
X167301126Y-127800335D01*
X167305617Y-127801115D01*
X167305618Y-127801115D01*
X167561936Y-127845620D01*
X167561944Y-127845621D01*
X167565717Y-127846276D01*
X167569554Y-127846467D01*
X167648996Y-127850422D01*
X167649004Y-127850422D01*
X167650567Y-127850500D01*
X167818223Y-127850500D01*
X167820491Y-127850335D01*
X167820503Y-127850335D01*
X167950823Y-127840879D01*
X168017846Y-127836016D01*
X168022301Y-127835032D01*
X168022304Y-127835032D01*
X168275620Y-127779105D01*
X168275624Y-127779104D01*
X168280080Y-127778120D01*
X168447617Y-127714646D01*
X168526941Y-127684593D01*
X168526944Y-127684592D01*
X168531211Y-127682975D01*
X168765976Y-127552574D01*
X168908254Y-127443991D01*
X168975833Y-127392417D01*
X168975837Y-127392413D01*
X168979458Y-127389650D01*
X169167185Y-127197614D01*
X169325225Y-126980491D01*
X169407747Y-126823642D01*
X169448140Y-126746868D01*
X169448143Y-126746862D01*
X169450265Y-126742828D01*
X169456174Y-126726097D01*
X169538165Y-126493916D01*
X169538165Y-126493915D01*
X169539688Y-126489603D01*
X169591620Y-126226122D01*
X169591847Y-126221566D01*
X169604745Y-125962474D01*
X169604745Y-125962468D01*
X169604972Y-125957905D01*
X169579466Y-125690569D01*
X169515636Y-125429715D01*
X169414818Y-125180808D01*
X169279125Y-124949062D01*
X169168211Y-124810371D01*
X169114251Y-124742897D01*
X169114250Y-124742895D01*
X169111399Y-124739331D01*
X168915154Y-124556009D01*
X168755436Y-124445208D01*
X168698254Y-124405539D01*
X168698249Y-124405536D01*
X168694501Y-124402936D01*
X168690416Y-124400904D01*
X168690413Y-124400902D01*
X168518560Y-124315407D01*
X168454062Y-124283320D01*
X168449728Y-124281899D01*
X168449725Y-124281898D01*
X168203207Y-124201085D01*
X168203202Y-124201084D01*
X168198874Y-124199665D01*
X168194382Y-124198885D01*
X167938064Y-124154380D01*
X167938056Y-124154379D01*
X167934283Y-124153724D01*
X167925622Y-124153293D01*
X167851004Y-124149578D01*
X167850996Y-124149578D01*
X167849433Y-124149500D01*
X167681777Y-124149500D01*
X167679509Y-124149665D01*
X167679497Y-124149665D01*
X167549177Y-124159121D01*
X167482154Y-124163984D01*
X167477699Y-124164968D01*
X167477696Y-124164968D01*
X167224380Y-124220895D01*
X167224376Y-124220896D01*
X167219920Y-124221880D01*
X167094354Y-124269453D01*
X166973059Y-124315407D01*
X166973056Y-124315408D01*
X166968789Y-124317025D01*
X166734024Y-124447426D01*
X166730392Y-124450198D01*
X166524167Y-124607583D01*
X166524163Y-124607587D01*
X166520542Y-124610350D01*
X166332815Y-124802386D01*
X166174775Y-125019509D01*
X166172651Y-125023547D01*
X166051860Y-125253132D01*
X166051857Y-125253138D01*
X166049735Y-125257172D01*
X166048215Y-125261477D01*
X166048213Y-125261481D01*
X165988804Y-125429715D01*
X165960312Y-125510397D01*
X165908380Y-125773878D01*
X165908153Y-125778431D01*
X165908153Y-125778434D01*
X165898992Y-125962474D01*
X165895028Y-126042095D01*
X88100781Y-126042095D01*
X88104745Y-125962474D01*
X88104745Y-125962468D01*
X88104972Y-125957905D01*
X88079466Y-125690569D01*
X88015636Y-125429715D01*
X87914818Y-125180808D01*
X87779125Y-124949062D01*
X87668211Y-124810371D01*
X87614251Y-124742897D01*
X87614250Y-124742895D01*
X87611399Y-124739331D01*
X87415154Y-124556009D01*
X87255436Y-124445208D01*
X87198254Y-124405539D01*
X87198249Y-124405536D01*
X87194501Y-124402936D01*
X87190416Y-124400904D01*
X87190413Y-124400902D01*
X87018560Y-124315407D01*
X86954062Y-124283320D01*
X86949728Y-124281899D01*
X86949725Y-124281898D01*
X86703207Y-124201085D01*
X86703202Y-124201084D01*
X86698874Y-124199665D01*
X86694382Y-124198885D01*
X86438064Y-124154380D01*
X86438056Y-124154379D01*
X86434283Y-124153724D01*
X86425622Y-124153293D01*
X86351004Y-124149578D01*
X86350996Y-124149578D01*
X86349433Y-124149500D01*
X86181777Y-124149500D01*
X86179509Y-124149665D01*
X86179497Y-124149665D01*
X86049177Y-124159121D01*
X85982154Y-124163984D01*
X85977699Y-124164968D01*
X85977696Y-124164968D01*
X85724380Y-124220895D01*
X85724376Y-124220896D01*
X85719920Y-124221880D01*
X85594354Y-124269453D01*
X85473059Y-124315407D01*
X85473056Y-124315408D01*
X85468789Y-124317025D01*
X85234024Y-124447426D01*
X85230392Y-124450198D01*
X85024167Y-124607583D01*
X85024163Y-124607587D01*
X85020542Y-124610350D01*
X84832815Y-124802386D01*
X84674775Y-125019509D01*
X84672651Y-125023547D01*
X84551860Y-125253132D01*
X84551857Y-125253138D01*
X84549735Y-125257172D01*
X84548215Y-125261477D01*
X84548213Y-125261481D01*
X84488804Y-125429715D01*
X84460312Y-125510397D01*
X84408380Y-125773878D01*
X84408153Y-125778431D01*
X84408153Y-125778434D01*
X84398992Y-125962474D01*
X84395028Y-126042095D01*
X81450000Y-126042095D01*
X81450000Y-119176800D01*
X97844718Y-119176800D01*
X97865356Y-119333562D01*
X97925864Y-119479641D01*
X98022118Y-119605082D01*
X98147559Y-119701336D01*
X98293638Y-119761844D01*
X98450400Y-119782482D01*
X98458588Y-119781404D01*
X98598976Y-119762922D01*
X98598978Y-119762921D01*
X98607162Y-119761844D01*
X98614787Y-119758686D01*
X98622597Y-119756593D01*
X98655206Y-119752300D01*
X123391594Y-119752300D01*
X123424203Y-119756593D01*
X123432013Y-119758686D01*
X123439638Y-119761844D01*
X123447822Y-119762921D01*
X123447824Y-119762922D01*
X123588212Y-119781404D01*
X123596400Y-119782482D01*
X123604588Y-119781404D01*
X123744976Y-119762922D01*
X123744978Y-119762921D01*
X123753162Y-119761844D01*
X123760787Y-119758686D01*
X123768597Y-119756593D01*
X123801206Y-119752300D01*
X148689994Y-119752300D01*
X148722603Y-119756593D01*
X148730413Y-119758686D01*
X148738038Y-119761844D01*
X148746222Y-119762921D01*
X148746224Y-119762922D01*
X148886612Y-119781404D01*
X148894800Y-119782482D01*
X148902988Y-119781404D01*
X149043374Y-119762922D01*
X149051562Y-119761844D01*
X149197641Y-119701336D01*
X149323082Y-119605082D01*
X149419336Y-119479641D01*
X149422495Y-119472015D01*
X149426537Y-119465014D01*
X149446561Y-119438919D01*
X150844030Y-118041450D01*
X150856421Y-118030583D01*
X150873501Y-118017477D01*
X150880051Y-118012451D01*
X150903209Y-117982271D01*
X150903212Y-117982268D01*
X150972299Y-117892232D01*
X151030287Y-117752235D01*
X151050066Y-117602000D01*
X151046178Y-117572467D01*
X151045100Y-117556021D01*
X151045100Y-114793262D01*
X164293520Y-114793262D01*
X164310759Y-114998553D01*
X164367544Y-115196586D01*
X164370359Y-115202063D01*
X164370360Y-115202066D01*
X164391247Y-115242707D01*
X164461712Y-115379818D01*
X164589677Y-115541270D01*
X164746564Y-115674791D01*
X164926398Y-115775297D01*
X165021238Y-115806112D01*
X165116471Y-115837056D01*
X165116475Y-115837057D01*
X165122329Y-115838959D01*
X165326894Y-115863351D01*
X165333029Y-115862879D01*
X165333031Y-115862879D01*
X165389039Y-115858569D01*
X165532300Y-115847546D01*
X165538230Y-115845890D01*
X165538232Y-115845890D01*
X165724797Y-115793800D01*
X165724796Y-115793800D01*
X165730725Y-115792145D01*
X165736214Y-115789372D01*
X165736220Y-115789370D01*
X165909116Y-115702033D01*
X165914610Y-115699258D01*
X166076951Y-115572424D01*
X166211564Y-115416472D01*
X166232387Y-115379818D01*
X166310276Y-115242707D01*
X166313323Y-115237344D01*
X166378351Y-115041863D01*
X166404171Y-114837474D01*
X166404583Y-114808000D01*
X166384480Y-114602970D01*
X166324935Y-114405749D01*
X166228218Y-114223849D01*
X166154859Y-114133902D01*
X166101906Y-114068975D01*
X166101903Y-114068972D01*
X166098011Y-114064200D01*
X166080786Y-114049950D01*
X165944025Y-113936811D01*
X165944021Y-113936809D01*
X165939275Y-113932882D01*
X165758055Y-113834897D01*
X165561254Y-113773977D01*
X165555129Y-113773333D01*
X165555128Y-113773333D01*
X165362498Y-113753087D01*
X165362496Y-113753087D01*
X165356369Y-113752443D01*
X165269529Y-113760346D01*
X165157342Y-113770555D01*
X165157339Y-113770556D01*
X165151203Y-113771114D01*
X164953572Y-113829280D01*
X164771002Y-113924726D01*
X164766201Y-113928586D01*
X164766198Y-113928588D01*
X164755971Y-113936811D01*
X164610447Y-114053815D01*
X164478024Y-114211630D01*
X164475056Y-114217028D01*
X164475053Y-114217033D01*
X164468315Y-114229290D01*
X164378776Y-114392162D01*
X164316484Y-114588532D01*
X164315798Y-114594649D01*
X164315797Y-114594653D01*
X164294207Y-114787137D01*
X164293520Y-114793262D01*
X151045100Y-114793262D01*
X151045100Y-113345970D01*
X151065102Y-113277849D01*
X151082005Y-113256875D01*
X153043119Y-111295761D01*
X153069214Y-111275737D01*
X153076215Y-111271695D01*
X153083841Y-111268536D01*
X153209282Y-111172282D01*
X153305536Y-111046841D01*
X153308695Y-111039215D01*
X153312737Y-111032214D01*
X153332761Y-111006119D01*
X153739630Y-110599250D01*
X153752021Y-110588383D01*
X153769101Y-110575277D01*
X153775651Y-110570251D01*
X153798809Y-110540071D01*
X153798812Y-110540068D01*
X153867899Y-110450032D01*
X153915275Y-110335656D01*
X153925887Y-110310036D01*
X153940700Y-110197520D01*
X153945666Y-110159800D01*
X153941778Y-110130267D01*
X153940700Y-110113821D01*
X153940700Y-109713262D01*
X164293520Y-109713262D01*
X164310759Y-109918553D01*
X164367544Y-110116586D01*
X164370359Y-110122063D01*
X164370360Y-110122066D01*
X164392744Y-110165621D01*
X164461712Y-110299818D01*
X164589677Y-110461270D01*
X164594370Y-110465264D01*
X164594371Y-110465265D01*
X164739035Y-110588383D01*
X164746564Y-110594791D01*
X164926398Y-110695297D01*
X165021238Y-110726113D01*
X165116471Y-110757056D01*
X165116475Y-110757057D01*
X165122329Y-110758959D01*
X165326894Y-110783351D01*
X165333029Y-110782879D01*
X165333031Y-110782879D01*
X165389039Y-110778569D01*
X165532300Y-110767546D01*
X165538230Y-110765890D01*
X165538232Y-110765890D01*
X165724797Y-110713800D01*
X165724796Y-110713800D01*
X165730725Y-110712145D01*
X165736214Y-110709372D01*
X165736220Y-110709370D01*
X165909116Y-110622033D01*
X165914610Y-110619258D01*
X165947696Y-110593409D01*
X166072101Y-110496213D01*
X166076951Y-110492424D01*
X166113543Y-110450032D01*
X166207540Y-110341134D01*
X166207540Y-110341133D01*
X166211564Y-110336472D01*
X166226208Y-110310695D01*
X166290500Y-110197520D01*
X166313323Y-110157344D01*
X166378351Y-109961863D01*
X166404171Y-109757474D01*
X166404583Y-109728000D01*
X166384480Y-109522970D01*
X166324935Y-109325749D01*
X166228218Y-109143849D01*
X166154859Y-109053902D01*
X166101906Y-108988975D01*
X166101903Y-108988972D01*
X166098011Y-108984200D01*
X166080786Y-108969950D01*
X165944025Y-108856811D01*
X165944021Y-108856809D01*
X165939275Y-108852882D01*
X165758055Y-108754897D01*
X165561254Y-108693977D01*
X165555129Y-108693333D01*
X165555128Y-108693333D01*
X165362498Y-108673087D01*
X165362496Y-108673087D01*
X165356369Y-108672443D01*
X165269529Y-108680346D01*
X165157342Y-108690555D01*
X165157339Y-108690556D01*
X165151203Y-108691114D01*
X164953572Y-108749280D01*
X164771002Y-108844726D01*
X164766201Y-108848586D01*
X164766198Y-108848588D01*
X164755971Y-108856811D01*
X164610447Y-108973815D01*
X164478024Y-109131630D01*
X164475056Y-109137028D01*
X164475053Y-109137033D01*
X164468315Y-109149290D01*
X164378776Y-109312162D01*
X164316484Y-109508532D01*
X164315798Y-109514649D01*
X164315797Y-109514653D01*
X164294207Y-109707137D01*
X164293520Y-109713262D01*
X153940700Y-109713262D01*
X153940700Y-107291206D01*
X153944993Y-107258597D01*
X153947086Y-107250787D01*
X153950244Y-107243162D01*
X153970882Y-107086400D01*
X153952647Y-106947891D01*
X153951322Y-106937824D01*
X153951321Y-106937822D01*
X153950244Y-106929638D01*
X153947086Y-106922013D01*
X153944993Y-106914203D01*
X153940700Y-106881594D01*
X153940700Y-104633262D01*
X161758520Y-104633262D01*
X161759036Y-104639406D01*
X161765771Y-104719605D01*
X161775759Y-104838553D01*
X161777458Y-104844478D01*
X161803496Y-104935282D01*
X161832544Y-105036586D01*
X161835359Y-105042063D01*
X161835360Y-105042066D01*
X161907248Y-105181945D01*
X161926712Y-105219818D01*
X162054677Y-105381270D01*
X162211564Y-105514791D01*
X162391398Y-105615297D01*
X162486238Y-105646113D01*
X162581471Y-105677056D01*
X162581475Y-105677057D01*
X162587329Y-105678959D01*
X162791894Y-105703351D01*
X162798029Y-105702879D01*
X162798031Y-105702879D01*
X162854039Y-105698569D01*
X162997300Y-105687546D01*
X163003230Y-105685890D01*
X163003232Y-105685890D01*
X163127104Y-105651304D01*
X163195725Y-105632145D01*
X163201214Y-105629372D01*
X163201220Y-105629370D01*
X163374116Y-105542033D01*
X163379610Y-105539258D01*
X163541951Y-105412424D01*
X163604704Y-105339724D01*
X163672540Y-105261134D01*
X163672540Y-105261133D01*
X163676564Y-105256472D01*
X163697387Y-105219818D01*
X163720389Y-105179326D01*
X163778323Y-105077344D01*
X163843351Y-104881863D01*
X163869171Y-104677474D01*
X163869583Y-104648000D01*
X163849480Y-104442970D01*
X163789935Y-104245749D01*
X163693218Y-104063849D01*
X163596718Y-103945529D01*
X163566906Y-103908975D01*
X163566903Y-103908972D01*
X163563011Y-103904200D01*
X163556173Y-103898543D01*
X163409025Y-103776811D01*
X163409021Y-103776809D01*
X163404275Y-103772882D01*
X163223055Y-103674897D01*
X163026254Y-103613977D01*
X163020129Y-103613333D01*
X163020128Y-103613333D01*
X162827498Y-103593087D01*
X162827496Y-103593087D01*
X162821369Y-103592443D01*
X162734529Y-103600346D01*
X162622342Y-103610555D01*
X162622339Y-103610556D01*
X162616203Y-103611114D01*
X162418572Y-103669280D01*
X162236002Y-103764726D01*
X162231201Y-103768586D01*
X162231198Y-103768588D01*
X162117165Y-103860273D01*
X162075447Y-103893815D01*
X161943024Y-104051630D01*
X161940056Y-104057028D01*
X161940053Y-104057033D01*
X161921870Y-104090109D01*
X161843776Y-104232162D01*
X161781484Y-104428532D01*
X161780798Y-104434649D01*
X161780797Y-104434653D01*
X161773712Y-104497818D01*
X161758520Y-104633262D01*
X153940700Y-104633262D01*
X153940700Y-102093262D01*
X161758520Y-102093262D01*
X161759036Y-102099406D01*
X161775017Y-102289711D01*
X161775759Y-102298553D01*
X161777458Y-102304478D01*
X161816780Y-102441609D01*
X161832544Y-102496586D01*
X161835359Y-102502063D01*
X161835360Y-102502066D01*
X161908735Y-102644838D01*
X161926712Y-102679818D01*
X162054677Y-102841270D01*
X162059370Y-102845264D01*
X162059371Y-102845265D01*
X162184134Y-102951446D01*
X162211564Y-102974791D01*
X162391398Y-103075297D01*
X162452850Y-103095264D01*
X162581471Y-103137056D01*
X162581475Y-103137057D01*
X162587329Y-103138959D01*
X162791894Y-103163351D01*
X162798029Y-103162879D01*
X162798031Y-103162879D01*
X162854039Y-103158569D01*
X162997300Y-103147546D01*
X163003230Y-103145890D01*
X163003232Y-103145890D01*
X163178139Y-103097055D01*
X163195725Y-103092145D01*
X163201214Y-103089372D01*
X163201220Y-103089370D01*
X163374116Y-103002033D01*
X163379610Y-102999258D01*
X163409107Y-102976213D01*
X163491603Y-102911760D01*
X163541951Y-102872424D01*
X163625610Y-102775504D01*
X163672540Y-102721134D01*
X163672540Y-102721133D01*
X163676564Y-102716472D01*
X163697387Y-102679818D01*
X163754477Y-102579320D01*
X163778323Y-102537344D01*
X163843351Y-102341863D01*
X163869171Y-102137474D01*
X163869407Y-102120610D01*
X163869534Y-102111522D01*
X163869534Y-102111518D01*
X163869583Y-102108000D01*
X163849480Y-101902970D01*
X163789935Y-101705749D01*
X163693218Y-101523849D01*
X163607971Y-101419326D01*
X163566906Y-101368975D01*
X163566903Y-101368972D01*
X163563011Y-101364200D01*
X163540305Y-101345416D01*
X163409025Y-101236811D01*
X163409021Y-101236809D01*
X163404275Y-101232882D01*
X163223055Y-101134897D01*
X163026254Y-101073977D01*
X163020129Y-101073333D01*
X163020128Y-101073333D01*
X162827498Y-101053087D01*
X162827496Y-101053087D01*
X162821369Y-101052443D01*
X162734529Y-101060346D01*
X162622342Y-101070555D01*
X162622339Y-101070556D01*
X162616203Y-101071114D01*
X162418572Y-101129280D01*
X162236002Y-101224726D01*
X162231201Y-101228586D01*
X162231198Y-101228588D01*
X162085893Y-101345416D01*
X162075447Y-101353815D01*
X161943024Y-101511630D01*
X161940056Y-101517028D01*
X161940053Y-101517033D01*
X161899814Y-101590229D01*
X161843776Y-101692162D01*
X161781484Y-101888532D01*
X161780798Y-101894649D01*
X161780797Y-101894653D01*
X161775644Y-101940597D01*
X161758520Y-102093262D01*
X153940700Y-102093262D01*
X153940700Y-97283606D01*
X153944993Y-97250997D01*
X153947086Y-97243187D01*
X153950244Y-97235562D01*
X153962383Y-97143361D01*
X153969804Y-97086988D01*
X153970882Y-97078800D01*
X153950244Y-96922038D01*
X153889736Y-96775959D01*
X153793482Y-96650518D01*
X153668041Y-96554264D01*
X153521962Y-96493756D01*
X153365200Y-96473118D01*
X153208438Y-96493756D01*
X153062359Y-96554264D01*
X152936918Y-96650518D01*
X152840664Y-96775959D01*
X152780156Y-96922038D01*
X152759518Y-97078800D01*
X152760596Y-97086988D01*
X152768018Y-97143361D01*
X152780156Y-97235562D01*
X152783314Y-97243187D01*
X152785407Y-97250997D01*
X152789700Y-97283606D01*
X152789700Y-106881594D01*
X152785407Y-106914203D01*
X152783314Y-106922013D01*
X152780156Y-106929638D01*
X152779079Y-106937822D01*
X152779078Y-106937824D01*
X152777753Y-106947891D01*
X152759518Y-107086400D01*
X152780156Y-107243162D01*
X152783314Y-107250787D01*
X152785407Y-107258597D01*
X152789700Y-107291206D01*
X152789700Y-109869230D01*
X152769698Y-109937351D01*
X152752795Y-109958325D01*
X152579525Y-110131595D01*
X152517213Y-110165621D01*
X152490430Y-110168500D01*
X145365806Y-110168500D01*
X145333197Y-110164207D01*
X145325387Y-110162114D01*
X145317762Y-110158956D01*
X145309578Y-110157879D01*
X145309576Y-110157878D01*
X145169188Y-110139396D01*
X145161000Y-110138318D01*
X145004238Y-110158956D01*
X144858159Y-110219464D01*
X144732718Y-110315718D01*
X144636464Y-110441159D01*
X144575956Y-110587238D01*
X144574878Y-110595426D01*
X144571375Y-110622033D01*
X144555318Y-110744000D01*
X144575956Y-110900762D01*
X144636464Y-111046841D01*
X144732718Y-111172282D01*
X144858159Y-111268536D01*
X145004238Y-111329044D01*
X145161000Y-111349682D01*
X145169188Y-111348604D01*
X145309576Y-111330122D01*
X145309578Y-111330121D01*
X145317762Y-111329044D01*
X145325387Y-111325886D01*
X145333197Y-111323793D01*
X145365806Y-111319500D01*
X151087430Y-111319500D01*
X151155551Y-111339502D01*
X151202044Y-111393158D01*
X151212148Y-111463432D01*
X151182654Y-111528012D01*
X151176525Y-111534595D01*
X150095170Y-112615950D01*
X150082779Y-112626817D01*
X150059149Y-112644949D01*
X150035991Y-112675129D01*
X150035988Y-112675132D01*
X150013975Y-112703820D01*
X149966902Y-112765167D01*
X149908913Y-112905164D01*
X149894100Y-113017680D01*
X149894100Y-113017686D01*
X149889135Y-113055400D01*
X149890213Y-113063588D01*
X149890213Y-113063589D01*
X149893022Y-113084926D01*
X149894100Y-113101372D01*
X149894100Y-117311430D01*
X149874098Y-117379551D01*
X149857195Y-117400525D01*
X148693325Y-118564395D01*
X148631013Y-118598421D01*
X148604230Y-118601300D01*
X123801206Y-118601300D01*
X123768597Y-118597007D01*
X123760787Y-118594914D01*
X123753162Y-118591756D01*
X123744978Y-118590679D01*
X123744976Y-118590678D01*
X123604588Y-118572196D01*
X123596400Y-118571118D01*
X123588212Y-118572196D01*
X123447824Y-118590678D01*
X123447822Y-118590679D01*
X123439638Y-118591756D01*
X123432013Y-118594914D01*
X123424203Y-118597007D01*
X123391594Y-118601300D01*
X119848334Y-118601300D01*
X119780213Y-118581298D01*
X119733720Y-118527642D01*
X119722334Y-118475300D01*
X119722334Y-107442000D01*
X137290918Y-107442000D01*
X137311556Y-107598762D01*
X137372064Y-107744841D01*
X137468318Y-107870282D01*
X137593759Y-107966536D01*
X137739838Y-108027044D01*
X137896600Y-108047682D01*
X137904788Y-108046604D01*
X138045174Y-108028122D01*
X138053362Y-108027044D01*
X138199441Y-107966536D01*
X138324882Y-107870282D01*
X138365923Y-107816796D01*
X138423261Y-107774929D01*
X138465886Y-107767500D01*
X141549624Y-107767500D01*
X141617745Y-107787502D01*
X141649586Y-107816795D01*
X141710118Y-107895682D01*
X141835559Y-107991936D01*
X141920317Y-108027044D01*
X141970142Y-108047682D01*
X141981638Y-108052444D01*
X142138400Y-108073082D01*
X142146588Y-108072004D01*
X142286974Y-108053522D01*
X142295162Y-108052444D01*
X142306659Y-108047682D01*
X142356483Y-108027044D01*
X142441241Y-107991936D01*
X142566682Y-107895682D01*
X142662936Y-107770241D01*
X142723444Y-107624162D01*
X142744082Y-107467400D01*
X142723444Y-107310638D01*
X142662936Y-107164559D01*
X142566682Y-107039118D01*
X142441241Y-106942864D01*
X142295162Y-106882356D01*
X142138400Y-106861718D01*
X141981638Y-106882356D01*
X141835559Y-106942864D01*
X141710118Y-107039118D01*
X141705095Y-107045664D01*
X141688567Y-107067204D01*
X141631229Y-107109071D01*
X141588604Y-107116500D01*
X138465886Y-107116500D01*
X138397765Y-107096498D01*
X138365923Y-107067204D01*
X138329905Y-107020264D01*
X138324882Y-107013718D01*
X138199441Y-106917464D01*
X138067461Y-106862796D01*
X138060991Y-106860116D01*
X138053362Y-106856956D01*
X137896600Y-106836318D01*
X137739838Y-106856956D01*
X137732209Y-106860116D01*
X137725739Y-106862796D01*
X137593759Y-106917464D01*
X137468318Y-107013718D01*
X137372064Y-107139159D01*
X137311556Y-107285238D01*
X137290918Y-107442000D01*
X119722334Y-107442000D01*
X119722334Y-106234500D01*
X119742336Y-106166379D01*
X119795992Y-106119886D01*
X119848334Y-106108500D01*
X130896990Y-106108500D01*
X130907532Y-106108942D01*
X130957288Y-106113120D01*
X130964047Y-106112218D01*
X130964052Y-106112218D01*
X131034661Y-106102797D01*
X131037715Y-106102427D01*
X131108525Y-106094734D01*
X131115309Y-106093997D01*
X131121781Y-106091819D01*
X131124094Y-106091310D01*
X131124657Y-106091211D01*
X131125448Y-106091027D01*
X131125968Y-106090876D01*
X131128309Y-106090301D01*
X131135071Y-106089399D01*
X131208437Y-106062695D01*
X131211345Y-106061677D01*
X131278828Y-106038967D01*
X131285300Y-106036789D01*
X131291152Y-106033273D01*
X131293340Y-106032262D01*
X131293860Y-106032048D01*
X131294549Y-106031719D01*
X131295052Y-106031445D01*
X131297200Y-106030388D01*
X131303612Y-106028054D01*
X131369544Y-105986213D01*
X131372111Y-105984628D01*
X131433194Y-105947926D01*
X131433196Y-105947924D01*
X131439040Y-105944413D01*
X131443998Y-105939725D01*
X131445917Y-105938268D01*
X131446840Y-105937627D01*
X131450686Y-105934719D01*
X131455050Y-105931949D01*
X131459150Y-105928284D01*
X131511043Y-105876391D01*
X131513565Y-105873938D01*
X131564398Y-105825868D01*
X131564400Y-105825865D01*
X131569357Y-105821178D01*
X131573192Y-105815534D01*
X131577306Y-105810701D01*
X131584164Y-105803270D01*
X133170469Y-104216964D01*
X142623391Y-104216964D01*
X142624555Y-104225866D01*
X142624555Y-104225869D01*
X142629113Y-104260722D01*
X142641980Y-104359120D01*
X142645597Y-104367340D01*
X142681574Y-104449103D01*
X142699720Y-104490344D01*
X142705497Y-104497217D01*
X142705498Y-104497218D01*
X142712792Y-104505895D01*
X142791970Y-104600089D01*
X142911313Y-104679531D01*
X143048157Y-104722283D01*
X143057129Y-104722447D01*
X143057132Y-104722448D01*
X143122463Y-104723645D01*
X143191499Y-104724911D01*
X143200533Y-104722448D01*
X143321158Y-104689562D01*
X143321160Y-104689561D01*
X143329817Y-104687201D01*
X143451991Y-104612186D01*
X143548200Y-104505895D01*
X143610710Y-104376874D01*
X143634496Y-104235495D01*
X143634647Y-104223141D01*
X143614323Y-104081223D01*
X143610610Y-104073056D01*
X143610608Y-104073050D01*
X143581636Y-104009329D01*
X143571650Y-103939038D01*
X143601251Y-103874507D01*
X143607242Y-103868084D01*
X143861921Y-103613405D01*
X143924233Y-103579379D01*
X143951016Y-103576500D01*
X144592984Y-103576500D01*
X144661105Y-103596502D01*
X144682079Y-103613405D01*
X145267084Y-104198410D01*
X145301110Y-104260722D01*
X145303989Y-104287505D01*
X145303989Y-105695220D01*
X145283987Y-105763341D01*
X145254693Y-105795182D01*
X145242048Y-105804885D01*
X145242044Y-105804889D01*
X145235498Y-105809912D01*
X145139244Y-105935353D01*
X145078736Y-106081432D01*
X145058098Y-106238194D01*
X145078736Y-106394956D01*
X145139244Y-106541035D01*
X145235498Y-106666476D01*
X145360939Y-106762730D01*
X145507018Y-106823238D01*
X145663780Y-106843876D01*
X145671968Y-106842798D01*
X145812354Y-106824316D01*
X145820542Y-106823238D01*
X145966621Y-106762730D01*
X146092062Y-106666476D01*
X146188316Y-106541035D01*
X146248824Y-106394956D01*
X146269462Y-106238194D01*
X146248824Y-106081432D01*
X146188316Y-105935353D01*
X146092062Y-105809912D01*
X146085516Y-105804889D01*
X146085513Y-105804886D01*
X146004286Y-105742559D01*
X145962418Y-105685221D01*
X145954989Y-105642596D01*
X145954989Y-104120199D01*
X145955469Y-104109217D01*
X145957792Y-104082669D01*
X145957792Y-104082667D01*
X145958753Y-104071682D01*
X145948997Y-104035274D01*
X145946619Y-104024547D01*
X145946027Y-104021188D01*
X145940077Y-103987444D01*
X145934566Y-103977899D01*
X145933374Y-103974623D01*
X145931897Y-103971455D01*
X145929043Y-103960805D01*
X145907434Y-103929945D01*
X145901528Y-103920674D01*
X145888196Y-103897583D01*
X145882683Y-103888034D01*
X145853806Y-103863804D01*
X145845704Y-103856378D01*
X145024111Y-103034785D01*
X145016684Y-103026681D01*
X145011241Y-103020195D01*
X144992455Y-102997806D01*
X144982906Y-102992293D01*
X144959815Y-102978961D01*
X144950544Y-102973055D01*
X144928715Y-102957770D01*
X144919684Y-102951446D01*
X144909034Y-102948592D01*
X144905866Y-102947115D01*
X144902590Y-102945923D01*
X144893045Y-102940412D01*
X144859301Y-102934462D01*
X144855942Y-102933870D01*
X144845215Y-102931492D01*
X144808807Y-102921736D01*
X144797822Y-102922697D01*
X144797820Y-102922697D01*
X144771272Y-102925020D01*
X144760290Y-102925500D01*
X143783710Y-102925500D01*
X143772728Y-102925020D01*
X143746180Y-102922697D01*
X143746178Y-102922697D01*
X143735193Y-102921736D01*
X143698785Y-102931492D01*
X143688058Y-102933870D01*
X143684699Y-102934462D01*
X143650955Y-102940412D01*
X143641410Y-102945923D01*
X143638134Y-102947115D01*
X143634966Y-102948592D01*
X143624316Y-102951446D01*
X143615285Y-102957770D01*
X143593456Y-102973055D01*
X143584185Y-102978961D01*
X143561094Y-102992293D01*
X143551545Y-102997806D01*
X143527316Y-103026681D01*
X143527315Y-103026682D01*
X143519889Y-103034785D01*
X142912785Y-103641889D01*
X142904681Y-103649316D01*
X142875806Y-103673545D01*
X142870293Y-103683094D01*
X142856961Y-103706185D01*
X142851055Y-103715456D01*
X142829446Y-103746316D01*
X142826592Y-103756966D01*
X142825115Y-103760134D01*
X142823922Y-103763411D01*
X142818412Y-103772955D01*
X142816498Y-103783810D01*
X142814501Y-103795137D01*
X142784856Y-103856668D01*
X142706377Y-103945529D01*
X142645447Y-104075304D01*
X142644066Y-104084176D01*
X142626280Y-104198410D01*
X142623391Y-104216964D01*
X133170469Y-104216964D01*
X133956217Y-103431216D01*
X133963984Y-103424073D01*
X133988261Y-103403557D01*
X134002129Y-103391838D01*
X134049593Y-103329758D01*
X134051403Y-103327450D01*
X134100345Y-103266578D01*
X134103379Y-103260467D01*
X134104672Y-103258445D01*
X134104997Y-103257981D01*
X134105411Y-103257315D01*
X134105673Y-103256839D01*
X134106927Y-103254768D01*
X134111067Y-103249353D01*
X134144062Y-103178595D01*
X134145396Y-103175823D01*
X134177063Y-103112031D01*
X134177064Y-103112027D01*
X134180094Y-103105924D01*
X134181743Y-103099312D01*
X134182573Y-103097055D01*
X134182789Y-103096535D01*
X134183049Y-103095803D01*
X134183207Y-103095264D01*
X134183983Y-103092984D01*
X134186867Y-103086799D01*
X134203916Y-103010528D01*
X134204593Y-103007667D01*
X134223485Y-102931894D01*
X134223676Y-102925072D01*
X134224002Y-102922691D01*
X134224210Y-102921537D01*
X134224868Y-102916793D01*
X134225993Y-102911760D01*
X134226300Y-102906269D01*
X134226300Y-102832880D01*
X134226349Y-102829362D01*
X134227853Y-102775504D01*
X134228493Y-102752606D01*
X134227214Y-102745900D01*
X134226706Y-102739588D01*
X134226300Y-102729481D01*
X134226300Y-100875100D01*
X134246302Y-100806979D01*
X134299958Y-100760486D01*
X134352300Y-100749100D01*
X142665810Y-100749100D01*
X142799309Y-100734597D01*
X142969300Y-100677389D01*
X143123040Y-100585013D01*
X143253357Y-100461778D01*
X143354171Y-100313434D01*
X143356703Y-100307104D01*
X143356705Y-100307100D01*
X143418245Y-100153239D01*
X143418246Y-100153234D01*
X143420779Y-100146902D01*
X143421893Y-100140175D01*
X143421894Y-100140170D01*
X143448958Y-99976690D01*
X143448958Y-99976686D01*
X143450073Y-99969952D01*
X143440686Y-99790840D01*
X143393057Y-99617921D01*
X143309406Y-99459264D01*
X143305001Y-99454051D01*
X143304998Y-99454047D01*
X143198044Y-99327485D01*
X143193638Y-99322271D01*
X143153742Y-99291768D01*
X143056574Y-99217477D01*
X143056570Y-99217474D01*
X143051153Y-99213333D01*
X142888599Y-99137533D01*
X142713560Y-99098407D01*
X142708069Y-99098100D01*
X134326900Y-99098100D01*
X134258779Y-99078098D01*
X134212286Y-99024442D01*
X134200900Y-98972100D01*
X134200900Y-98656714D01*
X134220902Y-98588593D01*
X134237805Y-98567619D01*
X136947018Y-95858405D01*
X137009330Y-95824379D01*
X137036113Y-95821500D01*
X140701390Y-95821500D01*
X140711932Y-95821942D01*
X140761688Y-95826120D01*
X140768447Y-95825218D01*
X140768452Y-95825218D01*
X140839061Y-95815797D01*
X140842115Y-95815427D01*
X140912925Y-95807734D01*
X140919709Y-95806997D01*
X140926181Y-95804819D01*
X140928494Y-95804310D01*
X140929057Y-95804211D01*
X140929848Y-95804027D01*
X140930368Y-95803876D01*
X140932709Y-95803301D01*
X140939471Y-95802399D01*
X141012837Y-95775695D01*
X141015745Y-95774677D01*
X141083228Y-95751967D01*
X141089700Y-95749789D01*
X141095552Y-95746273D01*
X141097740Y-95745262D01*
X141098260Y-95745048D01*
X141098949Y-95744719D01*
X141099452Y-95744445D01*
X141101600Y-95743388D01*
X141108012Y-95741054D01*
X141173944Y-95699213D01*
X141176511Y-95697628D01*
X141178324Y-95696539D01*
X141221212Y-95670769D01*
X141237594Y-95660926D01*
X141237596Y-95660924D01*
X141243440Y-95657413D01*
X141248398Y-95652725D01*
X141250317Y-95651268D01*
X141251240Y-95650627D01*
X141255086Y-95647719D01*
X141259450Y-95644949D01*
X141263550Y-95641284D01*
X141315442Y-95589392D01*
X141317964Y-95586939D01*
X141368794Y-95538872D01*
X141368797Y-95538868D01*
X141373757Y-95534178D01*
X141377595Y-95528530D01*
X141381701Y-95523706D01*
X141388558Y-95516276D01*
X142090996Y-94813837D01*
X142093402Y-94811431D01*
X142170450Y-94715603D01*
X142173270Y-94712096D01*
X142173273Y-94712091D01*
X142177545Y-94706778D01*
X142257295Y-94546124D01*
X142273278Y-94482023D01*
X142299035Y-94378716D01*
X142299035Y-94378715D01*
X142300686Y-94372094D01*
X142305016Y-94217049D01*
X142305503Y-94199626D01*
X142305503Y-94199621D01*
X142305693Y-94192805D01*
X142272085Y-94016624D01*
X142201428Y-93851769D01*
X142105366Y-93717591D01*
X142100992Y-93711481D01*
X142100990Y-93711479D01*
X142097019Y-93705932D01*
X141963730Y-93585919D01*
X141807779Y-93497325D01*
X141664590Y-93453001D01*
X141642962Y-93446306D01*
X141642960Y-93446306D01*
X141636442Y-93444288D01*
X141457713Y-93429280D01*
X141450953Y-93430182D01*
X141450951Y-93430182D01*
X141355161Y-93442963D01*
X141279930Y-93453001D01*
X141273512Y-93455337D01*
X141117805Y-93512009D01*
X141117802Y-93512011D01*
X141111388Y-93514345D01*
X140959950Y-93610450D01*
X140955851Y-93614116D01*
X140436372Y-94133595D01*
X140374060Y-94167621D01*
X140347277Y-94170500D01*
X136682000Y-94170500D01*
X136671457Y-94170058D01*
X136621702Y-94165880D01*
X136614942Y-94166782D01*
X136614940Y-94166782D01*
X136544332Y-94176203D01*
X136541277Y-94176573D01*
X136498201Y-94181253D01*
X136463681Y-94185003D01*
X136457223Y-94187176D01*
X136454864Y-94187695D01*
X136454330Y-94187789D01*
X136453540Y-94187973D01*
X136453003Y-94188129D01*
X136450683Y-94188699D01*
X136443920Y-94189601D01*
X136437513Y-94191933D01*
X136437509Y-94191934D01*
X136370585Y-94216293D01*
X136367681Y-94217310D01*
X136293690Y-94242211D01*
X136287838Y-94245727D01*
X136285652Y-94246737D01*
X136285128Y-94246953D01*
X136284444Y-94247279D01*
X136283938Y-94247555D01*
X136281790Y-94248612D01*
X136275378Y-94250946D01*
X136209446Y-94292787D01*
X136206879Y-94294372D01*
X136145796Y-94331074D01*
X136145794Y-94331076D01*
X136139950Y-94334587D01*
X136134992Y-94339275D01*
X136133073Y-94340732D01*
X136132155Y-94341369D01*
X136128306Y-94344280D01*
X136123940Y-94347051D01*
X136119841Y-94350716D01*
X136067965Y-94402592D01*
X136065444Y-94405044D01*
X136009633Y-94457822D01*
X136005799Y-94463464D01*
X136001676Y-94468308D01*
X135994819Y-94475738D01*
X132819983Y-97650574D01*
X132812217Y-97657716D01*
X132774071Y-97689952D01*
X132726607Y-97752032D01*
X132724797Y-97754340D01*
X132675855Y-97815212D01*
X132672821Y-97821323D01*
X132671528Y-97823345D01*
X132671203Y-97823809D01*
X132670789Y-97824475D01*
X132670527Y-97824951D01*
X132669273Y-97827022D01*
X132665133Y-97832437D01*
X132662252Y-97838616D01*
X132632147Y-97903175D01*
X132630813Y-97905946D01*
X132596105Y-97975866D01*
X132594454Y-97982490D01*
X132593626Y-97984739D01*
X132593405Y-97985269D01*
X132593146Y-97986002D01*
X132592984Y-97986552D01*
X132592215Y-97988810D01*
X132589333Y-97994991D01*
X132587845Y-98001648D01*
X132587843Y-98001654D01*
X132572307Y-98071156D01*
X132571599Y-98074152D01*
X132558607Y-98126262D01*
X132552714Y-98149896D01*
X132552523Y-98156719D01*
X132552195Y-98159114D01*
X132551997Y-98160211D01*
X132551335Y-98164984D01*
X132550207Y-98170030D01*
X132549900Y-98175521D01*
X132549900Y-98248897D01*
X132549851Y-98252414D01*
X132548012Y-98318271D01*
X132547707Y-98329185D01*
X132548986Y-98335888D01*
X132549494Y-98342203D01*
X132549900Y-98352310D01*
X132549900Y-99993810D01*
X132564403Y-100127309D01*
X132566579Y-100133774D01*
X132566580Y-100133780D01*
X132568719Y-100140135D01*
X132575300Y-100180323D01*
X132575300Y-102425077D01*
X132555298Y-102493198D01*
X132538395Y-102514172D01*
X130631972Y-104420595D01*
X130569660Y-104454621D01*
X130542877Y-104457500D01*
X120098334Y-104457500D01*
X120030213Y-104437498D01*
X119983720Y-104383842D01*
X119972334Y-104331500D01*
X119972334Y-103567500D01*
X119992336Y-103499379D01*
X120045992Y-103452886D01*
X120098334Y-103441500D01*
X125168759Y-103441500D01*
X125179301Y-103441942D01*
X125229057Y-103446120D01*
X125235816Y-103445218D01*
X125235821Y-103445218D01*
X125306430Y-103435797D01*
X125309484Y-103435427D01*
X125380294Y-103427734D01*
X125387078Y-103426997D01*
X125393550Y-103424819D01*
X125395863Y-103424310D01*
X125396426Y-103424211D01*
X125397217Y-103424027D01*
X125397737Y-103423876D01*
X125400078Y-103423301D01*
X125406840Y-103422399D01*
X125480206Y-103395695D01*
X125483114Y-103394677D01*
X125550597Y-103371967D01*
X125557069Y-103369789D01*
X125562921Y-103366273D01*
X125565109Y-103365262D01*
X125565629Y-103365048D01*
X125566318Y-103364719D01*
X125566821Y-103364445D01*
X125568969Y-103363388D01*
X125575381Y-103361054D01*
X125641313Y-103319213D01*
X125643880Y-103317628D01*
X125656506Y-103310042D01*
X125670220Y-103301801D01*
X125704963Y-103280926D01*
X125704965Y-103280924D01*
X125710809Y-103277413D01*
X125715767Y-103272725D01*
X125717686Y-103271268D01*
X125718609Y-103270627D01*
X125722453Y-103267720D01*
X125726819Y-103264949D01*
X125730919Y-103261284D01*
X125782827Y-103209375D01*
X125785350Y-103206922D01*
X125836168Y-103158867D01*
X125836170Y-103158864D01*
X125841126Y-103154178D01*
X125844961Y-103148536D01*
X125849071Y-103143706D01*
X125855927Y-103136276D01*
X126344958Y-102647244D01*
X126347364Y-102644838D01*
X126405555Y-102572463D01*
X126427232Y-102545503D01*
X126427235Y-102545498D01*
X126431507Y-102540185D01*
X126511257Y-102379531D01*
X126514314Y-102367273D01*
X126552997Y-102212122D01*
X126552997Y-102212121D01*
X126554648Y-102205500D01*
X126557611Y-102099406D01*
X126559465Y-102033033D01*
X126559465Y-102033028D01*
X126559655Y-102026212D01*
X126526047Y-101850031D01*
X126484715Y-101753595D01*
X126466736Y-101711649D01*
X126455390Y-101685176D01*
X126350981Y-101539339D01*
X126217692Y-101419326D01*
X126061741Y-101330732D01*
X125918552Y-101286408D01*
X125896924Y-101279713D01*
X125896922Y-101279713D01*
X125890404Y-101277695D01*
X125711675Y-101262687D01*
X125704915Y-101263589D01*
X125704913Y-101263589D01*
X125609123Y-101276370D01*
X125533892Y-101286408D01*
X125527474Y-101288744D01*
X125371767Y-101345416D01*
X125371764Y-101345418D01*
X125365350Y-101347752D01*
X125213912Y-101443857D01*
X125209813Y-101447523D01*
X124903741Y-101753595D01*
X124841429Y-101787621D01*
X124814646Y-101790500D01*
X118631125Y-101790500D01*
X118563004Y-101770498D01*
X118542030Y-101753596D01*
X118415567Y-101627134D01*
X118381542Y-101564822D01*
X118378662Y-101538038D01*
X118378662Y-98740007D01*
X123221280Y-98740007D01*
X123241918Y-98896769D01*
X123302426Y-99042848D01*
X123398680Y-99168289D01*
X123524121Y-99264543D01*
X123531747Y-99267702D01*
X123538748Y-99271744D01*
X123564843Y-99291768D01*
X124276512Y-100003437D01*
X124287379Y-100015828D01*
X124305511Y-100039458D01*
X124335691Y-100062616D01*
X124335694Y-100062619D01*
X124425729Y-100131706D01*
X124524722Y-100172710D01*
X124558096Y-100186534D01*
X124558099Y-100186535D01*
X124565726Y-100189694D01*
X124678242Y-100204507D01*
X124678243Y-100204507D01*
X124678253Y-100204508D01*
X124707772Y-100208394D01*
X124707774Y-100208394D01*
X124715962Y-100209472D01*
X124745490Y-100205585D01*
X124761933Y-100204507D01*
X129474402Y-100204507D01*
X129490848Y-100205585D01*
X129512185Y-100208394D01*
X129512186Y-100208394D01*
X129520374Y-100209472D01*
X129528562Y-100208394D01*
X129528564Y-100208394D01*
X129558083Y-100204508D01*
X129558093Y-100204507D01*
X129558094Y-100204507D01*
X129670610Y-100189694D01*
X129810607Y-100131705D01*
X129816336Y-100127309D01*
X129900642Y-100062619D01*
X129900645Y-100062616D01*
X129930825Y-100039458D01*
X129948957Y-100015828D01*
X129959824Y-100003437D01*
X131491192Y-98472069D01*
X131503583Y-98461202D01*
X131520663Y-98448096D01*
X131527213Y-98443070D01*
X131550371Y-98412890D01*
X131550374Y-98412887D01*
X131619461Y-98322851D01*
X131624070Y-98311725D01*
X131654892Y-98237311D01*
X131654893Y-98237309D01*
X131674290Y-98190481D01*
X131677449Y-98182855D01*
X131679138Y-98170030D01*
X131692262Y-98070339D01*
X131696150Y-98040807D01*
X131697228Y-98032619D01*
X131693340Y-98003086D01*
X131692262Y-97986640D01*
X131692262Y-95288774D01*
X131712264Y-95220653D01*
X131729167Y-95199679D01*
X131738300Y-95190546D01*
X131764395Y-95170522D01*
X131771396Y-95166480D01*
X131779022Y-95163321D01*
X131904463Y-95067067D01*
X132000717Y-94941626D01*
X132061225Y-94795547D01*
X132081863Y-94638785D01*
X132061225Y-94482023D01*
X132000717Y-94335944D01*
X131904463Y-94210503D01*
X131881399Y-94192805D01*
X131848578Y-94167621D01*
X131779022Y-94114249D01*
X131632943Y-94053741D01*
X131476181Y-94033103D01*
X131319419Y-94053741D01*
X131173340Y-94114249D01*
X131103784Y-94167621D01*
X131070964Y-94192805D01*
X131047899Y-94210503D01*
X130951645Y-94335944D01*
X130948486Y-94343570D01*
X130944444Y-94350571D01*
X130924420Y-94376666D01*
X130742332Y-94558754D01*
X130729941Y-94569621D01*
X130706311Y-94587753D01*
X130683153Y-94617933D01*
X130683150Y-94617936D01*
X130629632Y-94687682D01*
X130614064Y-94707971D01*
X130556075Y-94847968D01*
X130541262Y-94960484D01*
X130541262Y-94960490D01*
X130536297Y-94998204D01*
X130537375Y-95006392D01*
X130537375Y-95006393D01*
X130540184Y-95027730D01*
X130541262Y-95044176D01*
X130541262Y-97742049D01*
X130521260Y-97810170D01*
X130504357Y-97831144D01*
X129318899Y-99016602D01*
X129256587Y-99050628D01*
X129229804Y-99053507D01*
X125006532Y-99053507D01*
X124938411Y-99033505D01*
X124917437Y-99016602D01*
X124378723Y-98477888D01*
X124358699Y-98451793D01*
X124354657Y-98444792D01*
X124351498Y-98437166D01*
X124268808Y-98329402D01*
X124260267Y-98318271D01*
X124255244Y-98311725D01*
X124129803Y-98215471D01*
X123983724Y-98154963D01*
X123826962Y-98134325D01*
X123670200Y-98154963D01*
X123524121Y-98215471D01*
X123398680Y-98311725D01*
X123393657Y-98318271D01*
X123385116Y-98329402D01*
X123302426Y-98437166D01*
X123241918Y-98583245D01*
X123221280Y-98740007D01*
X118378662Y-98740007D01*
X118378662Y-95883952D01*
X118398664Y-95815831D01*
X118422151Y-95788727D01*
X118426132Y-95785278D01*
X118443607Y-95768156D01*
X118482615Y-95698419D01*
X118483604Y-95696651D01*
X118483604Y-95696650D01*
X118487059Y-95690474D01*
X118501373Y-95641725D01*
X118505792Y-95626676D01*
X118505793Y-95626672D01*
X118507061Y-95622353D01*
X118508576Y-95611818D01*
X118514523Y-95570455D01*
X118514523Y-95570448D01*
X118515162Y-95566007D01*
X118515162Y-91957207D01*
X118510592Y-91914695D01*
X118499206Y-91862353D01*
X118496784Y-91852445D01*
X118454926Y-91773893D01*
X118408433Y-91720237D01*
X118391311Y-91702762D01*
X118375647Y-91694000D01*
X122682000Y-91694000D01*
X123445000Y-91694000D01*
X123513121Y-91714002D01*
X123559614Y-91767658D01*
X123571000Y-91820000D01*
X123571000Y-95250000D01*
X124460000Y-95250000D01*
X124460000Y-91820000D01*
X124480002Y-91751879D01*
X124533658Y-91705386D01*
X124586000Y-91694000D01*
X125095000Y-91694000D01*
X125095000Y-88646000D01*
X122682000Y-88646000D01*
X122682000Y-91694000D01*
X118375647Y-91694000D01*
X118313629Y-91659310D01*
X118272260Y-91647163D01*
X118249831Y-91640577D01*
X118249827Y-91640576D01*
X118245508Y-91639308D01*
X118241060Y-91638668D01*
X118241053Y-91638667D01*
X118193610Y-91631846D01*
X118193603Y-91631846D01*
X118189162Y-91631207D01*
X117492701Y-91631207D01*
X117491736Y-91631239D01*
X117491709Y-91631239D01*
X117486160Y-91631421D01*
X117479620Y-91631635D01*
X117478616Y-91631701D01*
X117478612Y-91631701D01*
X117476401Y-91631846D01*
X117463174Y-91632713D01*
X117450150Y-91633996D01*
X117420755Y-91637866D01*
X117415245Y-91638591D01*
X117382355Y-91638591D01*
X117376845Y-91637866D01*
X117347450Y-91633996D01*
X117334426Y-91632713D01*
X117321199Y-91631846D01*
X117318988Y-91631701D01*
X117318984Y-91631701D01*
X117317980Y-91631635D01*
X117311440Y-91631421D01*
X117305891Y-91631239D01*
X117305864Y-91631239D01*
X117304899Y-91631207D01*
X116917162Y-91631207D01*
X116913816Y-91631567D01*
X116913810Y-91631567D01*
X116899726Y-91633081D01*
X116874650Y-91635777D01*
X116822308Y-91647163D01*
X116812400Y-91649585D01*
X116733848Y-91691443D01*
X116680192Y-91737936D01*
X116678812Y-91739288D01*
X116677446Y-91740547D01*
X116662568Y-91747900D01*
X116658842Y-91761985D01*
X116619265Y-91832740D01*
X116599263Y-91900861D01*
X116598623Y-91905309D01*
X116598622Y-91905316D01*
X116596791Y-91918058D01*
X116591162Y-91957207D01*
X116591162Y-95566007D01*
X116595732Y-95608519D01*
X116607118Y-95660861D01*
X116609540Y-95670769D01*
X116651398Y-95749321D01*
X116685540Y-95788723D01*
X116696886Y-95801817D01*
X116726379Y-95866398D01*
X116727662Y-95884330D01*
X116727662Y-101892152D01*
X116727220Y-101902694D01*
X116723042Y-101952450D01*
X116723944Y-101959209D01*
X116723944Y-101959214D01*
X116733365Y-102029823D01*
X116733735Y-102032877D01*
X116742165Y-102110471D01*
X116744343Y-102116943D01*
X116744852Y-102119256D01*
X116744951Y-102119819D01*
X116745135Y-102120610D01*
X116745286Y-102121130D01*
X116745861Y-102123471D01*
X116746763Y-102130233D01*
X116771368Y-102197833D01*
X116773467Y-102203599D01*
X116774485Y-102206507D01*
X116799373Y-102280462D01*
X116802889Y-102286314D01*
X116803900Y-102288502D01*
X116804114Y-102289022D01*
X116804443Y-102289711D01*
X116804717Y-102290214D01*
X116805774Y-102292362D01*
X116808108Y-102298774D01*
X116849949Y-102364706D01*
X116851524Y-102367257D01*
X116891749Y-102434202D01*
X116896437Y-102439160D01*
X116897894Y-102441079D01*
X116898535Y-102442002D01*
X116901443Y-102445848D01*
X116904213Y-102450212D01*
X116907878Y-102454312D01*
X116959770Y-102506204D01*
X116962223Y-102508726D01*
X117010290Y-102559556D01*
X117010294Y-102559559D01*
X117014984Y-102564519D01*
X117020632Y-102568357D01*
X117025456Y-102572463D01*
X117032886Y-102579320D01*
X117624990Y-103171423D01*
X117632133Y-103179191D01*
X117664362Y-103217329D01*
X117726442Y-103264793D01*
X117728750Y-103266603D01*
X117789622Y-103315545D01*
X117795733Y-103318579D01*
X117797755Y-103319872D01*
X117798219Y-103320197D01*
X117798885Y-103320611D01*
X117799361Y-103320873D01*
X117801432Y-103322127D01*
X117806847Y-103326267D01*
X117873611Y-103357400D01*
X117877585Y-103359253D01*
X117880356Y-103360587D01*
X117950276Y-103395295D01*
X117956899Y-103396946D01*
X117959157Y-103397777D01*
X117959678Y-103397994D01*
X117960412Y-103398254D01*
X117960962Y-103398416D01*
X117963220Y-103399185D01*
X117969401Y-103402067D01*
X117976058Y-103403555D01*
X117976064Y-103403557D01*
X118045566Y-103419093D01*
X118048562Y-103419801D01*
X118094346Y-103431216D01*
X118124306Y-103438686D01*
X118131129Y-103438877D01*
X118133524Y-103439205D01*
X118134621Y-103439403D01*
X118139394Y-103440065D01*
X118144440Y-103441193D01*
X118149931Y-103441500D01*
X118195334Y-103441500D01*
X118263455Y-103461502D01*
X118309948Y-103515158D01*
X118321334Y-103567500D01*
X118321334Y-104706824D01*
X118320892Y-104717366D01*
X118316714Y-104767122D01*
X118317616Y-104773881D01*
X118317616Y-104773886D01*
X118327037Y-104844495D01*
X118327407Y-104847549D01*
X118335837Y-104925143D01*
X118338015Y-104931615D01*
X118338524Y-104933928D01*
X118338623Y-104934491D01*
X118338807Y-104935282D01*
X118338958Y-104935802D01*
X118339533Y-104938143D01*
X118340435Y-104944905D01*
X118342769Y-104951316D01*
X118367139Y-105018271D01*
X118368157Y-105021179D01*
X118393045Y-105095134D01*
X118396561Y-105100986D01*
X118397572Y-105103174D01*
X118397786Y-105103694D01*
X118398115Y-105104383D01*
X118398389Y-105104886D01*
X118399446Y-105107034D01*
X118401780Y-105113446D01*
X118443621Y-105179378D01*
X118445196Y-105181929D01*
X118485421Y-105248874D01*
X118490109Y-105253832D01*
X118491566Y-105255751D01*
X118492207Y-105256674D01*
X118495114Y-105260518D01*
X118497885Y-105264884D01*
X118501550Y-105268984D01*
X118502810Y-105270244D01*
X118534428Y-105301861D01*
X118568454Y-105364173D01*
X118571334Y-105390958D01*
X118571334Y-118475300D01*
X118551332Y-118543421D01*
X118497676Y-118589914D01*
X118445334Y-118601300D01*
X98655206Y-118601300D01*
X98622597Y-118597007D01*
X98614787Y-118594914D01*
X98607162Y-118591756D01*
X98598978Y-118590679D01*
X98598976Y-118590678D01*
X98458588Y-118572196D01*
X98450400Y-118571118D01*
X98293638Y-118591756D01*
X98147559Y-118652264D01*
X98022118Y-118748518D01*
X97925864Y-118873959D01*
X97865356Y-119020038D01*
X97844718Y-119176800D01*
X81450000Y-119176800D01*
X81450000Y-116764800D01*
X94694400Y-116764800D01*
X94698970Y-116807312D01*
X94710356Y-116859654D01*
X94712778Y-116869562D01*
X94754636Y-116948114D01*
X94801129Y-117001770D01*
X94818251Y-117019245D01*
X94895933Y-117062697D01*
X94929054Y-117072422D01*
X94959731Y-117081430D01*
X94959735Y-117081431D01*
X94964054Y-117082699D01*
X94968502Y-117083339D01*
X94968509Y-117083340D01*
X95015952Y-117090161D01*
X95015959Y-117090161D01*
X95020400Y-117090800D01*
X111329200Y-117090800D01*
X111332546Y-117090440D01*
X111332552Y-117090440D01*
X111346636Y-117088926D01*
X111371712Y-117086230D01*
X111424054Y-117074844D01*
X111433962Y-117072422D01*
X111512514Y-117030564D01*
X111566170Y-116984071D01*
X111583645Y-116966949D01*
X111627097Y-116889267D01*
X111647099Y-116821146D01*
X111649088Y-116807312D01*
X111654561Y-116769248D01*
X111654561Y-116769241D01*
X111655200Y-116764800D01*
X111655200Y-113386990D01*
X111654054Y-113365614D01*
X111651175Y-113338831D01*
X111627856Y-113264355D01*
X111624890Y-113258923D01*
X111595988Y-113205994D01*
X111595985Y-113205989D01*
X111593830Y-113202043D01*
X111559716Y-113156474D01*
X110261926Y-111858684D01*
X110246004Y-111844381D01*
X110225030Y-111827478D01*
X110155877Y-111791303D01*
X110133901Y-111784850D01*
X110092079Y-111772570D01*
X110092075Y-111772569D01*
X110087756Y-111771301D01*
X110083308Y-111770661D01*
X110083301Y-111770660D01*
X110035858Y-111763839D01*
X110035851Y-111763839D01*
X110031410Y-111763200D01*
X95020400Y-111763200D01*
X95017054Y-111763560D01*
X95017048Y-111763560D01*
X95002964Y-111765074D01*
X94977888Y-111767770D01*
X94925546Y-111779156D01*
X94915638Y-111781578D01*
X94837086Y-111823436D01*
X94783430Y-111869929D01*
X94765955Y-111887051D01*
X94722503Y-111964733D01*
X94702501Y-112032854D01*
X94694400Y-112089200D01*
X94694400Y-116764800D01*
X81450000Y-116764800D01*
X81450000Y-102143361D01*
X95176816Y-102143361D01*
X95177040Y-102148027D01*
X95177040Y-102148033D01*
X95179778Y-102205033D01*
X95188943Y-102395820D01*
X95189856Y-102400409D01*
X95218161Y-102542707D01*
X95238252Y-102643713D01*
X95239831Y-102648111D01*
X95239833Y-102648118D01*
X95307447Y-102836439D01*
X95323660Y-102881595D01*
X95443292Y-103104240D01*
X95446087Y-103107984D01*
X95446089Y-103107986D01*
X95591726Y-103303018D01*
X95591731Y-103303024D01*
X95594518Y-103306756D01*
X95597827Y-103310036D01*
X95597832Y-103310042D01*
X95734193Y-103445218D01*
X95774017Y-103484696D01*
X95777779Y-103487454D01*
X95777782Y-103487457D01*
X95899222Y-103576500D01*
X95977846Y-103634149D01*
X95981981Y-103636325D01*
X95981985Y-103636327D01*
X96044619Y-103669280D01*
X96201526Y-103751833D01*
X96440144Y-103835162D01*
X96444737Y-103836034D01*
X96683869Y-103881435D01*
X96683872Y-103881435D01*
X96688458Y-103882306D01*
X96808581Y-103887026D01*
X96936345Y-103892046D01*
X96936350Y-103892046D01*
X96941013Y-103892229D01*
X97019157Y-103883671D01*
X97187607Y-103865223D01*
X97187612Y-103865222D01*
X97192260Y-103864713D01*
X97196784Y-103863522D01*
X97432158Y-103801554D01*
X97432161Y-103801553D01*
X97436681Y-103800363D01*
X97668905Y-103700591D01*
X97776274Y-103634149D01*
X97879858Y-103570050D01*
X97879862Y-103570047D01*
X97883831Y-103567591D01*
X97978489Y-103487457D01*
X98073172Y-103407302D01*
X98073173Y-103407301D01*
X98076738Y-103404283D01*
X98115658Y-103359904D01*
X98240306Y-103217771D01*
X98240310Y-103217766D01*
X98243388Y-103214256D01*
X98247322Y-103208140D01*
X98377594Y-103005610D01*
X98377596Y-103005607D01*
X98380119Y-103001684D01*
X98483928Y-102771236D01*
X98552534Y-102527976D01*
X98568763Y-102400409D01*
X98584033Y-102280378D01*
X98584033Y-102280372D01*
X98584431Y-102277247D01*
X98584517Y-102273990D01*
X98586322Y-102205033D01*
X98586768Y-102188000D01*
X98581701Y-102119819D01*
X98568383Y-101940597D01*
X98568382Y-101940593D01*
X98568037Y-101935945D01*
X98512256Y-101689428D01*
X98473680Y-101590229D01*
X98422343Y-101458216D01*
X98422342Y-101458214D01*
X98420650Y-101453863D01*
X98417027Y-101447523D01*
X98352202Y-101334104D01*
X98295231Y-101234426D01*
X98166045Y-101070555D01*
X98141647Y-101039606D01*
X98141644Y-101039603D01*
X98138755Y-101035938D01*
X97954660Y-100862758D01*
X97770980Y-100735334D01*
X97750831Y-100721356D01*
X97750828Y-100721354D01*
X97746989Y-100718691D01*
X97742796Y-100716623D01*
X97524493Y-100608968D01*
X97524490Y-100608967D01*
X97520305Y-100606903D01*
X97475879Y-100592682D01*
X97423903Y-100576045D01*
X97279587Y-100529849D01*
X97274980Y-100529099D01*
X97274977Y-100529098D01*
X97034735Y-100489972D01*
X97034736Y-100489972D01*
X97030124Y-100489221D01*
X96907526Y-100487616D01*
X96782073Y-100485974D01*
X96782070Y-100485974D01*
X96777396Y-100485913D01*
X96526955Y-100519996D01*
X96522465Y-100521305D01*
X96522459Y-100521306D01*
X96419351Y-100551360D01*
X96284303Y-100590723D01*
X96280056Y-100592681D01*
X96280053Y-100592682D01*
X96244726Y-100608968D01*
X96054770Y-100696539D01*
X96050861Y-100699102D01*
X95847312Y-100832554D01*
X95847307Y-100832558D01*
X95843399Y-100835120D01*
X95654833Y-101003421D01*
X95493215Y-101197746D01*
X95362095Y-101413825D01*
X95360286Y-101418139D01*
X95360285Y-101418141D01*
X95288123Y-101590229D01*
X95264354Y-101646911D01*
X95202139Y-101891883D01*
X95176816Y-102143361D01*
X81450000Y-102143361D01*
X81450000Y-97143361D01*
X95176816Y-97143361D01*
X95188943Y-97395820D01*
X95238252Y-97643713D01*
X95239831Y-97648111D01*
X95239833Y-97648118D01*
X95308229Y-97838616D01*
X95323660Y-97881595D01*
X95443292Y-98104240D01*
X95446087Y-98107984D01*
X95446089Y-98107986D01*
X95591726Y-98303018D01*
X95591731Y-98303024D01*
X95594518Y-98306756D01*
X95597827Y-98310036D01*
X95597832Y-98310042D01*
X95749313Y-98460207D01*
X95774017Y-98484696D01*
X95777779Y-98487454D01*
X95777782Y-98487457D01*
X95898017Y-98575616D01*
X95977846Y-98634149D01*
X95981981Y-98636325D01*
X95981985Y-98636327D01*
X96099452Y-98698129D01*
X96201526Y-98751833D01*
X96440144Y-98835162D01*
X96444737Y-98836034D01*
X96683869Y-98881435D01*
X96683872Y-98881435D01*
X96688458Y-98882306D01*
X96808581Y-98887026D01*
X96936345Y-98892046D01*
X96936350Y-98892046D01*
X96941013Y-98892229D01*
X97019157Y-98883671D01*
X97187607Y-98865223D01*
X97187612Y-98865222D01*
X97192260Y-98864713D01*
X97310361Y-98833620D01*
X97432158Y-98801554D01*
X97432161Y-98801553D01*
X97436681Y-98800363D01*
X97668905Y-98700591D01*
X97776274Y-98634149D01*
X97879858Y-98570050D01*
X97879862Y-98570047D01*
X97883831Y-98567591D01*
X97978489Y-98487457D01*
X98073172Y-98407302D01*
X98073173Y-98407301D01*
X98076738Y-98404283D01*
X98142407Y-98329402D01*
X98240306Y-98217771D01*
X98240310Y-98217766D01*
X98243388Y-98214256D01*
X98263586Y-98182855D01*
X98377594Y-98005610D01*
X98377596Y-98005607D01*
X98380119Y-98001684D01*
X98483928Y-97771236D01*
X98552534Y-97527976D01*
X98568763Y-97400409D01*
X98584033Y-97280378D01*
X98584033Y-97280372D01*
X98584431Y-97277247D01*
X98585119Y-97250997D01*
X98586685Y-97191160D01*
X98586768Y-97188000D01*
X98583105Y-97138707D01*
X98568383Y-96940597D01*
X98568382Y-96940593D01*
X98568037Y-96935945D01*
X98512256Y-96689428D01*
X98510563Y-96685074D01*
X98422343Y-96458216D01*
X98422342Y-96458214D01*
X98420650Y-96453863D01*
X98295231Y-96234426D01*
X98138755Y-96035938D01*
X97954660Y-95862758D01*
X97794956Y-95751967D01*
X97750831Y-95721356D01*
X97750828Y-95721354D01*
X97746989Y-95718691D01*
X97742796Y-95716623D01*
X97524493Y-95608968D01*
X97524490Y-95608967D01*
X97520305Y-95606903D01*
X97514848Y-95605156D01*
X97382020Y-95562638D01*
X97279587Y-95529849D01*
X97274980Y-95529099D01*
X97274977Y-95529098D01*
X97034735Y-95489972D01*
X97034736Y-95489972D01*
X97030124Y-95489221D01*
X96907526Y-95487616D01*
X96782073Y-95485974D01*
X96782070Y-95485974D01*
X96777396Y-95485913D01*
X96526955Y-95519996D01*
X96522465Y-95521305D01*
X96522459Y-95521306D01*
X96419351Y-95551360D01*
X96284303Y-95590723D01*
X96280056Y-95592681D01*
X96280053Y-95592682D01*
X96245700Y-95608519D01*
X96054770Y-95696539D01*
X96050861Y-95699102D01*
X95847312Y-95832554D01*
X95847307Y-95832558D01*
X95843399Y-95835120D01*
X95654833Y-96003421D01*
X95493215Y-96197746D01*
X95362095Y-96413825D01*
X95360286Y-96418139D01*
X95360285Y-96418141D01*
X95345306Y-96453863D01*
X95264354Y-96646911D01*
X95202139Y-96891883D01*
X95176816Y-97143361D01*
X81450000Y-97143361D01*
X81450000Y-91542095D01*
X84395028Y-91542095D01*
X84420534Y-91809431D01*
X84421619Y-91813865D01*
X84421620Y-91813871D01*
X84457794Y-91961703D01*
X84484364Y-92070285D01*
X84486076Y-92074511D01*
X84486077Y-92074515D01*
X84558290Y-92252800D01*
X84585182Y-92319192D01*
X84720875Y-92550938D01*
X84723728Y-92554505D01*
X84835225Y-92693925D01*
X84888601Y-92760669D01*
X85084846Y-92943991D01*
X85177039Y-93007948D01*
X85301746Y-93094461D01*
X85301751Y-93094464D01*
X85305499Y-93097064D01*
X85309584Y-93099096D01*
X85309587Y-93099098D01*
X85425719Y-93156872D01*
X85545938Y-93216680D01*
X85550272Y-93218101D01*
X85550275Y-93218102D01*
X85796793Y-93298915D01*
X85796798Y-93298916D01*
X85801126Y-93300335D01*
X85805617Y-93301115D01*
X85805618Y-93301115D01*
X86061936Y-93345620D01*
X86061944Y-93345621D01*
X86065717Y-93346276D01*
X86069554Y-93346467D01*
X86148996Y-93350422D01*
X86149004Y-93350422D01*
X86150567Y-93350500D01*
X86318223Y-93350500D01*
X86320491Y-93350335D01*
X86320503Y-93350335D01*
X86450823Y-93340879D01*
X86517846Y-93336016D01*
X86522301Y-93335032D01*
X86522304Y-93335032D01*
X86775620Y-93279105D01*
X86775624Y-93279104D01*
X86780080Y-93278120D01*
X86947617Y-93214646D01*
X87026941Y-93184593D01*
X87026944Y-93184592D01*
X87031211Y-93182975D01*
X87265976Y-93052574D01*
X87408254Y-92943991D01*
X87475833Y-92892417D01*
X87475837Y-92892413D01*
X87479458Y-92889650D01*
X87667185Y-92697614D01*
X87773948Y-92550938D01*
X87822538Y-92484183D01*
X87822540Y-92484180D01*
X87825225Y-92480491D01*
X87884659Y-92367525D01*
X87948140Y-92246868D01*
X87948143Y-92246862D01*
X87950265Y-92242828D01*
X87963624Y-92205000D01*
X87979388Y-92160361D01*
X107769316Y-92160361D01*
X107781443Y-92412820D01*
X107830752Y-92660713D01*
X107832331Y-92665111D01*
X107832333Y-92665118D01*
X107911778Y-92886391D01*
X107916160Y-92898595D01*
X108035792Y-93121240D01*
X108038587Y-93124984D01*
X108038589Y-93124986D01*
X108184226Y-93320018D01*
X108184231Y-93320024D01*
X108187018Y-93323756D01*
X108190327Y-93327036D01*
X108190332Y-93327042D01*
X108360072Y-93495307D01*
X108366517Y-93501696D01*
X108370279Y-93504454D01*
X108370282Y-93504457D01*
X108566575Y-93648384D01*
X108570346Y-93651149D01*
X108574481Y-93653325D01*
X108574485Y-93653327D01*
X108674471Y-93705932D01*
X108794026Y-93768833D01*
X108927709Y-93815517D01*
X109015629Y-93846220D01*
X109032644Y-93852162D01*
X109037237Y-93853034D01*
X109276369Y-93898435D01*
X109276372Y-93898435D01*
X109280958Y-93899306D01*
X109401081Y-93904026D01*
X109528845Y-93909046D01*
X109528850Y-93909046D01*
X109533513Y-93909229D01*
X109611657Y-93900671D01*
X109780107Y-93882223D01*
X109780112Y-93882222D01*
X109784760Y-93881713D01*
X109897004Y-93852162D01*
X110024658Y-93818554D01*
X110024661Y-93818553D01*
X110029181Y-93817363D01*
X110261405Y-93717591D01*
X110368774Y-93651149D01*
X110472358Y-93587050D01*
X110472362Y-93587047D01*
X110476331Y-93584591D01*
X110570989Y-93504457D01*
X110665672Y-93424302D01*
X110665673Y-93424301D01*
X110669238Y-93421283D01*
X110744016Y-93336016D01*
X110832806Y-93234771D01*
X110832810Y-93234766D01*
X110835888Y-93231256D01*
X110865903Y-93184593D01*
X110970094Y-93022610D01*
X110970096Y-93022607D01*
X110972619Y-93018684D01*
X111076428Y-92788236D01*
X111145034Y-92544976D01*
X111161263Y-92417409D01*
X111176533Y-92297378D01*
X111176533Y-92297372D01*
X111176931Y-92294247D01*
X111179268Y-92205000D01*
X111169257Y-92070285D01*
X111160883Y-91957597D01*
X111160882Y-91957593D01*
X111160537Y-91952945D01*
X111104756Y-91706428D01*
X111088222Y-91663911D01*
X111014843Y-91475216D01*
X111014842Y-91475214D01*
X111013150Y-91470863D01*
X110998572Y-91445356D01*
X110923888Y-91314687D01*
X110887731Y-91251426D01*
X110782239Y-91117611D01*
X115244394Y-91117611D01*
X115262999Y-91286135D01*
X115321266Y-91445356D01*
X115325502Y-91451659D01*
X115325502Y-91451660D01*
X115335680Y-91466807D01*
X115415830Y-91586083D01*
X115421442Y-91591190D01*
X115421445Y-91591193D01*
X115535612Y-91695077D01*
X115535616Y-91695080D01*
X115541233Y-91700191D01*
X115547906Y-91703814D01*
X115547910Y-91703817D01*
X115683558Y-91777467D01*
X115683560Y-91777468D01*
X115690235Y-91781092D01*
X115697584Y-91783020D01*
X115846883Y-91822188D01*
X115846885Y-91822188D01*
X115854233Y-91824116D01*
X115940609Y-91825473D01*
X116016161Y-91826660D01*
X116016164Y-91826660D01*
X116023760Y-91826779D01*
X116031165Y-91825083D01*
X116031166Y-91825083D01*
X116119382Y-91804879D01*
X116189029Y-91788928D01*
X116340498Y-91712747D01*
X116467045Y-91604665D01*
X116479892Y-91598908D01*
X116484028Y-91583043D01*
X116489737Y-91574364D01*
X116563930Y-91471113D01*
X116568361Y-91464947D01*
X116571194Y-91457900D01*
X116628766Y-91314687D01*
X116628767Y-91314685D01*
X116631601Y-91307634D01*
X116648262Y-91190569D01*
X116654909Y-91143862D01*
X116654909Y-91143859D01*
X116655490Y-91139778D01*
X116655645Y-91125000D01*
X116653840Y-91110080D01*
X116647368Y-91056606D01*
X116635276Y-90956680D01*
X116575345Y-90798077D01*
X116515898Y-90711582D01*
X116483614Y-90664608D01*
X116483613Y-90664607D01*
X116479312Y-90658349D01*
X116421022Y-90606414D01*
X116358392Y-90550612D01*
X116358388Y-90550610D01*
X116352721Y-90545560D01*
X116336547Y-90536996D01*
X116272175Y-90502913D01*
X116202881Y-90466224D01*
X116038441Y-90424919D01*
X116030843Y-90424879D01*
X116030841Y-90424879D01*
X115953668Y-90424475D01*
X115868895Y-90424031D01*
X115861508Y-90425805D01*
X115861504Y-90425805D01*
X115718162Y-90460220D01*
X115704032Y-90463612D01*
X115697288Y-90467093D01*
X115697285Y-90467094D01*
X115561853Y-90536996D01*
X115553369Y-90541375D01*
X115425604Y-90652831D01*
X115402969Y-90685037D01*
X115349244Y-90761481D01*
X115328113Y-90791547D01*
X115266524Y-90949513D01*
X115265532Y-90957046D01*
X115265532Y-90957047D01*
X115257919Y-91014879D01*
X115244394Y-91117611D01*
X110782239Y-91117611D01*
X110731255Y-91052938D01*
X110547160Y-90879758D01*
X110339489Y-90735691D01*
X110335296Y-90733623D01*
X110116993Y-90625968D01*
X110116990Y-90625967D01*
X110112805Y-90623903D01*
X110068379Y-90609682D01*
X110016403Y-90593045D01*
X109872087Y-90546849D01*
X109867480Y-90546099D01*
X109867477Y-90546098D01*
X109627235Y-90506972D01*
X109627236Y-90506972D01*
X109622624Y-90506221D01*
X109500026Y-90504616D01*
X109374573Y-90502974D01*
X109374570Y-90502974D01*
X109369896Y-90502913D01*
X109119455Y-90536996D01*
X109114965Y-90538305D01*
X109114959Y-90538306D01*
X109011851Y-90568360D01*
X108876803Y-90607723D01*
X108872556Y-90609681D01*
X108872553Y-90609682D01*
X108837226Y-90625968D01*
X108647270Y-90713539D01*
X108643361Y-90716102D01*
X108439812Y-90849554D01*
X108439807Y-90849558D01*
X108435899Y-90852120D01*
X108247333Y-91020421D01*
X108085715Y-91214746D01*
X107954595Y-91430825D01*
X107952786Y-91435139D01*
X107952785Y-91435141D01*
X107859620Y-91657316D01*
X107856854Y-91663911D01*
X107855703Y-91668443D01*
X107855702Y-91668446D01*
X107845353Y-91709196D01*
X107794639Y-91908883D01*
X107769316Y-92160361D01*
X87979388Y-92160361D01*
X88038165Y-91993916D01*
X88038165Y-91993915D01*
X88039688Y-91989603D01*
X88072282Y-91824235D01*
X88090739Y-91730594D01*
X88090740Y-91730588D01*
X88091620Y-91726122D01*
X88092116Y-91716159D01*
X88104745Y-91462474D01*
X88104745Y-91462468D01*
X88104972Y-91457905D01*
X88079466Y-91190569D01*
X88066029Y-91135653D01*
X88016721Y-90934149D01*
X88015636Y-90929715D01*
X87995402Y-90879758D01*
X87916531Y-90685037D01*
X87916531Y-90685036D01*
X87914818Y-90680808D01*
X87779125Y-90449062D01*
X87668211Y-90310371D01*
X87614251Y-90242897D01*
X87614250Y-90242895D01*
X87611399Y-90239331D01*
X87415154Y-90056009D01*
X87255436Y-89945208D01*
X87198254Y-89905539D01*
X87198249Y-89905536D01*
X87194501Y-89902936D01*
X87190416Y-89900904D01*
X87190413Y-89900902D01*
X87018560Y-89815407D01*
X86954062Y-89783320D01*
X86949728Y-89781899D01*
X86949725Y-89781898D01*
X86703207Y-89701085D01*
X86703202Y-89701084D01*
X86698874Y-89699665D01*
X86694382Y-89698885D01*
X86438064Y-89654380D01*
X86438056Y-89654379D01*
X86434283Y-89653724D01*
X86425622Y-89653293D01*
X86351004Y-89649578D01*
X86350996Y-89649578D01*
X86349433Y-89649500D01*
X86181777Y-89649500D01*
X86179509Y-89649665D01*
X86179497Y-89649665D01*
X86049177Y-89659121D01*
X85982154Y-89663984D01*
X85977699Y-89664968D01*
X85977696Y-89664968D01*
X85724380Y-89720895D01*
X85724376Y-89720896D01*
X85719920Y-89721880D01*
X85594354Y-89769453D01*
X85473059Y-89815407D01*
X85473056Y-89815408D01*
X85468789Y-89817025D01*
X85234024Y-89947426D01*
X85230392Y-89950198D01*
X85024167Y-90107583D01*
X85024163Y-90107587D01*
X85020542Y-90110350D01*
X84832815Y-90302386D01*
X84830130Y-90306075D01*
X84684492Y-90506160D01*
X84674775Y-90519509D01*
X84661069Y-90545560D01*
X84551860Y-90753132D01*
X84551857Y-90753138D01*
X84549735Y-90757172D01*
X84548215Y-90761477D01*
X84548213Y-90761481D01*
X84488804Y-90929715D01*
X84460312Y-91010397D01*
X84408380Y-91273878D01*
X84408153Y-91278431D01*
X84408153Y-91278434D01*
X84398562Y-91471113D01*
X84395028Y-91542095D01*
X81450000Y-91542095D01*
X81450000Y-86826000D01*
X81470002Y-86757879D01*
X81523658Y-86711386D01*
X81576000Y-86700000D01*
X126239000Y-86700000D01*
X126307121Y-86720002D01*
G37*
G04 #@! TD.AperFunction*
G04 #@! TD*
M02*
