M48
; DRILL file {KiCad (6.0.2)} date Wed Feb 23 13:26:13 2022
; FORMAT={-:-/ absolute / metric / decimal}
; #@! TF.CreationDate,2022-02-23T13:26:13+01:00
; #@! TF.GenerationSoftware,Kicad,Pcbnew,(6.0.2)
; #@! TF.FileFunction,MixedPlating,1,2
FMAT,2
METRIC
; #@! TA.AperFunction,Plated,PTH,ViaDrill
T1C0.250
; #@! TA.AperFunction,Plated,PTH,ViaDrill
T2C0.300
; #@! TA.AperFunction,Plated,PTH,ComponentDrill
T3C0.300
; #@! TA.AperFunction,Plated,PTH,ViaDrill
T4C0.400
; #@! TA.AperFunction,Plated,PTH,ComponentDrill
T5C0.500
; #@! TA.AperFunction,Plated,PTH,ViaDrill
T6C0.600
; #@! TA.AperFunction,Plated,PTH,ComponentDrill
T7C1.000
; #@! TA.AperFunction,Plated,PTH,ComponentDrill
T8C1.320
; #@! TA.AperFunction,Plated,PTH,ComponentDrill
T9C1.500
; #@! TA.AperFunction,NonPlated,NPTH,ComponentDrill
T10C3.200
%
G90
G05
T1
X105.816Y-121.412
X108.153Y-121.412
X123.19Y-92.253
X126.848Y-108.966
X139.065Y-96.063
X139.192Y-101.6
X141.249Y-96.926
X142.062Y-98.857
X143.408Y-99.187
X143.408Y-102.006
X143.408Y-102.667
X143.866Y-104.496
X144.12Y-94.386
X144.12Y-95.25
X145.085Y-96.368
X145.709Y-102.084
X145.71Y-99.989
X145.712Y-101.041
X145.745Y-96.723
X145.796Y-95.301
X146.399Y-95.809
X146.431Y-109.855
X146.651Y-99.038
X146.659Y-103.04
X146.661Y-99.991
X146.661Y-102.091
X146.662Y-101.041
X147.712Y-99.041
X147.712Y-99.991
X147.712Y-101.041
X147.712Y-102.091
X147.712Y-103.041
X148.757Y-99.039
X148.762Y-99.991
X148.762Y-101.041
X148.762Y-102.091
X148.762Y-103.041
X149.707Y-99.989
X149.708Y-102.09
X149.712Y-101.041
X152.425Y-106.959
X152.502Y-102.819
X154.33Y-101.702
X154.356Y-105.207
X154.356Y-106.02
X158.852Y-115.824
X161.696Y-102.743
T2
X143.129Y-104.223
T3
X147.862Y-92.051
T4
X82.296Y-87.376
X82.296Y-91.44
X82.296Y-101.6
X82.296Y-106.324
X82.296Y-111.811
X82.296Y-127.0
X82.296Y-130.048
X82.804Y-96.622
X82.804Y-117.145
X82.804Y-121.92
X86.36Y-130.048
X86.6Y-104.0
X86.868Y-120.015
X87.071Y-87.224
X87.757Y-112.522
X88.8Y-96.4
X90.17Y-122.047
X91.313Y-93.218
X91.44Y-87.376
X91.44Y-130.048
X92.202Y-108.001
X93.447Y-99.695
X93.777Y-104.191
X94.234Y-110.541
X94.259Y-114.3
X94.437Y-117.297
X94.844Y-97.688
X94.945Y-99.72
X95.504Y-118.872
X95.631Y-91.059
X95.707Y-98.958
X95.885Y-122.555
X95.885Y-126.492
X96.52Y-87.376
X96.52Y-130.048
X96.876Y-99.72
X97.003Y-117.551
X98.044Y-126.492
X98.171Y-122.555
X98.425Y-120.396
X98.45Y-119.177
X98.501Y-98.552
X98.958Y-99.72
X99.365Y-109.474
X99.771Y-105.258
X100.025Y-117.704
X100.762Y-99.67
X101.219Y-126.365
X101.6Y-87.376
X101.6Y-130.048
X101.651Y-107.594
X101.752Y-123.596
X101.981Y-93.472
X102.26Y-120.142
X102.514Y-99.72
X102.565Y-105.207
X102.743Y-126.365
X102.768Y-124.765
X103.53Y-109.576
X103.632Y-117.602
X103.835Y-96.164
X103.886Y-121.463
X104.343Y-105.207
X104.902Y-122.58
X105.131Y-99.695
X105.156Y-120.193
X105.715Y-106.604
X105.918Y-126.492
X105.969Y-124.46
X105.994Y-104.75
X106.02Y-122.479
X106.274Y-109.576
X106.68Y-87.376
X106.68Y-130.048
X106.985Y-108.026
X107.061Y-93.574
X107.086Y-96.926
X107.086Y-99.72
X107.112Y-89.992
X107.213Y-105.943
X107.696Y-117.602
X108.001Y-122.276
X108.077Y-126.492
X108.56Y-104.75
X108.661Y-107.417
X109.322Y-110.211
X109.779Y-120.193
X110.033Y-118.11
X110.134Y-121.717
X110.388Y-109.118
X110.49Y-107.442
X110.795Y-111.709
X110.947Y-104.75
X111.76Y-87.376
X111.76Y-89.916
X111.76Y-130.048
X111.862Y-95.098
X111.862Y-97.028
X111.887Y-93.294
X111.912Y-117.348
X112.116Y-115.418
X112.166Y-110.846
X112.217Y-113.182
X112.852Y-109.195
X112.903Y-106.756
X113.03Y-126.086
X113.132Y-120.193
X113.182Y-104.75
X113.182Y-118.11
X113.436Y-97.028
X113.436Y-121.768
X113.614Y-89.052
X113.665Y-111.887
X113.843Y-94.183
X114.605Y-91.643
X114.859Y-97.028
X114.91Y-107.315
X114.96Y-90.068
X115.214Y-113.386
X115.24Y-104.75
X115.519Y-118.161
X115.722Y-115.976
X116.054Y-111.252
X116.129Y-124.358
X116.154Y-94.513
X116.18Y-92.558
X116.23Y-120.193
X116.256Y-96.977
X116.484Y-89.814
X116.84Y-87.376
X116.84Y-130.048
X117.348Y-111.252
X117.399Y-91.237
X117.45Y-121.412
X117.475Y-106.975
X117.475Y-109.322
X117.907Y-104.038
X117.907Y-114.021
X118.11Y-118.11
X118.466Y-120.244
X118.77Y-99.924
X118.77Y-101.397
X119.23Y-95.616
X120.396Y-103.886
X120.396Y-106.553
X120.396Y-116.078
X120.421Y-109.22
X120.425Y-110.9
X120.498Y-118.161
X120.5Y-89.2
X120.503Y-91.21
X120.599Y-99.924
X120.599Y-120.193
X120.65Y-95.606
X120.904Y-122.555
X120.904Y-126.492
X121.412Y-87.376
X121.412Y-130.048
X121.9Y-101.346
X122.219Y-95.586
X122.377Y-116.281
X122.428Y-109.728
X122.86Y-106.553
X123.038Y-118.161
X123.063Y-97.155
X123.063Y-122.555
X123.063Y-126.492
X123.088Y-88.087
X123.241Y-113.284
X123.393Y-120.193
X123.546Y-99.924
X123.596Y-119.177
X123.698Y-105.283
X123.827Y-98.74
X123.952Y-114.656
X124.333Y-100.899
X124.734Y-95.562
X124.942Y-92.241
X124.968Y-111.125
X125.021Y-93.232
X125.273Y-116.535
X125.578Y-88.697
X125.603Y-91.312
X125.73Y-87.376
X125.73Y-103.886
X125.73Y-106.68
X125.732Y-102.093
X125.984Y-90.17
X126.111Y-122.555
X126.111Y-126.365
X126.136Y-114.681
X126.238Y-120.193
X126.492Y-118.161
X126.85Y-95.645
X127.0Y-130.048
X127.102Y-102.057
X127.762Y-120.193
X127.762Y-126.365
X127.889Y-122.555
X128.143Y-112.903
X128.372Y-116.332
X128.504Y-92.912
X128.577Y-95.594
X128.727Y-118.161
X129.413Y-107.721
X129.647Y-101.802
X130.099Y-114.656
X130.302Y-103.886
X130.302Y-116.535
X130.658Y-118.161
X130.658Y-120.193
X130.937Y-122.555
X130.937Y-126.492
X131.039Y-106.604
X131.445Y-109.093
X131.445Y-110.617
X131.476Y-94.639
X131.826Y-115.113
X131.933Y-93.039
X132.08Y-98.298
X132.08Y-130.048
X132.156Y-101.194
X132.187Y-95.706
X132.944Y-105.054
X133.096Y-122.555
X133.096Y-126.492
X133.35Y-92.837
X133.35Y-118.161
X133.401Y-120.193
X133.604Y-96.266
X133.604Y-113.03
X133.985Y-106.68
X134.315Y-103.708
X134.645Y-101.168
X134.772Y-98.654
X135.026Y-115.062
X135.382Y-94.488
X136.144Y-110.744
X136.525Y-108.966
X136.652Y-96.774
X137.16Y-92.837
X137.16Y-103.251
X137.16Y-106.68
X137.16Y-130.048
X137.185Y-98.679
X137.312Y-101.168
X137.439Y-97.815
X137.668Y-120.193
X137.82Y-113.182
X137.897Y-107.442
X138.125Y-115.062
X138.43Y-123.698
X138.684Y-117.856
X138.938Y-104.013
X138.938Y-106.553
X138.938Y-112.141
X138.989Y-110.058
X139.04Y-97.663
X139.04Y-108.204
X139.192Y-93.574
X140.132Y-97.79
X140.411Y-113.284
X140.868Y-126.898
X141.326Y-102.26
X141.351Y-108.179
X141.376Y-106.705
X141.376Y-112.065
X141.427Y-110.414
X141.453Y-116.23
X141.478Y-94.259
X141.732Y-120.65
X141.783Y-92.71
X142.113Y-104.394
X142.138Y-107.467
X142.189Y-95.479
X142.24Y-130.048
X142.392Y-106.147
X142.519Y-117.831
X142.545Y-115.113
X142.621Y-99.924
X142.85Y-113.538
X143.129Y-107.544
X143.154Y-105.308
X143.764Y-109.347
X143.84Y-96.52
X144.145Y-106.578
X144.577Y-111.582
X144.678Y-92.659
X145.161Y-110.744
X145.39Y-115.113
X145.644Y-112.979
X145.644Y-120.193
X145.664Y-106.238
X145.745Y-118.161
X145.923Y-122.555
X145.923Y-126.492
X146.152Y-93.523
X146.355Y-105.512
X146.507Y-108.306
X146.761Y-92.71
X147.32Y-130.048
X147.879Y-92.964
X147.904Y-111.76
X147.904Y-115.062
X147.93Y-113.589
X148.082Y-122.555
X148.082Y-126.492
X148.234Y-120.193
X148.438Y-118.161
X148.692Y-109.118
X148.895Y-119.177
X148.971Y-105.664
X149.098Y-92.659
X149.098Y-94.132
X149.098Y-95.758
X149.352Y-108.052
X149.454Y-114.452
X149.454Y-117.145
X149.86Y-119.583
X150.012Y-109.118
X150.317Y-111.76
X150.876Y-92.862
X150.876Y-94.132
X150.876Y-95.352
X150.927Y-96.672
X151.13Y-122.555
X151.13Y-126.365
X151.181Y-118.364
X151.384Y-104.648
X151.486Y-113.436
X151.486Y-116.535
X151.587Y-108.204
X152.349Y-97.333
X152.4Y-109.601
X152.4Y-130.048
X152.654Y-92.862
X152.73Y-118.339
X152.781Y-110.744
X152.781Y-126.365
X152.908Y-122.555
X153.213Y-111.76
X153.365Y-97.079
X153.365Y-107.086
X153.416Y-95.047
X154.127Y-114.808
X154.178Y-92.862
X154.33Y-100.076
X154.33Y-107.95
X154.356Y-109.753
X154.381Y-103.073
X154.432Y-97.384
X155.575Y-119.126
X155.702Y-92.862
X155.829Y-122.555
X155.956Y-126.492
X156.108Y-117.196
X156.362Y-101.092
X156.566Y-103.073
X156.718Y-105.613
X156.87Y-96.52
X156.921Y-111.76
X156.972Y-109.728
X157.023Y-114.808
X157.226Y-92.862
X157.48Y-99.441
X157.48Y-130.048
X157.937Y-101.092
X158.09Y-107.036
X158.115Y-122.555
X158.115Y-126.492
X158.598Y-104.851
X158.75Y-92.862
X159.36Y-95.047
X159.461Y-118.313
X159.512Y-101.092
X159.715Y-112.268
X160.122Y-103.022
X160.172Y-99.162
X160.274Y-92.862
X160.274Y-107.188
X160.579Y-100.228
X161.087Y-101.295
X161.138Y-104.292
X161.163Y-123.469
X161.188Y-96.774
X161.849Y-92.862
X161.849Y-119.075
X162.052Y-130.048
X162.865Y-112.268
X163.068Y-94.742
X163.17Y-92.71
X163.627Y-103.378
X163.881Y-105.664
X164.465Y-92.71
X165.354Y-112.268
X165.456Y-97.638
X165.456Y-119.126
X165.71Y-92.71
X165.811Y-95.301
X166.014Y-122.326
X166.116Y-104.521
X167.03Y-108.052
X167.03Y-116.484
X167.64Y-130.048
X168.148Y-100.584
X168.656Y-96.622
X168.961Y-112.268
X169.113Y-119.685
X169.52Y-106.223
X169.748Y-92.71
X171.704Y-96.52
X171.704Y-101.6
X171.704Y-106.68
X171.704Y-111.76
X171.704Y-116.84
X171.704Y-121.92
X171.704Y-127.0
X171.704Y-130.048
X171.831Y-92.837
T5
X115.95Y-91.125
X118.516Y-89.256
T6
X117.553Y-92.517
X117.553Y-93.787
X117.553Y-95.057
T7
X162.809Y-109.728
X162.809Y-114.808
X162.814Y-99.568
X162.814Y-102.108
X162.814Y-104.648
X165.349Y-109.728
X165.349Y-114.808
T8
X97.0Y-128.0
X102.0Y-128.0
X107.0Y-128.0
X122.0Y-128.0
X127.0Y-128.0
X132.0Y-128.0
X147.0Y-128.0
X152.0Y-128.0
X157.0Y-128.0
T9
X96.882Y-92.188
X96.882Y-97.188
X96.882Y-102.188
X96.882Y-109.057
X96.882Y-114.057
X109.474Y-92.205
X109.474Y-114.805
T10
X86.25Y-91.5
X86.25Y-126.0
X167.75Y-91.5
X167.75Y-126.0
T0
M30
