%FSLAX45Y45*%
G04 Gerber Fmt 4.5, Leading zero omitted, Abs format (unit mm)*
G04 Created by KiCad (PCBNEW (6.0.1-0)) date 2022-02-05 10:05:21*
%MOMM*%
%LPD*%
G01*
G04 APERTURE LIST*
%TA.AperFunction,Profile*%
%ADD10C,0.100000*%
%TD*%
%ADD11C,0.200000*%
%ADD12C,0.025000*%
%ADD13C,0.030000*%
%ADD14C,0.040000*%
%ADD15C,0.060000*%
%ADD16C,0.100000*%
%ADD17C,0.132000*%
%ADD18C,0.150000*%
G04 APERTURE END LIST*
D10*
X8125000Y-8650000D02*
X17275000Y-8650000D01*
X17275000Y-8650000D02*
X17275000Y-13100000D01*
X17275000Y-13100000D02*
X8125000Y-13100000D01*
X8125000Y-13100000D02*
X8125000Y-8650000D01*
D11*
D12*
X14558422Y-10195937D02*
X14583422Y-10220937D01*
X14583422Y-10195937D02*
X14558422Y-10220937D01*
X14558522Y-9986448D02*
X14583522Y-10011448D01*
X14583522Y-9986448D02*
X14558522Y-10011448D01*
X14558660Y-10091620D02*
X14583660Y-10116620D01*
X14583660Y-10091620D02*
X14558660Y-10116620D01*
X14652642Y-9891348D02*
X14677642Y-9916348D01*
X14677642Y-9891348D02*
X14652642Y-9916348D01*
X14653375Y-10291536D02*
X14678375Y-10316536D01*
X14678375Y-10291536D02*
X14653375Y-10316536D01*
X14653560Y-9986620D02*
X14678560Y-10011620D01*
X14678560Y-9986620D02*
X14653560Y-10011620D01*
X14653560Y-10196620D02*
X14678560Y-10221620D01*
X14678560Y-10196620D02*
X14653560Y-10221620D01*
X14653660Y-10091620D02*
X14678660Y-10116620D01*
X14678660Y-10091620D02*
X14653660Y-10116620D01*
X14758660Y-9891620D02*
X14783660Y-9916620D01*
X14783660Y-9891620D02*
X14758660Y-9916620D01*
X14758660Y-9986620D02*
X14783660Y-10011620D01*
X14783660Y-9986620D02*
X14758660Y-10011620D01*
X14758660Y-10091620D02*
X14783660Y-10116620D01*
X14783660Y-10091620D02*
X14758660Y-10116620D01*
X14758660Y-10196620D02*
X14783660Y-10221620D01*
X14783660Y-10196620D02*
X14758660Y-10221620D01*
X14758660Y-10291620D02*
X14783660Y-10316620D01*
X14783660Y-10291620D02*
X14758660Y-10316620D01*
X14863153Y-9891448D02*
X14888153Y-9916448D01*
X14888153Y-9891448D02*
X14863153Y-9916448D01*
X14863660Y-9986620D02*
X14888660Y-10011620D01*
X14888660Y-9986620D02*
X14863660Y-10011620D01*
X14863660Y-10091620D02*
X14888660Y-10116620D01*
X14888660Y-10091620D02*
X14863660Y-10116620D01*
X14863660Y-10196620D02*
X14888660Y-10221620D01*
X14888660Y-10196620D02*
X14863660Y-10221620D01*
X14863660Y-10291620D02*
X14888660Y-10316620D01*
X14888660Y-10291620D02*
X14863660Y-10316620D01*
X14958153Y-9986448D02*
X14983153Y-10011448D01*
X14983153Y-9986448D02*
X14958153Y-10011448D01*
X14958297Y-10196506D02*
X14983297Y-10221506D01*
X14983297Y-10196506D02*
X14958297Y-10221506D01*
X14958660Y-10091620D02*
X14983660Y-10116620D01*
X14983660Y-10091620D02*
X14958660Y-10116620D01*
D13*
X14801160Y-9205080D02*
G75*
G03*
X14801160Y-9205080I-15000J0D01*
G01*
D14*
X8229600Y-8717600D02*
X8229600Y-8757600D01*
X8209600Y-8737600D02*
X8249600Y-8737600D01*
X8229600Y-9124000D02*
X8229600Y-9164000D01*
X8209600Y-9144000D02*
X8249600Y-9144000D01*
X8229600Y-9632000D02*
X8229600Y-9672000D01*
X8209600Y-9652000D02*
X8249600Y-9652000D01*
X8229600Y-10140000D02*
X8229600Y-10180000D01*
X8209600Y-10160000D02*
X8249600Y-10160000D01*
X8229600Y-10648000D02*
X8229600Y-10688000D01*
X8209600Y-10668000D02*
X8249600Y-10668000D01*
X8229600Y-11206800D02*
X8229600Y-11246800D01*
X8209600Y-11226800D02*
X8249600Y-11226800D01*
X8229600Y-12680000D02*
X8229600Y-12720000D01*
X8209600Y-12700000D02*
X8249600Y-12700000D01*
X8229600Y-12984800D02*
X8229600Y-13024800D01*
X8209600Y-13004800D02*
X8249600Y-13004800D01*
X8280400Y-11664000D02*
X8280400Y-11704000D01*
X8260400Y-11684000D02*
X8300400Y-11684000D01*
X8280400Y-12172000D02*
X8280400Y-12212000D01*
X8260400Y-12192000D02*
X8300400Y-12192000D01*
X8636000Y-8717600D02*
X8636000Y-8757600D01*
X8616000Y-8737600D02*
X8656000Y-8737600D01*
X8636000Y-12984800D02*
X8636000Y-13024800D01*
X8616000Y-13004800D02*
X8656000Y-13004800D01*
X8686800Y-11981500D02*
X8686800Y-12021500D01*
X8666800Y-12001500D02*
X8706800Y-12001500D01*
X8775700Y-11232200D02*
X8775700Y-11272200D01*
X8755700Y-11252200D02*
X8795700Y-11252200D01*
X8788400Y-10228900D02*
X8788400Y-10268900D01*
X8768400Y-10248900D02*
X8808400Y-10248900D01*
X8813800Y-9759000D02*
X8813800Y-9799000D01*
X8793800Y-9779000D02*
X8833800Y-9779000D01*
X9017000Y-12184700D02*
X9017000Y-12224700D01*
X8997000Y-12204700D02*
X9037000Y-12204700D01*
X9131300Y-9301800D02*
X9131300Y-9341800D01*
X9111300Y-9321800D02*
X9151300Y-9321800D01*
X9144000Y-8717600D02*
X9144000Y-8757600D01*
X9124000Y-8737600D02*
X9164000Y-8737600D01*
X9144000Y-12984800D02*
X9144000Y-13024800D01*
X9124000Y-13004800D02*
X9164000Y-13004800D01*
X9309100Y-10279700D02*
X9309100Y-10319700D01*
X9289100Y-10299700D02*
X9329100Y-10299700D01*
X9309100Y-10660700D02*
X9309100Y-10700700D01*
X9289100Y-10680700D02*
X9329100Y-10680700D01*
X9410700Y-11295700D02*
X9410700Y-11335700D01*
X9390700Y-11315700D02*
X9430700Y-11315700D01*
X9410700Y-11676700D02*
X9410700Y-11716700D01*
X9390700Y-11696700D02*
X9430700Y-11696700D01*
X9486900Y-10063800D02*
X9486900Y-10103800D01*
X9466900Y-10083800D02*
X9506900Y-10083800D01*
X9550400Y-11867200D02*
X9550400Y-11907200D01*
X9530400Y-11887200D02*
X9570400Y-11887200D01*
X9563100Y-9085900D02*
X9563100Y-9125900D01*
X9543100Y-9105900D02*
X9583100Y-9105900D01*
X9563100Y-10228900D02*
X9563100Y-10268900D01*
X9543100Y-10248900D02*
X9583100Y-10248900D01*
X9588500Y-12235500D02*
X9588500Y-12275500D01*
X9568500Y-12255500D02*
X9608500Y-12255500D01*
X9588500Y-12629200D02*
X9588500Y-12669200D01*
X9568500Y-12649200D02*
X9608500Y-12649200D01*
X9652000Y-8717600D02*
X9652000Y-8757600D01*
X9632000Y-8737600D02*
X9672000Y-8737600D01*
X9652000Y-12984800D02*
X9652000Y-13024800D01*
X9632000Y-13004800D02*
X9672000Y-13004800D01*
X9804400Y-12629200D02*
X9804400Y-12669200D01*
X9784400Y-12649200D02*
X9824400Y-12649200D01*
X9817100Y-12235500D02*
X9817100Y-12275500D01*
X9797100Y-12255500D02*
X9837100Y-12255500D01*
X9842500Y-9835200D02*
X9842500Y-9875200D01*
X9822500Y-9855200D02*
X9862500Y-9855200D01*
X9842500Y-12019600D02*
X9842500Y-12059600D01*
X9822500Y-12039600D02*
X9862500Y-12039600D01*
X9893300Y-10228900D02*
X9893300Y-10268900D01*
X9873300Y-10248900D02*
X9913300Y-10248900D01*
X10000000Y-11897680D02*
X10000000Y-11937680D01*
X9980000Y-11917680D02*
X10020000Y-11917680D01*
X10020300Y-11181400D02*
X10020300Y-11221400D01*
X10000300Y-11201400D02*
X10040300Y-11201400D01*
X10109200Y-10813100D02*
X10109200Y-10853100D01*
X10089200Y-10833100D02*
X10129200Y-10833100D01*
X10121900Y-12235500D02*
X10121900Y-12275500D01*
X10101900Y-12255500D02*
X10141900Y-12255500D01*
X10121900Y-12616500D02*
X10121900Y-12656500D01*
X10101900Y-12636500D02*
X10141900Y-12636500D01*
X10160000Y-8717600D02*
X10160000Y-8757600D01*
X10140000Y-8737600D02*
X10180000Y-8737600D01*
X10160000Y-12984800D02*
X10160000Y-13024800D01*
X10140000Y-13004800D02*
X10180000Y-13004800D01*
X10198100Y-9327200D02*
X10198100Y-9367200D01*
X10178100Y-9347200D02*
X10218100Y-9347200D01*
X10248900Y-10228900D02*
X10248900Y-10268900D01*
X10228900Y-10248900D02*
X10268900Y-10248900D01*
X10248900Y-11460800D02*
X10248900Y-11500800D01*
X10228900Y-11480800D02*
X10268900Y-11480800D01*
X10274300Y-12616500D02*
X10274300Y-12656500D01*
X10254300Y-12636500D02*
X10294300Y-12636500D01*
X10287000Y-12235500D02*
X10287000Y-12275500D01*
X10267000Y-12255500D02*
X10307000Y-12255500D01*
X10363200Y-11740200D02*
X10363200Y-11780200D01*
X10343200Y-11760200D02*
X10383200Y-11760200D01*
X10490200Y-10787700D02*
X10490200Y-10827700D01*
X10470200Y-10807700D02*
X10510200Y-10807700D01*
X10553700Y-11181400D02*
X10553700Y-11221400D01*
X10533700Y-11201400D02*
X10573700Y-11201400D01*
X10553700Y-12032300D02*
X10553700Y-12072300D01*
X10533700Y-12052300D02*
X10573700Y-12052300D01*
X10591800Y-8984300D02*
X10591800Y-9024300D01*
X10571800Y-9004300D02*
X10611800Y-9004300D01*
X10591800Y-9314500D02*
X10591800Y-9354500D01*
X10571800Y-9334500D02*
X10611800Y-9334500D01*
X10591800Y-9670100D02*
X10591800Y-9710100D01*
X10571800Y-9690100D02*
X10611800Y-9690100D01*
X10591800Y-9962200D02*
X10591800Y-10002200D01*
X10571800Y-9982200D02*
X10611800Y-9982200D01*
X10591800Y-10228900D02*
X10591800Y-10268900D01*
X10571800Y-10248900D02*
X10611800Y-10248900D01*
X10591800Y-12629200D02*
X10591800Y-12669200D01*
X10571800Y-12649200D02*
X10611800Y-12649200D01*
X10604500Y-12235500D02*
X10604500Y-12275500D01*
X10584500Y-12255500D02*
X10624500Y-12255500D01*
X10655300Y-10724200D02*
X10655300Y-10764200D01*
X10635300Y-10744200D02*
X10675300Y-10744200D01*
X10668000Y-8717600D02*
X10668000Y-8757600D01*
X10648000Y-8737600D02*
X10688000Y-8737600D01*
X10668000Y-12984800D02*
X10668000Y-13024800D01*
X10648000Y-13004800D02*
X10688000Y-13004800D01*
X10744200Y-11041700D02*
X10744200Y-11081700D01*
X10724200Y-11061700D02*
X10764200Y-11061700D01*
X10807700Y-12235500D02*
X10807700Y-12275500D01*
X10787700Y-12255500D02*
X10827700Y-12255500D01*
X10807700Y-12629200D02*
X10807700Y-12669200D01*
X10787700Y-12649200D02*
X10827700Y-12649200D01*
X10845800Y-10902000D02*
X10845800Y-10942000D01*
X10825800Y-10922000D02*
X10865800Y-10922000D01*
X10947400Y-9987600D02*
X10947400Y-10027600D01*
X10927400Y-10007600D02*
X10967400Y-10007600D01*
X10947400Y-10228900D02*
X10947400Y-10268900D01*
X10927400Y-10248900D02*
X10967400Y-10248900D01*
X11036300Y-11079800D02*
X11036300Y-11119800D01*
X11016300Y-11099800D02*
X11056300Y-11099800D01*
X11049000Y-10724200D02*
X11049000Y-10764200D01*
X11029000Y-10744200D02*
X11069000Y-10744200D01*
X11087100Y-10902000D02*
X11087100Y-10942000D01*
X11067100Y-10922000D02*
X11107100Y-10922000D01*
X11112500Y-11689400D02*
X11112500Y-11729400D01*
X11092500Y-11709400D02*
X11132500Y-11709400D01*
X11125200Y-8971600D02*
X11125200Y-9011600D01*
X11105200Y-8991600D02*
X11145200Y-8991600D01*
X11125200Y-9314500D02*
X11125200Y-9354500D01*
X11105200Y-9334500D02*
X11145200Y-9334500D01*
X11125200Y-9670100D02*
X11125200Y-9710100D01*
X11105200Y-9690100D02*
X11145200Y-9690100D01*
X11125200Y-11410000D02*
X11125200Y-11450000D01*
X11105200Y-11430000D02*
X11145200Y-11430000D01*
X11176000Y-8717600D02*
X11176000Y-8757600D01*
X11156000Y-8737600D02*
X11196000Y-8737600D01*
X11176000Y-12984800D02*
X11176000Y-13024800D01*
X11156000Y-13004800D02*
X11196000Y-13004800D01*
X11277600Y-11321100D02*
X11277600Y-11361100D01*
X11257600Y-11341100D02*
X11297600Y-11341100D01*
X11290300Y-9987600D02*
X11290300Y-10027600D01*
X11270300Y-10007600D02*
X11310300Y-10007600D01*
X11290300Y-10228900D02*
X11290300Y-10268900D01*
X11270300Y-10248900D02*
X11310300Y-10248900D01*
X11290300Y-10952800D02*
X11290300Y-10992800D01*
X11270300Y-10972800D02*
X11310300Y-10972800D01*
X11290300Y-11752900D02*
X11290300Y-11792900D01*
X11270300Y-11772900D02*
X11310300Y-11772900D01*
X11366500Y-10724200D02*
X11366500Y-10764200D01*
X11346500Y-10744200D02*
X11386500Y-10744200D01*
X11366500Y-11168700D02*
X11366500Y-11208700D01*
X11346500Y-11188700D02*
X11386500Y-11188700D01*
X11404600Y-8895400D02*
X11404600Y-8935400D01*
X11384600Y-8915400D02*
X11424600Y-8915400D01*
X11430000Y-12476800D02*
X11430000Y-12516800D01*
X11410000Y-12496800D02*
X11450000Y-12496800D01*
X11455400Y-11105200D02*
X11455400Y-11145200D01*
X11435400Y-11125200D02*
X11475400Y-11125200D01*
X11582400Y-11105200D02*
X11582400Y-11145200D01*
X11562400Y-11125200D02*
X11602400Y-11125200D01*
X11658600Y-10101900D02*
X11658600Y-10141900D01*
X11638600Y-10121900D02*
X11678600Y-10121900D01*
X11673458Y-9084542D02*
X11673458Y-9124542D01*
X11653458Y-9104542D02*
X11693458Y-9104542D01*
X11683618Y-9521422D02*
X11683618Y-9561422D01*
X11663618Y-9541422D02*
X11703618Y-9541422D01*
X11684000Y-8717600D02*
X11684000Y-8757600D01*
X11664000Y-8737600D02*
X11704000Y-8737600D01*
X11684000Y-9987600D02*
X11684000Y-10027600D01*
X11664000Y-10007600D02*
X11704000Y-10007600D01*
X11684000Y-10686100D02*
X11684000Y-10726100D01*
X11664000Y-10706100D02*
X11704000Y-10706100D01*
X11684000Y-12984800D02*
X11684000Y-13024800D01*
X11664000Y-13004800D02*
X11704000Y-13004800D01*
X11772900Y-11105200D02*
X11772900Y-11145200D01*
X11752900Y-11125200D02*
X11792900Y-11125200D01*
X11785600Y-10381300D02*
X11785600Y-10421300D01*
X11765600Y-10401300D02*
X11805600Y-10401300D01*
X11785600Y-11448100D02*
X11785600Y-11488100D01*
X11765600Y-11468100D02*
X11805600Y-11468100D01*
X11813158Y-8995642D02*
X11813158Y-9035642D01*
X11793158Y-9015642D02*
X11833158Y-9015642D01*
X11825858Y-10011642D02*
X11825858Y-10051642D01*
X11805858Y-10031642D02*
X11845858Y-10031642D01*
X11863762Y-9522942D02*
X11863762Y-9562942D01*
X11843762Y-9542942D02*
X11883762Y-9542942D01*
X11950700Y-10114600D02*
X11950700Y-10154600D01*
X11930700Y-10134600D02*
X11970700Y-10134600D01*
X11982540Y-9518464D02*
X11982540Y-9558464D01*
X11962540Y-9538464D02*
X12002540Y-9538464D01*
X12039600Y-10381300D02*
X12039600Y-10421300D01*
X12019600Y-10401300D02*
X12059600Y-10401300D01*
X12039600Y-10635300D02*
X12039600Y-10675300D01*
X12019600Y-10655300D02*
X12059600Y-10655300D01*
X12039600Y-11765600D02*
X12039600Y-11805600D01*
X12019600Y-11785600D02*
X12059600Y-11785600D01*
X12052300Y-11105200D02*
X12052300Y-11145200D01*
X12032300Y-11125200D02*
X12072300Y-11125200D01*
X12052300Y-11397300D02*
X12052300Y-11437300D01*
X12032300Y-11417300D02*
X12072300Y-11417300D01*
X12066962Y-9675342D02*
X12066962Y-9715342D01*
X12046962Y-9695342D02*
X12086962Y-9695342D01*
X12070012Y-9186142D02*
X12070012Y-9226142D01*
X12050012Y-9206142D02*
X12090012Y-9206142D01*
X12090400Y-12235500D02*
X12090400Y-12275500D01*
X12070400Y-12255500D02*
X12110400Y-12255500D01*
X12090400Y-12629200D02*
X12090400Y-12669200D01*
X12070400Y-12649200D02*
X12110400Y-12649200D01*
X12128500Y-11016300D02*
X12128500Y-11056300D01*
X12108500Y-11036300D02*
X12148500Y-11036300D01*
X12141200Y-8717600D02*
X12141200Y-8757600D01*
X12121200Y-8737600D02*
X12161200Y-8737600D01*
X12141200Y-12984800D02*
X12141200Y-13024800D01*
X12121200Y-13004800D02*
X12161200Y-13004800D01*
X12143358Y-9833842D02*
X12143358Y-9873842D01*
X12123358Y-9853842D02*
X12163358Y-9853842D01*
X12193962Y-10049742D02*
X12193962Y-10089742D01*
X12173962Y-10069742D02*
X12213962Y-10069742D01*
X12234070Y-9515997D02*
X12234070Y-9555997D01*
X12214070Y-9535997D02*
X12254070Y-9535997D01*
X12254912Y-9183983D02*
X12254912Y-9223983D01*
X12234912Y-9203983D02*
X12274912Y-9203983D01*
X12255500Y-10508300D02*
X12255500Y-10548300D01*
X12235500Y-10528300D02*
X12275500Y-10528300D01*
X12262738Y-9283043D02*
X12262738Y-9323043D01*
X12242738Y-9303043D02*
X12282738Y-9303043D01*
X12306300Y-12235500D02*
X12306300Y-12275500D01*
X12286300Y-12255500D02*
X12326300Y-12255500D01*
X12306300Y-12629200D02*
X12306300Y-12669200D01*
X12286300Y-12649200D02*
X12326300Y-12649200D01*
X12320962Y-9091042D02*
X12320962Y-9131042D01*
X12300962Y-9111042D02*
X12340962Y-9111042D01*
X12333858Y-10169122D02*
X12333858Y-10209122D01*
X12313858Y-10189122D02*
X12353858Y-10189122D01*
X12359640Y-11897680D02*
X12359640Y-11937680D01*
X12339640Y-11917680D02*
X12379640Y-11917680D01*
X12407900Y-8793800D02*
X12407900Y-8833800D01*
X12387900Y-8813800D02*
X12427900Y-8813800D01*
X12407900Y-11740200D02*
X12407900Y-11780200D01*
X12387900Y-11760200D02*
X12427900Y-11760200D01*
X12445618Y-9524343D02*
X12445618Y-9564343D01*
X12425618Y-9544343D02*
X12465618Y-9544343D01*
X12458700Y-11486200D02*
X12458700Y-11526200D01*
X12438700Y-11506200D02*
X12478700Y-11506200D01*
X12471400Y-12019600D02*
X12471400Y-12059600D01*
X12451400Y-12039600D02*
X12491400Y-12039600D01*
X12496800Y-11092500D02*
X12496800Y-11132500D01*
X12476800Y-11112500D02*
X12516800Y-11112500D01*
X12573000Y-8717600D02*
X12573000Y-8757600D01*
X12553000Y-8737600D02*
X12593000Y-8737600D01*
X12573000Y-8971600D02*
X12573000Y-9011600D01*
X12553000Y-8991600D02*
X12593000Y-8991600D01*
X12573000Y-10368600D02*
X12573000Y-10408600D01*
X12553000Y-10388600D02*
X12593000Y-10388600D01*
X12573000Y-10648000D02*
X12573000Y-10688000D01*
X12553000Y-10668000D02*
X12593000Y-10668000D01*
X12585700Y-10876600D02*
X12585700Y-10916600D01*
X12565700Y-10896600D02*
X12605700Y-10896600D01*
X12611100Y-9251000D02*
X12611100Y-9291000D01*
X12591100Y-9271000D02*
X12631100Y-9271000D01*
X12611100Y-12235500D02*
X12611100Y-12275500D01*
X12591100Y-12255500D02*
X12631100Y-12255500D01*
X12611100Y-12616500D02*
X12611100Y-12656500D01*
X12591100Y-12636500D02*
X12631100Y-12636500D01*
X12618338Y-9519263D02*
X12618338Y-9559263D01*
X12598338Y-9539263D02*
X12638338Y-9539263D01*
X12700000Y-12984800D02*
X12700000Y-13024800D01*
X12680000Y-13004800D02*
X12720000Y-13004800D01*
X12712700Y-11727500D02*
X12712700Y-11767500D01*
X12692700Y-11747500D02*
X12732700Y-11747500D01*
X12725400Y-10140000D02*
X12725400Y-10180000D01*
X12705400Y-10160000D02*
X12745400Y-10160000D01*
X12776200Y-12616500D02*
X12776200Y-12656500D01*
X12756200Y-12636500D02*
X12796200Y-12636500D01*
X12788900Y-12235500D02*
X12788900Y-12275500D01*
X12768900Y-12255500D02*
X12808900Y-12255500D01*
X12814300Y-11270300D02*
X12814300Y-11310300D01*
X12794300Y-11290300D02*
X12834300Y-11290300D01*
X12903200Y-11765600D02*
X12903200Y-11805600D01*
X12883200Y-11785600D02*
X12923200Y-11785600D01*
X12908280Y-9423720D02*
X12908280Y-9463720D01*
X12888280Y-9443720D02*
X12928280Y-9443720D01*
X12928600Y-12019600D02*
X12928600Y-12059600D01*
X12908600Y-12039600D02*
X12948600Y-12039600D01*
X12954000Y-9263700D02*
X12954000Y-9303700D01*
X12934000Y-9283700D02*
X12974000Y-9283700D01*
X12966700Y-9822500D02*
X12966700Y-9862500D01*
X12946700Y-9842500D02*
X12986700Y-9842500D01*
X12966700Y-11575100D02*
X12966700Y-11615100D01*
X12946700Y-11595100D02*
X12986700Y-11595100D01*
X12979400Y-9530400D02*
X12979400Y-9570400D01*
X12959400Y-9550400D02*
X12999400Y-9550400D01*
X13030200Y-10368600D02*
X13030200Y-10408600D01*
X13010200Y-10388600D02*
X13050200Y-10388600D01*
X13042900Y-10648000D02*
X13042900Y-10688000D01*
X13022900Y-10668000D02*
X13062900Y-10668000D01*
X13093700Y-12235500D02*
X13093700Y-12275500D01*
X13073700Y-12255500D02*
X13113700Y-12255500D01*
X13093700Y-12629200D02*
X13093700Y-12669200D01*
X13073700Y-12649200D02*
X13113700Y-12649200D01*
X13144500Y-10889300D02*
X13144500Y-10929300D01*
X13124500Y-10909300D02*
X13164500Y-10909300D01*
X13144500Y-11041700D02*
X13144500Y-11081700D01*
X13124500Y-11061700D02*
X13164500Y-11061700D01*
X13208000Y-12984800D02*
X13208000Y-13024800D01*
X13188000Y-13004800D02*
X13228000Y-13004800D01*
X13233400Y-9797100D02*
X13233400Y-9837100D01*
X13213400Y-9817100D02*
X13253400Y-9817100D01*
X13309600Y-12235500D02*
X13309600Y-12275500D01*
X13289600Y-12255500D02*
X13329600Y-12255500D01*
X13309600Y-12629200D02*
X13309600Y-12669200D01*
X13289600Y-12649200D02*
X13329600Y-12649200D01*
X13335000Y-9263700D02*
X13335000Y-9303700D01*
X13315000Y-9283700D02*
X13355000Y-9283700D01*
X13360400Y-11283000D02*
X13360400Y-11323000D01*
X13340400Y-11303000D02*
X13380400Y-11303000D01*
X13385800Y-11765600D02*
X13385800Y-11805600D01*
X13365800Y-11785600D02*
X13405800Y-11785600D01*
X13398500Y-10368600D02*
X13398500Y-10408600D01*
X13378500Y-10388600D02*
X13418500Y-10388600D01*
X13398500Y-10648000D02*
X13398500Y-10688000D01*
X13378500Y-10668000D02*
X13418500Y-10668000D01*
X13423900Y-11575100D02*
X13423900Y-11615100D01*
X13403900Y-11595100D02*
X13443900Y-11595100D01*
X13614400Y-11054400D02*
X13614400Y-11094400D01*
X13594400Y-11074400D02*
X13634400Y-11074400D01*
X13652500Y-9657400D02*
X13652500Y-9697400D01*
X13632500Y-9677400D02*
X13672500Y-9677400D01*
X13652500Y-10876600D02*
X13652500Y-10916600D01*
X13632500Y-10896600D02*
X13672500Y-10896600D01*
X13703300Y-12184700D02*
X13703300Y-12224700D01*
X13683300Y-12204700D02*
X13723300Y-12204700D01*
X13716000Y-9263700D02*
X13716000Y-9303700D01*
X13696000Y-9283700D02*
X13736000Y-9283700D01*
X13716000Y-9822500D02*
X13716000Y-9862500D01*
X13696000Y-9842500D02*
X13736000Y-9842500D01*
X13716000Y-10063800D02*
X13716000Y-10103800D01*
X13696000Y-10083800D02*
X13736000Y-10083800D01*
X13716000Y-10305100D02*
X13716000Y-10345100D01*
X13696000Y-10325100D02*
X13736000Y-10325100D01*
X13716000Y-10648000D02*
X13716000Y-10688000D01*
X13696000Y-10668000D02*
X13736000Y-10668000D01*
X13716000Y-12984800D02*
X13716000Y-13024800D01*
X13696000Y-13004800D02*
X13736000Y-13004800D01*
X13792200Y-11117900D02*
X13792200Y-11157900D01*
X13772200Y-11137900D02*
X13812200Y-11137900D01*
X13868400Y-11765600D02*
X13868400Y-11805600D01*
X13848400Y-11785600D02*
X13888400Y-11785600D01*
X13893800Y-10381300D02*
X13893800Y-10421300D01*
X13873800Y-10401300D02*
X13913800Y-10401300D01*
X13893800Y-10635300D02*
X13893800Y-10675300D01*
X13873800Y-10655300D02*
X13913800Y-10655300D01*
X13893800Y-11194100D02*
X13893800Y-11234100D01*
X13873800Y-11214100D02*
X13913800Y-11214100D01*
X13893800Y-11448100D02*
X13893800Y-11488100D01*
X13873800Y-11468100D02*
X13913800Y-11468100D01*
X13906500Y-9759000D02*
X13906500Y-9799000D01*
X13886500Y-9779000D02*
X13926500Y-9779000D01*
X13944600Y-12489500D02*
X13944600Y-12529500D01*
X13924600Y-12509500D02*
X13964600Y-12509500D01*
X13957300Y-10101900D02*
X13957300Y-10141900D01*
X13937300Y-10121900D02*
X13977300Y-10121900D01*
X14046200Y-9847900D02*
X14046200Y-9887900D01*
X14026200Y-9867900D02*
X14066200Y-9867900D01*
X14071600Y-11664000D02*
X14071600Y-11704000D01*
X14051600Y-11684000D02*
X14091600Y-11684000D01*
X14135100Y-9695500D02*
X14135100Y-9735500D01*
X14115100Y-9715500D02*
X14155100Y-9715500D01*
X14135100Y-11498900D02*
X14135100Y-11538900D01*
X14115100Y-11518900D02*
X14155100Y-11518900D01*
X14147800Y-9416100D02*
X14147800Y-9456100D01*
X14127800Y-9436100D02*
X14167800Y-9436100D01*
X14160500Y-9263700D02*
X14160500Y-9303700D01*
X14140500Y-9283700D02*
X14180500Y-9283700D01*
X14173200Y-11003600D02*
X14173200Y-11043600D01*
X14153200Y-11023600D02*
X14193200Y-11023600D01*
X14173200Y-11283000D02*
X14173200Y-11323000D01*
X14153200Y-11303000D02*
X14193200Y-11303000D01*
X14173200Y-12045000D02*
X14173200Y-12085000D01*
X14153200Y-12065000D02*
X14193200Y-12065000D01*
X14211300Y-10419400D02*
X14211300Y-10459400D01*
X14191300Y-10439400D02*
X14231300Y-10439400D01*
X14211300Y-10584500D02*
X14211300Y-10624500D01*
X14191300Y-10604500D02*
X14231300Y-10604500D01*
X14224000Y-12984800D02*
X14224000Y-13024800D01*
X14204000Y-13004800D02*
X14244000Y-13004800D01*
X14238000Y-10013000D02*
X14238000Y-10053000D01*
X14218000Y-10033000D02*
X14258000Y-10033000D01*
X14249400Y-9479600D02*
X14249400Y-9519600D01*
X14229400Y-9499600D02*
X14269400Y-9499600D01*
X14287500Y-11283000D02*
X14287500Y-11323000D01*
X14267500Y-11303000D02*
X14307500Y-11303000D01*
X14287500Y-11397300D02*
X14287500Y-11437300D01*
X14267500Y-11417300D02*
X14307500Y-11417300D01*
X14312900Y-10402314D02*
X14312900Y-10442314D01*
X14292900Y-10422314D02*
X14332900Y-10422314D01*
X14338300Y-9543100D02*
X14338300Y-9583100D01*
X14318300Y-9563100D02*
X14358300Y-9563100D01*
X14351000Y-10495600D02*
X14351000Y-10535600D01*
X14331000Y-10515600D02*
X14371000Y-10515600D01*
X14376400Y-10686100D02*
X14376400Y-10726100D01*
X14356400Y-10706100D02*
X14396400Y-10706100D01*
X14376400Y-10914700D02*
X14376400Y-10954700D01*
X14356400Y-10934700D02*
X14396400Y-10934700D01*
X14376400Y-11168700D02*
X14376400Y-11208700D01*
X14356400Y-11188700D02*
X14396400Y-11188700D01*
X14414500Y-9695500D02*
X14414500Y-9735500D01*
X14394500Y-9715500D02*
X14434500Y-9715500D01*
X14516100Y-10609900D02*
X14516100Y-10649900D01*
X14496100Y-10629900D02*
X14536100Y-10629900D01*
X14516100Y-11054400D02*
X14516100Y-11094400D01*
X14496100Y-11074400D02*
X14536100Y-11074400D01*
X14518430Y-9416100D02*
X14518430Y-9456100D01*
X14498430Y-9436100D02*
X14538430Y-9436100D01*
X14554200Y-11765600D02*
X14554200Y-11805600D01*
X14534200Y-11785600D02*
X14574200Y-11785600D01*
X14592300Y-11587800D02*
X14592300Y-11627800D01*
X14572300Y-11607800D02*
X14612300Y-11607800D01*
X14592300Y-12235500D02*
X14592300Y-12275500D01*
X14572300Y-12255500D02*
X14612300Y-12255500D01*
X14592300Y-12629200D02*
X14592300Y-12669200D01*
X14572300Y-12649200D02*
X14612300Y-12649200D01*
X14630400Y-10533700D02*
X14630400Y-10573700D01*
X14610400Y-10553700D02*
X14650400Y-10553700D01*
X14630516Y-9584143D02*
X14630516Y-9624143D01*
X14610516Y-9604143D02*
X14650516Y-9604143D01*
X14643100Y-9276400D02*
X14643100Y-9316400D01*
X14623100Y-9296400D02*
X14663100Y-9296400D01*
X14681200Y-11156000D02*
X14681200Y-11196000D01*
X14661200Y-11176000D02*
X14701200Y-11176000D01*
X14681200Y-11397300D02*
X14681200Y-11437300D01*
X14661200Y-11417300D02*
X14701200Y-11417300D01*
X14732000Y-12984800D02*
X14732000Y-13024800D01*
X14712000Y-13004800D02*
X14752000Y-13004800D01*
X14787880Y-9276400D02*
X14787880Y-9316400D01*
X14767880Y-9296400D02*
X14807880Y-9296400D01*
X14808200Y-12235500D02*
X14808200Y-12275500D01*
X14788200Y-12255500D02*
X14828200Y-12255500D01*
X14808200Y-12629200D02*
X14808200Y-12669200D01*
X14788200Y-12649200D02*
X14828200Y-12649200D01*
X14846300Y-12032300D02*
X14846300Y-12072300D01*
X14826300Y-12052300D02*
X14866300Y-12052300D01*
X14889480Y-11897680D02*
X14889480Y-11937680D01*
X14869480Y-11917680D02*
X14909480Y-11917680D01*
X14897100Y-9276400D02*
X14897100Y-9316400D01*
X14877100Y-9296400D02*
X14917100Y-9296400D01*
X14897100Y-10546400D02*
X14897100Y-10586400D01*
X14877100Y-10566400D02*
X14917100Y-10566400D01*
X14909800Y-9428800D02*
X14909800Y-9468800D01*
X14889800Y-9448800D02*
X14929800Y-9448800D01*
X14915330Y-9581200D02*
X14915330Y-9621200D01*
X14895330Y-9601200D02*
X14935330Y-9601200D01*
X14935200Y-10787700D02*
X14935200Y-10827700D01*
X14915200Y-10807700D02*
X14955200Y-10807700D01*
X15011400Y-11778300D02*
X15011400Y-11818300D01*
X14991400Y-11798300D02*
X15031400Y-11798300D01*
X15062200Y-11168700D02*
X15062200Y-11208700D01*
X15042200Y-11188700D02*
X15082200Y-11188700D01*
X15113000Y-9291640D02*
X15113000Y-9331640D01*
X15093000Y-9311640D02*
X15133000Y-9311640D01*
X15113000Y-9408480D02*
X15113000Y-9448480D01*
X15093000Y-9428480D02*
X15133000Y-9428480D01*
X15113000Y-9510080D02*
X15113000Y-9550080D01*
X15093000Y-9530080D02*
X15133000Y-9530080D01*
X15113000Y-9626920D02*
X15113000Y-9666920D01*
X15093000Y-9646920D02*
X15133000Y-9646920D01*
X15113000Y-11879900D02*
X15113000Y-11919900D01*
X15093000Y-11899900D02*
X15133000Y-11899900D01*
X15113000Y-12235500D02*
X15113000Y-12275500D01*
X15093000Y-12255500D02*
X15133000Y-12255500D01*
X15113000Y-12616500D02*
X15113000Y-12656500D01*
X15093000Y-12636500D02*
X15133000Y-12636500D01*
X15125700Y-11613200D02*
X15125700Y-11653200D01*
X15105700Y-11633200D02*
X15145700Y-11633200D01*
X15138400Y-10444800D02*
X15138400Y-10484800D01*
X15118400Y-10464800D02*
X15158400Y-10464800D01*
X15224760Y-10282240D02*
X15224760Y-10322240D01*
X15204760Y-10302240D02*
X15244760Y-10302240D01*
X15229840Y-10444800D02*
X15229840Y-10484800D01*
X15209840Y-10464800D02*
X15249840Y-10464800D01*
X15240000Y-10940100D02*
X15240000Y-10980100D01*
X15220000Y-10960100D02*
X15260000Y-10960100D01*
X15240000Y-12984800D02*
X15240000Y-13024800D01*
X15220000Y-13004800D02*
X15260000Y-13004800D01*
X15252700Y-11410000D02*
X15252700Y-11450000D01*
X15232700Y-11430000D02*
X15272700Y-11430000D01*
X15265400Y-9291640D02*
X15265400Y-9331640D01*
X15245400Y-9311640D02*
X15285400Y-9311640D01*
X15278100Y-9695500D02*
X15278100Y-9735500D01*
X15258100Y-9715500D02*
X15298100Y-9715500D01*
X15278100Y-11054400D02*
X15278100Y-11094400D01*
X15258100Y-11074400D02*
X15298100Y-11074400D01*
X15278100Y-12616500D02*
X15278100Y-12656500D01*
X15258100Y-12636500D02*
X15298100Y-12636500D01*
X15290800Y-12235500D02*
X15290800Y-12275500D01*
X15270800Y-12255500D02*
X15310800Y-12255500D01*
X15303500Y-11816400D02*
X15303500Y-11856400D01*
X15283500Y-11836400D02*
X15323500Y-11836400D01*
X15336520Y-9794560D02*
X15336520Y-9834560D01*
X15316520Y-9814560D02*
X15356520Y-9814560D01*
X15336520Y-10546400D02*
X15336520Y-10586400D01*
X15316520Y-10566400D02*
X15356520Y-10566400D01*
X15367000Y-11130600D02*
X15367000Y-11170600D01*
X15347000Y-11150600D02*
X15387000Y-11150600D01*
X15379700Y-11511600D02*
X15379700Y-11551600D01*
X15359700Y-11531600D02*
X15399700Y-11531600D01*
X15417800Y-9291640D02*
X15417800Y-9331640D01*
X15397800Y-9311640D02*
X15437800Y-9311640D01*
X15440000Y-10740000D02*
X15440000Y-10780000D01*
X15420000Y-10760000D02*
X15460000Y-10760000D01*
X15443200Y-10089200D02*
X15443200Y-10129200D01*
X15423200Y-10109200D02*
X15463200Y-10109200D01*
X15481300Y-11371900D02*
X15481300Y-11411900D01*
X15461300Y-11391900D02*
X15501300Y-11391900D01*
X15494000Y-9555800D02*
X15494000Y-9595800D01*
X15474000Y-9575800D02*
X15514000Y-9575800D01*
X15557500Y-11892600D02*
X15557500Y-11932600D01*
X15537500Y-11912600D02*
X15577500Y-11912600D01*
X15570200Y-9291640D02*
X15570200Y-9331640D01*
X15550200Y-9311640D02*
X15590200Y-9311640D01*
X15582900Y-12235500D02*
X15582900Y-12275500D01*
X15562900Y-12255500D02*
X15602900Y-12255500D01*
X15595600Y-12629200D02*
X15595600Y-12669200D01*
X15575600Y-12649200D02*
X15615600Y-12649200D01*
X15646400Y-10292400D02*
X15646400Y-10332400D01*
X15626400Y-10312400D02*
X15666400Y-10312400D01*
X15646400Y-11181400D02*
X15646400Y-11221400D01*
X15626400Y-11201400D02*
X15666400Y-11201400D01*
X15646400Y-11333800D02*
X15646400Y-11373800D01*
X15626400Y-11353800D02*
X15666400Y-11353800D01*
X15722600Y-9291640D02*
X15722600Y-9331640D01*
X15702600Y-9311640D02*
X15742600Y-9311640D01*
X15748000Y-9924100D02*
X15748000Y-9964100D01*
X15728000Y-9944100D02*
X15768000Y-9944100D01*
X15748000Y-12984800D02*
X15748000Y-13024800D01*
X15728000Y-13004800D02*
X15768000Y-13004800D01*
X15798800Y-10508300D02*
X15798800Y-10548300D01*
X15778800Y-10528300D02*
X15818800Y-10528300D01*
X15811500Y-12235500D02*
X15811500Y-12275500D01*
X15791500Y-12255500D02*
X15831500Y-12255500D01*
X15811500Y-12629200D02*
X15811500Y-12669200D01*
X15791500Y-12649200D02*
X15831500Y-12649200D01*
X15814040Y-9652320D02*
X15814040Y-9692320D01*
X15794040Y-9672320D02*
X15834040Y-9672320D01*
X15849600Y-11841800D02*
X15849600Y-11881800D01*
X15829600Y-11861800D02*
X15869600Y-11861800D01*
X15862300Y-10902000D02*
X15862300Y-10942000D01*
X15842300Y-10922000D02*
X15882300Y-10922000D01*
X15875000Y-9291640D02*
X15875000Y-9331640D01*
X15855000Y-9311640D02*
X15895000Y-9311640D01*
X15875000Y-10292400D02*
X15875000Y-10332400D01*
X15855000Y-10312400D02*
X15895000Y-10312400D01*
X15887700Y-10063800D02*
X15887700Y-10103800D01*
X15867700Y-10083800D02*
X15907700Y-10083800D01*
X15900400Y-11651300D02*
X15900400Y-11691300D01*
X15880400Y-11671300D02*
X15920400Y-11671300D01*
X15938500Y-11181400D02*
X15938500Y-11221400D01*
X15918500Y-11201400D02*
X15958500Y-11201400D01*
X15976600Y-10762300D02*
X15976600Y-10802300D01*
X15956600Y-10782300D02*
X15996600Y-10782300D01*
X16027400Y-9291640D02*
X16027400Y-9331640D01*
X16007400Y-9311640D02*
X16047400Y-9311640D01*
X16068040Y-10236520D02*
X16068040Y-10276520D01*
X16048040Y-10256520D02*
X16088040Y-10256520D01*
X16078200Y-9505000D02*
X16078200Y-9545000D01*
X16058200Y-9525000D02*
X16098200Y-9525000D01*
X16103600Y-10495600D02*
X16103600Y-10535600D01*
X16083600Y-10515600D02*
X16123600Y-10515600D01*
X16103600Y-11168700D02*
X16103600Y-11208700D01*
X16083600Y-11188700D02*
X16123600Y-11188700D01*
X16103600Y-11333800D02*
X16103600Y-11373800D01*
X16083600Y-11353800D02*
X16123600Y-11353800D01*
X16174720Y-10317800D02*
X16174720Y-10357800D01*
X16154720Y-10337800D02*
X16194720Y-10337800D01*
X16184880Y-9291640D02*
X16184880Y-9331640D01*
X16164880Y-9311640D02*
X16204880Y-9311640D01*
X16205200Y-12984800D02*
X16205200Y-13024800D01*
X16185200Y-13004800D02*
X16225200Y-13004800D01*
X16281400Y-11448100D02*
X16281400Y-11488100D01*
X16261400Y-11468100D02*
X16301400Y-11468100D01*
X16294100Y-12248200D02*
X16294100Y-12288200D01*
X16274100Y-12268200D02*
X16314100Y-12268200D01*
X16319500Y-11791000D02*
X16319500Y-11831000D01*
X16299500Y-11811000D02*
X16339500Y-11811000D01*
X16383000Y-10317800D02*
X16383000Y-10357800D01*
X16363000Y-10337800D02*
X16403000Y-10337800D01*
X16383000Y-10660700D02*
X16383000Y-10700700D01*
X16363000Y-10680700D02*
X16403000Y-10680700D01*
X16446500Y-9251000D02*
X16446500Y-9291000D01*
X16426500Y-9271000D02*
X16466500Y-9271000D01*
X16484600Y-11270300D02*
X16484600Y-11310300D01*
X16464600Y-11290300D02*
X16504600Y-11290300D01*
X16510000Y-9517700D02*
X16510000Y-9557700D01*
X16490000Y-9537700D02*
X16530000Y-9537700D01*
X16611600Y-10432100D02*
X16611600Y-10472100D01*
X16591600Y-10452100D02*
X16631600Y-10452100D01*
X16713200Y-11765600D02*
X16713200Y-11805600D01*
X16693200Y-11785600D02*
X16733200Y-11785600D01*
X16725900Y-10787700D02*
X16725900Y-10827700D01*
X16705900Y-10807700D02*
X16745900Y-10807700D01*
X16764000Y-12984800D02*
X16764000Y-13024800D01*
X16744000Y-13004800D02*
X16784000Y-13004800D01*
X16789400Y-11397300D02*
X16789400Y-11437300D01*
X16769400Y-11417300D02*
X16809400Y-11417300D01*
X16814800Y-9720900D02*
X16814800Y-9760900D01*
X16794800Y-9740900D02*
X16834800Y-9740900D01*
X16814800Y-10038400D02*
X16814800Y-10078400D01*
X16794800Y-10058400D02*
X16834800Y-10058400D01*
X16967200Y-9428800D02*
X16967200Y-9468800D01*
X16947200Y-9448800D02*
X16987200Y-9448800D01*
X17170400Y-9632000D02*
X17170400Y-9672000D01*
X17150400Y-9652000D02*
X17190400Y-9652000D01*
X17170400Y-10140000D02*
X17170400Y-10180000D01*
X17150400Y-10160000D02*
X17190400Y-10160000D01*
X17170400Y-10648000D02*
X17170400Y-10688000D01*
X17150400Y-10668000D02*
X17190400Y-10668000D01*
X17170400Y-11156000D02*
X17170400Y-11196000D01*
X17150400Y-11176000D02*
X17190400Y-11176000D01*
X17170400Y-11664000D02*
X17170400Y-11704000D01*
X17150400Y-11684000D02*
X17190400Y-11684000D01*
X17170400Y-12172000D02*
X17170400Y-12212000D01*
X17150400Y-12192000D02*
X17190400Y-12192000D01*
X17170400Y-12680000D02*
X17170400Y-12720000D01*
X17150400Y-12700000D02*
X17190400Y-12700000D01*
X17170400Y-12984800D02*
X17170400Y-13024800D01*
X17150400Y-13004800D02*
X17190400Y-13004800D01*
X17183100Y-9263700D02*
X17183100Y-9303700D01*
X17163100Y-9283700D02*
X17203100Y-9283700D01*
D15*
X11537191Y-9252756D02*
X11537191Y-9210329D01*
X11494765Y-9210329D01*
X11494765Y-9252756D01*
X11537191Y-9252756D01*
X11537191Y-9379756D02*
X11537191Y-9337329D01*
X11494765Y-9337329D01*
X11494765Y-9379756D01*
X11537191Y-9379756D01*
X11537191Y-9506756D02*
X11537191Y-9464329D01*
X11494765Y-9464329D01*
X11494765Y-9506756D01*
X11537191Y-9506756D01*
D16*
X16281400Y-10006800D02*
X16331400Y-9956800D01*
X16281400Y-9906800D01*
X16231400Y-9956800D01*
X16281400Y-10006800D01*
X16281400Y-10260800D02*
X16331400Y-10210800D01*
X16281400Y-10160800D01*
X16231400Y-10210800D01*
X16281400Y-10260800D01*
X16281400Y-10514800D02*
X16331400Y-10464800D01*
X16281400Y-10414800D01*
X16231400Y-10464800D01*
X16281400Y-10514800D01*
X16281400Y-11088840D02*
X16331400Y-11038840D01*
X16281400Y-10988840D01*
X16231400Y-11038840D01*
X16281400Y-11088840D01*
X16281400Y-11342840D02*
X16331400Y-11292840D01*
X16281400Y-11242840D01*
X16231400Y-11292840D01*
X16281400Y-11342840D01*
D17*
X9634000Y-12734000D02*
X9766000Y-12866000D01*
X9766000Y-12734000D02*
X9634000Y-12866000D01*
X9766000Y-12800000D02*
G75*
G03*
X9766000Y-12800000I-66000J0D01*
G01*
X10134000Y-12734000D02*
X10266000Y-12866000D01*
X10266000Y-12734000D02*
X10134000Y-12866000D01*
X10266000Y-12800000D02*
G75*
G03*
X10266000Y-12800000I-66000J0D01*
G01*
X10634000Y-12734000D02*
X10766000Y-12866000D01*
X10766000Y-12734000D02*
X10634000Y-12866000D01*
X10766000Y-12800000D02*
G75*
G03*
X10766000Y-12800000I-66000J0D01*
G01*
X12134000Y-12734000D02*
X12266000Y-12866000D01*
X12266000Y-12734000D02*
X12134000Y-12866000D01*
X12266000Y-12800000D02*
G75*
G03*
X12266000Y-12800000I-66000J0D01*
G01*
X12634000Y-12734000D02*
X12766000Y-12866000D01*
X12766000Y-12734000D02*
X12634000Y-12866000D01*
X12766000Y-12800000D02*
G75*
G03*
X12766000Y-12800000I-66000J0D01*
G01*
X13134000Y-12734000D02*
X13266000Y-12866000D01*
X13266000Y-12734000D02*
X13134000Y-12866000D01*
X13266000Y-12800000D02*
G75*
G03*
X13266000Y-12800000I-66000J0D01*
G01*
X14634000Y-12734000D02*
X14766000Y-12866000D01*
X14766000Y-12734000D02*
X14634000Y-12866000D01*
X14766000Y-12800000D02*
G75*
G03*
X14766000Y-12800000I-66000J0D01*
G01*
X15134000Y-12734000D02*
X15266000Y-12866000D01*
X15266000Y-12734000D02*
X15134000Y-12866000D01*
X15266000Y-12800000D02*
G75*
G03*
X15266000Y-12800000I-66000J0D01*
G01*
X15634000Y-12734000D02*
X15766000Y-12866000D01*
X15766000Y-12734000D02*
X15634000Y-12866000D01*
X15766000Y-12800000D02*
G75*
G03*
X15766000Y-12800000I-66000J0D01*
G01*
D18*
X9615000Y-9435000D02*
X9765000Y-9585000D01*
X9765000Y-9435000D02*
X9615000Y-9585000D01*
X9690000Y-9435000D02*
X9690000Y-9585000D01*
X9615000Y-9510000D02*
X9765000Y-9510000D01*
X9615000Y-9935000D02*
X9765000Y-10085000D01*
X9765000Y-9935000D02*
X9615000Y-10085000D01*
X9690000Y-9935000D02*
X9690000Y-10085000D01*
X9615000Y-10010000D02*
X9765000Y-10010000D01*
X9615000Y-10435000D02*
X9765000Y-10585000D01*
X9765000Y-10435000D02*
X9615000Y-10585000D01*
X9690000Y-10435000D02*
X9690000Y-10585000D01*
X9615000Y-10510000D02*
X9765000Y-10510000D01*
X9615000Y-10935000D02*
X9765000Y-11085000D01*
X9765000Y-10935000D02*
X9615000Y-11085000D01*
X9690000Y-10935000D02*
X9690000Y-11085000D01*
X9615000Y-11010000D02*
X9765000Y-11010000D01*
X9615000Y-11435000D02*
X9765000Y-11585000D01*
X9765000Y-11435000D02*
X9615000Y-11585000D01*
X9690000Y-11435000D02*
X9690000Y-11585000D01*
X9615000Y-11510000D02*
X9765000Y-11510000D01*
X10780960Y-9145500D02*
X10930960Y-9295500D01*
X10930960Y-9145500D02*
X10780960Y-9295500D01*
X10855960Y-9145500D02*
X10855960Y-9295500D01*
X10780960Y-9220500D02*
X10930960Y-9220500D01*
X10780960Y-11405500D02*
X10930960Y-11555500D01*
X10930960Y-11405500D02*
X10780960Y-11555500D01*
X10855960Y-11405500D02*
X10855960Y-11555500D01*
X10780960Y-11480500D02*
X10930960Y-11480500D01*
D11*
X8377619Y-13415476D02*
X8377619Y-13215476D01*
X8425238Y-13215476D01*
X8453810Y-13225000D01*
X8472857Y-13244048D01*
X8482381Y-13263095D01*
X8491905Y-13301190D01*
X8491905Y-13329762D01*
X8482381Y-13367857D01*
X8472857Y-13386905D01*
X8453810Y-13405952D01*
X8425238Y-13415476D01*
X8377619Y-13415476D01*
X8577619Y-13415476D02*
X8577619Y-13282143D01*
X8577619Y-13320238D02*
X8587143Y-13301190D01*
X8596667Y-13291667D01*
X8615714Y-13282143D01*
X8634762Y-13282143D01*
X8701429Y-13415476D02*
X8701429Y-13282143D01*
X8701429Y-13215476D02*
X8691905Y-13225000D01*
X8701429Y-13234524D01*
X8710952Y-13225000D01*
X8701429Y-13215476D01*
X8701429Y-13234524D01*
X8825238Y-13415476D02*
X8806190Y-13405952D01*
X8796667Y-13386905D01*
X8796667Y-13215476D01*
X8930000Y-13415476D02*
X8910952Y-13405952D01*
X8901429Y-13386905D01*
X8901429Y-13215476D01*
X9158571Y-13415476D02*
X9158571Y-13215476D01*
X9225238Y-13358333D01*
X9291905Y-13215476D01*
X9291905Y-13415476D01*
X9472857Y-13415476D02*
X9472857Y-13310714D01*
X9463333Y-13291667D01*
X9444286Y-13282143D01*
X9406190Y-13282143D01*
X9387143Y-13291667D01*
X9472857Y-13405952D02*
X9453810Y-13415476D01*
X9406190Y-13415476D01*
X9387143Y-13405952D01*
X9377619Y-13386905D01*
X9377619Y-13367857D01*
X9387143Y-13348809D01*
X9406190Y-13339286D01*
X9453810Y-13339286D01*
X9472857Y-13329762D01*
X9568095Y-13282143D02*
X9568095Y-13482143D01*
X9568095Y-13291667D02*
X9587143Y-13282143D01*
X9625238Y-13282143D01*
X9644286Y-13291667D01*
X9653810Y-13301190D01*
X9663333Y-13320238D01*
X9663333Y-13377381D01*
X9653810Y-13396428D01*
X9644286Y-13405952D01*
X9625238Y-13415476D01*
X9587143Y-13415476D01*
X9568095Y-13405952D01*
X9749048Y-13396428D02*
X9758571Y-13405952D01*
X9749048Y-13415476D01*
X9739524Y-13405952D01*
X9749048Y-13396428D01*
X9749048Y-13415476D01*
X9749048Y-13291667D02*
X9758571Y-13301190D01*
X9749048Y-13310714D01*
X9739524Y-13301190D01*
X9749048Y-13291667D01*
X9749048Y-13310714D01*
D12*
X8095000Y-13732500D02*
X8120000Y-13757500D01*
X8120000Y-13732500D02*
X8095000Y-13757500D01*
D11*
X8415714Y-13635476D02*
X8434762Y-13635476D01*
X8453810Y-13645000D01*
X8463333Y-13654524D01*
X8472857Y-13673571D01*
X8482381Y-13711667D01*
X8482381Y-13759286D01*
X8472857Y-13797381D01*
X8463333Y-13816428D01*
X8453810Y-13825952D01*
X8434762Y-13835476D01*
X8415714Y-13835476D01*
X8396667Y-13825952D01*
X8387143Y-13816428D01*
X8377619Y-13797381D01*
X8368095Y-13759286D01*
X8368095Y-13711667D01*
X8377619Y-13673571D01*
X8387143Y-13654524D01*
X8396667Y-13645000D01*
X8415714Y-13635476D01*
X8568095Y-13816428D02*
X8577619Y-13825952D01*
X8568095Y-13835476D01*
X8558571Y-13825952D01*
X8568095Y-13816428D01*
X8568095Y-13835476D01*
X8653810Y-13654524D02*
X8663333Y-13645000D01*
X8682381Y-13635476D01*
X8730000Y-13635476D01*
X8749048Y-13645000D01*
X8758571Y-13654524D01*
X8768095Y-13673571D01*
X8768095Y-13692619D01*
X8758571Y-13721190D01*
X8644286Y-13835476D01*
X8768095Y-13835476D01*
X8949048Y-13635476D02*
X8853810Y-13635476D01*
X8844286Y-13730714D01*
X8853810Y-13721190D01*
X8872857Y-13711667D01*
X8920476Y-13711667D01*
X8939524Y-13721190D01*
X8949048Y-13730714D01*
X8958571Y-13749762D01*
X8958571Y-13797381D01*
X8949048Y-13816428D01*
X8939524Y-13825952D01*
X8920476Y-13835476D01*
X8872857Y-13835476D01*
X8853810Y-13825952D01*
X8844286Y-13816428D01*
X9082381Y-13635476D02*
X9101429Y-13635476D01*
X9120476Y-13645000D01*
X9130000Y-13654524D01*
X9139524Y-13673571D01*
X9149048Y-13711667D01*
X9149048Y-13759286D01*
X9139524Y-13797381D01*
X9130000Y-13816428D01*
X9120476Y-13825952D01*
X9101429Y-13835476D01*
X9082381Y-13835476D01*
X9063333Y-13825952D01*
X9053810Y-13816428D01*
X9044286Y-13797381D01*
X9034762Y-13759286D01*
X9034762Y-13711667D01*
X9044286Y-13673571D01*
X9053810Y-13654524D01*
X9063333Y-13645000D01*
X9082381Y-13635476D01*
X9234762Y-13835476D02*
X9234762Y-13702143D01*
X9234762Y-13721190D02*
X9244286Y-13711667D01*
X9263333Y-13702143D01*
X9291905Y-13702143D01*
X9310952Y-13711667D01*
X9320476Y-13730714D01*
X9320476Y-13835476D01*
X9320476Y-13730714D02*
X9330000Y-13711667D01*
X9349048Y-13702143D01*
X9377619Y-13702143D01*
X9396667Y-13711667D01*
X9406190Y-13730714D01*
X9406190Y-13835476D01*
X9501429Y-13835476D02*
X9501429Y-13702143D01*
X9501429Y-13721190D02*
X9510952Y-13711667D01*
X9530000Y-13702143D01*
X9558571Y-13702143D01*
X9577619Y-13711667D01*
X9587143Y-13730714D01*
X9587143Y-13835476D01*
X9587143Y-13730714D02*
X9596667Y-13711667D01*
X9615714Y-13702143D01*
X9644286Y-13702143D01*
X9663333Y-13711667D01*
X9672857Y-13730714D01*
X9672857Y-13835476D01*
X10063333Y-13625952D02*
X9891905Y-13883095D01*
X10320476Y-13635476D02*
X10339524Y-13635476D01*
X10358571Y-13645000D01*
X10368095Y-13654524D01*
X10377619Y-13673571D01*
X10387143Y-13711667D01*
X10387143Y-13759286D01*
X10377619Y-13797381D01*
X10368095Y-13816428D01*
X10358571Y-13825952D01*
X10339524Y-13835476D01*
X10320476Y-13835476D01*
X10301429Y-13825952D01*
X10291905Y-13816428D01*
X10282381Y-13797381D01*
X10272857Y-13759286D01*
X10272857Y-13711667D01*
X10282381Y-13673571D01*
X10291905Y-13654524D01*
X10301429Y-13645000D01*
X10320476Y-13635476D01*
X10472857Y-13816428D02*
X10482381Y-13825952D01*
X10472857Y-13835476D01*
X10463333Y-13825952D01*
X10472857Y-13816428D01*
X10472857Y-13835476D01*
X10606190Y-13635476D02*
X10625238Y-13635476D01*
X10644286Y-13645000D01*
X10653810Y-13654524D01*
X10663333Y-13673571D01*
X10672857Y-13711667D01*
X10672857Y-13759286D01*
X10663333Y-13797381D01*
X10653810Y-13816428D01*
X10644286Y-13825952D01*
X10625238Y-13835476D01*
X10606190Y-13835476D01*
X10587143Y-13825952D01*
X10577619Y-13816428D01*
X10568095Y-13797381D01*
X10558571Y-13759286D01*
X10558571Y-13711667D01*
X10568095Y-13673571D01*
X10577619Y-13654524D01*
X10587143Y-13645000D01*
X10606190Y-13635476D01*
X10796667Y-13635476D02*
X10815714Y-13635476D01*
X10834762Y-13645000D01*
X10844286Y-13654524D01*
X10853810Y-13673571D01*
X10863333Y-13711667D01*
X10863333Y-13759286D01*
X10853810Y-13797381D01*
X10844286Y-13816428D01*
X10834762Y-13825952D01*
X10815714Y-13835476D01*
X10796667Y-13835476D01*
X10777619Y-13825952D01*
X10768095Y-13816428D01*
X10758571Y-13797381D01*
X10749048Y-13759286D01*
X10749048Y-13711667D01*
X10758571Y-13673571D01*
X10768095Y-13654524D01*
X10777619Y-13645000D01*
X10796667Y-13635476D01*
X10958571Y-13835476D02*
X10996667Y-13835476D01*
X11015714Y-13825952D01*
X11025238Y-13816428D01*
X11044286Y-13787857D01*
X11053810Y-13749762D01*
X11053810Y-13673571D01*
X11044286Y-13654524D01*
X11034762Y-13645000D01*
X11015714Y-13635476D01*
X10977619Y-13635476D01*
X10958571Y-13645000D01*
X10949048Y-13654524D01*
X10939524Y-13673571D01*
X10939524Y-13721190D01*
X10949048Y-13740238D01*
X10958571Y-13749762D01*
X10977619Y-13759286D01*
X11015714Y-13759286D01*
X11034762Y-13749762D01*
X11044286Y-13740238D01*
X11053810Y-13721190D01*
X11168095Y-13721190D02*
X11149048Y-13711667D01*
X11139524Y-13702143D01*
X11130000Y-13683095D01*
X11130000Y-13673571D01*
X11139524Y-13654524D01*
X11149048Y-13645000D01*
X11168095Y-13635476D01*
X11206190Y-13635476D01*
X11225238Y-13645000D01*
X11234762Y-13654524D01*
X11244286Y-13673571D01*
X11244286Y-13683095D01*
X11234762Y-13702143D01*
X11225238Y-13711667D01*
X11206190Y-13721190D01*
X11168095Y-13721190D01*
X11149048Y-13730714D01*
X11139524Y-13740238D01*
X11130000Y-13759286D01*
X11130000Y-13797381D01*
X11139524Y-13816428D01*
X11149048Y-13825952D01*
X11168095Y-13835476D01*
X11206190Y-13835476D01*
X11225238Y-13825952D01*
X11234762Y-13816428D01*
X11244286Y-13797381D01*
X11244286Y-13759286D01*
X11234762Y-13740238D01*
X11225238Y-13730714D01*
X11206190Y-13721190D01*
X11320476Y-13635476D02*
X11320476Y-13673571D01*
X11396667Y-13635476D02*
X11396667Y-13673571D01*
X11691905Y-13911667D02*
X11682381Y-13902143D01*
X11663333Y-13873571D01*
X11653809Y-13854524D01*
X11644286Y-13825952D01*
X11634762Y-13778333D01*
X11634762Y-13740238D01*
X11644286Y-13692619D01*
X11653809Y-13664048D01*
X11663333Y-13645000D01*
X11682381Y-13616428D01*
X11691905Y-13606905D01*
X11758571Y-13654524D02*
X11768095Y-13645000D01*
X11787143Y-13635476D01*
X11834762Y-13635476D01*
X11853809Y-13645000D01*
X11863333Y-13654524D01*
X11872857Y-13673571D01*
X11872857Y-13692619D01*
X11863333Y-13721190D01*
X11749048Y-13835476D01*
X11872857Y-13835476D01*
X12063333Y-13835476D02*
X11949048Y-13835476D01*
X12006190Y-13835476D02*
X12006190Y-13635476D01*
X11987143Y-13664048D01*
X11968095Y-13683095D01*
X11949048Y-13692619D01*
X12301428Y-13835476D02*
X12301428Y-13635476D01*
X12387143Y-13835476D02*
X12387143Y-13730714D01*
X12377619Y-13711667D01*
X12358571Y-13702143D01*
X12330000Y-13702143D01*
X12310952Y-13711667D01*
X12301428Y-13721190D01*
X12510952Y-13835476D02*
X12491905Y-13825952D01*
X12482381Y-13816428D01*
X12472857Y-13797381D01*
X12472857Y-13740238D01*
X12482381Y-13721190D01*
X12491905Y-13711667D01*
X12510952Y-13702143D01*
X12539524Y-13702143D01*
X12558571Y-13711667D01*
X12568095Y-13721190D01*
X12577619Y-13740238D01*
X12577619Y-13797381D01*
X12568095Y-13816428D01*
X12558571Y-13825952D01*
X12539524Y-13835476D01*
X12510952Y-13835476D01*
X12691905Y-13835476D02*
X12672857Y-13825952D01*
X12663333Y-13806905D01*
X12663333Y-13635476D01*
X12844286Y-13825952D02*
X12825238Y-13835476D01*
X12787143Y-13835476D01*
X12768095Y-13825952D01*
X12758571Y-13806905D01*
X12758571Y-13730714D01*
X12768095Y-13711667D01*
X12787143Y-13702143D01*
X12825238Y-13702143D01*
X12844286Y-13711667D01*
X12853809Y-13730714D01*
X12853809Y-13749762D01*
X12758571Y-13768809D01*
X12930000Y-13825952D02*
X12949048Y-13835476D01*
X12987143Y-13835476D01*
X13006190Y-13825952D01*
X13015714Y-13806905D01*
X13015714Y-13797381D01*
X13006190Y-13778333D01*
X12987143Y-13768809D01*
X12958571Y-13768809D01*
X12939524Y-13759286D01*
X12930000Y-13740238D01*
X12930000Y-13730714D01*
X12939524Y-13711667D01*
X12958571Y-13702143D01*
X12987143Y-13702143D01*
X13006190Y-13711667D01*
X13082381Y-13911667D02*
X13091905Y-13902143D01*
X13110952Y-13873571D01*
X13120476Y-13854524D01*
X13130000Y-13825952D01*
X13139524Y-13778333D01*
X13139524Y-13740238D01*
X13130000Y-13692619D01*
X13120476Y-13664048D01*
X13110952Y-13645000D01*
X13091905Y-13616428D01*
X13082381Y-13606905D01*
D13*
X8120000Y-14009000D02*
G75*
G03*
X8120000Y-14009000I-15000J0D01*
G01*
D11*
X8415714Y-13899476D02*
X8434762Y-13899476D01*
X8453810Y-13909000D01*
X8463333Y-13918524D01*
X8472857Y-13937571D01*
X8482381Y-13975667D01*
X8482381Y-14023286D01*
X8472857Y-14061381D01*
X8463333Y-14080428D01*
X8453810Y-14089952D01*
X8434762Y-14099476D01*
X8415714Y-14099476D01*
X8396667Y-14089952D01*
X8387143Y-14080428D01*
X8377619Y-14061381D01*
X8368095Y-14023286D01*
X8368095Y-13975667D01*
X8377619Y-13937571D01*
X8387143Y-13918524D01*
X8396667Y-13909000D01*
X8415714Y-13899476D01*
X8568095Y-14080428D02*
X8577619Y-14089952D01*
X8568095Y-14099476D01*
X8558571Y-14089952D01*
X8568095Y-14080428D01*
X8568095Y-14099476D01*
X8644286Y-13899476D02*
X8768095Y-13899476D01*
X8701429Y-13975667D01*
X8730000Y-13975667D01*
X8749048Y-13985190D01*
X8758571Y-13994714D01*
X8768095Y-14013762D01*
X8768095Y-14061381D01*
X8758571Y-14080428D01*
X8749048Y-14089952D01*
X8730000Y-14099476D01*
X8672857Y-14099476D01*
X8653810Y-14089952D01*
X8644286Y-14080428D01*
X8891905Y-13899476D02*
X8910952Y-13899476D01*
X8930000Y-13909000D01*
X8939524Y-13918524D01*
X8949048Y-13937571D01*
X8958571Y-13975667D01*
X8958571Y-14023286D01*
X8949048Y-14061381D01*
X8939524Y-14080428D01*
X8930000Y-14089952D01*
X8910952Y-14099476D01*
X8891905Y-14099476D01*
X8872857Y-14089952D01*
X8863333Y-14080428D01*
X8853810Y-14061381D01*
X8844286Y-14023286D01*
X8844286Y-13975667D01*
X8853810Y-13937571D01*
X8863333Y-13918524D01*
X8872857Y-13909000D01*
X8891905Y-13899476D01*
X9082381Y-13899476D02*
X9101429Y-13899476D01*
X9120476Y-13909000D01*
X9130000Y-13918524D01*
X9139524Y-13937571D01*
X9149048Y-13975667D01*
X9149048Y-14023286D01*
X9139524Y-14061381D01*
X9130000Y-14080428D01*
X9120476Y-14089952D01*
X9101429Y-14099476D01*
X9082381Y-14099476D01*
X9063333Y-14089952D01*
X9053810Y-14080428D01*
X9044286Y-14061381D01*
X9034762Y-14023286D01*
X9034762Y-13975667D01*
X9044286Y-13937571D01*
X9053810Y-13918524D01*
X9063333Y-13909000D01*
X9082381Y-13899476D01*
X9234762Y-14099476D02*
X9234762Y-13966143D01*
X9234762Y-13985190D02*
X9244286Y-13975667D01*
X9263333Y-13966143D01*
X9291905Y-13966143D01*
X9310952Y-13975667D01*
X9320476Y-13994714D01*
X9320476Y-14099476D01*
X9320476Y-13994714D02*
X9330000Y-13975667D01*
X9349048Y-13966143D01*
X9377619Y-13966143D01*
X9396667Y-13975667D01*
X9406190Y-13994714D01*
X9406190Y-14099476D01*
X9501429Y-14099476D02*
X9501429Y-13966143D01*
X9501429Y-13985190D02*
X9510952Y-13975667D01*
X9530000Y-13966143D01*
X9558571Y-13966143D01*
X9577619Y-13975667D01*
X9587143Y-13994714D01*
X9587143Y-14099476D01*
X9587143Y-13994714D02*
X9596667Y-13975667D01*
X9615714Y-13966143D01*
X9644286Y-13966143D01*
X9663333Y-13975667D01*
X9672857Y-13994714D01*
X9672857Y-14099476D01*
X10063333Y-13889952D02*
X9891905Y-14147095D01*
X10320476Y-13899476D02*
X10339524Y-13899476D01*
X10358571Y-13909000D01*
X10368095Y-13918524D01*
X10377619Y-13937571D01*
X10387143Y-13975667D01*
X10387143Y-14023286D01*
X10377619Y-14061381D01*
X10368095Y-14080428D01*
X10358571Y-14089952D01*
X10339524Y-14099476D01*
X10320476Y-14099476D01*
X10301429Y-14089952D01*
X10291905Y-14080428D01*
X10282381Y-14061381D01*
X10272857Y-14023286D01*
X10272857Y-13975667D01*
X10282381Y-13937571D01*
X10291905Y-13918524D01*
X10301429Y-13909000D01*
X10320476Y-13899476D01*
X10472857Y-14080428D02*
X10482381Y-14089952D01*
X10472857Y-14099476D01*
X10463333Y-14089952D01*
X10472857Y-14080428D01*
X10472857Y-14099476D01*
X10606190Y-13899476D02*
X10625238Y-13899476D01*
X10644286Y-13909000D01*
X10653810Y-13918524D01*
X10663333Y-13937571D01*
X10672857Y-13975667D01*
X10672857Y-14023286D01*
X10663333Y-14061381D01*
X10653810Y-14080428D01*
X10644286Y-14089952D01*
X10625238Y-14099476D01*
X10606190Y-14099476D01*
X10587143Y-14089952D01*
X10577619Y-14080428D01*
X10568095Y-14061381D01*
X10558571Y-14023286D01*
X10558571Y-13975667D01*
X10568095Y-13937571D01*
X10577619Y-13918524D01*
X10587143Y-13909000D01*
X10606190Y-13899476D01*
X10863333Y-14099476D02*
X10749048Y-14099476D01*
X10806190Y-14099476D02*
X10806190Y-13899476D01*
X10787143Y-13928048D01*
X10768095Y-13947095D01*
X10749048Y-13956619D01*
X11053810Y-14099476D02*
X10939524Y-14099476D01*
X10996667Y-14099476D02*
X10996667Y-13899476D01*
X10977619Y-13928048D01*
X10958571Y-13947095D01*
X10939524Y-13956619D01*
X11168095Y-13985190D02*
X11149048Y-13975667D01*
X11139524Y-13966143D01*
X11130000Y-13947095D01*
X11130000Y-13937571D01*
X11139524Y-13918524D01*
X11149048Y-13909000D01*
X11168095Y-13899476D01*
X11206190Y-13899476D01*
X11225238Y-13909000D01*
X11234762Y-13918524D01*
X11244286Y-13937571D01*
X11244286Y-13947095D01*
X11234762Y-13966143D01*
X11225238Y-13975667D01*
X11206190Y-13985190D01*
X11168095Y-13985190D01*
X11149048Y-13994714D01*
X11139524Y-14004238D01*
X11130000Y-14023286D01*
X11130000Y-14061381D01*
X11139524Y-14080428D01*
X11149048Y-14089952D01*
X11168095Y-14099476D01*
X11206190Y-14099476D01*
X11225238Y-14089952D01*
X11234762Y-14080428D01*
X11244286Y-14061381D01*
X11244286Y-14023286D01*
X11234762Y-14004238D01*
X11225238Y-13994714D01*
X11206190Y-13985190D01*
X11320476Y-13899476D02*
X11320476Y-13937571D01*
X11396667Y-13899476D02*
X11396667Y-13937571D01*
X11691905Y-14175667D02*
X11682381Y-14166143D01*
X11663333Y-14137571D01*
X11653809Y-14118524D01*
X11644286Y-14089952D01*
X11634762Y-14042333D01*
X11634762Y-14004238D01*
X11644286Y-13956619D01*
X11653809Y-13928048D01*
X11663333Y-13909000D01*
X11682381Y-13880428D01*
X11691905Y-13870905D01*
X11872857Y-14099476D02*
X11758571Y-14099476D01*
X11815714Y-14099476D02*
X11815714Y-13899476D01*
X11796667Y-13928048D01*
X11777619Y-13947095D01*
X11758571Y-13956619D01*
X12110952Y-14099476D02*
X12110952Y-13899476D01*
X12196667Y-14099476D02*
X12196667Y-13994714D01*
X12187143Y-13975667D01*
X12168095Y-13966143D01*
X12139524Y-13966143D01*
X12120476Y-13975667D01*
X12110952Y-13985190D01*
X12320476Y-14099476D02*
X12301428Y-14089952D01*
X12291905Y-14080428D01*
X12282381Y-14061381D01*
X12282381Y-14004238D01*
X12291905Y-13985190D01*
X12301428Y-13975667D01*
X12320476Y-13966143D01*
X12349048Y-13966143D01*
X12368095Y-13975667D01*
X12377619Y-13985190D01*
X12387143Y-14004238D01*
X12387143Y-14061381D01*
X12377619Y-14080428D01*
X12368095Y-14089952D01*
X12349048Y-14099476D01*
X12320476Y-14099476D01*
X12501428Y-14099476D02*
X12482381Y-14089952D01*
X12472857Y-14070905D01*
X12472857Y-13899476D01*
X12653809Y-14089952D02*
X12634762Y-14099476D01*
X12596667Y-14099476D01*
X12577619Y-14089952D01*
X12568095Y-14070905D01*
X12568095Y-13994714D01*
X12577619Y-13975667D01*
X12596667Y-13966143D01*
X12634762Y-13966143D01*
X12653809Y-13975667D01*
X12663333Y-13994714D01*
X12663333Y-14013762D01*
X12568095Y-14032809D01*
X12730000Y-14175667D02*
X12739524Y-14166143D01*
X12758571Y-14137571D01*
X12768095Y-14118524D01*
X12777619Y-14089952D01*
X12787143Y-14042333D01*
X12787143Y-14004238D01*
X12777619Y-13956619D01*
X12768095Y-13928048D01*
X12758571Y-13909000D01*
X12739524Y-13880428D01*
X12730000Y-13870905D01*
D14*
X8100000Y-14253000D02*
X8100000Y-14293000D01*
X8080000Y-14273000D02*
X8120000Y-14273000D01*
D11*
X8415714Y-14163476D02*
X8434762Y-14163476D01*
X8453810Y-14173000D01*
X8463333Y-14182524D01*
X8472857Y-14201571D01*
X8482381Y-14239667D01*
X8482381Y-14287286D01*
X8472857Y-14325381D01*
X8463333Y-14344428D01*
X8453810Y-14353952D01*
X8434762Y-14363476D01*
X8415714Y-14363476D01*
X8396667Y-14353952D01*
X8387143Y-14344428D01*
X8377619Y-14325381D01*
X8368095Y-14287286D01*
X8368095Y-14239667D01*
X8377619Y-14201571D01*
X8387143Y-14182524D01*
X8396667Y-14173000D01*
X8415714Y-14163476D01*
X8568095Y-14344428D02*
X8577619Y-14353952D01*
X8568095Y-14363476D01*
X8558571Y-14353952D01*
X8568095Y-14344428D01*
X8568095Y-14363476D01*
X8749048Y-14230143D02*
X8749048Y-14363476D01*
X8701429Y-14153952D02*
X8653810Y-14296809D01*
X8777619Y-14296809D01*
X8891905Y-14163476D02*
X8910952Y-14163476D01*
X8930000Y-14173000D01*
X8939524Y-14182524D01*
X8949048Y-14201571D01*
X8958571Y-14239667D01*
X8958571Y-14287286D01*
X8949048Y-14325381D01*
X8939524Y-14344428D01*
X8930000Y-14353952D01*
X8910952Y-14363476D01*
X8891905Y-14363476D01*
X8872857Y-14353952D01*
X8863333Y-14344428D01*
X8853810Y-14325381D01*
X8844286Y-14287286D01*
X8844286Y-14239667D01*
X8853810Y-14201571D01*
X8863333Y-14182524D01*
X8872857Y-14173000D01*
X8891905Y-14163476D01*
X9082381Y-14163476D02*
X9101429Y-14163476D01*
X9120476Y-14173000D01*
X9130000Y-14182524D01*
X9139524Y-14201571D01*
X9149048Y-14239667D01*
X9149048Y-14287286D01*
X9139524Y-14325381D01*
X9130000Y-14344428D01*
X9120476Y-14353952D01*
X9101429Y-14363476D01*
X9082381Y-14363476D01*
X9063333Y-14353952D01*
X9053810Y-14344428D01*
X9044286Y-14325381D01*
X9034762Y-14287286D01*
X9034762Y-14239667D01*
X9044286Y-14201571D01*
X9053810Y-14182524D01*
X9063333Y-14173000D01*
X9082381Y-14163476D01*
X9234762Y-14363476D02*
X9234762Y-14230143D01*
X9234762Y-14249190D02*
X9244286Y-14239667D01*
X9263333Y-14230143D01*
X9291905Y-14230143D01*
X9310952Y-14239667D01*
X9320476Y-14258714D01*
X9320476Y-14363476D01*
X9320476Y-14258714D02*
X9330000Y-14239667D01*
X9349048Y-14230143D01*
X9377619Y-14230143D01*
X9396667Y-14239667D01*
X9406190Y-14258714D01*
X9406190Y-14363476D01*
X9501429Y-14363476D02*
X9501429Y-14230143D01*
X9501429Y-14249190D02*
X9510952Y-14239667D01*
X9530000Y-14230143D01*
X9558571Y-14230143D01*
X9577619Y-14239667D01*
X9587143Y-14258714D01*
X9587143Y-14363476D01*
X9587143Y-14258714D02*
X9596667Y-14239667D01*
X9615714Y-14230143D01*
X9644286Y-14230143D01*
X9663333Y-14239667D01*
X9672857Y-14258714D01*
X9672857Y-14363476D01*
X10063333Y-14153952D02*
X9891905Y-14411095D01*
X10320476Y-14163476D02*
X10339524Y-14163476D01*
X10358571Y-14173000D01*
X10368095Y-14182524D01*
X10377619Y-14201571D01*
X10387143Y-14239667D01*
X10387143Y-14287286D01*
X10377619Y-14325381D01*
X10368095Y-14344428D01*
X10358571Y-14353952D01*
X10339524Y-14363476D01*
X10320476Y-14363476D01*
X10301429Y-14353952D01*
X10291905Y-14344428D01*
X10282381Y-14325381D01*
X10272857Y-14287286D01*
X10272857Y-14239667D01*
X10282381Y-14201571D01*
X10291905Y-14182524D01*
X10301429Y-14173000D01*
X10320476Y-14163476D01*
X10472857Y-14344428D02*
X10482381Y-14353952D01*
X10472857Y-14363476D01*
X10463333Y-14353952D01*
X10472857Y-14344428D01*
X10472857Y-14363476D01*
X10606190Y-14163476D02*
X10625238Y-14163476D01*
X10644286Y-14173000D01*
X10653810Y-14182524D01*
X10663333Y-14201571D01*
X10672857Y-14239667D01*
X10672857Y-14287286D01*
X10663333Y-14325381D01*
X10653810Y-14344428D01*
X10644286Y-14353952D01*
X10625238Y-14363476D01*
X10606190Y-14363476D01*
X10587143Y-14353952D01*
X10577619Y-14344428D01*
X10568095Y-14325381D01*
X10558571Y-14287286D01*
X10558571Y-14239667D01*
X10568095Y-14201571D01*
X10577619Y-14182524D01*
X10587143Y-14173000D01*
X10606190Y-14163476D01*
X10863333Y-14363476D02*
X10749048Y-14363476D01*
X10806190Y-14363476D02*
X10806190Y-14163476D01*
X10787143Y-14192048D01*
X10768095Y-14211095D01*
X10749048Y-14220619D01*
X11044286Y-14163476D02*
X10949048Y-14163476D01*
X10939524Y-14258714D01*
X10949048Y-14249190D01*
X10968095Y-14239667D01*
X11015714Y-14239667D01*
X11034762Y-14249190D01*
X11044286Y-14258714D01*
X11053810Y-14277762D01*
X11053810Y-14325381D01*
X11044286Y-14344428D01*
X11034762Y-14353952D01*
X11015714Y-14363476D01*
X10968095Y-14363476D01*
X10949048Y-14353952D01*
X10939524Y-14344428D01*
X11120476Y-14163476D02*
X11253809Y-14163476D01*
X11168095Y-14363476D01*
X11320476Y-14163476D02*
X11320476Y-14201571D01*
X11396667Y-14163476D02*
X11396667Y-14201571D01*
X11691905Y-14439667D02*
X11682381Y-14430143D01*
X11663333Y-14401571D01*
X11653809Y-14382524D01*
X11644286Y-14353952D01*
X11634762Y-14306333D01*
X11634762Y-14268238D01*
X11644286Y-14220619D01*
X11653809Y-14192048D01*
X11663333Y-14173000D01*
X11682381Y-14144428D01*
X11691905Y-14134905D01*
X11749048Y-14163476D02*
X11872857Y-14163476D01*
X11806190Y-14239667D01*
X11834762Y-14239667D01*
X11853809Y-14249190D01*
X11863333Y-14258714D01*
X11872857Y-14277762D01*
X11872857Y-14325381D01*
X11863333Y-14344428D01*
X11853809Y-14353952D01*
X11834762Y-14363476D01*
X11777619Y-14363476D01*
X11758571Y-14353952D01*
X11749048Y-14344428D01*
X11949048Y-14182524D02*
X11958571Y-14173000D01*
X11977619Y-14163476D01*
X12025238Y-14163476D01*
X12044286Y-14173000D01*
X12053809Y-14182524D01*
X12063333Y-14201571D01*
X12063333Y-14220619D01*
X12053809Y-14249190D01*
X11939524Y-14363476D01*
X12063333Y-14363476D01*
X12234762Y-14230143D02*
X12234762Y-14363476D01*
X12187143Y-14153952D02*
X12139524Y-14296809D01*
X12263333Y-14296809D01*
X12491905Y-14363476D02*
X12491905Y-14163476D01*
X12577619Y-14363476D02*
X12577619Y-14258714D01*
X12568095Y-14239667D01*
X12549048Y-14230143D01*
X12520476Y-14230143D01*
X12501428Y-14239667D01*
X12491905Y-14249190D01*
X12701428Y-14363476D02*
X12682381Y-14353952D01*
X12672857Y-14344428D01*
X12663333Y-14325381D01*
X12663333Y-14268238D01*
X12672857Y-14249190D01*
X12682381Y-14239667D01*
X12701428Y-14230143D01*
X12730000Y-14230143D01*
X12749048Y-14239667D01*
X12758571Y-14249190D01*
X12768095Y-14268238D01*
X12768095Y-14325381D01*
X12758571Y-14344428D01*
X12749048Y-14353952D01*
X12730000Y-14363476D01*
X12701428Y-14363476D01*
X12882381Y-14363476D02*
X12863333Y-14353952D01*
X12853809Y-14334905D01*
X12853809Y-14163476D01*
X13034762Y-14353952D02*
X13015714Y-14363476D01*
X12977619Y-14363476D01*
X12958571Y-14353952D01*
X12949048Y-14334905D01*
X12949048Y-14258714D01*
X12958571Y-14239667D01*
X12977619Y-14230143D01*
X13015714Y-14230143D01*
X13034762Y-14239667D01*
X13044286Y-14258714D01*
X13044286Y-14277762D01*
X12949048Y-14296809D01*
X13120476Y-14353952D02*
X13139524Y-14363476D01*
X13177619Y-14363476D01*
X13196667Y-14353952D01*
X13206190Y-14334905D01*
X13206190Y-14325381D01*
X13196667Y-14306333D01*
X13177619Y-14296809D01*
X13149048Y-14296809D01*
X13130000Y-14287286D01*
X13120476Y-14268238D01*
X13120476Y-14258714D01*
X13130000Y-14239667D01*
X13149048Y-14230143D01*
X13177619Y-14230143D01*
X13196667Y-14239667D01*
X13272857Y-14439667D02*
X13282381Y-14430143D01*
X13301428Y-14401571D01*
X13310952Y-14382524D01*
X13320476Y-14353952D01*
X13330000Y-14306333D01*
X13330000Y-14268238D01*
X13320476Y-14220619D01*
X13310952Y-14192048D01*
X13301428Y-14173000D01*
X13282381Y-14144428D01*
X13272857Y-14134905D01*
D15*
X8111213Y-14558213D02*
X8111213Y-14515787D01*
X8068787Y-14515787D01*
X8068787Y-14558213D01*
X8111213Y-14558213D01*
D11*
X8415714Y-14427476D02*
X8434762Y-14427476D01*
X8453810Y-14437000D01*
X8463333Y-14446524D01*
X8472857Y-14465571D01*
X8482381Y-14503667D01*
X8482381Y-14551286D01*
X8472857Y-14589381D01*
X8463333Y-14608428D01*
X8453810Y-14617952D01*
X8434762Y-14627476D01*
X8415714Y-14627476D01*
X8396667Y-14617952D01*
X8387143Y-14608428D01*
X8377619Y-14589381D01*
X8368095Y-14551286D01*
X8368095Y-14503667D01*
X8377619Y-14465571D01*
X8387143Y-14446524D01*
X8396667Y-14437000D01*
X8415714Y-14427476D01*
X8568095Y-14608428D02*
X8577619Y-14617952D01*
X8568095Y-14627476D01*
X8558571Y-14617952D01*
X8568095Y-14608428D01*
X8568095Y-14627476D01*
X8749048Y-14427476D02*
X8710952Y-14427476D01*
X8691905Y-14437000D01*
X8682381Y-14446524D01*
X8663333Y-14475095D01*
X8653810Y-14513190D01*
X8653810Y-14589381D01*
X8663333Y-14608428D01*
X8672857Y-14617952D01*
X8691905Y-14627476D01*
X8730000Y-14627476D01*
X8749048Y-14617952D01*
X8758571Y-14608428D01*
X8768095Y-14589381D01*
X8768095Y-14541762D01*
X8758571Y-14522714D01*
X8749048Y-14513190D01*
X8730000Y-14503667D01*
X8691905Y-14503667D01*
X8672857Y-14513190D01*
X8663333Y-14522714D01*
X8653810Y-14541762D01*
X8891905Y-14427476D02*
X8910952Y-14427476D01*
X8930000Y-14437000D01*
X8939524Y-14446524D01*
X8949048Y-14465571D01*
X8958571Y-14503667D01*
X8958571Y-14551286D01*
X8949048Y-14589381D01*
X8939524Y-14608428D01*
X8930000Y-14617952D01*
X8910952Y-14627476D01*
X8891905Y-14627476D01*
X8872857Y-14617952D01*
X8863333Y-14608428D01*
X8853810Y-14589381D01*
X8844286Y-14551286D01*
X8844286Y-14503667D01*
X8853810Y-14465571D01*
X8863333Y-14446524D01*
X8872857Y-14437000D01*
X8891905Y-14427476D01*
X9082381Y-14427476D02*
X9101429Y-14427476D01*
X9120476Y-14437000D01*
X9130000Y-14446524D01*
X9139524Y-14465571D01*
X9149048Y-14503667D01*
X9149048Y-14551286D01*
X9139524Y-14589381D01*
X9130000Y-14608428D01*
X9120476Y-14617952D01*
X9101429Y-14627476D01*
X9082381Y-14627476D01*
X9063333Y-14617952D01*
X9053810Y-14608428D01*
X9044286Y-14589381D01*
X9034762Y-14551286D01*
X9034762Y-14503667D01*
X9044286Y-14465571D01*
X9053810Y-14446524D01*
X9063333Y-14437000D01*
X9082381Y-14427476D01*
X9234762Y-14627476D02*
X9234762Y-14494143D01*
X9234762Y-14513190D02*
X9244286Y-14503667D01*
X9263333Y-14494143D01*
X9291905Y-14494143D01*
X9310952Y-14503667D01*
X9320476Y-14522714D01*
X9320476Y-14627476D01*
X9320476Y-14522714D02*
X9330000Y-14503667D01*
X9349048Y-14494143D01*
X9377619Y-14494143D01*
X9396667Y-14503667D01*
X9406190Y-14522714D01*
X9406190Y-14627476D01*
X9501429Y-14627476D02*
X9501429Y-14494143D01*
X9501429Y-14513190D02*
X9510952Y-14503667D01*
X9530000Y-14494143D01*
X9558571Y-14494143D01*
X9577619Y-14503667D01*
X9587143Y-14522714D01*
X9587143Y-14627476D01*
X9587143Y-14522714D02*
X9596667Y-14503667D01*
X9615714Y-14494143D01*
X9644286Y-14494143D01*
X9663333Y-14503667D01*
X9672857Y-14522714D01*
X9672857Y-14627476D01*
X10063333Y-14417952D02*
X9891905Y-14675095D01*
X10320476Y-14427476D02*
X10339524Y-14427476D01*
X10358571Y-14437000D01*
X10368095Y-14446524D01*
X10377619Y-14465571D01*
X10387143Y-14503667D01*
X10387143Y-14551286D01*
X10377619Y-14589381D01*
X10368095Y-14608428D01*
X10358571Y-14617952D01*
X10339524Y-14627476D01*
X10320476Y-14627476D01*
X10301429Y-14617952D01*
X10291905Y-14608428D01*
X10282381Y-14589381D01*
X10272857Y-14551286D01*
X10272857Y-14503667D01*
X10282381Y-14465571D01*
X10291905Y-14446524D01*
X10301429Y-14437000D01*
X10320476Y-14427476D01*
X10472857Y-14608428D02*
X10482381Y-14617952D01*
X10472857Y-14627476D01*
X10463333Y-14617952D01*
X10472857Y-14608428D01*
X10472857Y-14627476D01*
X10606190Y-14427476D02*
X10625238Y-14427476D01*
X10644286Y-14437000D01*
X10653810Y-14446524D01*
X10663333Y-14465571D01*
X10672857Y-14503667D01*
X10672857Y-14551286D01*
X10663333Y-14589381D01*
X10653810Y-14608428D01*
X10644286Y-14617952D01*
X10625238Y-14627476D01*
X10606190Y-14627476D01*
X10587143Y-14617952D01*
X10577619Y-14608428D01*
X10568095Y-14589381D01*
X10558571Y-14551286D01*
X10558571Y-14503667D01*
X10568095Y-14465571D01*
X10577619Y-14446524D01*
X10587143Y-14437000D01*
X10606190Y-14427476D01*
X10749048Y-14446524D02*
X10758571Y-14437000D01*
X10777619Y-14427476D01*
X10825238Y-14427476D01*
X10844286Y-14437000D01*
X10853810Y-14446524D01*
X10863333Y-14465571D01*
X10863333Y-14484619D01*
X10853810Y-14513190D01*
X10739524Y-14627476D01*
X10863333Y-14627476D01*
X10930000Y-14427476D02*
X11053810Y-14427476D01*
X10987143Y-14503667D01*
X11015714Y-14503667D01*
X11034762Y-14513190D01*
X11044286Y-14522714D01*
X11053810Y-14541762D01*
X11053810Y-14589381D01*
X11044286Y-14608428D01*
X11034762Y-14617952D01*
X11015714Y-14627476D01*
X10958571Y-14627476D01*
X10939524Y-14617952D01*
X10930000Y-14608428D01*
X11225238Y-14427476D02*
X11187143Y-14427476D01*
X11168095Y-14437000D01*
X11158571Y-14446524D01*
X11139524Y-14475095D01*
X11130000Y-14513190D01*
X11130000Y-14589381D01*
X11139524Y-14608428D01*
X11149048Y-14617952D01*
X11168095Y-14627476D01*
X11206190Y-14627476D01*
X11225238Y-14617952D01*
X11234762Y-14608428D01*
X11244286Y-14589381D01*
X11244286Y-14541762D01*
X11234762Y-14522714D01*
X11225238Y-14513190D01*
X11206190Y-14503667D01*
X11168095Y-14503667D01*
X11149048Y-14513190D01*
X11139524Y-14522714D01*
X11130000Y-14541762D01*
X11320476Y-14427476D02*
X11320476Y-14465571D01*
X11396667Y-14427476D02*
X11396667Y-14465571D01*
X11691905Y-14703667D02*
X11682381Y-14694143D01*
X11663333Y-14665571D01*
X11653809Y-14646524D01*
X11644286Y-14617952D01*
X11634762Y-14570333D01*
X11634762Y-14532238D01*
X11644286Y-14484619D01*
X11653809Y-14456048D01*
X11663333Y-14437000D01*
X11682381Y-14408428D01*
X11691905Y-14398905D01*
X11749048Y-14427476D02*
X11872857Y-14427476D01*
X11806190Y-14503667D01*
X11834762Y-14503667D01*
X11853809Y-14513190D01*
X11863333Y-14522714D01*
X11872857Y-14541762D01*
X11872857Y-14589381D01*
X11863333Y-14608428D01*
X11853809Y-14617952D01*
X11834762Y-14627476D01*
X11777619Y-14627476D01*
X11758571Y-14617952D01*
X11749048Y-14608428D01*
X12110952Y-14627476D02*
X12110952Y-14427476D01*
X12196667Y-14627476D02*
X12196667Y-14522714D01*
X12187143Y-14503667D01*
X12168095Y-14494143D01*
X12139524Y-14494143D01*
X12120476Y-14503667D01*
X12110952Y-14513190D01*
X12320476Y-14627476D02*
X12301428Y-14617952D01*
X12291905Y-14608428D01*
X12282381Y-14589381D01*
X12282381Y-14532238D01*
X12291905Y-14513190D01*
X12301428Y-14503667D01*
X12320476Y-14494143D01*
X12349048Y-14494143D01*
X12368095Y-14503667D01*
X12377619Y-14513190D01*
X12387143Y-14532238D01*
X12387143Y-14589381D01*
X12377619Y-14608428D01*
X12368095Y-14617952D01*
X12349048Y-14627476D01*
X12320476Y-14627476D01*
X12501428Y-14627476D02*
X12482381Y-14617952D01*
X12472857Y-14598905D01*
X12472857Y-14427476D01*
X12653809Y-14617952D02*
X12634762Y-14627476D01*
X12596667Y-14627476D01*
X12577619Y-14617952D01*
X12568095Y-14598905D01*
X12568095Y-14522714D01*
X12577619Y-14503667D01*
X12596667Y-14494143D01*
X12634762Y-14494143D01*
X12653809Y-14503667D01*
X12663333Y-14522714D01*
X12663333Y-14541762D01*
X12568095Y-14560809D01*
X12739524Y-14617952D02*
X12758571Y-14627476D01*
X12796667Y-14627476D01*
X12815714Y-14617952D01*
X12825238Y-14598905D01*
X12825238Y-14589381D01*
X12815714Y-14570333D01*
X12796667Y-14560809D01*
X12768095Y-14560809D01*
X12749048Y-14551286D01*
X12739524Y-14532238D01*
X12739524Y-14522714D01*
X12749048Y-14503667D01*
X12768095Y-14494143D01*
X12796667Y-14494143D01*
X12815714Y-14503667D01*
X12891905Y-14703667D02*
X12901428Y-14694143D01*
X12920476Y-14665571D01*
X12930000Y-14646524D01*
X12939524Y-14617952D01*
X12949048Y-14570333D01*
X12949048Y-14532238D01*
X12939524Y-14484619D01*
X12930000Y-14456048D01*
X12920476Y-14437000D01*
X12901428Y-14408428D01*
X12891905Y-14398905D01*
D16*
X8070000Y-14851000D02*
X8120000Y-14801000D01*
X8070000Y-14751000D01*
X8020000Y-14801000D01*
X8070000Y-14851000D01*
D11*
X8482381Y-14891476D02*
X8368095Y-14891476D01*
X8425238Y-14891476D02*
X8425238Y-14691476D01*
X8406190Y-14720048D01*
X8387143Y-14739095D01*
X8368095Y-14748619D01*
X8568095Y-14872428D02*
X8577619Y-14881952D01*
X8568095Y-14891476D01*
X8558571Y-14881952D01*
X8568095Y-14872428D01*
X8568095Y-14891476D01*
X8701429Y-14691476D02*
X8720476Y-14691476D01*
X8739524Y-14701000D01*
X8749048Y-14710524D01*
X8758571Y-14729571D01*
X8768095Y-14767667D01*
X8768095Y-14815286D01*
X8758571Y-14853381D01*
X8749048Y-14872428D01*
X8739524Y-14881952D01*
X8720476Y-14891476D01*
X8701429Y-14891476D01*
X8682381Y-14881952D01*
X8672857Y-14872428D01*
X8663333Y-14853381D01*
X8653810Y-14815286D01*
X8653810Y-14767667D01*
X8663333Y-14729571D01*
X8672857Y-14710524D01*
X8682381Y-14701000D01*
X8701429Y-14691476D01*
X8891905Y-14691476D02*
X8910952Y-14691476D01*
X8930000Y-14701000D01*
X8939524Y-14710524D01*
X8949048Y-14729571D01*
X8958571Y-14767667D01*
X8958571Y-14815286D01*
X8949048Y-14853381D01*
X8939524Y-14872428D01*
X8930000Y-14881952D01*
X8910952Y-14891476D01*
X8891905Y-14891476D01*
X8872857Y-14881952D01*
X8863333Y-14872428D01*
X8853810Y-14853381D01*
X8844286Y-14815286D01*
X8844286Y-14767667D01*
X8853810Y-14729571D01*
X8863333Y-14710524D01*
X8872857Y-14701000D01*
X8891905Y-14691476D01*
X9082381Y-14691476D02*
X9101429Y-14691476D01*
X9120476Y-14701000D01*
X9130000Y-14710524D01*
X9139524Y-14729571D01*
X9149048Y-14767667D01*
X9149048Y-14815286D01*
X9139524Y-14853381D01*
X9130000Y-14872428D01*
X9120476Y-14881952D01*
X9101429Y-14891476D01*
X9082381Y-14891476D01*
X9063333Y-14881952D01*
X9053810Y-14872428D01*
X9044286Y-14853381D01*
X9034762Y-14815286D01*
X9034762Y-14767667D01*
X9044286Y-14729571D01*
X9053810Y-14710524D01*
X9063333Y-14701000D01*
X9082381Y-14691476D01*
X9234762Y-14891476D02*
X9234762Y-14758143D01*
X9234762Y-14777190D02*
X9244286Y-14767667D01*
X9263333Y-14758143D01*
X9291905Y-14758143D01*
X9310952Y-14767667D01*
X9320476Y-14786714D01*
X9320476Y-14891476D01*
X9320476Y-14786714D02*
X9330000Y-14767667D01*
X9349048Y-14758143D01*
X9377619Y-14758143D01*
X9396667Y-14767667D01*
X9406190Y-14786714D01*
X9406190Y-14891476D01*
X9501429Y-14891476D02*
X9501429Y-14758143D01*
X9501429Y-14777190D02*
X9510952Y-14767667D01*
X9530000Y-14758143D01*
X9558571Y-14758143D01*
X9577619Y-14767667D01*
X9587143Y-14786714D01*
X9587143Y-14891476D01*
X9587143Y-14786714D02*
X9596667Y-14767667D01*
X9615714Y-14758143D01*
X9644286Y-14758143D01*
X9663333Y-14767667D01*
X9672857Y-14786714D01*
X9672857Y-14891476D01*
X10063333Y-14681952D02*
X9891905Y-14939095D01*
X10320476Y-14691476D02*
X10339524Y-14691476D01*
X10358571Y-14701000D01*
X10368095Y-14710524D01*
X10377619Y-14729571D01*
X10387143Y-14767667D01*
X10387143Y-14815286D01*
X10377619Y-14853381D01*
X10368095Y-14872428D01*
X10358571Y-14881952D01*
X10339524Y-14891476D01*
X10320476Y-14891476D01*
X10301429Y-14881952D01*
X10291905Y-14872428D01*
X10282381Y-14853381D01*
X10272857Y-14815286D01*
X10272857Y-14767667D01*
X10282381Y-14729571D01*
X10291905Y-14710524D01*
X10301429Y-14701000D01*
X10320476Y-14691476D01*
X10472857Y-14872428D02*
X10482381Y-14881952D01*
X10472857Y-14891476D01*
X10463333Y-14881952D01*
X10472857Y-14872428D01*
X10472857Y-14891476D01*
X10606190Y-14691476D02*
X10625238Y-14691476D01*
X10644286Y-14701000D01*
X10653810Y-14710524D01*
X10663333Y-14729571D01*
X10672857Y-14767667D01*
X10672857Y-14815286D01*
X10663333Y-14853381D01*
X10653810Y-14872428D01*
X10644286Y-14881952D01*
X10625238Y-14891476D01*
X10606190Y-14891476D01*
X10587143Y-14881952D01*
X10577619Y-14872428D01*
X10568095Y-14853381D01*
X10558571Y-14815286D01*
X10558571Y-14767667D01*
X10568095Y-14729571D01*
X10577619Y-14710524D01*
X10587143Y-14701000D01*
X10606190Y-14691476D01*
X10739524Y-14691476D02*
X10863333Y-14691476D01*
X10796667Y-14767667D01*
X10825238Y-14767667D01*
X10844286Y-14777190D01*
X10853810Y-14786714D01*
X10863333Y-14805762D01*
X10863333Y-14853381D01*
X10853810Y-14872428D01*
X10844286Y-14881952D01*
X10825238Y-14891476D01*
X10768095Y-14891476D01*
X10749048Y-14881952D01*
X10739524Y-14872428D01*
X10958571Y-14891476D02*
X10996667Y-14891476D01*
X11015714Y-14881952D01*
X11025238Y-14872428D01*
X11044286Y-14843857D01*
X11053810Y-14805762D01*
X11053810Y-14729571D01*
X11044286Y-14710524D01*
X11034762Y-14701000D01*
X11015714Y-14691476D01*
X10977619Y-14691476D01*
X10958571Y-14701000D01*
X10949048Y-14710524D01*
X10939524Y-14729571D01*
X10939524Y-14777190D01*
X10949048Y-14796238D01*
X10958571Y-14805762D01*
X10977619Y-14815286D01*
X11015714Y-14815286D01*
X11034762Y-14805762D01*
X11044286Y-14796238D01*
X11053810Y-14777190D01*
X11225238Y-14758143D02*
X11225238Y-14891476D01*
X11177619Y-14681952D02*
X11130000Y-14824809D01*
X11253809Y-14824809D01*
X11320476Y-14691476D02*
X11320476Y-14729571D01*
X11396667Y-14691476D02*
X11396667Y-14729571D01*
X11691905Y-14967667D02*
X11682381Y-14958143D01*
X11663333Y-14929571D01*
X11653809Y-14910524D01*
X11644286Y-14881952D01*
X11634762Y-14834333D01*
X11634762Y-14796238D01*
X11644286Y-14748619D01*
X11653809Y-14720048D01*
X11663333Y-14701000D01*
X11682381Y-14672428D01*
X11691905Y-14662905D01*
X11863333Y-14691476D02*
X11768095Y-14691476D01*
X11758571Y-14786714D01*
X11768095Y-14777190D01*
X11787143Y-14767667D01*
X11834762Y-14767667D01*
X11853809Y-14777190D01*
X11863333Y-14786714D01*
X11872857Y-14805762D01*
X11872857Y-14853381D01*
X11863333Y-14872428D01*
X11853809Y-14881952D01*
X11834762Y-14891476D01*
X11787143Y-14891476D01*
X11768095Y-14881952D01*
X11758571Y-14872428D01*
X12110952Y-14891476D02*
X12110952Y-14691476D01*
X12196667Y-14891476D02*
X12196667Y-14786714D01*
X12187143Y-14767667D01*
X12168095Y-14758143D01*
X12139524Y-14758143D01*
X12120476Y-14767667D01*
X12110952Y-14777190D01*
X12320476Y-14891476D02*
X12301428Y-14881952D01*
X12291905Y-14872428D01*
X12282381Y-14853381D01*
X12282381Y-14796238D01*
X12291905Y-14777190D01*
X12301428Y-14767667D01*
X12320476Y-14758143D01*
X12349048Y-14758143D01*
X12368095Y-14767667D01*
X12377619Y-14777190D01*
X12387143Y-14796238D01*
X12387143Y-14853381D01*
X12377619Y-14872428D01*
X12368095Y-14881952D01*
X12349048Y-14891476D01*
X12320476Y-14891476D01*
X12501428Y-14891476D02*
X12482381Y-14881952D01*
X12472857Y-14862905D01*
X12472857Y-14691476D01*
X12653809Y-14881952D02*
X12634762Y-14891476D01*
X12596667Y-14891476D01*
X12577619Y-14881952D01*
X12568095Y-14862905D01*
X12568095Y-14786714D01*
X12577619Y-14767667D01*
X12596667Y-14758143D01*
X12634762Y-14758143D01*
X12653809Y-14767667D01*
X12663333Y-14786714D01*
X12663333Y-14805762D01*
X12568095Y-14824809D01*
X12739524Y-14881952D02*
X12758571Y-14891476D01*
X12796667Y-14891476D01*
X12815714Y-14881952D01*
X12825238Y-14862905D01*
X12825238Y-14853381D01*
X12815714Y-14834333D01*
X12796667Y-14824809D01*
X12768095Y-14824809D01*
X12749048Y-14815286D01*
X12739524Y-14796238D01*
X12739524Y-14786714D01*
X12749048Y-14767667D01*
X12768095Y-14758143D01*
X12796667Y-14758143D01*
X12815714Y-14767667D01*
X12891905Y-14967667D02*
X12901428Y-14958143D01*
X12920476Y-14929571D01*
X12930000Y-14910524D01*
X12939524Y-14881952D01*
X12949048Y-14834333D01*
X12949048Y-14796238D01*
X12939524Y-14748619D01*
X12930000Y-14720048D01*
X12920476Y-14701000D01*
X12901428Y-14672428D01*
X12891905Y-14662905D01*
D17*
X7988000Y-14999000D02*
X8120000Y-15131000D01*
X8120000Y-14999000D02*
X7988000Y-15131000D01*
X8120000Y-15065000D02*
G75*
G03*
X8120000Y-15065000I-66000J0D01*
G01*
D11*
X8482381Y-15155476D02*
X8368095Y-15155476D01*
X8425238Y-15155476D02*
X8425238Y-14955476D01*
X8406190Y-14984048D01*
X8387143Y-15003095D01*
X8368095Y-15012619D01*
X8568095Y-15136428D02*
X8577619Y-15145952D01*
X8568095Y-15155476D01*
X8558571Y-15145952D01*
X8568095Y-15136428D01*
X8568095Y-15155476D01*
X8644286Y-14955476D02*
X8768095Y-14955476D01*
X8701429Y-15031667D01*
X8730000Y-15031667D01*
X8749048Y-15041190D01*
X8758571Y-15050714D01*
X8768095Y-15069762D01*
X8768095Y-15117381D01*
X8758571Y-15136428D01*
X8749048Y-15145952D01*
X8730000Y-15155476D01*
X8672857Y-15155476D01*
X8653810Y-15145952D01*
X8644286Y-15136428D01*
X8844286Y-14974524D02*
X8853810Y-14965000D01*
X8872857Y-14955476D01*
X8920476Y-14955476D01*
X8939524Y-14965000D01*
X8949048Y-14974524D01*
X8958571Y-14993571D01*
X8958571Y-15012619D01*
X8949048Y-15041190D01*
X8834762Y-15155476D01*
X8958571Y-15155476D01*
X9082381Y-14955476D02*
X9101429Y-14955476D01*
X9120476Y-14965000D01*
X9130000Y-14974524D01*
X9139524Y-14993571D01*
X9149048Y-15031667D01*
X9149048Y-15079286D01*
X9139524Y-15117381D01*
X9130000Y-15136428D01*
X9120476Y-15145952D01*
X9101429Y-15155476D01*
X9082381Y-15155476D01*
X9063333Y-15145952D01*
X9053810Y-15136428D01*
X9044286Y-15117381D01*
X9034762Y-15079286D01*
X9034762Y-15031667D01*
X9044286Y-14993571D01*
X9053810Y-14974524D01*
X9063333Y-14965000D01*
X9082381Y-14955476D01*
X9234762Y-15155476D02*
X9234762Y-15022143D01*
X9234762Y-15041190D02*
X9244286Y-15031667D01*
X9263333Y-15022143D01*
X9291905Y-15022143D01*
X9310952Y-15031667D01*
X9320476Y-15050714D01*
X9320476Y-15155476D01*
X9320476Y-15050714D02*
X9330000Y-15031667D01*
X9349048Y-15022143D01*
X9377619Y-15022143D01*
X9396667Y-15031667D01*
X9406190Y-15050714D01*
X9406190Y-15155476D01*
X9501429Y-15155476D02*
X9501429Y-15022143D01*
X9501429Y-15041190D02*
X9510952Y-15031667D01*
X9530000Y-15022143D01*
X9558571Y-15022143D01*
X9577619Y-15031667D01*
X9587143Y-15050714D01*
X9587143Y-15155476D01*
X9587143Y-15050714D02*
X9596667Y-15031667D01*
X9615714Y-15022143D01*
X9644286Y-15022143D01*
X9663333Y-15031667D01*
X9672857Y-15050714D01*
X9672857Y-15155476D01*
X10063333Y-14945952D02*
X9891905Y-15203095D01*
X10320476Y-14955476D02*
X10339524Y-14955476D01*
X10358571Y-14965000D01*
X10368095Y-14974524D01*
X10377619Y-14993571D01*
X10387143Y-15031667D01*
X10387143Y-15079286D01*
X10377619Y-15117381D01*
X10368095Y-15136428D01*
X10358571Y-15145952D01*
X10339524Y-15155476D01*
X10320476Y-15155476D01*
X10301429Y-15145952D01*
X10291905Y-15136428D01*
X10282381Y-15117381D01*
X10272857Y-15079286D01*
X10272857Y-15031667D01*
X10282381Y-14993571D01*
X10291905Y-14974524D01*
X10301429Y-14965000D01*
X10320476Y-14955476D01*
X10472857Y-15136428D02*
X10482381Y-15145952D01*
X10472857Y-15155476D01*
X10463333Y-15145952D01*
X10472857Y-15136428D01*
X10472857Y-15155476D01*
X10606190Y-14955476D02*
X10625238Y-14955476D01*
X10644286Y-14965000D01*
X10653810Y-14974524D01*
X10663333Y-14993571D01*
X10672857Y-15031667D01*
X10672857Y-15079286D01*
X10663333Y-15117381D01*
X10653810Y-15136428D01*
X10644286Y-15145952D01*
X10625238Y-15155476D01*
X10606190Y-15155476D01*
X10587143Y-15145952D01*
X10577619Y-15136428D01*
X10568095Y-15117381D01*
X10558571Y-15079286D01*
X10558571Y-15031667D01*
X10568095Y-14993571D01*
X10577619Y-14974524D01*
X10587143Y-14965000D01*
X10606190Y-14955476D01*
X10853810Y-14955476D02*
X10758571Y-14955476D01*
X10749048Y-15050714D01*
X10758571Y-15041190D01*
X10777619Y-15031667D01*
X10825238Y-15031667D01*
X10844286Y-15041190D01*
X10853810Y-15050714D01*
X10863333Y-15069762D01*
X10863333Y-15117381D01*
X10853810Y-15136428D01*
X10844286Y-15145952D01*
X10825238Y-15155476D01*
X10777619Y-15155476D01*
X10758571Y-15145952D01*
X10749048Y-15136428D01*
X10939524Y-14974524D02*
X10949048Y-14965000D01*
X10968095Y-14955476D01*
X11015714Y-14955476D01*
X11034762Y-14965000D01*
X11044286Y-14974524D01*
X11053810Y-14993571D01*
X11053810Y-15012619D01*
X11044286Y-15041190D01*
X10930000Y-15155476D01*
X11053810Y-15155476D01*
X11177619Y-14955476D02*
X11196667Y-14955476D01*
X11215714Y-14965000D01*
X11225238Y-14974524D01*
X11234762Y-14993571D01*
X11244286Y-15031667D01*
X11244286Y-15079286D01*
X11234762Y-15117381D01*
X11225238Y-15136428D01*
X11215714Y-15145952D01*
X11196667Y-15155476D01*
X11177619Y-15155476D01*
X11158571Y-15145952D01*
X11149048Y-15136428D01*
X11139524Y-15117381D01*
X11130000Y-15079286D01*
X11130000Y-15031667D01*
X11139524Y-14993571D01*
X11149048Y-14974524D01*
X11158571Y-14965000D01*
X11177619Y-14955476D01*
X11320476Y-14955476D02*
X11320476Y-14993571D01*
X11396667Y-14955476D02*
X11396667Y-14993571D01*
X11691905Y-15231667D02*
X11682381Y-15222143D01*
X11663333Y-15193571D01*
X11653809Y-15174524D01*
X11644286Y-15145952D01*
X11634762Y-15098333D01*
X11634762Y-15060238D01*
X11644286Y-15012619D01*
X11653809Y-14984048D01*
X11663333Y-14965000D01*
X11682381Y-14936428D01*
X11691905Y-14926905D01*
X11777619Y-15155476D02*
X11815714Y-15155476D01*
X11834762Y-15145952D01*
X11844286Y-15136428D01*
X11863333Y-15107857D01*
X11872857Y-15069762D01*
X11872857Y-14993571D01*
X11863333Y-14974524D01*
X11853809Y-14965000D01*
X11834762Y-14955476D01*
X11796667Y-14955476D01*
X11777619Y-14965000D01*
X11768095Y-14974524D01*
X11758571Y-14993571D01*
X11758571Y-15041190D01*
X11768095Y-15060238D01*
X11777619Y-15069762D01*
X11796667Y-15079286D01*
X11834762Y-15079286D01*
X11853809Y-15069762D01*
X11863333Y-15060238D01*
X11872857Y-15041190D01*
X12110952Y-15155476D02*
X12110952Y-14955476D01*
X12196667Y-15155476D02*
X12196667Y-15050714D01*
X12187143Y-15031667D01*
X12168095Y-15022143D01*
X12139524Y-15022143D01*
X12120476Y-15031667D01*
X12110952Y-15041190D01*
X12320476Y-15155476D02*
X12301428Y-15145952D01*
X12291905Y-15136428D01*
X12282381Y-15117381D01*
X12282381Y-15060238D01*
X12291905Y-15041190D01*
X12301428Y-15031667D01*
X12320476Y-15022143D01*
X12349048Y-15022143D01*
X12368095Y-15031667D01*
X12377619Y-15041190D01*
X12387143Y-15060238D01*
X12387143Y-15117381D01*
X12377619Y-15136428D01*
X12368095Y-15145952D01*
X12349048Y-15155476D01*
X12320476Y-15155476D01*
X12501428Y-15155476D02*
X12482381Y-15145952D01*
X12472857Y-15126905D01*
X12472857Y-14955476D01*
X12653809Y-15145952D02*
X12634762Y-15155476D01*
X12596667Y-15155476D01*
X12577619Y-15145952D01*
X12568095Y-15126905D01*
X12568095Y-15050714D01*
X12577619Y-15031667D01*
X12596667Y-15022143D01*
X12634762Y-15022143D01*
X12653809Y-15031667D01*
X12663333Y-15050714D01*
X12663333Y-15069762D01*
X12568095Y-15088809D01*
X12739524Y-15145952D02*
X12758571Y-15155476D01*
X12796667Y-15155476D01*
X12815714Y-15145952D01*
X12825238Y-15126905D01*
X12825238Y-15117381D01*
X12815714Y-15098333D01*
X12796667Y-15088809D01*
X12768095Y-15088809D01*
X12749048Y-15079286D01*
X12739524Y-15060238D01*
X12739524Y-15050714D01*
X12749048Y-15031667D01*
X12768095Y-15022143D01*
X12796667Y-15022143D01*
X12815714Y-15031667D01*
X12891905Y-15231667D02*
X12901428Y-15222143D01*
X12920476Y-15193571D01*
X12930000Y-15174524D01*
X12939524Y-15145952D01*
X12949048Y-15098333D01*
X12949048Y-15060238D01*
X12939524Y-15012619D01*
X12930000Y-14984048D01*
X12920476Y-14965000D01*
X12901428Y-14936428D01*
X12891905Y-14926905D01*
D18*
X7970000Y-15254000D02*
X8120000Y-15404000D01*
X8120000Y-15254000D02*
X7970000Y-15404000D01*
X8045000Y-15254000D02*
X8045000Y-15404000D01*
X7970000Y-15329000D02*
X8120000Y-15329000D01*
D11*
X8482381Y-15419476D02*
X8368095Y-15419476D01*
X8425238Y-15419476D02*
X8425238Y-15219476D01*
X8406190Y-15248048D01*
X8387143Y-15267095D01*
X8368095Y-15276619D01*
X8568095Y-15400428D02*
X8577619Y-15409952D01*
X8568095Y-15419476D01*
X8558571Y-15409952D01*
X8568095Y-15400428D01*
X8568095Y-15419476D01*
X8758571Y-15219476D02*
X8663333Y-15219476D01*
X8653810Y-15314714D01*
X8663333Y-15305190D01*
X8682381Y-15295667D01*
X8730000Y-15295667D01*
X8749048Y-15305190D01*
X8758571Y-15314714D01*
X8768095Y-15333762D01*
X8768095Y-15381381D01*
X8758571Y-15400428D01*
X8749048Y-15409952D01*
X8730000Y-15419476D01*
X8682381Y-15419476D01*
X8663333Y-15409952D01*
X8653810Y-15400428D01*
X8891905Y-15219476D02*
X8910952Y-15219476D01*
X8930000Y-15229000D01*
X8939524Y-15238524D01*
X8949048Y-15257571D01*
X8958571Y-15295667D01*
X8958571Y-15343286D01*
X8949048Y-15381381D01*
X8939524Y-15400428D01*
X8930000Y-15409952D01*
X8910952Y-15419476D01*
X8891905Y-15419476D01*
X8872857Y-15409952D01*
X8863333Y-15400428D01*
X8853810Y-15381381D01*
X8844286Y-15343286D01*
X8844286Y-15295667D01*
X8853810Y-15257571D01*
X8863333Y-15238524D01*
X8872857Y-15229000D01*
X8891905Y-15219476D01*
X9082381Y-15219476D02*
X9101429Y-15219476D01*
X9120476Y-15229000D01*
X9130000Y-15238524D01*
X9139524Y-15257571D01*
X9149048Y-15295667D01*
X9149048Y-15343286D01*
X9139524Y-15381381D01*
X9130000Y-15400428D01*
X9120476Y-15409952D01*
X9101429Y-15419476D01*
X9082381Y-15419476D01*
X9063333Y-15409952D01*
X9053810Y-15400428D01*
X9044286Y-15381381D01*
X9034762Y-15343286D01*
X9034762Y-15295667D01*
X9044286Y-15257571D01*
X9053810Y-15238524D01*
X9063333Y-15229000D01*
X9082381Y-15219476D01*
X9234762Y-15419476D02*
X9234762Y-15286143D01*
X9234762Y-15305190D02*
X9244286Y-15295667D01*
X9263333Y-15286143D01*
X9291905Y-15286143D01*
X9310952Y-15295667D01*
X9320476Y-15314714D01*
X9320476Y-15419476D01*
X9320476Y-15314714D02*
X9330000Y-15295667D01*
X9349048Y-15286143D01*
X9377619Y-15286143D01*
X9396667Y-15295667D01*
X9406190Y-15314714D01*
X9406190Y-15419476D01*
X9501429Y-15419476D02*
X9501429Y-15286143D01*
X9501429Y-15305190D02*
X9510952Y-15295667D01*
X9530000Y-15286143D01*
X9558571Y-15286143D01*
X9577619Y-15295667D01*
X9587143Y-15314714D01*
X9587143Y-15419476D01*
X9587143Y-15314714D02*
X9596667Y-15295667D01*
X9615714Y-15286143D01*
X9644286Y-15286143D01*
X9663333Y-15295667D01*
X9672857Y-15314714D01*
X9672857Y-15419476D01*
X10063333Y-15209952D02*
X9891905Y-15467095D01*
X10320476Y-15219476D02*
X10339524Y-15219476D01*
X10358571Y-15229000D01*
X10368095Y-15238524D01*
X10377619Y-15257571D01*
X10387143Y-15295667D01*
X10387143Y-15343286D01*
X10377619Y-15381381D01*
X10368095Y-15400428D01*
X10358571Y-15409952D01*
X10339524Y-15419476D01*
X10320476Y-15419476D01*
X10301429Y-15409952D01*
X10291905Y-15400428D01*
X10282381Y-15381381D01*
X10272857Y-15343286D01*
X10272857Y-15295667D01*
X10282381Y-15257571D01*
X10291905Y-15238524D01*
X10301429Y-15229000D01*
X10320476Y-15219476D01*
X10472857Y-15400428D02*
X10482381Y-15409952D01*
X10472857Y-15419476D01*
X10463333Y-15409952D01*
X10472857Y-15400428D01*
X10472857Y-15419476D01*
X10606190Y-15219476D02*
X10625238Y-15219476D01*
X10644286Y-15229000D01*
X10653810Y-15238524D01*
X10663333Y-15257571D01*
X10672857Y-15295667D01*
X10672857Y-15343286D01*
X10663333Y-15381381D01*
X10653810Y-15400428D01*
X10644286Y-15409952D01*
X10625238Y-15419476D01*
X10606190Y-15419476D01*
X10587143Y-15409952D01*
X10577619Y-15400428D01*
X10568095Y-15381381D01*
X10558571Y-15343286D01*
X10558571Y-15295667D01*
X10568095Y-15257571D01*
X10577619Y-15238524D01*
X10587143Y-15229000D01*
X10606190Y-15219476D01*
X10853810Y-15219476D02*
X10758571Y-15219476D01*
X10749048Y-15314714D01*
X10758571Y-15305190D01*
X10777619Y-15295667D01*
X10825238Y-15295667D01*
X10844286Y-15305190D01*
X10853810Y-15314714D01*
X10863333Y-15333762D01*
X10863333Y-15381381D01*
X10853810Y-15400428D01*
X10844286Y-15409952D01*
X10825238Y-15419476D01*
X10777619Y-15419476D01*
X10758571Y-15409952D01*
X10749048Y-15400428D01*
X10958571Y-15419476D02*
X10996667Y-15419476D01*
X11015714Y-15409952D01*
X11025238Y-15400428D01*
X11044286Y-15371857D01*
X11053810Y-15333762D01*
X11053810Y-15257571D01*
X11044286Y-15238524D01*
X11034762Y-15229000D01*
X11015714Y-15219476D01*
X10977619Y-15219476D01*
X10958571Y-15229000D01*
X10949048Y-15238524D01*
X10939524Y-15257571D01*
X10939524Y-15305190D01*
X10949048Y-15324238D01*
X10958571Y-15333762D01*
X10977619Y-15343286D01*
X11015714Y-15343286D01*
X11034762Y-15333762D01*
X11044286Y-15324238D01*
X11053810Y-15305190D01*
X11244286Y-15419476D02*
X11130000Y-15419476D01*
X11187143Y-15419476D02*
X11187143Y-15219476D01*
X11168095Y-15248048D01*
X11149048Y-15267095D01*
X11130000Y-15276619D01*
X11320476Y-15219476D02*
X11320476Y-15257571D01*
X11396667Y-15219476D02*
X11396667Y-15257571D01*
X11691905Y-15495667D02*
X11682381Y-15486143D01*
X11663333Y-15457571D01*
X11653809Y-15438524D01*
X11644286Y-15409952D01*
X11634762Y-15362333D01*
X11634762Y-15324238D01*
X11644286Y-15276619D01*
X11653809Y-15248048D01*
X11663333Y-15229000D01*
X11682381Y-15200428D01*
X11691905Y-15190905D01*
X11749048Y-15219476D02*
X11882381Y-15219476D01*
X11796667Y-15419476D01*
X12110952Y-15419476D02*
X12110952Y-15219476D01*
X12196667Y-15419476D02*
X12196667Y-15314714D01*
X12187143Y-15295667D01*
X12168095Y-15286143D01*
X12139524Y-15286143D01*
X12120476Y-15295667D01*
X12110952Y-15305190D01*
X12320476Y-15419476D02*
X12301428Y-15409952D01*
X12291905Y-15400428D01*
X12282381Y-15381381D01*
X12282381Y-15324238D01*
X12291905Y-15305190D01*
X12301428Y-15295667D01*
X12320476Y-15286143D01*
X12349048Y-15286143D01*
X12368095Y-15295667D01*
X12377619Y-15305190D01*
X12387143Y-15324238D01*
X12387143Y-15381381D01*
X12377619Y-15400428D01*
X12368095Y-15409952D01*
X12349048Y-15419476D01*
X12320476Y-15419476D01*
X12501428Y-15419476D02*
X12482381Y-15409952D01*
X12472857Y-15390905D01*
X12472857Y-15219476D01*
X12653809Y-15409952D02*
X12634762Y-15419476D01*
X12596667Y-15419476D01*
X12577619Y-15409952D01*
X12568095Y-15390905D01*
X12568095Y-15314714D01*
X12577619Y-15295667D01*
X12596667Y-15286143D01*
X12634762Y-15286143D01*
X12653809Y-15295667D01*
X12663333Y-15314714D01*
X12663333Y-15333762D01*
X12568095Y-15352809D01*
X12739524Y-15409952D02*
X12758571Y-15419476D01*
X12796667Y-15419476D01*
X12815714Y-15409952D01*
X12825238Y-15390905D01*
X12825238Y-15381381D01*
X12815714Y-15362333D01*
X12796667Y-15352809D01*
X12768095Y-15352809D01*
X12749048Y-15343286D01*
X12739524Y-15324238D01*
X12739524Y-15314714D01*
X12749048Y-15295667D01*
X12768095Y-15286143D01*
X12796667Y-15286143D01*
X12815714Y-15295667D01*
X12891905Y-15495667D02*
X12901428Y-15486143D01*
X12920476Y-15457571D01*
X12930000Y-15438524D01*
X12939524Y-15409952D01*
X12949048Y-15362333D01*
X12949048Y-15324238D01*
X12939524Y-15276619D01*
X12930000Y-15248048D01*
X12920476Y-15229000D01*
X12901428Y-15200428D01*
X12891905Y-15190905D01*
M02*
