%FSLAX45Y45*%
G04 Gerber Fmt 4.5, Leading zero omitted, Abs format (unit mm)*
G04 Created by KiCad (PCBNEW (6.0.1)) date 2022-02-04 15:05:05*
%MOMM*%
%LPD*%
G01*
G04 APERTURE LIST*
%TA.AperFunction,Profile*%
%ADD10C,0.100000*%
%TD*%
%ADD11C,0.200000*%
%ADD12C,0.320000*%
G04 APERTURE END LIST*
D10*
X8125000Y-8650000D02*
X17275000Y-8650000D01*
X17275000Y-8650000D02*
X17275000Y-13100000D01*
X17275000Y-13100000D02*
X8125000Y-13100000D01*
X8125000Y-13100000D02*
X8125000Y-8650000D01*
D11*
D12*
X8465000Y-8990000D02*
X8785000Y-9310000D01*
X8785000Y-8990000D02*
X8465000Y-9310000D01*
X8465000Y-12440000D02*
X8785000Y-12760000D01*
X8785000Y-12440000D02*
X8465000Y-12760000D01*
X16615000Y-8990000D02*
X16935000Y-9310000D01*
X16935000Y-8990000D02*
X16615000Y-9310000D01*
X16615000Y-12440000D02*
X16935000Y-12760000D01*
X16935000Y-12440000D02*
X16615000Y-12760000D01*
D11*
X8377619Y-13415476D02*
X8377619Y-13215476D01*
X8425238Y-13215476D01*
X8453810Y-13225000D01*
X8472857Y-13244048D01*
X8482381Y-13263095D01*
X8491905Y-13301190D01*
X8491905Y-13329762D01*
X8482381Y-13367857D01*
X8472857Y-13386905D01*
X8453810Y-13405952D01*
X8425238Y-13415476D01*
X8377619Y-13415476D01*
X8577619Y-13415476D02*
X8577619Y-13282143D01*
X8577619Y-13320238D02*
X8587143Y-13301190D01*
X8596667Y-13291667D01*
X8615714Y-13282143D01*
X8634762Y-13282143D01*
X8701429Y-13415476D02*
X8701429Y-13282143D01*
X8701429Y-13215476D02*
X8691905Y-13225000D01*
X8701429Y-13234524D01*
X8710952Y-13225000D01*
X8701429Y-13215476D01*
X8701429Y-13234524D01*
X8825238Y-13415476D02*
X8806190Y-13405952D01*
X8796667Y-13386905D01*
X8796667Y-13215476D01*
X8930000Y-13415476D02*
X8910952Y-13405952D01*
X8901429Y-13386905D01*
X8901429Y-13215476D01*
X9158571Y-13415476D02*
X9158571Y-13215476D01*
X9225238Y-13358333D01*
X9291905Y-13215476D01*
X9291905Y-13415476D01*
X9472857Y-13415476D02*
X9472857Y-13310714D01*
X9463333Y-13291667D01*
X9444286Y-13282143D01*
X9406190Y-13282143D01*
X9387143Y-13291667D01*
X9472857Y-13405952D02*
X9453810Y-13415476D01*
X9406190Y-13415476D01*
X9387143Y-13405952D01*
X9377619Y-13386905D01*
X9377619Y-13367857D01*
X9387143Y-13348809D01*
X9406190Y-13339286D01*
X9453810Y-13339286D01*
X9472857Y-13329762D01*
X9568095Y-13282143D02*
X9568095Y-13482143D01*
X9568095Y-13291667D02*
X9587143Y-13282143D01*
X9625238Y-13282143D01*
X9644286Y-13291667D01*
X9653810Y-13301190D01*
X9663333Y-13320238D01*
X9663333Y-13377381D01*
X9653810Y-13396428D01*
X9644286Y-13405952D01*
X9625238Y-13415476D01*
X9587143Y-13415476D01*
X9568095Y-13405952D01*
X9749048Y-13396428D02*
X9758571Y-13405952D01*
X9749048Y-13415476D01*
X9739524Y-13405952D01*
X9749048Y-13396428D01*
X9749048Y-13415476D01*
X9749048Y-13291667D02*
X9758571Y-13301190D01*
X9749048Y-13310714D01*
X9739524Y-13301190D01*
X9749048Y-13291667D01*
X9749048Y-13310714D01*
X7920000Y-13645000D02*
X8120000Y-13845000D01*
X8120000Y-13645000D02*
X7920000Y-13845000D01*
X8358571Y-13635476D02*
X8482381Y-13635476D01*
X8415714Y-13711667D01*
X8444286Y-13711667D01*
X8463333Y-13721190D01*
X8472857Y-13730714D01*
X8482381Y-13749762D01*
X8482381Y-13797381D01*
X8472857Y-13816428D01*
X8463333Y-13825952D01*
X8444286Y-13835476D01*
X8387143Y-13835476D01*
X8368095Y-13825952D01*
X8358571Y-13816428D01*
X8568095Y-13816428D02*
X8577619Y-13825952D01*
X8568095Y-13835476D01*
X8558571Y-13825952D01*
X8568095Y-13816428D01*
X8568095Y-13835476D01*
X8653810Y-13654524D02*
X8663333Y-13645000D01*
X8682381Y-13635476D01*
X8730000Y-13635476D01*
X8749048Y-13645000D01*
X8758571Y-13654524D01*
X8768095Y-13673571D01*
X8768095Y-13692619D01*
X8758571Y-13721190D01*
X8644286Y-13835476D01*
X8768095Y-13835476D01*
X8891905Y-13635476D02*
X8910952Y-13635476D01*
X8930000Y-13645000D01*
X8939524Y-13654524D01*
X8949048Y-13673571D01*
X8958571Y-13711667D01*
X8958571Y-13759286D01*
X8949048Y-13797381D01*
X8939524Y-13816428D01*
X8930000Y-13825952D01*
X8910952Y-13835476D01*
X8891905Y-13835476D01*
X8872857Y-13825952D01*
X8863333Y-13816428D01*
X8853810Y-13797381D01*
X8844286Y-13759286D01*
X8844286Y-13711667D01*
X8853810Y-13673571D01*
X8863333Y-13654524D01*
X8872857Y-13645000D01*
X8891905Y-13635476D01*
X9082381Y-13635476D02*
X9101429Y-13635476D01*
X9120476Y-13645000D01*
X9130000Y-13654524D01*
X9139524Y-13673571D01*
X9149048Y-13711667D01*
X9149048Y-13759286D01*
X9139524Y-13797381D01*
X9130000Y-13816428D01*
X9120476Y-13825952D01*
X9101429Y-13835476D01*
X9082381Y-13835476D01*
X9063333Y-13825952D01*
X9053810Y-13816428D01*
X9044286Y-13797381D01*
X9034762Y-13759286D01*
X9034762Y-13711667D01*
X9044286Y-13673571D01*
X9053810Y-13654524D01*
X9063333Y-13645000D01*
X9082381Y-13635476D01*
X9234762Y-13835476D02*
X9234762Y-13702143D01*
X9234762Y-13721190D02*
X9244286Y-13711667D01*
X9263333Y-13702143D01*
X9291905Y-13702143D01*
X9310952Y-13711667D01*
X9320476Y-13730714D01*
X9320476Y-13835476D01*
X9320476Y-13730714D02*
X9330000Y-13711667D01*
X9349048Y-13702143D01*
X9377619Y-13702143D01*
X9396667Y-13711667D01*
X9406190Y-13730714D01*
X9406190Y-13835476D01*
X9501429Y-13835476D02*
X9501429Y-13702143D01*
X9501429Y-13721190D02*
X9510952Y-13711667D01*
X9530000Y-13702143D01*
X9558571Y-13702143D01*
X9577619Y-13711667D01*
X9587143Y-13730714D01*
X9587143Y-13835476D01*
X9587143Y-13730714D02*
X9596667Y-13711667D01*
X9615714Y-13702143D01*
X9644286Y-13702143D01*
X9663333Y-13711667D01*
X9672857Y-13730714D01*
X9672857Y-13835476D01*
X10063333Y-13625952D02*
X9891905Y-13883095D01*
X10320476Y-13635476D02*
X10339524Y-13635476D01*
X10358571Y-13645000D01*
X10368095Y-13654524D01*
X10377619Y-13673571D01*
X10387143Y-13711667D01*
X10387143Y-13759286D01*
X10377619Y-13797381D01*
X10368095Y-13816428D01*
X10358571Y-13825952D01*
X10339524Y-13835476D01*
X10320476Y-13835476D01*
X10301429Y-13825952D01*
X10291905Y-13816428D01*
X10282381Y-13797381D01*
X10272857Y-13759286D01*
X10272857Y-13711667D01*
X10282381Y-13673571D01*
X10291905Y-13654524D01*
X10301429Y-13645000D01*
X10320476Y-13635476D01*
X10472857Y-13816428D02*
X10482381Y-13825952D01*
X10472857Y-13835476D01*
X10463333Y-13825952D01*
X10472857Y-13816428D01*
X10472857Y-13835476D01*
X10672857Y-13835476D02*
X10558571Y-13835476D01*
X10615714Y-13835476D02*
X10615714Y-13635476D01*
X10596667Y-13664048D01*
X10577619Y-13683095D01*
X10558571Y-13692619D01*
X10749048Y-13654524D02*
X10758571Y-13645000D01*
X10777619Y-13635476D01*
X10825238Y-13635476D01*
X10844286Y-13645000D01*
X10853810Y-13654524D01*
X10863333Y-13673571D01*
X10863333Y-13692619D01*
X10853810Y-13721190D01*
X10739524Y-13835476D01*
X10863333Y-13835476D01*
X11034762Y-13635476D02*
X10996667Y-13635476D01*
X10977619Y-13645000D01*
X10968095Y-13654524D01*
X10949048Y-13683095D01*
X10939524Y-13721190D01*
X10939524Y-13797381D01*
X10949048Y-13816428D01*
X10958571Y-13825952D01*
X10977619Y-13835476D01*
X11015714Y-13835476D01*
X11034762Y-13825952D01*
X11044286Y-13816428D01*
X11053810Y-13797381D01*
X11053810Y-13749762D01*
X11044286Y-13730714D01*
X11034762Y-13721190D01*
X11015714Y-13711667D01*
X10977619Y-13711667D01*
X10958571Y-13721190D01*
X10949048Y-13730714D01*
X10939524Y-13749762D01*
X11177619Y-13635476D02*
X11196667Y-13635476D01*
X11215714Y-13645000D01*
X11225238Y-13654524D01*
X11234762Y-13673571D01*
X11244286Y-13711667D01*
X11244286Y-13759286D01*
X11234762Y-13797381D01*
X11225238Y-13816428D01*
X11215714Y-13825952D01*
X11196667Y-13835476D01*
X11177619Y-13835476D01*
X11158571Y-13825952D01*
X11149048Y-13816428D01*
X11139524Y-13797381D01*
X11130000Y-13759286D01*
X11130000Y-13711667D01*
X11139524Y-13673571D01*
X11149048Y-13654524D01*
X11158571Y-13645000D01*
X11177619Y-13635476D01*
X11320476Y-13635476D02*
X11320476Y-13673571D01*
X11396667Y-13635476D02*
X11396667Y-13673571D01*
X11691905Y-13911667D02*
X11682381Y-13902143D01*
X11663333Y-13873571D01*
X11653809Y-13854524D01*
X11644286Y-13825952D01*
X11634762Y-13778333D01*
X11634762Y-13740238D01*
X11644286Y-13692619D01*
X11653809Y-13664048D01*
X11663333Y-13645000D01*
X11682381Y-13616428D01*
X11691905Y-13606905D01*
X11853809Y-13702143D02*
X11853809Y-13835476D01*
X11806190Y-13625952D02*
X11758571Y-13768809D01*
X11882381Y-13768809D01*
X12110952Y-13835476D02*
X12110952Y-13635476D01*
X12196667Y-13835476D02*
X12196667Y-13730714D01*
X12187143Y-13711667D01*
X12168095Y-13702143D01*
X12139524Y-13702143D01*
X12120476Y-13711667D01*
X12110952Y-13721190D01*
X12320476Y-13835476D02*
X12301428Y-13825952D01*
X12291905Y-13816428D01*
X12282381Y-13797381D01*
X12282381Y-13740238D01*
X12291905Y-13721190D01*
X12301428Y-13711667D01*
X12320476Y-13702143D01*
X12349048Y-13702143D01*
X12368095Y-13711667D01*
X12377619Y-13721190D01*
X12387143Y-13740238D01*
X12387143Y-13797381D01*
X12377619Y-13816428D01*
X12368095Y-13825952D01*
X12349048Y-13835476D01*
X12320476Y-13835476D01*
X12501428Y-13835476D02*
X12482381Y-13825952D01*
X12472857Y-13806905D01*
X12472857Y-13635476D01*
X12653809Y-13825952D02*
X12634762Y-13835476D01*
X12596667Y-13835476D01*
X12577619Y-13825952D01*
X12568095Y-13806905D01*
X12568095Y-13730714D01*
X12577619Y-13711667D01*
X12596667Y-13702143D01*
X12634762Y-13702143D01*
X12653809Y-13711667D01*
X12663333Y-13730714D01*
X12663333Y-13749762D01*
X12568095Y-13768809D01*
X12739524Y-13825952D02*
X12758571Y-13835476D01*
X12796667Y-13835476D01*
X12815714Y-13825952D01*
X12825238Y-13806905D01*
X12825238Y-13797381D01*
X12815714Y-13778333D01*
X12796667Y-13768809D01*
X12768095Y-13768809D01*
X12749048Y-13759286D01*
X12739524Y-13740238D01*
X12739524Y-13730714D01*
X12749048Y-13711667D01*
X12768095Y-13702143D01*
X12796667Y-13702143D01*
X12815714Y-13711667D01*
X12891905Y-13911667D02*
X12901428Y-13902143D01*
X12920476Y-13873571D01*
X12930000Y-13854524D01*
X12939524Y-13825952D01*
X12949048Y-13778333D01*
X12949048Y-13740238D01*
X12939524Y-13692619D01*
X12930000Y-13664048D01*
X12920476Y-13645000D01*
X12901428Y-13616428D01*
X12891905Y-13606905D01*
X13253809Y-13911667D02*
X13244286Y-13902143D01*
X13225238Y-13873571D01*
X13215714Y-13854524D01*
X13206190Y-13825952D01*
X13196667Y-13778333D01*
X13196667Y-13740238D01*
X13206190Y-13692619D01*
X13215714Y-13664048D01*
X13225238Y-13645000D01*
X13244286Y-13616428D01*
X13253809Y-13606905D01*
X13330000Y-13702143D02*
X13330000Y-13835476D01*
X13330000Y-13721190D02*
X13339524Y-13711667D01*
X13358571Y-13702143D01*
X13387143Y-13702143D01*
X13406190Y-13711667D01*
X13415714Y-13730714D01*
X13415714Y-13835476D01*
X13539524Y-13835476D02*
X13520476Y-13825952D01*
X13510952Y-13816428D01*
X13501428Y-13797381D01*
X13501428Y-13740238D01*
X13510952Y-13721190D01*
X13520476Y-13711667D01*
X13539524Y-13702143D01*
X13568095Y-13702143D01*
X13587143Y-13711667D01*
X13596667Y-13721190D01*
X13606190Y-13740238D01*
X13606190Y-13797381D01*
X13596667Y-13816428D01*
X13587143Y-13825952D01*
X13568095Y-13835476D01*
X13539524Y-13835476D01*
X13663333Y-13702143D02*
X13739524Y-13702143D01*
X13691905Y-13635476D02*
X13691905Y-13806905D01*
X13701428Y-13825952D01*
X13720476Y-13835476D01*
X13739524Y-13835476D01*
X13958571Y-13702143D02*
X13958571Y-13902143D01*
X13958571Y-13711667D02*
X13977619Y-13702143D01*
X14015714Y-13702143D01*
X14034762Y-13711667D01*
X14044286Y-13721190D01*
X14053809Y-13740238D01*
X14053809Y-13797381D01*
X14044286Y-13816428D01*
X14034762Y-13825952D01*
X14015714Y-13835476D01*
X13977619Y-13835476D01*
X13958571Y-13825952D01*
X14168095Y-13835476D02*
X14149048Y-13825952D01*
X14139524Y-13806905D01*
X14139524Y-13635476D01*
X14330000Y-13835476D02*
X14330000Y-13730714D01*
X14320476Y-13711667D01*
X14301428Y-13702143D01*
X14263333Y-13702143D01*
X14244286Y-13711667D01*
X14330000Y-13825952D02*
X14310952Y-13835476D01*
X14263333Y-13835476D01*
X14244286Y-13825952D01*
X14234762Y-13806905D01*
X14234762Y-13787857D01*
X14244286Y-13768809D01*
X14263333Y-13759286D01*
X14310952Y-13759286D01*
X14330000Y-13749762D01*
X14396667Y-13702143D02*
X14472857Y-13702143D01*
X14425238Y-13635476D02*
X14425238Y-13806905D01*
X14434762Y-13825952D01*
X14453809Y-13835476D01*
X14472857Y-13835476D01*
X14615714Y-13825952D02*
X14596667Y-13835476D01*
X14558571Y-13835476D01*
X14539524Y-13825952D01*
X14530000Y-13806905D01*
X14530000Y-13730714D01*
X14539524Y-13711667D01*
X14558571Y-13702143D01*
X14596667Y-13702143D01*
X14615714Y-13711667D01*
X14625238Y-13730714D01*
X14625238Y-13749762D01*
X14530000Y-13768809D01*
X14796667Y-13835476D02*
X14796667Y-13635476D01*
X14796667Y-13825952D02*
X14777619Y-13835476D01*
X14739524Y-13835476D01*
X14720476Y-13825952D01*
X14710952Y-13816428D01*
X14701428Y-13797381D01*
X14701428Y-13740238D01*
X14710952Y-13721190D01*
X14720476Y-13711667D01*
X14739524Y-13702143D01*
X14777619Y-13702143D01*
X14796667Y-13711667D01*
X14872857Y-13911667D02*
X14882381Y-13902143D01*
X14901428Y-13873571D01*
X14910952Y-13854524D01*
X14920476Y-13825952D01*
X14930000Y-13778333D01*
X14930000Y-13740238D01*
X14920476Y-13692619D01*
X14910952Y-13664048D01*
X14901428Y-13645000D01*
X14882381Y-13616428D01*
X14872857Y-13606905D01*
M02*
