G04 #@! TF.GenerationSoftware,KiCad,Pcbnew,(6.0.1)*
G04 #@! TF.CreationDate,2022-02-04T15:04:59+01:00*
G04 #@! TF.ProjectId,esp32-wled-adv-pcb,65737033-322d-4776-9c65-642d6164762d,rev?*
G04 #@! TF.SameCoordinates,Original*
G04 #@! TF.FileFunction,Legend,Top*
G04 #@! TF.FilePolarity,Positive*
%FSLAX46Y46*%
G04 Gerber Fmt 4.6, Leading zero omitted, Abs format (unit mm)*
G04 Created by KiCad (PCBNEW (6.0.1)) date 2022-02-04 15:04:59*
%MOMM*%
%LPD*%
G01*
G04 APERTURE LIST*
G04 Aperture macros list*
%AMRoundRect*
0 Rectangle with rounded corners*
0 $1 Rounding radius*
0 $2 $3 $4 $5 $6 $7 $8 $9 X,Y pos of 4 corners*
0 Add a 4 corners polygon primitive as box body*
4,1,4,$2,$3,$4,$5,$6,$7,$8,$9,$2,$3,0*
0 Add four circle primitives for the rounded corners*
1,1,$1+$1,$2,$3*
1,1,$1+$1,$4,$5*
1,1,$1+$1,$6,$7*
1,1,$1+$1,$8,$9*
0 Add four rect primitives between the rounded corners*
20,1,$1+$1,$2,$3,$4,$5,0*
20,1,$1+$1,$4,$5,$6,$7,0*
20,1,$1+$1,$6,$7,$8,$9,0*
20,1,$1+$1,$8,$9,$2,$3,0*%
G04 Aperture macros list end*
%ADD10C,0.250000*%
%ADD11C,0.150000*%
%ADD12C,0.300000*%
%ADD13C,0.120000*%
%ADD14C,0.100000*%
%ADD15C,0.050000*%
%ADD16C,3.200000*%
%ADD17C,3.000000*%
%ADD18R,3.000000X3.000000*%
%ADD19RoundRect,0.250000X0.450000X-0.262500X0.450000X0.262500X-0.450000X0.262500X-0.450000X-0.262500X0*%
%ADD20RoundRect,0.250000X-0.475000X0.250000X-0.475000X-0.250000X0.475000X-0.250000X0.475000X0.250000X0*%
%ADD21RoundRect,0.250000X-0.450000X0.262500X-0.450000X-0.262500X0.450000X-0.262500X0.450000X0.262500X0*%
%ADD22RoundRect,0.250000X0.250000X0.475000X-0.250000X0.475000X-0.250000X-0.475000X0.250000X-0.475000X0*%
%ADD23RoundRect,0.250000X-0.262500X-0.450000X0.262500X-0.450000X0.262500X0.450000X-0.262500X0.450000X0*%
%ADD24R,0.700000X1.250000*%
%ADD25R,0.250000X0.700000*%
%ADD26RoundRect,0.250000X0.475000X-0.250000X0.475000X0.250000X-0.475000X0.250000X-0.475000X-0.250000X0*%
%ADD27C,2.300000*%
%ADD28R,1.250000X0.700000*%
%ADD29R,0.700000X0.250000*%
%ADD30RoundRect,0.250000X0.262500X0.450000X-0.262500X0.450000X-0.262500X-0.450000X0.262500X-0.450000X0*%
%ADD31O,1.700000X1.700000*%
%ADD32R,1.700000X1.700000*%
%ADD33RoundRect,0.225000X0.225000X0.875000X-0.225000X0.875000X-0.225000X-0.875000X0.225000X-0.875000X0*%
%ADD34RoundRect,0.250000X-0.250000X-0.475000X0.250000X-0.475000X0.250000X0.475000X-0.250000X0.475000X0*%
%ADD35RoundRect,0.150000X-0.587500X-0.150000X0.587500X-0.150000X0.587500X0.150000X-0.587500X0.150000X0*%
%ADD36R,5.300000X5.300000*%
%ADD37RoundRect,0.062500X-0.337500X0.062500X-0.337500X-0.062500X0.337500X-0.062500X0.337500X0.062500X0*%
%ADD38RoundRect,0.062500X-0.062500X0.337500X-0.062500X-0.337500X0.062500X-0.337500X0.062500X0.337500X0*%
%ADD39RoundRect,0.100000X-0.100000X0.300000X-0.100000X-0.300000X0.100000X-0.300000X0.100000X0.300000X0*%
%ADD40RoundRect,0.150000X-0.150000X0.512500X-0.150000X-0.512500X0.150000X-0.512500X0.150000X0.512500X0*%
G04 APERTURE END LIST*
D10*
X142843380Y-88725428D02*
X142843380Y-90058761D01*
X142367190Y-87963523D02*
X141891000Y-89392095D01*
X143129095Y-89392095D01*
X143891000Y-89868285D02*
X143986238Y-89963523D01*
X143891000Y-90058761D01*
X143795761Y-89963523D01*
X143891000Y-89868285D01*
X143891000Y-90058761D01*
X145224333Y-88058761D02*
X145414809Y-88058761D01*
X145605285Y-88154000D01*
X145700523Y-88249238D01*
X145795761Y-88439714D01*
X145891000Y-88820666D01*
X145891000Y-89296857D01*
X145795761Y-89677809D01*
X145700523Y-89868285D01*
X145605285Y-89963523D01*
X145414809Y-90058761D01*
X145224333Y-90058761D01*
X145033857Y-89963523D01*
X144938619Y-89868285D01*
X144843380Y-89677809D01*
X144748142Y-89296857D01*
X144748142Y-88820666D01*
X144843380Y-88439714D01*
X144938619Y-88249238D01*
X145033857Y-88154000D01*
X145224333Y-88058761D01*
D11*
X169251380Y-121586047D02*
X169965666Y-121586047D01*
X170108523Y-121633666D01*
X170203761Y-121728904D01*
X170251380Y-121871761D01*
X170251380Y-121967000D01*
X170251380Y-120633666D02*
X170251380Y-121109857D01*
X169251380Y-121109857D01*
X170156142Y-119728904D02*
X170203761Y-119776523D01*
X170251380Y-119919380D01*
X170251380Y-120014619D01*
X170203761Y-120157476D01*
X170108523Y-120252714D01*
X170013285Y-120300333D01*
X169822809Y-120347952D01*
X169679952Y-120347952D01*
X169489476Y-120300333D01*
X169394238Y-120252714D01*
X169299000Y-120157476D01*
X169251380Y-120014619D01*
X169251380Y-119919380D01*
X169299000Y-119776523D01*
X169346619Y-119728904D01*
X169251380Y-119014619D02*
X169965666Y-119014619D01*
X170108523Y-119062238D01*
X170203761Y-119157476D01*
X170251380Y-119300333D01*
X170251380Y-119395571D01*
X170251380Y-118062238D02*
X170251380Y-118538428D01*
X169251380Y-118538428D01*
X170156142Y-117157476D02*
X170203761Y-117205095D01*
X170251380Y-117347952D01*
X170251380Y-117443190D01*
X170203761Y-117586047D01*
X170108523Y-117681285D01*
X170013285Y-117728904D01*
X169822809Y-117776523D01*
X169679952Y-117776523D01*
X169489476Y-117728904D01*
X169394238Y-117681285D01*
X169299000Y-117586047D01*
X169251380Y-117443190D01*
X169251380Y-117347952D01*
X169299000Y-117205095D01*
X169346619Y-117157476D01*
X169251380Y-116443190D02*
X169965666Y-116443190D01*
X170108523Y-116490809D01*
X170203761Y-116586047D01*
X170251380Y-116728904D01*
X170251380Y-116824142D01*
X170251380Y-115490809D02*
X170251380Y-115967000D01*
X169251380Y-115967000D01*
X170156142Y-114586047D02*
X170203761Y-114633666D01*
X170251380Y-114776523D01*
X170251380Y-114871761D01*
X170203761Y-115014619D01*
X170108523Y-115109857D01*
X170013285Y-115157476D01*
X169822809Y-115205095D01*
X169679952Y-115205095D01*
X169489476Y-115157476D01*
X169394238Y-115109857D01*
X169299000Y-115014619D01*
X169251380Y-114871761D01*
X169251380Y-114776523D01*
X169299000Y-114633666D01*
X169346619Y-114586047D01*
X169251380Y-113871761D02*
X169965666Y-113871761D01*
X170108523Y-113919380D01*
X170203761Y-114014619D01*
X170251380Y-114157476D01*
X170251380Y-114252714D01*
X170251380Y-112919380D02*
X170251380Y-113395571D01*
X169251380Y-113395571D01*
X170156142Y-112014619D02*
X170203761Y-112062238D01*
X170251380Y-112205095D01*
X170251380Y-112300333D01*
X170203761Y-112443190D01*
X170108523Y-112538428D01*
X170013285Y-112586047D01*
X169822809Y-112633666D01*
X169679952Y-112633666D01*
X169489476Y-112586047D01*
X169394238Y-112538428D01*
X169299000Y-112443190D01*
X169251380Y-112300333D01*
X169251380Y-112205095D01*
X169299000Y-112062238D01*
X169346619Y-112014619D01*
X90043000Y-107569000D02*
X81915000Y-107569000D01*
D10*
X84216761Y-101361714D02*
X84216761Y-102314095D01*
X82216761Y-102314095D01*
X83169142Y-100695047D02*
X83169142Y-100028380D01*
X84216761Y-99742666D02*
X84216761Y-100695047D01*
X82216761Y-100695047D01*
X82216761Y-99742666D01*
X84216761Y-98885523D02*
X82216761Y-98885523D01*
X82216761Y-98409333D01*
X82312000Y-98123619D01*
X82502476Y-97933142D01*
X82692952Y-97837904D01*
X83073904Y-97742666D01*
X83359619Y-97742666D01*
X83740571Y-97837904D01*
X83931047Y-97933142D01*
X84121523Y-98123619D01*
X84216761Y-98409333D01*
X84216761Y-98885523D01*
D12*
X86419428Y-109359000D02*
X86276571Y-109287571D01*
X86062285Y-109287571D01*
X85848000Y-109359000D01*
X85705142Y-109501857D01*
X85633714Y-109644714D01*
X85562285Y-109930428D01*
X85562285Y-110144714D01*
X85633714Y-110430428D01*
X85705142Y-110573285D01*
X85848000Y-110716142D01*
X86062285Y-110787571D01*
X86205142Y-110787571D01*
X86419428Y-110716142D01*
X86490857Y-110644714D01*
X86490857Y-110144714D01*
X86205142Y-110144714D01*
X87133714Y-110787571D02*
X87133714Y-109287571D01*
X87990857Y-110787571D01*
X87990857Y-109287571D01*
X88705142Y-110787571D02*
X88705142Y-109287571D01*
X89062285Y-109287571D01*
X89276571Y-109359000D01*
X89419428Y-109501857D01*
X89490857Y-109644714D01*
X89562285Y-109930428D01*
X89562285Y-110144714D01*
X89490857Y-110430428D01*
X89419428Y-110573285D01*
X89276571Y-110716142D01*
X89062285Y-110787571D01*
X88705142Y-110787571D01*
X84990857Y-100805371D02*
X84990857Y-99305371D01*
X85348000Y-99305371D01*
X85562285Y-99376800D01*
X85705142Y-99519657D01*
X85776571Y-99662514D01*
X85848000Y-99948228D01*
X85848000Y-100162514D01*
X85776571Y-100448228D01*
X85705142Y-100591085D01*
X85562285Y-100733942D01*
X85348000Y-100805371D01*
X84990857Y-100805371D01*
X86419428Y-100376800D02*
X87133714Y-100376800D01*
X86276571Y-100805371D02*
X86776571Y-99305371D01*
X87276571Y-100805371D01*
X87562285Y-99305371D02*
X88419428Y-99305371D01*
X87990857Y-100805371D02*
X87990857Y-99305371D01*
X88848000Y-100376800D02*
X89562285Y-100376800D01*
X88705142Y-100805371D02*
X89205142Y-99305371D01*
X89705142Y-100805371D01*
D11*
X117031857Y-115752571D02*
X117365190Y-115752571D01*
X117508047Y-116276380D02*
X117031857Y-116276380D01*
X117031857Y-115276380D01*
X117508047Y-115276380D01*
X117888999Y-116228761D02*
X118031857Y-116276380D01*
X118269952Y-116276380D01*
X118365190Y-116228761D01*
X118412809Y-116181142D01*
X118460428Y-116085904D01*
X118460428Y-115990666D01*
X118412809Y-115895428D01*
X118365190Y-115847809D01*
X118269952Y-115800190D01*
X118079476Y-115752571D01*
X117984238Y-115704952D01*
X117936619Y-115657333D01*
X117888999Y-115562095D01*
X117888999Y-115466857D01*
X117936619Y-115371619D01*
X117984238Y-115324000D01*
X118079476Y-115276380D01*
X118317571Y-115276380D01*
X118460428Y-115324000D01*
X118888999Y-116276380D02*
X118888999Y-115276380D01*
X119269952Y-115276380D01*
X119365190Y-115324000D01*
X119412809Y-115371619D01*
X119460428Y-115466857D01*
X119460428Y-115609714D01*
X119412809Y-115704952D01*
X119365190Y-115752571D01*
X119269952Y-115800190D01*
X118888999Y-115800190D01*
X119793761Y-115276380D02*
X120412809Y-115276380D01*
X120079476Y-115657333D01*
X120222333Y-115657333D01*
X120317571Y-115704952D01*
X120365190Y-115752571D01*
X120412809Y-115847809D01*
X120412809Y-116085904D01*
X120365190Y-116181142D01*
X120317571Y-116228761D01*
X120222333Y-116276380D01*
X119936619Y-116276380D01*
X119841380Y-116228761D01*
X119793761Y-116181142D01*
X120793761Y-115371619D02*
X120841380Y-115324000D01*
X120936619Y-115276380D01*
X121174714Y-115276380D01*
X121269952Y-115324000D01*
X121317571Y-115371619D01*
X121365190Y-115466857D01*
X121365190Y-115562095D01*
X121317571Y-115704952D01*
X120746142Y-116276380D01*
X121365190Y-116276380D01*
X122508047Y-115990666D02*
X122984238Y-115990666D01*
X122412809Y-116276380D02*
X122746142Y-115276380D01*
X123079476Y-116276380D01*
X123841380Y-116276380D02*
X123841380Y-115276380D01*
X123841380Y-116228761D02*
X123746142Y-116276380D01*
X123555666Y-116276380D01*
X123460428Y-116228761D01*
X123412809Y-116181142D01*
X123365190Y-116085904D01*
X123365190Y-115800190D01*
X123412809Y-115704952D01*
X123460428Y-115657333D01*
X123555666Y-115609714D01*
X123746142Y-115609714D01*
X123841380Y-115657333D01*
X124222333Y-115609714D02*
X124460428Y-116276380D01*
X124698523Y-115609714D01*
X125508047Y-116276380D02*
X125508047Y-115752571D01*
X125460428Y-115657333D01*
X125365190Y-115609714D01*
X125174714Y-115609714D01*
X125079476Y-115657333D01*
X125508047Y-116228761D02*
X125412809Y-116276380D01*
X125174714Y-116276380D01*
X125079476Y-116228761D01*
X125031857Y-116133523D01*
X125031857Y-116038285D01*
X125079476Y-115943047D01*
X125174714Y-115895428D01*
X125412809Y-115895428D01*
X125508047Y-115847809D01*
X125984238Y-115609714D02*
X125984238Y-116276380D01*
X125984238Y-115704952D02*
X126031857Y-115657333D01*
X126127095Y-115609714D01*
X126269952Y-115609714D01*
X126365190Y-115657333D01*
X126412809Y-115752571D01*
X126412809Y-116276380D01*
X127317571Y-116228761D02*
X127222333Y-116276380D01*
X127031857Y-116276380D01*
X126936619Y-116228761D01*
X126888999Y-116181142D01*
X126841380Y-116085904D01*
X126841380Y-115800190D01*
X126888999Y-115704952D01*
X126936619Y-115657333D01*
X127031857Y-115609714D01*
X127222333Y-115609714D01*
X127317571Y-115657333D01*
X128127095Y-116228761D02*
X128031857Y-116276380D01*
X127841380Y-116276380D01*
X127746142Y-116228761D01*
X127698523Y-116133523D01*
X127698523Y-115752571D01*
X127746142Y-115657333D01*
X127841380Y-115609714D01*
X128031857Y-115609714D01*
X128127095Y-115657333D01*
X128174714Y-115752571D01*
X128174714Y-115847809D01*
X127698523Y-115943047D01*
X129031857Y-116276380D02*
X129031857Y-115276380D01*
X129031857Y-116228761D02*
X128936619Y-116276380D01*
X128746142Y-116276380D01*
X128650904Y-116228761D01*
X128603285Y-116181142D01*
X128555666Y-116085904D01*
X128555666Y-115800190D01*
X128603285Y-115704952D01*
X128650904Y-115657333D01*
X128746142Y-115609714D01*
X128936619Y-115609714D01*
X129031857Y-115657333D01*
X130174714Y-115276380D02*
X130412809Y-116276380D01*
X130603285Y-115562095D01*
X130793761Y-116276380D01*
X131031857Y-115276380D01*
X131888999Y-116276380D02*
X131412809Y-116276380D01*
X131412809Y-115276380D01*
X132222333Y-115752571D02*
X132555666Y-115752571D01*
X132698523Y-116276380D02*
X132222333Y-116276380D01*
X132222333Y-115276380D01*
X132698523Y-115276380D01*
X133127095Y-116276380D02*
X133127095Y-115276380D01*
X133365190Y-115276380D01*
X133508047Y-115324000D01*
X133603285Y-115419238D01*
X133650904Y-115514476D01*
X133698523Y-115704952D01*
X133698523Y-115847809D01*
X133650904Y-116038285D01*
X133603285Y-116133523D01*
X133508047Y-116228761D01*
X133365190Y-116276380D01*
X133127095Y-116276380D01*
X135222333Y-115752571D02*
X135365190Y-115800190D01*
X135412809Y-115847809D01*
X135460428Y-115943047D01*
X135460428Y-116085904D01*
X135412809Y-116181142D01*
X135365190Y-116228761D01*
X135269952Y-116276380D01*
X134889000Y-116276380D01*
X134889000Y-115276380D01*
X135222333Y-115276380D01*
X135317571Y-115324000D01*
X135365190Y-115371619D01*
X135412809Y-115466857D01*
X135412809Y-115562095D01*
X135365190Y-115657333D01*
X135317571Y-115704952D01*
X135222333Y-115752571D01*
X134889000Y-115752571D01*
X136031857Y-116276380D02*
X135936619Y-116228761D01*
X135889000Y-116181142D01*
X135841380Y-116085904D01*
X135841380Y-115800190D01*
X135889000Y-115704952D01*
X135936619Y-115657333D01*
X136031857Y-115609714D01*
X136174714Y-115609714D01*
X136269952Y-115657333D01*
X136317571Y-115704952D01*
X136365190Y-115800190D01*
X136365190Y-116085904D01*
X136317571Y-116181142D01*
X136269952Y-116228761D01*
X136174714Y-116276380D01*
X136031857Y-116276380D01*
X137222333Y-116276380D02*
X137222333Y-115752571D01*
X137174714Y-115657333D01*
X137079476Y-115609714D01*
X136888999Y-115609714D01*
X136793761Y-115657333D01*
X137222333Y-116228761D02*
X137127095Y-116276380D01*
X136888999Y-116276380D01*
X136793761Y-116228761D01*
X136746142Y-116133523D01*
X136746142Y-116038285D01*
X136793761Y-115943047D01*
X136888999Y-115895428D01*
X137127095Y-115895428D01*
X137222333Y-115847809D01*
X137698523Y-116276380D02*
X137698523Y-115609714D01*
X137698523Y-115800190D02*
X137746142Y-115704952D01*
X137793761Y-115657333D01*
X137888999Y-115609714D01*
X137984238Y-115609714D01*
X138746142Y-116276380D02*
X138746142Y-115276380D01*
X138746142Y-116228761D02*
X138650904Y-116276380D01*
X138460428Y-116276380D01*
X138365190Y-116228761D01*
X138317571Y-116181142D01*
X138269952Y-116085904D01*
X138269952Y-115800190D01*
X138317571Y-115704952D01*
X138365190Y-115657333D01*
X138460428Y-115609714D01*
X138650904Y-115609714D01*
X138746142Y-115657333D01*
D12*
X85633714Y-115169142D02*
X86776571Y-115169142D01*
X86205142Y-115740571D02*
X86205142Y-114597714D01*
X88205142Y-114240571D02*
X87490857Y-114240571D01*
X87419428Y-114954857D01*
X87490857Y-114883428D01*
X87633714Y-114812000D01*
X87990857Y-114812000D01*
X88133714Y-114883428D01*
X88205142Y-114954857D01*
X88276571Y-115097714D01*
X88276571Y-115454857D01*
X88205142Y-115597714D01*
X88133714Y-115669142D01*
X87990857Y-115740571D01*
X87633714Y-115740571D01*
X87490857Y-115669142D01*
X87419428Y-115597714D01*
X88705142Y-114240571D02*
X89205142Y-115740571D01*
X89705142Y-114240571D01*
D11*
X165006976Y-112037761D02*
X165149833Y-112085380D01*
X165387928Y-112085380D01*
X165483166Y-112037761D01*
X165530785Y-111990142D01*
X165578404Y-111894904D01*
X165578404Y-111799666D01*
X165530785Y-111704428D01*
X165483166Y-111656809D01*
X165387928Y-111609190D01*
X165197452Y-111561571D01*
X165102214Y-111513952D01*
X165054595Y-111466333D01*
X165006976Y-111371095D01*
X165006976Y-111275857D01*
X165054595Y-111180619D01*
X165102214Y-111133000D01*
X165197452Y-111085380D01*
X165435547Y-111085380D01*
X165578404Y-111133000D01*
X165911738Y-111085380D02*
X166149833Y-112085380D01*
X166340309Y-111371095D01*
X166530785Y-112085380D01*
X166768880Y-111085380D01*
X167054595Y-111085380D02*
X167673642Y-111085380D01*
X167340309Y-111466333D01*
X167483166Y-111466333D01*
X167578404Y-111513952D01*
X167626023Y-111561571D01*
X167673642Y-111656809D01*
X167673642Y-111894904D01*
X167626023Y-111990142D01*
X167578404Y-112037761D01*
X167483166Y-112085380D01*
X167197452Y-112085380D01*
X167102214Y-112037761D01*
X167054595Y-111990142D01*
X165578404Y-99068000D02*
X165483166Y-99020380D01*
X165340309Y-99020380D01*
X165197452Y-99068000D01*
X165102214Y-99163238D01*
X165054595Y-99258476D01*
X165006976Y-99448952D01*
X165006976Y-99591809D01*
X165054595Y-99782285D01*
X165102214Y-99877523D01*
X165197452Y-99972761D01*
X165340309Y-100020380D01*
X165435547Y-100020380D01*
X165578404Y-99972761D01*
X165626023Y-99925142D01*
X165626023Y-99591809D01*
X165435547Y-99591809D01*
X166054595Y-100020380D02*
X166054595Y-99020380D01*
X166626023Y-100020380D01*
X166626023Y-99020380D01*
X167102214Y-100020380D02*
X167102214Y-99020380D01*
X167340309Y-99020380D01*
X167483166Y-99068000D01*
X167578404Y-99163238D01*
X167626023Y-99258476D01*
X167673642Y-99448952D01*
X167673642Y-99591809D01*
X167626023Y-99782285D01*
X167578404Y-99877523D01*
X167483166Y-99972761D01*
X167340309Y-100020380D01*
X167102214Y-100020380D01*
D10*
X84216761Y-117268047D02*
X82216761Y-117268047D01*
X82216761Y-116506142D01*
X82312000Y-116315666D01*
X82407238Y-116220428D01*
X82597714Y-116125190D01*
X82883428Y-116125190D01*
X83073904Y-116220428D01*
X83169142Y-116315666D01*
X83264380Y-116506142D01*
X83264380Y-117268047D01*
X82216761Y-114887095D02*
X82216761Y-114506142D01*
X82312000Y-114315666D01*
X82502476Y-114125190D01*
X82883428Y-114029952D01*
X83550095Y-114029952D01*
X83931047Y-114125190D01*
X84121523Y-114315666D01*
X84216761Y-114506142D01*
X84216761Y-114887095D01*
X84121523Y-115077571D01*
X83931047Y-115268047D01*
X83550095Y-115363285D01*
X82883428Y-115363285D01*
X82502476Y-115268047D01*
X82312000Y-115077571D01*
X82216761Y-114887095D01*
X82216761Y-113363285D02*
X84216761Y-112887095D01*
X82788190Y-112506142D01*
X84216761Y-112125190D01*
X82216761Y-111649000D01*
X83169142Y-110887095D02*
X83169142Y-110220428D01*
X84216761Y-109934714D02*
X84216761Y-110887095D01*
X82216761Y-110887095D01*
X82216761Y-109934714D01*
X84216761Y-107934714D02*
X83264380Y-108601380D01*
X84216761Y-109077571D02*
X82216761Y-109077571D01*
X82216761Y-108315666D01*
X82312000Y-108125190D01*
X82407238Y-108029952D01*
X82597714Y-107934714D01*
X82883428Y-107934714D01*
X83073904Y-108029952D01*
X83169142Y-108125190D01*
X83264380Y-108315666D01*
X83264380Y-109077571D01*
D11*
X165054595Y-104576571D02*
X165387928Y-104576571D01*
X165530785Y-105100380D02*
X165054595Y-105100380D01*
X165054595Y-104100380D01*
X165530785Y-104100380D01*
X165721261Y-105195619D02*
X166483166Y-105195619D01*
X167292690Y-105100380D02*
X166959357Y-104624190D01*
X166721261Y-105100380D02*
X166721261Y-104100380D01*
X167102214Y-104100380D01*
X167197452Y-104148000D01*
X167245071Y-104195619D01*
X167292690Y-104290857D01*
X167292690Y-104433714D01*
X167245071Y-104528952D01*
X167197452Y-104576571D01*
X167102214Y-104624190D01*
X166721261Y-104624190D01*
X167626023Y-104100380D02*
X168292690Y-105100380D01*
X168292690Y-104100380D02*
X167626023Y-105100380D01*
X168673642Y-105100380D02*
X168673642Y-104100380D01*
X168911738Y-104100380D01*
X169054595Y-104148000D01*
X169149833Y-104243238D01*
X169197452Y-104338476D01*
X169245071Y-104528952D01*
X169245071Y-104671809D01*
X169197452Y-104862285D01*
X169149833Y-104957523D01*
X169054595Y-105052761D01*
X168911738Y-105100380D01*
X168673642Y-105100380D01*
X93615952Y-88574619D02*
X93663571Y-88527000D01*
X93758809Y-88479380D01*
X93996904Y-88479380D01*
X94092142Y-88527000D01*
X94139761Y-88574619D01*
X94187380Y-88669857D01*
X94187380Y-88765095D01*
X94139761Y-88907952D01*
X93568333Y-89479380D01*
X94187380Y-89479380D01*
X94806428Y-88479380D02*
X94901666Y-88479380D01*
X94996904Y-88527000D01*
X95044523Y-88574619D01*
X95092142Y-88669857D01*
X95139761Y-88860333D01*
X95139761Y-89098428D01*
X95092142Y-89288904D01*
X95044523Y-89384142D01*
X94996904Y-89431761D01*
X94901666Y-89479380D01*
X94806428Y-89479380D01*
X94711190Y-89431761D01*
X94663571Y-89384142D01*
X94615952Y-89288904D01*
X94568333Y-89098428D01*
X94568333Y-88860333D01*
X94615952Y-88669857D01*
X94663571Y-88574619D01*
X94711190Y-88527000D01*
X94806428Y-88479380D01*
X95520714Y-88574619D02*
X95568333Y-88527000D01*
X95663571Y-88479380D01*
X95901666Y-88479380D01*
X95996904Y-88527000D01*
X96044523Y-88574619D01*
X96092142Y-88669857D01*
X96092142Y-88765095D01*
X96044523Y-88907952D01*
X95473095Y-89479380D01*
X96092142Y-89479380D01*
X96473095Y-88574619D02*
X96520714Y-88527000D01*
X96615952Y-88479380D01*
X96854047Y-88479380D01*
X96949285Y-88527000D01*
X96996904Y-88574619D01*
X97044523Y-88669857D01*
X97044523Y-88765095D01*
X96996904Y-88907952D01*
X96425476Y-89479380D01*
X97044523Y-89479380D01*
X98235000Y-89479380D02*
X98235000Y-88479380D01*
X98473095Y-88479380D01*
X98615952Y-88527000D01*
X98711190Y-88622238D01*
X98758809Y-88717476D01*
X98806428Y-88907952D01*
X98806428Y-89050809D01*
X98758809Y-89241285D01*
X98711190Y-89336523D01*
X98615952Y-89431761D01*
X98473095Y-89479380D01*
X98235000Y-89479380D01*
X99235000Y-89479380D02*
X99235000Y-88812714D01*
X99235000Y-88479380D02*
X99187380Y-88527000D01*
X99235000Y-88574619D01*
X99282619Y-88527000D01*
X99235000Y-88479380D01*
X99235000Y-88574619D01*
X99711190Y-89479380D02*
X99711190Y-88812714D01*
X99711190Y-89003190D02*
X99758809Y-88907952D01*
X99806428Y-88860333D01*
X99901666Y-88812714D01*
X99996904Y-88812714D01*
X100330238Y-89479380D02*
X100330238Y-88479380D01*
X100425476Y-89098428D02*
X100711190Y-89479380D01*
X100711190Y-88812714D02*
X100330238Y-89193666D01*
X102473095Y-89479380D02*
X102139761Y-89003190D01*
X101901666Y-89479380D02*
X101901666Y-88479380D01*
X102282619Y-88479380D01*
X102377857Y-88527000D01*
X102425476Y-88574619D01*
X102473095Y-88669857D01*
X102473095Y-88812714D01*
X102425476Y-88907952D01*
X102377857Y-88955571D01*
X102282619Y-89003190D01*
X101901666Y-89003190D01*
X102901666Y-89479380D02*
X102901666Y-88812714D01*
X102901666Y-88479380D02*
X102854047Y-88527000D01*
X102901666Y-88574619D01*
X102949285Y-88527000D01*
X102901666Y-88479380D01*
X102901666Y-88574619D01*
X103758809Y-89431761D02*
X103663571Y-89479380D01*
X103473095Y-89479380D01*
X103377857Y-89431761D01*
X103330238Y-89336523D01*
X103330238Y-88955571D01*
X103377857Y-88860333D01*
X103473095Y-88812714D01*
X103663571Y-88812714D01*
X103758809Y-88860333D01*
X103806428Y-88955571D01*
X103806428Y-89050809D01*
X103330238Y-89146047D01*
X104235000Y-89479380D02*
X104235000Y-88812714D01*
X104235000Y-88907952D02*
X104282619Y-88860333D01*
X104377857Y-88812714D01*
X104520714Y-88812714D01*
X104615952Y-88860333D01*
X104663571Y-88955571D01*
X104663571Y-89479380D01*
X104663571Y-88955571D02*
X104711190Y-88860333D01*
X104806428Y-88812714D01*
X104949285Y-88812714D01*
X105044523Y-88860333D01*
X105092142Y-88955571D01*
X105092142Y-89479380D01*
X105949285Y-89431761D02*
X105854047Y-89479380D01*
X105663571Y-89479380D01*
X105568333Y-89431761D01*
X105520714Y-89336523D01*
X105520714Y-88955571D01*
X105568333Y-88860333D01*
X105663571Y-88812714D01*
X105854047Y-88812714D01*
X105949285Y-88860333D01*
X105996904Y-88955571D01*
X105996904Y-89050809D01*
X105520714Y-89146047D01*
X106425476Y-89479380D02*
X106425476Y-88479380D01*
X106520714Y-89098428D02*
X106806428Y-89479380D01*
X106806428Y-88812714D02*
X106425476Y-89193666D01*
X107663571Y-89479380D02*
X107663571Y-88955571D01*
X107615952Y-88860333D01*
X107520714Y-88812714D01*
X107330238Y-88812714D01*
X107235000Y-88860333D01*
X107663571Y-89431761D02*
X107568333Y-89479380D01*
X107330238Y-89479380D01*
X107235000Y-89431761D01*
X107187380Y-89336523D01*
X107187380Y-89241285D01*
X107235000Y-89146047D01*
X107330238Y-89098428D01*
X107568333Y-89098428D01*
X107663571Y-89050809D01*
X108092142Y-89431761D02*
X108187380Y-89479380D01*
X108377857Y-89479380D01*
X108473095Y-89431761D01*
X108520714Y-89336523D01*
X108520714Y-89288904D01*
X108473095Y-89193666D01*
X108377857Y-89146047D01*
X108235000Y-89146047D01*
X108139761Y-89098428D01*
X108092142Y-89003190D01*
X108092142Y-88955571D01*
X108139761Y-88860333D01*
X108235000Y-88812714D01*
X108377857Y-88812714D01*
X108473095Y-88860333D01*
X108806428Y-88812714D02*
X109187380Y-88812714D01*
X108949285Y-88479380D02*
X108949285Y-89336523D01*
X108996904Y-89431761D01*
X109092142Y-89479380D01*
X109187380Y-89479380D01*
X109901666Y-89431761D02*
X109806428Y-89479380D01*
X109615952Y-89479380D01*
X109520714Y-89431761D01*
X109473095Y-89336523D01*
X109473095Y-88955571D01*
X109520714Y-88860333D01*
X109615952Y-88812714D01*
X109806428Y-88812714D01*
X109901666Y-88860333D01*
X109949285Y-88955571D01*
X109949285Y-89050809D01*
X109473095Y-89146047D01*
X110377857Y-88812714D02*
X110377857Y-89479380D01*
X110377857Y-88907952D02*
X110425476Y-88860333D01*
X110520714Y-88812714D01*
X110663571Y-88812714D01*
X110758809Y-88860333D01*
X110806428Y-88955571D01*
X110806428Y-89479380D01*
D12*
X85633714Y-105263142D02*
X86776571Y-105263142D01*
X86205142Y-105834571D02*
X86205142Y-104691714D01*
X88205142Y-104334571D02*
X87490857Y-104334571D01*
X87419428Y-105048857D01*
X87490857Y-104977428D01*
X87633714Y-104906000D01*
X87990857Y-104906000D01*
X88133714Y-104977428D01*
X88205142Y-105048857D01*
X88276571Y-105191714D01*
X88276571Y-105548857D01*
X88205142Y-105691714D01*
X88133714Y-105763142D01*
X87990857Y-105834571D01*
X87633714Y-105834571D01*
X87490857Y-105763142D01*
X87419428Y-105691714D01*
X88705142Y-104334571D02*
X89205142Y-105834571D01*
X89705142Y-104334571D01*
D11*
X165054595Y-102036571D02*
X165387928Y-102036571D01*
X165530785Y-102560380D02*
X165054595Y-102560380D01*
X165054595Y-101560380D01*
X165530785Y-101560380D01*
X165721261Y-102655619D02*
X166483166Y-102655619D01*
X166578404Y-101560380D02*
X167149833Y-101560380D01*
X166864119Y-102560380D02*
X166864119Y-101560380D01*
X167387928Y-101560380D02*
X168054595Y-102560380D01*
X168054595Y-101560380D02*
X167387928Y-102560380D01*
X168435547Y-102560380D02*
X168435547Y-101560380D01*
X168673642Y-101560380D01*
X168816500Y-101608000D01*
X168911738Y-101703238D01*
X168959357Y-101798476D01*
X169006976Y-101988952D01*
X169006976Y-102131809D01*
X168959357Y-102322285D01*
X168911738Y-102417523D01*
X168816500Y-102512761D01*
X168673642Y-102560380D01*
X168435547Y-102560380D01*
D12*
X86419428Y-95135000D02*
X86276571Y-95063571D01*
X86062285Y-95063571D01*
X85848000Y-95135000D01*
X85705142Y-95277857D01*
X85633714Y-95420714D01*
X85562285Y-95706428D01*
X85562285Y-95920714D01*
X85633714Y-96206428D01*
X85705142Y-96349285D01*
X85848000Y-96492142D01*
X86062285Y-96563571D01*
X86205142Y-96563571D01*
X86419428Y-96492142D01*
X86490857Y-96420714D01*
X86490857Y-95920714D01*
X86205142Y-95920714D01*
X87133714Y-96563571D02*
X87133714Y-95063571D01*
X87990857Y-96563571D01*
X87990857Y-95063571D01*
X88705142Y-96563571D02*
X88705142Y-95063571D01*
X89062285Y-95063571D01*
X89276571Y-95135000D01*
X89419428Y-95277857D01*
X89490857Y-95420714D01*
X89562285Y-95706428D01*
X89562285Y-95920714D01*
X89490857Y-96206428D01*
X89419428Y-96349285D01*
X89276571Y-96492142D01*
X89062285Y-96563571D01*
X88705142Y-96563571D01*
D11*
X85488095Y-88152380D02*
X85488095Y-87152380D01*
X85488095Y-87628571D02*
X86059523Y-87628571D01*
X86059523Y-88152380D02*
X86059523Y-87152380D01*
X86964285Y-87485714D02*
X86964285Y-88152380D01*
X86726190Y-87104761D02*
X86488095Y-87819047D01*
X87107142Y-87819047D01*
X166988095Y-88152380D02*
X166988095Y-87152380D01*
X166988095Y-87628571D02*
X167559523Y-87628571D01*
X167559523Y-88152380D02*
X167559523Y-87152380D01*
X167940476Y-87152380D02*
X168559523Y-87152380D01*
X168226190Y-87533333D01*
X168369047Y-87533333D01*
X168464285Y-87580952D01*
X168511904Y-87628571D01*
X168559523Y-87723809D01*
X168559523Y-87961904D01*
X168511904Y-88057142D01*
X168464285Y-88104761D01*
X168369047Y-88152380D01*
X168083333Y-88152380D01*
X167988095Y-88104761D01*
X167940476Y-88057142D01*
X166988095Y-122652380D02*
X166988095Y-121652380D01*
X166988095Y-122128571D02*
X167559523Y-122128571D01*
X167559523Y-122652380D02*
X167559523Y-121652380D01*
X167988095Y-121747619D02*
X168035714Y-121700000D01*
X168130952Y-121652380D01*
X168369047Y-121652380D01*
X168464285Y-121700000D01*
X168511904Y-121747619D01*
X168559523Y-121842857D01*
X168559523Y-121938095D01*
X168511904Y-122080952D01*
X167940476Y-122652380D01*
X168559523Y-122652380D01*
X85488095Y-122652380D02*
X85488095Y-121652380D01*
X85488095Y-122128571D02*
X86059523Y-122128571D01*
X86059523Y-122652380D02*
X86059523Y-121652380D01*
X87059523Y-122652380D02*
X86488095Y-122652380D01*
X86773809Y-122652380D02*
X86773809Y-121652380D01*
X86678571Y-121795238D01*
X86583333Y-121890476D01*
X86488095Y-121938095D01*
X90866666Y-90652380D02*
X90866666Y-91366666D01*
X90819047Y-91509523D01*
X90723809Y-91604761D01*
X90580952Y-91652380D01*
X90485714Y-91652380D01*
X91295238Y-90747619D02*
X91342857Y-90700000D01*
X91438095Y-90652380D01*
X91676190Y-90652380D01*
X91771428Y-90700000D01*
X91819047Y-90747619D01*
X91866666Y-90842857D01*
X91866666Y-90938095D01*
X91819047Y-91080952D01*
X91247619Y-91652380D01*
X91866666Y-91652380D01*
X158833423Y-120543580D02*
X158500090Y-120067390D01*
X158261995Y-120543580D02*
X158261995Y-119543580D01*
X158642947Y-119543580D01*
X158738185Y-119591200D01*
X158785804Y-119638819D01*
X158833423Y-119734057D01*
X158833423Y-119876914D01*
X158785804Y-119972152D01*
X158738185Y-120019771D01*
X158642947Y-120067390D01*
X158261995Y-120067390D01*
X159785804Y-120543580D02*
X159214376Y-120543580D01*
X159500090Y-120543580D02*
X159500090Y-119543580D01*
X159404852Y-119686438D01*
X159309614Y-119781676D01*
X159214376Y-119829295D01*
X160119138Y-119543580D02*
X160738185Y-119543580D01*
X160404852Y-119924533D01*
X160547709Y-119924533D01*
X160642947Y-119972152D01*
X160690566Y-120019771D01*
X160738185Y-120115009D01*
X160738185Y-120353104D01*
X160690566Y-120448342D01*
X160642947Y-120495961D01*
X160547709Y-120543580D01*
X160261995Y-120543580D01*
X160166757Y-120495961D01*
X160119138Y-120448342D01*
X135850333Y-96115142D02*
X135802714Y-96162761D01*
X135659857Y-96210380D01*
X135564619Y-96210380D01*
X135421761Y-96162761D01*
X135326523Y-96067523D01*
X135278904Y-95972285D01*
X135231285Y-95781809D01*
X135231285Y-95638952D01*
X135278904Y-95448476D01*
X135326523Y-95353238D01*
X135421761Y-95258000D01*
X135564619Y-95210380D01*
X135659857Y-95210380D01*
X135802714Y-95258000D01*
X135850333Y-95305619D01*
X136183666Y-95210380D02*
X136802714Y-95210380D01*
X136469380Y-95591333D01*
X136612238Y-95591333D01*
X136707476Y-95638952D01*
X136755095Y-95686571D01*
X136802714Y-95781809D01*
X136802714Y-96019904D01*
X136755095Y-96115142D01*
X136707476Y-96162761D01*
X136612238Y-96210380D01*
X136326523Y-96210380D01*
X136231285Y-96162761D01*
X136183666Y-96115142D01*
X143897261Y-120539880D02*
X143563928Y-120063690D01*
X143325833Y-120539880D02*
X143325833Y-119539880D01*
X143706785Y-119539880D01*
X143802023Y-119587500D01*
X143849642Y-119635119D01*
X143897261Y-119730357D01*
X143897261Y-119873214D01*
X143849642Y-119968452D01*
X143802023Y-120016071D01*
X143706785Y-120063690D01*
X143325833Y-120063690D01*
X144849642Y-120539880D02*
X144278214Y-120539880D01*
X144563928Y-120539880D02*
X144563928Y-119539880D01*
X144468690Y-119682738D01*
X144373452Y-119777976D01*
X144278214Y-119825595D01*
X145230595Y-119635119D02*
X145278214Y-119587500D01*
X145373452Y-119539880D01*
X145611547Y-119539880D01*
X145706785Y-119587500D01*
X145754404Y-119635119D01*
X145802023Y-119730357D01*
X145802023Y-119825595D01*
X145754404Y-119968452D01*
X145182976Y-120539880D01*
X145802023Y-120539880D01*
X128643142Y-109418380D02*
X128309809Y-108942190D01*
X128071714Y-109418380D02*
X128071714Y-108418380D01*
X128452666Y-108418380D01*
X128547904Y-108466000D01*
X128595523Y-108513619D01*
X128643142Y-108608857D01*
X128643142Y-108751714D01*
X128595523Y-108846952D01*
X128547904Y-108894571D01*
X128452666Y-108942190D01*
X128071714Y-108942190D01*
X129595523Y-109418380D02*
X129024095Y-109418380D01*
X129309809Y-109418380D02*
X129309809Y-108418380D01*
X129214571Y-108561238D01*
X129119333Y-108656476D01*
X129024095Y-108704095D01*
X130452666Y-108751714D02*
X130452666Y-109418380D01*
X130214571Y-108370761D02*
X129976476Y-109085047D01*
X130595523Y-109085047D01*
X118324333Y-105513142D02*
X118276714Y-105560761D01*
X118133857Y-105608380D01*
X118038619Y-105608380D01*
X117895761Y-105560761D01*
X117800523Y-105465523D01*
X117752904Y-105370285D01*
X117705285Y-105179809D01*
X117705285Y-105036952D01*
X117752904Y-104846476D01*
X117800523Y-104751238D01*
X117895761Y-104656000D01*
X118038619Y-104608380D01*
X118133857Y-104608380D01*
X118276714Y-104656000D01*
X118324333Y-104703619D01*
X119276714Y-105608380D02*
X118705285Y-105608380D01*
X118991000Y-105608380D02*
X118991000Y-104608380D01*
X118895761Y-104751238D01*
X118800523Y-104846476D01*
X118705285Y-104894095D01*
X149566333Y-113482380D02*
X149233000Y-113006190D01*
X148994904Y-113482380D02*
X148994904Y-112482380D01*
X149375857Y-112482380D01*
X149471095Y-112530000D01*
X149518714Y-112577619D01*
X149566333Y-112672857D01*
X149566333Y-112815714D01*
X149518714Y-112910952D01*
X149471095Y-112958571D01*
X149375857Y-113006190D01*
X148994904Y-113006190D01*
X149899666Y-112482380D02*
X150566333Y-112482380D01*
X150137761Y-113482380D01*
X135826666Y-105052761D02*
X135969523Y-105100380D01*
X136207619Y-105100380D01*
X136302857Y-105052761D01*
X136350476Y-105005142D01*
X136398095Y-104909904D01*
X136398095Y-104814666D01*
X136350476Y-104719428D01*
X136302857Y-104671809D01*
X136207619Y-104624190D01*
X136017142Y-104576571D01*
X135921904Y-104528952D01*
X135874285Y-104481333D01*
X135826666Y-104386095D01*
X135826666Y-104290857D01*
X135874285Y-104195619D01*
X135921904Y-104148000D01*
X136017142Y-104100380D01*
X136255238Y-104100380D01*
X136398095Y-104148000D01*
X136731428Y-104100380D02*
X136969523Y-105100380D01*
X137160000Y-104386095D01*
X137350476Y-105100380D01*
X137588571Y-104100380D01*
X138493333Y-105100380D02*
X137921904Y-105100380D01*
X138207619Y-105100380D02*
X138207619Y-104100380D01*
X138112380Y-104243238D01*
X138017142Y-104338476D01*
X137921904Y-104386095D01*
X115710723Y-100292564D02*
X115663104Y-100340183D01*
X115520247Y-100387802D01*
X115425009Y-100387802D01*
X115282152Y-100340183D01*
X115186914Y-100244945D01*
X115139295Y-100149707D01*
X115091676Y-99959231D01*
X115091676Y-99816374D01*
X115139295Y-99625898D01*
X115186914Y-99530660D01*
X115282152Y-99435422D01*
X115425009Y-99387802D01*
X115520247Y-99387802D01*
X115663104Y-99435422D01*
X115710723Y-99483041D01*
X116663104Y-100387802D02*
X116091676Y-100387802D01*
X116377390Y-100387802D02*
X116377390Y-99387802D01*
X116282152Y-99530660D01*
X116186914Y-99625898D01*
X116091676Y-99673517D01*
X117044057Y-99483041D02*
X117091676Y-99435422D01*
X117186914Y-99387802D01*
X117425009Y-99387802D01*
X117520247Y-99435422D01*
X117567866Y-99483041D01*
X117615485Y-99578279D01*
X117615485Y-99673517D01*
X117567866Y-99816374D01*
X116996438Y-100387802D01*
X117615485Y-100387802D01*
X108846223Y-120547280D02*
X108512890Y-120071090D01*
X108274795Y-120547280D02*
X108274795Y-119547280D01*
X108655747Y-119547280D01*
X108750985Y-119594900D01*
X108798604Y-119642519D01*
X108846223Y-119737757D01*
X108846223Y-119880614D01*
X108798604Y-119975852D01*
X108750985Y-120023471D01*
X108655747Y-120071090D01*
X108274795Y-120071090D01*
X109322414Y-120547280D02*
X109512890Y-120547280D01*
X109608128Y-120499661D01*
X109655747Y-120452042D01*
X109750985Y-120309185D01*
X109798604Y-120118709D01*
X109798604Y-119737757D01*
X109750985Y-119642519D01*
X109703366Y-119594900D01*
X109608128Y-119547280D01*
X109417652Y-119547280D01*
X109322414Y-119594900D01*
X109274795Y-119642519D01*
X109227176Y-119737757D01*
X109227176Y-119975852D01*
X109274795Y-120071090D01*
X109322414Y-120118709D01*
X109417652Y-120166328D01*
X109608128Y-120166328D01*
X109703366Y-120118709D01*
X109750985Y-120071090D01*
X109798604Y-119975852D01*
X151463761Y-121610380D02*
X151130428Y-121134190D01*
X150892333Y-121610380D02*
X150892333Y-120610380D01*
X151273285Y-120610380D01*
X151368523Y-120658000D01*
X151416142Y-120705619D01*
X151463761Y-120800857D01*
X151463761Y-120943714D01*
X151416142Y-121038952D01*
X151368523Y-121086571D01*
X151273285Y-121134190D01*
X150892333Y-121134190D01*
X151749476Y-120610380D02*
X152082809Y-121610380D01*
X152416142Y-120610380D01*
X152654238Y-120610380D02*
X153273285Y-120610380D01*
X152939952Y-120991333D01*
X153082809Y-120991333D01*
X153178047Y-121038952D01*
X153225666Y-121086571D01*
X153273285Y-121181809D01*
X153273285Y-121419904D01*
X153225666Y-121515142D01*
X153178047Y-121562761D01*
X153082809Y-121610380D01*
X152797095Y-121610380D01*
X152701857Y-121562761D01*
X152654238Y-121515142D01*
X129532623Y-99867980D02*
X129199290Y-99391790D01*
X128961195Y-99867980D02*
X128961195Y-98867980D01*
X129342147Y-98867980D01*
X129437385Y-98915600D01*
X129485004Y-98963219D01*
X129532623Y-99058457D01*
X129532623Y-99201314D01*
X129485004Y-99296552D01*
X129437385Y-99344171D01*
X129342147Y-99391790D01*
X128961195Y-99391790D01*
X130389766Y-98867980D02*
X130199290Y-98867980D01*
X130104052Y-98915600D01*
X130056433Y-98963219D01*
X129961195Y-99106076D01*
X129913576Y-99296552D01*
X129913576Y-99677504D01*
X129961195Y-99772742D01*
X130008814Y-99820361D01*
X130104052Y-99867980D01*
X130294528Y-99867980D01*
X130389766Y-99820361D01*
X130437385Y-99772742D01*
X130485004Y-99677504D01*
X130485004Y-99439409D01*
X130437385Y-99344171D01*
X130389766Y-99296552D01*
X130294528Y-99248933D01*
X130104052Y-99248933D01*
X130008814Y-99296552D01*
X129961195Y-99344171D01*
X129913576Y-99439409D01*
X148018666Y-111402761D02*
X148161523Y-111450380D01*
X148399619Y-111450380D01*
X148494857Y-111402761D01*
X148542476Y-111355142D01*
X148590095Y-111259904D01*
X148590095Y-111164666D01*
X148542476Y-111069428D01*
X148494857Y-111021809D01*
X148399619Y-110974190D01*
X148209142Y-110926571D01*
X148113904Y-110878952D01*
X148066285Y-110831333D01*
X148018666Y-110736095D01*
X148018666Y-110640857D01*
X148066285Y-110545619D01*
X148113904Y-110498000D01*
X148209142Y-110450380D01*
X148447238Y-110450380D01*
X148590095Y-110498000D01*
X148923428Y-110450380D02*
X149161523Y-111450380D01*
X149352000Y-110736095D01*
X149542476Y-111450380D01*
X149780571Y-110450380D01*
X150113904Y-110545619D02*
X150161523Y-110498000D01*
X150256761Y-110450380D01*
X150494857Y-110450380D01*
X150590095Y-110498000D01*
X150637714Y-110545619D01*
X150685333Y-110640857D01*
X150685333Y-110736095D01*
X150637714Y-110878952D01*
X150066285Y-111450380D01*
X150685333Y-111450380D01*
X119615914Y-100292564D02*
X119568295Y-100340183D01*
X119425438Y-100387802D01*
X119330200Y-100387802D01*
X119187342Y-100340183D01*
X119092104Y-100244945D01*
X119044485Y-100149707D01*
X118996866Y-99959231D01*
X118996866Y-99816374D01*
X119044485Y-99625898D01*
X119092104Y-99530660D01*
X119187342Y-99435422D01*
X119330200Y-99387802D01*
X119425438Y-99387802D01*
X119568295Y-99435422D01*
X119615914Y-99483041D01*
X119996866Y-99483041D02*
X120044485Y-99435422D01*
X120139723Y-99387802D01*
X120377819Y-99387802D01*
X120473057Y-99435422D01*
X120520676Y-99483041D01*
X120568295Y-99578279D01*
X120568295Y-99673517D01*
X120520676Y-99816374D01*
X119949247Y-100387802D01*
X120568295Y-100387802D01*
X128821423Y-94889580D02*
X128488090Y-94413390D01*
X128249995Y-94889580D02*
X128249995Y-93889580D01*
X128630947Y-93889580D01*
X128726185Y-93937200D01*
X128773804Y-93984819D01*
X128821423Y-94080057D01*
X128821423Y-94222914D01*
X128773804Y-94318152D01*
X128726185Y-94365771D01*
X128630947Y-94413390D01*
X128249995Y-94413390D01*
X129202376Y-93984819D02*
X129249995Y-93937200D01*
X129345233Y-93889580D01*
X129583328Y-93889580D01*
X129678566Y-93937200D01*
X129726185Y-93984819D01*
X129773804Y-94080057D01*
X129773804Y-94175295D01*
X129726185Y-94318152D01*
X129154757Y-94889580D01*
X129773804Y-94889580D01*
X126444761Y-121610380D02*
X126111428Y-121134190D01*
X125873333Y-121610380D02*
X125873333Y-120610380D01*
X126254285Y-120610380D01*
X126349523Y-120658000D01*
X126397142Y-120705619D01*
X126444761Y-120800857D01*
X126444761Y-120943714D01*
X126397142Y-121038952D01*
X126349523Y-121086571D01*
X126254285Y-121134190D01*
X125873333Y-121134190D01*
X126730476Y-120610380D02*
X127063809Y-121610380D01*
X127397142Y-120610380D01*
X127682857Y-120705619D02*
X127730476Y-120658000D01*
X127825714Y-120610380D01*
X128063809Y-120610380D01*
X128159047Y-120658000D01*
X128206666Y-120705619D01*
X128254285Y-120800857D01*
X128254285Y-120896095D01*
X128206666Y-121038952D01*
X127635238Y-121610380D01*
X128254285Y-121610380D01*
X149693333Y-95607142D02*
X149645714Y-95654761D01*
X149502857Y-95702380D01*
X149407619Y-95702380D01*
X149264761Y-95654761D01*
X149169523Y-95559523D01*
X149121904Y-95464285D01*
X149074285Y-95273809D01*
X149074285Y-95130952D01*
X149121904Y-94940476D01*
X149169523Y-94845238D01*
X149264761Y-94750000D01*
X149407619Y-94702380D01*
X149502857Y-94702380D01*
X149645714Y-94750000D01*
X149693333Y-94797619D01*
X150598095Y-94702380D02*
X150121904Y-94702380D01*
X150074285Y-95178571D01*
X150121904Y-95130952D01*
X150217142Y-95083333D01*
X150455238Y-95083333D01*
X150550476Y-95130952D01*
X150598095Y-95178571D01*
X150645714Y-95273809D01*
X150645714Y-95511904D01*
X150598095Y-95607142D01*
X150550476Y-95654761D01*
X150455238Y-95702380D01*
X150217142Y-95702380D01*
X150121904Y-95654761D01*
X150074285Y-95607142D01*
X154773333Y-106148142D02*
X154725714Y-106195761D01*
X154582857Y-106243380D01*
X154487619Y-106243380D01*
X154344761Y-106195761D01*
X154249523Y-106100523D01*
X154201904Y-106005285D01*
X154154285Y-105814809D01*
X154154285Y-105671952D01*
X154201904Y-105481476D01*
X154249523Y-105386238D01*
X154344761Y-105291000D01*
X154487619Y-105243380D01*
X154582857Y-105243380D01*
X154725714Y-105291000D01*
X154773333Y-105338619D01*
X155106666Y-105243380D02*
X155773333Y-105243380D01*
X155344761Y-106243380D01*
X101425761Y-121610380D02*
X101092428Y-121134190D01*
X100854333Y-121610380D02*
X100854333Y-120610380D01*
X101235285Y-120610380D01*
X101330523Y-120658000D01*
X101378142Y-120705619D01*
X101425761Y-120800857D01*
X101425761Y-120943714D01*
X101378142Y-121038952D01*
X101330523Y-121086571D01*
X101235285Y-121134190D01*
X100854333Y-121134190D01*
X101711476Y-120610380D02*
X102044809Y-121610380D01*
X102378142Y-120610380D01*
X103235285Y-121610380D02*
X102663857Y-121610380D01*
X102949571Y-121610380D02*
X102949571Y-120610380D01*
X102854333Y-120753238D01*
X102759095Y-120848476D01*
X102663857Y-120896095D01*
X162266380Y-97183533D02*
X162980666Y-97183533D01*
X163123523Y-97231152D01*
X163218761Y-97326390D01*
X163266380Y-97469247D01*
X163266380Y-97564485D01*
X163266380Y-96183533D02*
X163266380Y-96754961D01*
X163266380Y-96469247D02*
X162266380Y-96469247D01*
X162409238Y-96564485D01*
X162504476Y-96659723D01*
X162552095Y-96754961D01*
X114419142Y-107164142D02*
X114371523Y-107211761D01*
X114228666Y-107259380D01*
X114133428Y-107259380D01*
X113990571Y-107211761D01*
X113895333Y-107116523D01*
X113847714Y-107021285D01*
X113800095Y-106830809D01*
X113800095Y-106687952D01*
X113847714Y-106497476D01*
X113895333Y-106402238D01*
X113990571Y-106307000D01*
X114133428Y-106259380D01*
X114228666Y-106259380D01*
X114371523Y-106307000D01*
X114419142Y-106354619D01*
X115371523Y-107259380D02*
X114800095Y-107259380D01*
X115085809Y-107259380D02*
X115085809Y-106259380D01*
X114990571Y-106402238D01*
X114895333Y-106497476D01*
X114800095Y-106545095D01*
X115704857Y-106259380D02*
X116323904Y-106259380D01*
X115990571Y-106640333D01*
X116133428Y-106640333D01*
X116228666Y-106687952D01*
X116276285Y-106735571D01*
X116323904Y-106830809D01*
X116323904Y-107068904D01*
X116276285Y-107164142D01*
X116228666Y-107211761D01*
X116133428Y-107259380D01*
X115847714Y-107259380D01*
X115752476Y-107211761D01*
X115704857Y-107164142D01*
X120943123Y-92498576D02*
X120895504Y-92546195D01*
X120752647Y-92593814D01*
X120657409Y-92593814D01*
X120514552Y-92546195D01*
X120419314Y-92450957D01*
X120371695Y-92355719D01*
X120324076Y-92165243D01*
X120324076Y-92022386D01*
X120371695Y-91831910D01*
X120419314Y-91736672D01*
X120514552Y-91641434D01*
X120657409Y-91593814D01*
X120752647Y-91593814D01*
X120895504Y-91641434D01*
X120943123Y-91689053D01*
X121895504Y-92593814D02*
X121324076Y-92593814D01*
X121609790Y-92593814D02*
X121609790Y-91593814D01*
X121514552Y-91736672D01*
X121419314Y-91831910D01*
X121324076Y-91879529D01*
X122514552Y-91593814D02*
X122609790Y-91593814D01*
X122705028Y-91641434D01*
X122752647Y-91689053D01*
X122800266Y-91784291D01*
X122847885Y-91974767D01*
X122847885Y-92212862D01*
X122800266Y-92403338D01*
X122752647Y-92498576D01*
X122705028Y-92546195D01*
X122609790Y-92593814D01*
X122514552Y-92593814D01*
X122419314Y-92546195D01*
X122371695Y-92498576D01*
X122324076Y-92403338D01*
X122276457Y-92212862D01*
X122276457Y-91974767D01*
X122324076Y-91784291D01*
X122371695Y-91689053D01*
X122419314Y-91641434D01*
X122514552Y-91593814D01*
X133839823Y-120543580D02*
X133506490Y-120067390D01*
X133268395Y-120543580D02*
X133268395Y-119543580D01*
X133649347Y-119543580D01*
X133744585Y-119591200D01*
X133792204Y-119638819D01*
X133839823Y-119734057D01*
X133839823Y-119876914D01*
X133792204Y-119972152D01*
X133744585Y-120019771D01*
X133649347Y-120067390D01*
X133268395Y-120067390D01*
X134792204Y-120543580D02*
X134220776Y-120543580D01*
X134506490Y-120543580D02*
X134506490Y-119543580D01*
X134411252Y-119686438D01*
X134316014Y-119781676D01*
X134220776Y-119829295D01*
X135744585Y-120543580D02*
X135173157Y-120543580D01*
X135458871Y-120543580D02*
X135458871Y-119543580D01*
X135363633Y-119686438D01*
X135268395Y-119781676D01*
X135173157Y-119829295D01*
X150598333Y-91098666D02*
X151074523Y-91098666D01*
X150503095Y-91384380D02*
X150836428Y-90384380D01*
X151169761Y-91384380D01*
X151503095Y-90860571D02*
X151836428Y-90860571D01*
X151979285Y-91384380D02*
X151503095Y-91384380D01*
X151503095Y-90384380D01*
X151979285Y-90384380D01*
X152931666Y-91384380D02*
X152360238Y-91384380D01*
X152645952Y-91384380D02*
X152645952Y-90384380D01*
X152550714Y-90527238D01*
X152455476Y-90622476D01*
X152360238Y-90670095D01*
X162480666Y-107305780D02*
X162480666Y-108020066D01*
X162433047Y-108162923D01*
X162337809Y-108258161D01*
X162194952Y-108305780D01*
X162099714Y-108305780D01*
X163433047Y-107305780D02*
X162956857Y-107305780D01*
X162909238Y-107781971D01*
X162956857Y-107734352D01*
X163052095Y-107686733D01*
X163290190Y-107686733D01*
X163385428Y-107734352D01*
X163433047Y-107781971D01*
X163480666Y-107877209D01*
X163480666Y-108115304D01*
X163433047Y-108210542D01*
X163385428Y-108258161D01*
X163290190Y-108305780D01*
X163052095Y-108305780D01*
X162956857Y-108258161D01*
X162909238Y-108210542D01*
X123640404Y-90420795D02*
X123164214Y-90420795D01*
X123164214Y-89420795D01*
X124497547Y-90420795D02*
X123926119Y-90420795D01*
X124211833Y-90420795D02*
X124211833Y-89420795D01*
X124116595Y-89563653D01*
X124021357Y-89658891D01*
X123926119Y-89706510D01*
X142962333Y-108910380D02*
X142629000Y-108434190D01*
X142390904Y-108910380D02*
X142390904Y-107910380D01*
X142771857Y-107910380D01*
X142867095Y-107958000D01*
X142914714Y-108005619D01*
X142962333Y-108100857D01*
X142962333Y-108243714D01*
X142914714Y-108338952D01*
X142867095Y-108386571D01*
X142771857Y-108434190D01*
X142390904Y-108434190D01*
X143295666Y-107910380D02*
X143914714Y-107910380D01*
X143581380Y-108291333D01*
X143724238Y-108291333D01*
X143819476Y-108338952D01*
X143867095Y-108386571D01*
X143914714Y-108481809D01*
X143914714Y-108719904D01*
X143867095Y-108815142D01*
X143819476Y-108862761D01*
X143724238Y-108910380D01*
X143438523Y-108910380D01*
X143343285Y-108862761D01*
X143295666Y-108815142D01*
X144105333Y-93321142D02*
X144057714Y-93368761D01*
X143914857Y-93416380D01*
X143819619Y-93416380D01*
X143676761Y-93368761D01*
X143581523Y-93273523D01*
X143533904Y-93178285D01*
X143486285Y-92987809D01*
X143486285Y-92844952D01*
X143533904Y-92654476D01*
X143581523Y-92559238D01*
X143676761Y-92464000D01*
X143819619Y-92416380D01*
X143914857Y-92416380D01*
X144057714Y-92464000D01*
X144105333Y-92511619D01*
X144962476Y-92749714D02*
X144962476Y-93416380D01*
X144724380Y-92368761D02*
X144486285Y-93083047D01*
X145105333Y-93083047D01*
X123475761Y-107113619D02*
X123380523Y-107066000D01*
X123285285Y-106970761D01*
X123142428Y-106827904D01*
X123047190Y-106780285D01*
X122951952Y-106780285D01*
X122999571Y-107018380D02*
X122904333Y-106970761D01*
X122809095Y-106875523D01*
X122761476Y-106685047D01*
X122761476Y-106351714D01*
X122809095Y-106161238D01*
X122904333Y-106066000D01*
X122999571Y-106018380D01*
X123190047Y-106018380D01*
X123285285Y-106066000D01*
X123380523Y-106161238D01*
X123428142Y-106351714D01*
X123428142Y-106685047D01*
X123380523Y-106875523D01*
X123285285Y-106970761D01*
X123190047Y-107018380D01*
X122999571Y-107018380D01*
X124380523Y-107018380D02*
X123809095Y-107018380D01*
X124094809Y-107018380D02*
X124094809Y-106018380D01*
X123999571Y-106161238D01*
X123904333Y-106256476D01*
X123809095Y-106304095D01*
X90866666Y-118552380D02*
X90866666Y-119266666D01*
X90819047Y-119409523D01*
X90723809Y-119504761D01*
X90580952Y-119552380D01*
X90485714Y-119552380D01*
X91771428Y-118885714D02*
X91771428Y-119552380D01*
X91533333Y-118504761D02*
X91295238Y-119219047D01*
X91914285Y-119219047D01*
X140295333Y-93797380D02*
X139962000Y-93321190D01*
X139723904Y-93797380D02*
X139723904Y-92797380D01*
X140104857Y-92797380D01*
X140200095Y-92845000D01*
X140247714Y-92892619D01*
X140295333Y-92987857D01*
X140295333Y-93130714D01*
X140247714Y-93225952D01*
X140200095Y-93273571D01*
X140104857Y-93321190D01*
X139723904Y-93321190D01*
X141247714Y-93797380D02*
X140676285Y-93797380D01*
X140962000Y-93797380D02*
X140962000Y-92797380D01*
X140866761Y-92940238D01*
X140771523Y-93035476D01*
X140676285Y-93083095D01*
X104766666Y-90928571D02*
X104433333Y-90928571D01*
X104433333Y-91452380D02*
X104433333Y-90452380D01*
X104909523Y-90452380D01*
X105814285Y-91452380D02*
X105242857Y-91452380D01*
X105528571Y-91452380D02*
X105528571Y-90452380D01*
X105433333Y-90595238D01*
X105338095Y-90690476D01*
X105242857Y-90738095D01*
X116948914Y-91402564D02*
X116901295Y-91450183D01*
X116758438Y-91497802D01*
X116663200Y-91497802D01*
X116520342Y-91450183D01*
X116425104Y-91354945D01*
X116377485Y-91259707D01*
X116329866Y-91069231D01*
X116329866Y-90926374D01*
X116377485Y-90735898D01*
X116425104Y-90640660D01*
X116520342Y-90545422D01*
X116663200Y-90497802D01*
X116758438Y-90497802D01*
X116901295Y-90545422D01*
X116948914Y-90593041D01*
X117425104Y-91497802D02*
X117615581Y-91497802D01*
X117710819Y-91450183D01*
X117758438Y-91402564D01*
X117853676Y-91259707D01*
X117901295Y-91069231D01*
X117901295Y-90688279D01*
X117853676Y-90593041D01*
X117806057Y-90545422D01*
X117710819Y-90497802D01*
X117520342Y-90497802D01*
X117425104Y-90545422D01*
X117377485Y-90593041D01*
X117329866Y-90688279D01*
X117329866Y-90926374D01*
X117377485Y-91021612D01*
X117425104Y-91069231D01*
X117520342Y-91116850D01*
X117710819Y-91116850D01*
X117806057Y-91069231D01*
X117853676Y-91021612D01*
X117901295Y-90926374D01*
X150876095Y-105116380D02*
X150876095Y-105925904D01*
X150923714Y-106021142D01*
X150971333Y-106068761D01*
X151066571Y-106116380D01*
X151257047Y-106116380D01*
X151352285Y-106068761D01*
X151399904Y-106021142D01*
X151447523Y-105925904D01*
X151447523Y-105116380D01*
X151876095Y-105211619D02*
X151923714Y-105164000D01*
X152018952Y-105116380D01*
X152257047Y-105116380D01*
X152352285Y-105164000D01*
X152399904Y-105211619D01*
X152447523Y-105306857D01*
X152447523Y-105402095D01*
X152399904Y-105544952D01*
X151828476Y-106116380D01*
X152447523Y-106116380D01*
X118737142Y-109545380D02*
X118403809Y-109069190D01*
X118165714Y-109545380D02*
X118165714Y-108545380D01*
X118546666Y-108545380D01*
X118641904Y-108593000D01*
X118689523Y-108640619D01*
X118737142Y-108735857D01*
X118737142Y-108878714D01*
X118689523Y-108973952D01*
X118641904Y-109021571D01*
X118546666Y-109069190D01*
X118165714Y-109069190D01*
X119689523Y-109545380D02*
X119118095Y-109545380D01*
X119403809Y-109545380D02*
X119403809Y-108545380D01*
X119308571Y-108688238D01*
X119213333Y-108783476D01*
X119118095Y-108831095D01*
X120594285Y-108545380D02*
X120118095Y-108545380D01*
X120070476Y-109021571D01*
X120118095Y-108973952D01*
X120213333Y-108926333D01*
X120451428Y-108926333D01*
X120546666Y-108973952D01*
X120594285Y-109021571D01*
X120641904Y-109116809D01*
X120641904Y-109354904D01*
X120594285Y-109450142D01*
X120546666Y-109497761D01*
X120451428Y-109545380D01*
X120213333Y-109545380D01*
X120118095Y-109497761D01*
X120070476Y-109450142D01*
X94811642Y-120543580D02*
X94478309Y-120067390D01*
X94240214Y-120543580D02*
X94240214Y-119543580D01*
X94621166Y-119543580D01*
X94716404Y-119591200D01*
X94764023Y-119638819D01*
X94811642Y-119734057D01*
X94811642Y-119876914D01*
X94764023Y-119972152D01*
X94716404Y-120019771D01*
X94621166Y-120067390D01*
X94240214Y-120067390D01*
X95383071Y-119972152D02*
X95287833Y-119924533D01*
X95240214Y-119876914D01*
X95192595Y-119781676D01*
X95192595Y-119734057D01*
X95240214Y-119638819D01*
X95287833Y-119591200D01*
X95383071Y-119543580D01*
X95573547Y-119543580D01*
X95668785Y-119591200D01*
X95716404Y-119638819D01*
X95764023Y-119734057D01*
X95764023Y-119781676D01*
X95716404Y-119876914D01*
X95668785Y-119924533D01*
X95573547Y-119972152D01*
X95383071Y-119972152D01*
X95287833Y-120019771D01*
X95240214Y-120067390D01*
X95192595Y-120162628D01*
X95192595Y-120353104D01*
X95240214Y-120448342D01*
X95287833Y-120495961D01*
X95383071Y-120543580D01*
X95573547Y-120543580D01*
X95668785Y-120495961D01*
X95716404Y-120448342D01*
X95764023Y-120353104D01*
X95764023Y-120162628D01*
X95716404Y-120067390D01*
X95668785Y-120019771D01*
X95573547Y-119972152D01*
X115054142Y-114751380D02*
X114720809Y-114275190D01*
X114482714Y-114751380D02*
X114482714Y-113751380D01*
X114863666Y-113751380D01*
X114958904Y-113799000D01*
X115006523Y-113846619D01*
X115054142Y-113941857D01*
X115054142Y-114084714D01*
X115006523Y-114179952D01*
X114958904Y-114227571D01*
X114863666Y-114275190D01*
X114482714Y-114275190D01*
X116006523Y-114751380D02*
X115435095Y-114751380D01*
X115720809Y-114751380D02*
X115720809Y-113751380D01*
X115625571Y-113894238D01*
X115530333Y-113989476D01*
X115435095Y-114037095D01*
X116863666Y-113751380D02*
X116673190Y-113751380D01*
X116577952Y-113799000D01*
X116530333Y-113846619D01*
X116435095Y-113989476D01*
X116387476Y-114179952D01*
X116387476Y-114560904D01*
X116435095Y-114656142D01*
X116482714Y-114703761D01*
X116577952Y-114751380D01*
X116768428Y-114751380D01*
X116863666Y-114703761D01*
X116911285Y-114656142D01*
X116958904Y-114560904D01*
X116958904Y-114322809D01*
X116911285Y-114227571D01*
X116863666Y-114179952D01*
X116768428Y-114132333D01*
X116577952Y-114132333D01*
X116482714Y-114179952D01*
X116435095Y-114227571D01*
X116387476Y-114322809D01*
X128807642Y-97009602D02*
X128474309Y-96533412D01*
X128236214Y-97009602D02*
X128236214Y-96009602D01*
X128617166Y-96009602D01*
X128712404Y-96057222D01*
X128760023Y-96104841D01*
X128807642Y-96200079D01*
X128807642Y-96342936D01*
X128760023Y-96438174D01*
X128712404Y-96485793D01*
X128617166Y-96533412D01*
X128236214Y-96533412D01*
X129712404Y-96009602D02*
X129236214Y-96009602D01*
X129188595Y-96485793D01*
X129236214Y-96438174D01*
X129331452Y-96390555D01*
X129569547Y-96390555D01*
X129664785Y-96438174D01*
X129712404Y-96485793D01*
X129760023Y-96581031D01*
X129760023Y-96819126D01*
X129712404Y-96914364D01*
X129664785Y-96961983D01*
X129569547Y-97009602D01*
X129331452Y-97009602D01*
X129236214Y-96961983D01*
X129188595Y-96914364D01*
X124852761Y-102263557D02*
X124805142Y-102311176D01*
X124662285Y-102358795D01*
X124567047Y-102358795D01*
X124424190Y-102311176D01*
X124328952Y-102215938D01*
X124281333Y-102120700D01*
X124233714Y-101930224D01*
X124233714Y-101787367D01*
X124281333Y-101596891D01*
X124328952Y-101501653D01*
X124424190Y-101406415D01*
X124567047Y-101358795D01*
X124662285Y-101358795D01*
X124805142Y-101406415D01*
X124852761Y-101454034D01*
X125805142Y-102358795D02*
X125233714Y-102358795D01*
X125519428Y-102358795D02*
X125519428Y-101358795D01*
X125424190Y-101501653D01*
X125328952Y-101596891D01*
X125233714Y-101644510D01*
X126662285Y-101692129D02*
X126662285Y-102358795D01*
X126424190Y-101311176D02*
X126186095Y-102025462D01*
X126805142Y-102025462D01*
X121576642Y-102236333D02*
X121243309Y-101760143D01*
X121005214Y-102236333D02*
X121005214Y-101236333D01*
X121386166Y-101236333D01*
X121481404Y-101283953D01*
X121529023Y-101331572D01*
X121576642Y-101426810D01*
X121576642Y-101569667D01*
X121529023Y-101664905D01*
X121481404Y-101712524D01*
X121386166Y-101760143D01*
X121005214Y-101760143D01*
X122433785Y-101569667D02*
X122433785Y-102236333D01*
X122195690Y-101188714D02*
X121957595Y-101903000D01*
X122576642Y-101903000D01*
X155535333Y-98401142D02*
X155487714Y-98448761D01*
X155344857Y-98496380D01*
X155249619Y-98496380D01*
X155106761Y-98448761D01*
X155011523Y-98353523D01*
X154963904Y-98258285D01*
X154916285Y-98067809D01*
X154916285Y-97924952D01*
X154963904Y-97734476D01*
X155011523Y-97639238D01*
X155106761Y-97544000D01*
X155249619Y-97496380D01*
X155344857Y-97496380D01*
X155487714Y-97544000D01*
X155535333Y-97591619D01*
X156392476Y-97496380D02*
X156202000Y-97496380D01*
X156106761Y-97544000D01*
X156059142Y-97591619D01*
X155963904Y-97734476D01*
X155916285Y-97924952D01*
X155916285Y-98305904D01*
X155963904Y-98401142D01*
X156011523Y-98448761D01*
X156106761Y-98496380D01*
X156297238Y-98496380D01*
X156392476Y-98448761D01*
X156440095Y-98401142D01*
X156487714Y-98305904D01*
X156487714Y-98067809D01*
X156440095Y-97972571D01*
X156392476Y-97924952D01*
X156297238Y-97877333D01*
X156106761Y-97877333D01*
X156011523Y-97924952D01*
X155963904Y-97972571D01*
X155916285Y-98067809D01*
X140549333Y-105005142D02*
X140501714Y-105052761D01*
X140358857Y-105100380D01*
X140263619Y-105100380D01*
X140120761Y-105052761D01*
X140025523Y-104957523D01*
X139977904Y-104862285D01*
X139930285Y-104671809D01*
X139930285Y-104528952D01*
X139977904Y-104338476D01*
X140025523Y-104243238D01*
X140120761Y-104148000D01*
X140263619Y-104100380D01*
X140358857Y-104100380D01*
X140501714Y-104148000D01*
X140549333Y-104195619D01*
X141120761Y-104528952D02*
X141025523Y-104481333D01*
X140977904Y-104433714D01*
X140930285Y-104338476D01*
X140930285Y-104290857D01*
X140977904Y-104195619D01*
X141025523Y-104148000D01*
X141120761Y-104100380D01*
X141311238Y-104100380D01*
X141406476Y-104148000D01*
X141454095Y-104195619D01*
X141501714Y-104290857D01*
X141501714Y-104338476D01*
X141454095Y-104433714D01*
X141406476Y-104481333D01*
X141311238Y-104528952D01*
X141120761Y-104528952D01*
X141025523Y-104576571D01*
X140977904Y-104624190D01*
X140930285Y-104719428D01*
X140930285Y-104909904D01*
X140977904Y-105005142D01*
X141025523Y-105052761D01*
X141120761Y-105100380D01*
X141311238Y-105100380D01*
X141406476Y-105052761D01*
X141454095Y-105005142D01*
X141501714Y-104909904D01*
X141501714Y-104719428D01*
X141454095Y-104624190D01*
X141406476Y-104576571D01*
X141311238Y-104528952D01*
X118878261Y-120543580D02*
X118544928Y-120067390D01*
X118306833Y-120543580D02*
X118306833Y-119543580D01*
X118687785Y-119543580D01*
X118783023Y-119591200D01*
X118830642Y-119638819D01*
X118878261Y-119734057D01*
X118878261Y-119876914D01*
X118830642Y-119972152D01*
X118783023Y-120019771D01*
X118687785Y-120067390D01*
X118306833Y-120067390D01*
X119830642Y-120543580D02*
X119259214Y-120543580D01*
X119544928Y-120543580D02*
X119544928Y-119543580D01*
X119449690Y-119686438D01*
X119354452Y-119781676D01*
X119259214Y-119829295D01*
X120449690Y-119543580D02*
X120544928Y-119543580D01*
X120640166Y-119591200D01*
X120687785Y-119638819D01*
X120735404Y-119734057D01*
X120783023Y-119924533D01*
X120783023Y-120162628D01*
X120735404Y-120353104D01*
X120687785Y-120448342D01*
X120640166Y-120495961D01*
X120544928Y-120543580D01*
X120449690Y-120543580D01*
X120354452Y-120495961D01*
X120306833Y-120448342D01*
X120259214Y-120353104D01*
X120211595Y-120162628D01*
X120211595Y-119924533D01*
X120259214Y-119734057D01*
X120306833Y-119638819D01*
X120354452Y-119591200D01*
X120449690Y-119543580D01*
X120697076Y-97435814D02*
X120697076Y-98245338D01*
X120744695Y-98340576D01*
X120792314Y-98388195D01*
X120887552Y-98435814D01*
X121078028Y-98435814D01*
X121173266Y-98388195D01*
X121220885Y-98340576D01*
X121268504Y-98245338D01*
X121268504Y-97435814D01*
X122268504Y-98435814D02*
X121697076Y-98435814D01*
X121982790Y-98435814D02*
X121982790Y-97435814D01*
X121887552Y-97578672D01*
X121792314Y-97673910D01*
X121697076Y-97721529D01*
X156329142Y-109450142D02*
X156281523Y-109497761D01*
X156138666Y-109545380D01*
X156043428Y-109545380D01*
X155900571Y-109497761D01*
X155805333Y-109402523D01*
X155757714Y-109307285D01*
X155710095Y-109116809D01*
X155710095Y-108973952D01*
X155757714Y-108783476D01*
X155805333Y-108688238D01*
X155900571Y-108593000D01*
X156043428Y-108545380D01*
X156138666Y-108545380D01*
X156281523Y-108593000D01*
X156329142Y-108640619D01*
X157281523Y-109545380D02*
X156710095Y-109545380D01*
X156995809Y-109545380D02*
X156995809Y-108545380D01*
X156900571Y-108688238D01*
X156805333Y-108783476D01*
X156710095Y-108831095D01*
X158233904Y-109545380D02*
X157662476Y-109545380D01*
X157948190Y-109545380D02*
X157948190Y-108545380D01*
X157852952Y-108688238D01*
X157757714Y-108783476D01*
X157662476Y-108831095D01*
D13*
X103020000Y-92480000D02*
X90280000Y-92480000D01*
X90280000Y-92480000D02*
X90280000Y-107720000D01*
X90280000Y-92480000D02*
X90280000Y-107720000D01*
X103020000Y-107720000D02*
X90280000Y-107720000D01*
X103020000Y-92480000D02*
X90280000Y-92480000D01*
X103400000Y-92100000D02*
X103400000Y-95100000D01*
X103020000Y-92480000D02*
X103020000Y-107720000D01*
X103020000Y-92480000D02*
X103020000Y-107720000D01*
X103020000Y-107720000D02*
X90280000Y-107720000D01*
X100400000Y-92100000D02*
X103400000Y-92100000D01*
X157735000Y-120314564D02*
X157735000Y-119860436D01*
X156265000Y-120314564D02*
X156265000Y-119860436D01*
X137314000Y-95496748D02*
X137314000Y-96019252D01*
X138784000Y-95496748D02*
X138784000Y-96019252D01*
X147735000Y-119860436D02*
X147735000Y-120314564D01*
X146265000Y-119860436D02*
X146265000Y-120314564D01*
X127608000Y-108738936D02*
X127608000Y-109193064D01*
X126138000Y-108738936D02*
X126138000Y-109193064D01*
X116085252Y-104365000D02*
X115562748Y-104365000D01*
X116085252Y-105835000D02*
X115562748Y-105835000D01*
X152426936Y-112295000D02*
X152881064Y-112295000D01*
X152426936Y-113765000D02*
X152881064Y-113765000D01*
X135410000Y-99088000D02*
X135710000Y-99088000D01*
X137710000Y-102588000D02*
X136610000Y-102588000D01*
X135410000Y-102588000D02*
X135410000Y-101288000D01*
X138910000Y-99088000D02*
X138610000Y-99088000D01*
X138910000Y-102588000D02*
X138610000Y-102588000D01*
X138910000Y-102588000D02*
X138910000Y-101288000D01*
X135410000Y-102588000D02*
X135710000Y-102588000D01*
X135410000Y-100388000D02*
X135410000Y-99088000D01*
X138910000Y-100388000D02*
X138910000Y-99088000D01*
X137710000Y-99088000D02*
X136610000Y-99088000D01*
X116355181Y-97778674D02*
X116355181Y-97256170D01*
X117825181Y-97778674D02*
X117825181Y-97256170D01*
X106265000Y-120318264D02*
X106265000Y-119864136D01*
X107735000Y-120318264D02*
X107735000Y-119864136D01*
D14*
X160250000Y-131500000D02*
X160250000Y-122000000D01*
X143750000Y-122000000D02*
X143750000Y-131500000D01*
X143750000Y-131500000D02*
X160250000Y-131500000D01*
X155500000Y-138000000D02*
X155500000Y-131500000D01*
X155000000Y-146500000D02*
X149000000Y-146500000D01*
X148500000Y-131500000D02*
X148500000Y-138000000D01*
X155000000Y-146500000D02*
X155000000Y-138000000D01*
X149000000Y-138000000D02*
X149000000Y-146500000D01*
X148500000Y-138000000D02*
X155500000Y-138000000D01*
X160250000Y-122000000D02*
X143750000Y-122000000D01*
D13*
X126870781Y-99178770D02*
X126870781Y-99632898D01*
X128340781Y-99178770D02*
X128340781Y-99632898D01*
X151102000Y-109928600D02*
X151102000Y-109628600D01*
X151102000Y-107628600D02*
X151102000Y-108728600D01*
X151102000Y-109928600D02*
X149802000Y-109928600D01*
X151102000Y-106428600D02*
X151102000Y-106728600D01*
X151102000Y-106428600D02*
X149802000Y-106428600D01*
X147602000Y-106428600D02*
X147602000Y-106728600D01*
X148902000Y-109928600D02*
X147602000Y-109928600D01*
X147602000Y-107628600D02*
X147602000Y-108728600D01*
X148902000Y-106428600D02*
X147602000Y-106428600D01*
X147602000Y-109928600D02*
X147602000Y-109628600D01*
X120136581Y-97783674D02*
X120136581Y-97261170D01*
X118666581Y-97783674D02*
X118666581Y-97261170D01*
X126410445Y-95010034D02*
X125956317Y-95010034D01*
X126410445Y-93540034D02*
X125956317Y-93540034D01*
D14*
X123500000Y-131500000D02*
X123500000Y-138000000D01*
X130500000Y-138000000D02*
X130500000Y-131500000D01*
X118750000Y-122000000D02*
X118750000Y-131500000D01*
X124000000Y-138000000D02*
X124000000Y-146500000D01*
X130000000Y-146500000D02*
X124000000Y-146500000D01*
X130000000Y-146500000D02*
X130000000Y-138000000D01*
X135250000Y-122000000D02*
X118750000Y-122000000D01*
X123500000Y-138000000D02*
X130500000Y-138000000D01*
X135250000Y-131500000D02*
X135250000Y-122000000D01*
X118750000Y-131500000D02*
X135250000Y-131500000D01*
D13*
X148613800Y-94937948D02*
X148613800Y-95460452D01*
X147143800Y-94937948D02*
X147143800Y-95460452D01*
G36*
X138024934Y-88582154D02*
G01*
X138114615Y-88299126D01*
X138130557Y-88266804D01*
X138334316Y-87950184D01*
X138577954Y-87716716D01*
X138869426Y-87561243D01*
X139216692Y-87478609D01*
X139367730Y-87465078D01*
X139575289Y-87457941D01*
X139725525Y-87467362D01*
X139854347Y-87498706D01*
X139997661Y-87557336D01*
X140003699Y-87560094D01*
X140317347Y-87741512D01*
X140561143Y-87972067D01*
X140724855Y-88215052D01*
X140792811Y-88347365D01*
X140834069Y-88463979D01*
X140855094Y-88596401D01*
X140862356Y-88776138D01*
X140862852Y-88887323D01*
X140849878Y-89171451D01*
X140803941Y-89396712D01*
X140713744Y-89595605D01*
X140567988Y-89800630D01*
X140528937Y-89847894D01*
X140280358Y-90073044D01*
X139977660Y-90232520D01*
X139639735Y-90319701D01*
X139285472Y-90327963D01*
X139192726Y-90316322D01*
X138864749Y-90218814D01*
X138564948Y-90040945D01*
X138310165Y-89795567D01*
X138117320Y-89495693D01*
X138025915Y-89214873D01*
X138008582Y-89036301D01*
X138267083Y-89036301D01*
X138352507Y-89334838D01*
X138526325Y-89611870D01*
X138552799Y-89642877D01*
X138810448Y-89872418D01*
X139097878Y-90014782D01*
X139406516Y-90068198D01*
X139727788Y-90030900D01*
X139981779Y-89937628D01*
X140228024Y-89770626D01*
X140416735Y-89543539D01*
X140543087Y-89273988D01*
X140602258Y-88979597D01*
X140589426Y-88677989D01*
X140499769Y-88386785D01*
X140437764Y-88271368D01*
X140255639Y-88053870D01*
X140013054Y-87873250D01*
X139742120Y-87750643D01*
X139593517Y-87715722D01*
X139297668Y-87716654D01*
X139007939Y-87800430D01*
X138742314Y-87956750D01*
X138518777Y-88175309D01*
X138367925Y-88417822D01*
X138271681Y-88727037D01*
X138267083Y-89036301D01*
X138008582Y-89036301D01*
X137995244Y-88898881D01*
X138024934Y-88582154D01*
G37*
G36*
X127201308Y-88771249D02*
G01*
X127381651Y-88413660D01*
X127632957Y-88094782D01*
X127951085Y-87826433D01*
X128210139Y-87675559D01*
X128348428Y-87610412D01*
X128463651Y-87567509D01*
X128581922Y-87542227D01*
X128729356Y-87529942D01*
X128932069Y-87526031D01*
X129056228Y-87525770D01*
X129294300Y-87527274D01*
X129464640Y-87534904D01*
X129593407Y-87553337D01*
X129706756Y-87587250D01*
X129830847Y-87641320D01*
X129905651Y-87677649D01*
X130267158Y-87903981D01*
X130562945Y-88187688D01*
X130790322Y-88516955D01*
X130946599Y-88879966D01*
X131029086Y-89264906D01*
X131035094Y-89659959D01*
X130961932Y-90053309D01*
X130806912Y-90433142D01*
X130603501Y-90743231D01*
X130340593Y-91003948D01*
X130015127Y-91213438D01*
X129647730Y-91364035D01*
X129259031Y-91448075D01*
X128869654Y-91457892D01*
X128726590Y-91440696D01*
X128343249Y-91332121D01*
X127983056Y-91142689D01*
X127663186Y-90885252D01*
X127400811Y-90572663D01*
X127272358Y-90352371D01*
X127127451Y-89958111D01*
X127070068Y-89555292D01*
X127075916Y-89465419D01*
X127461415Y-89465419D01*
X127480047Y-89771078D01*
X127541329Y-90043800D01*
X127593412Y-90168829D01*
X127814263Y-90498128D01*
X128100599Y-90769357D01*
X128437388Y-90969091D01*
X128533263Y-91008365D01*
X128722504Y-91050004D01*
X128966954Y-91064033D01*
X129232898Y-91052484D01*
X129486622Y-91017382D01*
X129694412Y-90960758D01*
X129752422Y-90935008D01*
X130075968Y-90719927D01*
X130330738Y-90453736D01*
X130514993Y-90148906D01*
X130626998Y-89817906D01*
X130665017Y-89473206D01*
X130627313Y-89127276D01*
X130512149Y-88792586D01*
X130317789Y-88481606D01*
X130122847Y-88274878D01*
X129820599Y-88064098D01*
X129476954Y-87929801D01*
X129109021Y-87875024D01*
X128733909Y-87902806D01*
X128458734Y-87979432D01*
X128177824Y-88128225D01*
X127917203Y-88346698D01*
X127700872Y-88610705D01*
X127555969Y-88887669D01*
X127486400Y-89159918D01*
X127461415Y-89465419D01*
X127075916Y-89465419D01*
X127096066Y-89155732D01*
X127201308Y-88771249D01*
G37*
G36*
X128773596Y-88923981D02*
G01*
X128906164Y-89007112D01*
X128989897Y-89100358D01*
X128993414Y-89164078D01*
X128915608Y-89219336D01*
X128894481Y-89229282D01*
X128796196Y-89256834D01*
X128730648Y-89220583D01*
X128724406Y-89213343D01*
X128628204Y-89159351D01*
X128497747Y-89149100D01*
X128382674Y-89184153D01*
X128360379Y-89201889D01*
X128320112Y-89292624D01*
X128304478Y-89433173D01*
X128312482Y-89584792D01*
X128343128Y-89708738D01*
X128374609Y-89756020D01*
X128484485Y-89804679D01*
X128613653Y-89809144D01*
X128718996Y-89770912D01*
X128745350Y-89743145D01*
X128800748Y-89697101D01*
X128889200Y-89716811D01*
X128899353Y-89721337D01*
X128983305Y-89770609D01*
X128996845Y-89823298D01*
X128937192Y-89898324D01*
X128863838Y-89963002D01*
X128679948Y-90060299D01*
X128466031Y-90083663D01*
X128251676Y-90031713D01*
X128181060Y-89994895D01*
X128036493Y-89857801D01*
X127955641Y-89677449D01*
X127935019Y-89475372D01*
X127971145Y-89273105D01*
X128060535Y-89092179D01*
X128199707Y-88954130D01*
X128360556Y-88885222D01*
X128572322Y-88873959D01*
X128773596Y-88923981D01*
G37*
G36*
X134836744Y-88477813D02*
G01*
X134944390Y-88229104D01*
X135252653Y-88229104D01*
X135291604Y-88273610D01*
X135388975Y-88336738D01*
X135515543Y-88403407D01*
X135642085Y-88458536D01*
X135739379Y-88487042D01*
X135754776Y-88488247D01*
X135806809Y-88452922D01*
X135853184Y-88392625D01*
X135943991Y-88300994D01*
X136028803Y-88252937D01*
X136122985Y-88182207D01*
X136144705Y-88086421D01*
X136165324Y-87999050D01*
X136212296Y-87987684D01*
X136263295Y-88048031D01*
X136285764Y-88113533D01*
X136351752Y-88214654D01*
X136463122Y-88263982D01*
X136580057Y-88318899D01*
X136610275Y-88394963D01*
X136550253Y-88482836D01*
X136546781Y-88485757D01*
X136467229Y-88518001D01*
X136378083Y-88487513D01*
X136265316Y-88456817D01*
X136150774Y-88467158D01*
X136069389Y-88511247D01*
X136050804Y-88555794D01*
X136092223Y-88607713D01*
X136199892Y-88666956D01*
X136282898Y-88698640D01*
X136441522Y-88761025D01*
X136578903Y-88831242D01*
X136624430Y-88861814D01*
X136723151Y-88925157D01*
X136874697Y-89006936D01*
X137037900Y-89085550D01*
X137196179Y-89155892D01*
X137289946Y-89189703D01*
X137340116Y-89189427D01*
X137367608Y-89157510D01*
X137381312Y-89125688D01*
X137399859Y-89022821D01*
X137402598Y-88871314D01*
X137397060Y-88787676D01*
X137323089Y-88470113D01*
X137176189Y-88198180D01*
X136969293Y-87979487D01*
X136715330Y-87821645D01*
X136427233Y-87732264D01*
X136117931Y-87718954D01*
X135800356Y-87789327D01*
X135740421Y-87812673D01*
X135608708Y-87883705D01*
X135470786Y-87982449D01*
X135350331Y-88088693D01*
X135271017Y-88182225D01*
X135252653Y-88229104D01*
X134944390Y-88229104D01*
X134972310Y-88164598D01*
X135181127Y-87887328D01*
X135458481Y-87659547D01*
X135581303Y-87588556D01*
X135783377Y-87518352D01*
X136038550Y-87479096D01*
X136314731Y-87470990D01*
X136579831Y-87494235D01*
X136801759Y-87549032D01*
X136872431Y-87580458D01*
X137167485Y-87786516D01*
X137399906Y-88047679D01*
X137564480Y-88349276D01*
X137655993Y-88676637D01*
X137669230Y-89015092D01*
X137598978Y-89349970D01*
X137546973Y-89478260D01*
X137352034Y-89793589D01*
X137098282Y-90042630D01*
X136797466Y-90219003D01*
X136461331Y-90316328D01*
X136101623Y-90328228D01*
X136003854Y-90316258D01*
X135648551Y-90216718D01*
X135342490Y-90038201D01*
X135091044Y-89784753D01*
X134916707Y-89497674D01*
X134804228Y-89157896D01*
X134783573Y-88874240D01*
X135056142Y-88874240D01*
X135097012Y-89198991D01*
X135216978Y-89491397D01*
X135406252Y-89737649D01*
X135655043Y-89923940D01*
X135863004Y-90012408D01*
X136071663Y-90065374D01*
X136250139Y-90075875D01*
X136443760Y-90043821D01*
X136563193Y-90010982D01*
X136704515Y-89951654D01*
X136862197Y-89859422D01*
X137014184Y-89750853D01*
X137138418Y-89642514D01*
X137212843Y-89550971D01*
X137224557Y-89514255D01*
X137185188Y-89473981D01*
X137083356Y-89413157D01*
X136978069Y-89361956D01*
X136731581Y-89251543D01*
X136588495Y-89386346D01*
X136480004Y-89471514D01*
X136385424Y-89518149D01*
X136365482Y-89521149D01*
X136300300Y-89558523D01*
X136285555Y-89638525D01*
X136261067Y-89732927D01*
X136215130Y-89755900D01*
X136158488Y-89715086D01*
X136144705Y-89638525D01*
X136120932Y-89545135D01*
X136076489Y-89521149D01*
X135968395Y-89499682D01*
X135858361Y-89448399D01*
X135782796Y-89386975D01*
X135769104Y-89355037D01*
X135804363Y-89265919D01*
X135884343Y-89217434D01*
X135970344Y-89231593D01*
X135977103Y-89236730D01*
X136069312Y-89273292D01*
X136194585Y-89279817D01*
X136316896Y-89260091D01*
X136400222Y-89217895D01*
X136415815Y-89190649D01*
X136392781Y-89147647D01*
X136305910Y-89085582D01*
X136148280Y-89000529D01*
X135912972Y-88888560D01*
X135767013Y-88822590D01*
X135537842Y-88722335D01*
X135339959Y-88639686D01*
X135188559Y-88580680D01*
X135098841Y-88551354D01*
X135081211Y-88550139D01*
X135068907Y-88605714D01*
X135059823Y-88727718D01*
X135056142Y-88874240D01*
X134783573Y-88874240D01*
X134779145Y-88813428D01*
X134836744Y-88477813D01*
G37*
G36*
X132663461Y-91189001D02*
G01*
X132703191Y-91253019D01*
X132668691Y-91330785D01*
X132576452Y-91396010D01*
X132490260Y-91389908D01*
X132439566Y-91318671D01*
X132435647Y-91281778D01*
X132455236Y-91192231D01*
X132531374Y-91164808D01*
X132550252Y-91164403D01*
X132663461Y-91189001D01*
G37*
G36*
X133351174Y-88464772D02*
G01*
X133365071Y-88782330D01*
X133368244Y-88960646D01*
X133356118Y-89065692D01*
X133325316Y-89117340D01*
X133306384Y-89127741D01*
X133265581Y-89167155D01*
X133242768Y-89258395D01*
X133234172Y-89419733D01*
X133233799Y-89479222D01*
X133233799Y-89802850D01*
X132811248Y-89802850D01*
X132811248Y-89474199D01*
X132807106Y-89295638D01*
X132792214Y-89193442D01*
X132762871Y-89150340D01*
X132740823Y-89145549D01*
X132703768Y-89127174D01*
X132681973Y-89060747D01*
X132672065Y-88929312D01*
X132670398Y-88791366D01*
X132670398Y-88437184D01*
X133351174Y-88464772D01*
G37*
G36*
X131592771Y-88582154D02*
G01*
X131682452Y-88299126D01*
X131698394Y-88266804D01*
X131902153Y-87950184D01*
X132145791Y-87716716D01*
X132437264Y-87561243D01*
X132784529Y-87478609D01*
X132935568Y-87465078D01*
X133143126Y-87457941D01*
X133293362Y-87467362D01*
X133422184Y-87498706D01*
X133565499Y-87557336D01*
X133571536Y-87560094D01*
X133903581Y-87754854D01*
X134156094Y-87999346D01*
X134330067Y-88295003D01*
X134426497Y-88643261D01*
X134445010Y-88820127D01*
X134451816Y-89021599D01*
X134439662Y-89171254D01*
X134401572Y-89310404D01*
X134335295Y-89469860D01*
X134146138Y-89783284D01*
X133894935Y-90032848D01*
X133594123Y-90211865D01*
X133256144Y-90313647D01*
X132893438Y-90331509D01*
X132760563Y-90316322D01*
X132432587Y-90218814D01*
X132132785Y-90040945D01*
X131878002Y-89795567D01*
X131685157Y-89495693D01*
X131593753Y-89214873D01*
X131566256Y-88931588D01*
X131831178Y-88931588D01*
X131879521Y-89220443D01*
X131922884Y-89333349D01*
X132100658Y-89624270D01*
X132332376Y-89845618D01*
X132605282Y-89992657D01*
X132906618Y-90060645D01*
X133223626Y-90044846D01*
X133543549Y-89940518D01*
X133549616Y-89937628D01*
X133795862Y-89770626D01*
X133984572Y-89543539D01*
X134110924Y-89273988D01*
X134170095Y-88979597D01*
X134157264Y-88677989D01*
X134067606Y-88386785D01*
X134005601Y-88271368D01*
X133823476Y-88053870D01*
X133580891Y-87873250D01*
X133309957Y-87750643D01*
X133161354Y-87715722D01*
X132860905Y-87713770D01*
X132580990Y-87791623D01*
X132331373Y-87936528D01*
X132121818Y-88135732D01*
X131962091Y-88376479D01*
X131861957Y-88646016D01*
X131831178Y-88931588D01*
X131566256Y-88931588D01*
X131563081Y-88898881D01*
X131592771Y-88582154D01*
G37*
G36*
X139753227Y-88165955D02*
G01*
X139858556Y-88219220D01*
X140039674Y-88386845D01*
X140143200Y-88599672D01*
X140172693Y-88865742D01*
X140170210Y-88923167D01*
X140113943Y-89185994D01*
X139990559Y-89399430D01*
X139813493Y-89553627D01*
X139596178Y-89638736D01*
X139352049Y-89644906D01*
X139225537Y-89615759D01*
X139032979Y-89511677D01*
X138882755Y-89348309D01*
X138825889Y-89233695D01*
X138800484Y-89146044D01*
X138821036Y-89107976D01*
X138907886Y-89098808D01*
X138958753Y-89098599D01*
X139098530Y-89115565D01*
X139188020Y-89178455D01*
X139215618Y-89215974D01*
X139325318Y-89306755D01*
X139472870Y-89336177D01*
X139623503Y-89302405D01*
X139710293Y-89242068D01*
X139801172Y-89091966D01*
X139839063Y-88896181D01*
X139818061Y-88690268D01*
X139807703Y-88655272D01*
X139720210Y-88493202D01*
X139585716Y-88409877D01*
X139462974Y-88394347D01*
X139357135Y-88416536D01*
X139257035Y-88470469D01*
X139186109Y-88537193D01*
X139167797Y-88597757D01*
X139184839Y-88619249D01*
X139204442Y-88664164D01*
X139155395Y-88739514D01*
X139101713Y-88794235D01*
X138959783Y-88930212D01*
X138831634Y-88797719D01*
X138752908Y-88698964D01*
X138753929Y-88647468D01*
X138762172Y-88643249D01*
X138815628Y-88583121D01*
X138820860Y-88553108D01*
X138857875Y-88434068D01*
X138951487Y-88304658D01*
X139075545Y-88198892D01*
X139107201Y-88180672D01*
X139306747Y-88120968D01*
X139536165Y-88116784D01*
X139753227Y-88165955D01*
G37*
G36*
X133079497Y-87983197D02*
G01*
X133174839Y-88046786D01*
X133186849Y-88065697D01*
X133211763Y-88190650D01*
X133158259Y-88291194D01*
X133041810Y-88344212D01*
X132998291Y-88347397D01*
X132890064Y-88328023D01*
X132837551Y-88254487D01*
X132830375Y-88229412D01*
X132828947Y-88107857D01*
X132858704Y-88041612D01*
X132960027Y-87980438D01*
X133079497Y-87983197D01*
G37*
G36*
X139808683Y-91375678D02*
G01*
X139849223Y-91524493D01*
X139825384Y-91611620D01*
X139759862Y-91633904D01*
X139683550Y-91615509D01*
X139665961Y-91590010D01*
X139681916Y-91518019D01*
X139718082Y-91413947D01*
X139756612Y-91327752D01*
X139782605Y-91322390D01*
X139808683Y-91375678D01*
G37*
G36*
X129935605Y-88933282D02*
G01*
X130022683Y-88980160D01*
X130117361Y-89070392D01*
X130119321Y-89153618D01*
X130028586Y-89225876D01*
X130021283Y-89229282D01*
X129922999Y-89256834D01*
X129857450Y-89220583D01*
X129851209Y-89213343D01*
X129748738Y-89154581D01*
X129618735Y-89156925D01*
X129504620Y-89219327D01*
X129451225Y-89326548D01*
X129432946Y-89478359D01*
X129450746Y-89631881D01*
X129493190Y-89729320D01*
X129591163Y-89795887D01*
X129721244Y-89811038D01*
X129839477Y-89773923D01*
X129879469Y-89736806D01*
X129937094Y-89686392D01*
X130016408Y-89696851D01*
X130057279Y-89714126D01*
X130139506Y-89766112D01*
X130145209Y-89826949D01*
X130131786Y-89855978D01*
X130021149Y-89972525D01*
X129853151Y-90049460D01*
X129658484Y-90079799D01*
X129467836Y-90056556D01*
X129388417Y-90025171D01*
X129231057Y-89895463D01*
X129125765Y-89710537D01*
X129079151Y-89497340D01*
X129097828Y-89282818D01*
X129167239Y-89123691D01*
X129312467Y-88981552D01*
X129506718Y-88899454D01*
X129723321Y-88881872D01*
X129935605Y-88933282D01*
G37*
G36*
X132559501Y-91501610D02*
G01*
X132560025Y-91501672D01*
X132684875Y-91547699D01*
X132744000Y-91629893D01*
X132738486Y-91721063D01*
X132669413Y-91794023D01*
X132547274Y-91821704D01*
X132472086Y-91808655D01*
X132440963Y-91751435D01*
X132435647Y-91654260D01*
X132442519Y-91543535D01*
X132476914Y-91501104D01*
X132559501Y-91501610D01*
G37*
G36*
X126472998Y-89803041D02*
G01*
X126472986Y-89653842D01*
X126473131Y-89108603D01*
X126473740Y-88649568D01*
X126475073Y-88269041D01*
X126477390Y-87959325D01*
X126480950Y-87712724D01*
X126486013Y-87521542D01*
X126492839Y-87378083D01*
X126501688Y-87274651D01*
X126512819Y-87203549D01*
X126526493Y-87157082D01*
X126542969Y-87127553D01*
X126558845Y-87110496D01*
X126575329Y-87100183D01*
X126603800Y-87090819D01*
X126648595Y-87082357D01*
X126714051Y-87074754D01*
X126804505Y-87067964D01*
X126924296Y-87061940D01*
X127077760Y-87056639D01*
X127269234Y-87052014D01*
X127503056Y-87048021D01*
X127783564Y-87044614D01*
X128115094Y-87041747D01*
X128501984Y-87039375D01*
X128948571Y-87037454D01*
X129459193Y-87035937D01*
X130038186Y-87034780D01*
X130689889Y-87033936D01*
X131418638Y-87033361D01*
X132228772Y-87033010D01*
X133124626Y-87032836D01*
X133993158Y-87032795D01*
X134965385Y-87032826D01*
X135848082Y-87032956D01*
X136645620Y-87033233D01*
X137362370Y-87033708D01*
X138002701Y-87034433D01*
X138570985Y-87035457D01*
X139071591Y-87036831D01*
X139508891Y-87038606D01*
X139887255Y-87040832D01*
X140211053Y-87043559D01*
X140484656Y-87046839D01*
X140712434Y-87050721D01*
X140898759Y-87055257D01*
X141048000Y-87060496D01*
X141164527Y-87066489D01*
X141252712Y-87073288D01*
X141316925Y-87080941D01*
X141361537Y-87089501D01*
X141390917Y-87099017D01*
X141409437Y-87109540D01*
X141419313Y-87118654D01*
X141436583Y-87144583D01*
X141451113Y-87186097D01*
X141463137Y-87250833D01*
X141472887Y-87346426D01*
X141480596Y-87480511D01*
X141486496Y-87660724D01*
X141490820Y-87894701D01*
X141493800Y-88190077D01*
X141495669Y-88554488D01*
X141496659Y-88995570D01*
X141497003Y-89520959D01*
X141497015Y-89670157D01*
X141496870Y-90215396D01*
X141496260Y-90674431D01*
X141494927Y-91054959D01*
X141492611Y-91364675D01*
X141489051Y-91611275D01*
X141483988Y-91802457D01*
X141477162Y-91945916D01*
X141468313Y-92049348D01*
X141457181Y-92120450D01*
X141443507Y-92166917D01*
X141427031Y-92196447D01*
X141411156Y-92213503D01*
X141394671Y-92223816D01*
X141366200Y-92233181D01*
X141321406Y-92241642D01*
X141255950Y-92249245D01*
X141165495Y-92256036D01*
X141045705Y-92262059D01*
X140892241Y-92267360D01*
X140700767Y-92271985D01*
X140466944Y-92275978D01*
X140186437Y-92279386D01*
X139854907Y-92282253D01*
X139468017Y-92284624D01*
X139021430Y-92286545D01*
X138510808Y-92288062D01*
X137931814Y-92289220D01*
X137280112Y-92290063D01*
X136551362Y-92290638D01*
X135741229Y-92290990D01*
X134845374Y-92291163D01*
X133976843Y-92291205D01*
X133004616Y-92291173D01*
X132121918Y-92291044D01*
X131324380Y-92290767D01*
X130607631Y-92290291D01*
X129967300Y-92289566D01*
X129399016Y-92288542D01*
X128898409Y-92287168D01*
X128461110Y-92285394D01*
X128082746Y-92283168D01*
X127758948Y-92280440D01*
X127485345Y-92277161D01*
X127257566Y-92273278D01*
X127071242Y-92268743D01*
X126922001Y-92263504D01*
X126805473Y-92257510D01*
X126717288Y-92250712D01*
X126653075Y-92243058D01*
X126608464Y-92234498D01*
X126579083Y-92224982D01*
X126560563Y-92214459D01*
X126550687Y-92205345D01*
X126533418Y-92179416D01*
X126518888Y-92137902D01*
X126506863Y-92073166D01*
X126497113Y-91977574D01*
X126489404Y-91843489D01*
X126483504Y-91663276D01*
X126479181Y-91429299D01*
X126476201Y-91133922D01*
X126474332Y-90769511D01*
X126474165Y-90694902D01*
X126660786Y-90694902D01*
X126874328Y-90694902D01*
X126978610Y-90699251D01*
X127062748Y-90720841D01*
X127148097Y-90772484D01*
X127256009Y-90866991D01*
X127402516Y-91011815D01*
X127743836Y-91310968D01*
X128094380Y-91523714D01*
X128470888Y-91657243D01*
X128890101Y-91718748D01*
X129062033Y-91724714D01*
X129463271Y-91694607D01*
X129722720Y-91634596D01*
X130082996Y-91484972D01*
X130120346Y-91461753D01*
X132247847Y-91461753D01*
X132251406Y-91656806D01*
X132260951Y-91815586D01*
X132274781Y-91915206D01*
X132283059Y-91935988D01*
X132356594Y-91956971D01*
X132485055Y-91952289D01*
X132634821Y-91927528D01*
X132772270Y-91888276D01*
X132863781Y-91840118D01*
X132864637Y-91839352D01*
X132937228Y-91725081D01*
X132944121Y-91597301D01*
X132884304Y-91495237D01*
X132841744Y-91433858D01*
X132859549Y-91345717D01*
X132870878Y-91319647D01*
X132885985Y-91199668D01*
X132818363Y-91105706D01*
X132725247Y-91065454D01*
X132995067Y-91065454D01*
X133029457Y-91141591D01*
X133109979Y-91275640D01*
X133139172Y-91322064D01*
X133262375Y-91543304D01*
X133320840Y-91718039D01*
X133327699Y-91791565D01*
X133341770Y-91915718D01*
X133387242Y-91961666D01*
X133398124Y-91962554D01*
X133448714Y-91929172D01*
X133468332Y-91820583D01*
X133468995Y-91786491D01*
X133495943Y-91630590D01*
X133568603Y-91469578D01*
X135393503Y-91469578D01*
X135394921Y-91676881D01*
X135401619Y-91807716D01*
X135417265Y-91879501D01*
X135445526Y-91909655D01*
X135487403Y-91915604D01*
X135541540Y-91904464D01*
X135569816Y-91856244D01*
X135580257Y-91748745D01*
X135581303Y-91655811D01*
X135581303Y-91396019D01*
X135800563Y-91644074D01*
X135943543Y-91800529D01*
X136040313Y-91884368D01*
X136099839Y-91891133D01*
X136131088Y-91816368D01*
X136143028Y-91655615D01*
X136144612Y-91483110D01*
X136285555Y-91483110D01*
X136319128Y-91668013D01*
X136408220Y-91821611D01*
X136535384Y-91917352D01*
X136579928Y-91931157D01*
X136716491Y-91941062D01*
X136863021Y-91925749D01*
X136977011Y-91891142D01*
X137005376Y-91871865D01*
X137033927Y-91806887D01*
X136991882Y-91765975D01*
X136902237Y-91765610D01*
X136870769Y-91775386D01*
X136729061Y-91793415D01*
X136595836Y-91754166D01*
X136508803Y-91669772D01*
X136503234Y-91657135D01*
X136472768Y-91480040D01*
X136513450Y-91327952D01*
X136577541Y-91257952D01*
X138655994Y-91257952D01*
X138692763Y-91365465D01*
X138817975Y-91465840D01*
X138870415Y-91494382D01*
X138989735Y-91563544D01*
X139070774Y-91625602D01*
X139083073Y-91640355D01*
X139084163Y-91708719D01*
X139021125Y-91763304D01*
X138923687Y-91787378D01*
X138844304Y-91774742D01*
X138734907Y-91754976D01*
X138684888Y-91805078D01*
X138680010Y-91849739D01*
X138719133Y-91909235D01*
X138818161Y-91935907D01*
X138949578Y-91931209D01*
X139085871Y-91896598D01*
X139090308Y-91894136D01*
X139337311Y-91894136D01*
X139370547Y-91922131D01*
X139445896Y-91910109D01*
X139526816Y-91869344D01*
X139572061Y-91821704D01*
X139649488Y-91749681D01*
X139789287Y-91727804D01*
X139789384Y-91727804D01*
X139912448Y-91742178D01*
X139971172Y-91793898D01*
X139981008Y-91821704D01*
X140043875Y-91900657D01*
X140116278Y-91915604D01*
X140226992Y-91915604D01*
X140058634Y-91551741D01*
X139978359Y-91374751D01*
X139912520Y-91223155D01*
X139872192Y-91122668D01*
X139866543Y-91105715D01*
X139827048Y-91033679D01*
X139770932Y-91041713D01*
X139695442Y-91132631D01*
X139597828Y-91309246D01*
X139531798Y-91448110D01*
X139449604Y-91629560D01*
X139384599Y-91776915D01*
X139345201Y-91870870D01*
X139337311Y-91894136D01*
X139090308Y-91894136D01*
X139199524Y-91833532D01*
X139213113Y-91821522D01*
X139274156Y-91713178D01*
X139244514Y-91594814D01*
X139126184Y-91471491D01*
X139055834Y-91422769D01*
X138940567Y-91344245D01*
X138861958Y-91280118D01*
X138847516Y-91263449D01*
X138851163Y-91205227D01*
X138926870Y-91165593D01*
X139053137Y-91155123D01*
X139066004Y-91155954D01*
X139168813Y-91144228D01*
X139196461Y-91094723D01*
X139169478Y-91047866D01*
X139077121Y-91026523D01*
X138986267Y-91023552D01*
X138840103Y-91034619D01*
X138751360Y-91076912D01*
X138703502Y-91134312D01*
X138655994Y-91257952D01*
X136577541Y-91257952D01*
X136612414Y-91219863D01*
X136756793Y-91174763D01*
X136827104Y-91179046D01*
X136936826Y-91177559D01*
X137006795Y-91144250D01*
X137019467Y-91096095D01*
X136959527Y-91050913D01*
X136758872Y-91016536D01*
X136571263Y-91058741D01*
X136416703Y-91164701D01*
X136315193Y-91321588D01*
X136285555Y-91483110D01*
X136144612Y-91483110D01*
X136144705Y-91473021D01*
X136143307Y-91264772D01*
X136136697Y-91133055D01*
X136121248Y-91060516D01*
X136093336Y-91029801D01*
X136050804Y-91023552D01*
X135997411Y-91034383D01*
X135968890Y-91081436D01*
X135957552Y-91186553D01*
X135955765Y-91293515D01*
X135954626Y-91563478D01*
X135709277Y-91292213D01*
X135589039Y-91164089D01*
X135491460Y-91068960D01*
X135434175Y-91023796D01*
X135428716Y-91022250D01*
X135413580Y-91066382D01*
X135401705Y-91183931D01*
X135394699Y-91354429D01*
X135393503Y-91469578D01*
X133568603Y-91469578D01*
X133581124Y-91441832D01*
X133655602Y-91316990D01*
X133748259Y-91166749D01*
X133793086Y-91078315D01*
X133795145Y-91035908D01*
X133759499Y-91023747D01*
X133749723Y-91023552D01*
X133662390Y-91063844D01*
X133560852Y-91172239D01*
X133533402Y-91211353D01*
X133458961Y-91320711D01*
X133408887Y-91388415D01*
X133398124Y-91399153D01*
X133368319Y-91363791D01*
X133304803Y-91273803D01*
X133262847Y-91211353D01*
X133158285Y-91084576D01*
X133062844Y-91025745D01*
X133044606Y-91023552D01*
X133001789Y-91031388D01*
X132995067Y-91065454D01*
X132725247Y-91065454D01*
X132677224Y-91044695D01*
X132477396Y-91023552D01*
X132247847Y-91023552D01*
X132247847Y-91461753D01*
X130120346Y-91461753D01*
X130426435Y-91271471D01*
X130719906Y-91015748D01*
X130791704Y-90935872D01*
X130994893Y-90694902D01*
X141309215Y-90694902D01*
X141309215Y-87223250D01*
X135123540Y-87210185D01*
X134345117Y-87208663D01*
X133577333Y-87207398D01*
X132827092Y-87206391D01*
X132101298Y-87205639D01*
X131406852Y-87205145D01*
X130750660Y-87204906D01*
X130139623Y-87204923D01*
X129580646Y-87205195D01*
X129080631Y-87205723D01*
X128646482Y-87206506D01*
X128285103Y-87207543D01*
X128003396Y-87208835D01*
X127808265Y-87210381D01*
X127799326Y-87210483D01*
X126660786Y-87223846D01*
X126660786Y-90694902D01*
X126474165Y-90694902D01*
X126473342Y-90328429D01*
X126472998Y-89803041D01*
G37*
X154576452Y-104722600D02*
X154053948Y-104722600D01*
X154576452Y-103252600D02*
X154053948Y-103252600D01*
D14*
X105500000Y-138000000D02*
X105500000Y-131500000D01*
X98500000Y-131500000D02*
X98500000Y-138000000D01*
X93750000Y-131500000D02*
X110250000Y-131500000D01*
X105000000Y-146500000D02*
X105000000Y-138000000D01*
X98500000Y-138000000D02*
X105500000Y-138000000D01*
X110250000Y-131500000D02*
X110250000Y-122000000D01*
X93750000Y-122000000D02*
X93750000Y-131500000D01*
X105000000Y-146500000D02*
X99000000Y-146500000D01*
X110250000Y-122000000D02*
X93750000Y-122000000D01*
X99000000Y-138000000D02*
X99000000Y-146500000D01*
D13*
X161484000Y-100838000D02*
X161484000Y-105978000D01*
X161484000Y-105978000D02*
X164144000Y-105978000D01*
X164144000Y-100838000D02*
X164144000Y-105978000D01*
X161484000Y-98238000D02*
X162814000Y-98238000D01*
X161484000Y-99568000D02*
X161484000Y-98238000D01*
X161484000Y-100838000D02*
X164144000Y-100838000D01*
X115543000Y-109481252D02*
X115543000Y-108958748D01*
X114073000Y-109481252D02*
X114073000Y-108958748D01*
X118664619Y-93075163D02*
X118664619Y-93597667D01*
X120134619Y-93075163D02*
X120134619Y-93597667D01*
X131265000Y-120314564D02*
X131265000Y-119860436D01*
X132735000Y-120314564D02*
X132735000Y-119860436D01*
X161484000Y-111658400D02*
X161484000Y-114258400D01*
X161484000Y-111658400D02*
X164144000Y-111658400D01*
X161484000Y-110388400D02*
X161484000Y-109058400D01*
X164144000Y-111658400D02*
X164144000Y-114258400D01*
X161484000Y-109058400D02*
X162814000Y-109058400D01*
X161484000Y-114258400D02*
X164144000Y-114258400D01*
D15*
X122630619Y-91368415D02*
X118830619Y-91368415D01*
X118830619Y-91368415D02*
X118830619Y-88568415D01*
X118830619Y-88568415D02*
X122630619Y-88568415D01*
X122630619Y-88568415D02*
X122630619Y-91368415D01*
D13*
X144426000Y-108685064D02*
X144426000Y-108230936D01*
X145896000Y-108685064D02*
X145896000Y-108230936D01*
X144823548Y-93905400D02*
X145346052Y-93905400D01*
X144823548Y-95375400D02*
X145346052Y-95375400D01*
X123571000Y-107406000D02*
X124221000Y-107406000D01*
X123571000Y-110526000D02*
X122921000Y-110526000D01*
X123571000Y-107406000D02*
X121896000Y-107406000D01*
X123571000Y-110526000D02*
X124221000Y-110526000D01*
X103020000Y-117720000D02*
X90280000Y-117720000D01*
X103400000Y-107100000D02*
X103400000Y-110100000D01*
X103020000Y-107480000D02*
X90280000Y-107480000D01*
X100400000Y-107100000D02*
X103400000Y-107100000D01*
X103020000Y-107480000D02*
X103020000Y-117720000D01*
X103020000Y-107480000D02*
X90280000Y-107480000D01*
X90280000Y-107480000D02*
X90280000Y-117720000D01*
X140816000Y-95530936D02*
X140816000Y-95985064D01*
X139346000Y-95530936D02*
X139346000Y-95985064D01*
X103759600Y-92205000D02*
X106559600Y-92205000D01*
X113359600Y-92205000D02*
X113359600Y-114805000D01*
X103759600Y-92205000D02*
X103759600Y-114805000D01*
X110559600Y-114805000D02*
X113359600Y-114805000D01*
X103759600Y-114805000D02*
X106559600Y-114805000D01*
X110559600Y-92205000D02*
X113359600Y-92205000D01*
X116355181Y-93075163D02*
X116355181Y-93597667D01*
X117825181Y-93075163D02*
X117825181Y-93597667D01*
X151321600Y-104176200D02*
X151321600Y-104651200D01*
X144101600Y-97906200D02*
X144101600Y-97431200D01*
X144101600Y-104651200D02*
X144576600Y-104651200D01*
X144101600Y-97431200D02*
X144576600Y-97431200D01*
X151321600Y-104651200D02*
X150846600Y-104651200D01*
X151321600Y-97906200D02*
X151321600Y-97431200D01*
X144101600Y-104176200D02*
X144101600Y-104651200D01*
X116232000Y-108992936D02*
X116232000Y-109447064D01*
X117702000Y-108992936D02*
X117702000Y-109447064D01*
X96265000Y-119860436D02*
X96265000Y-120314564D01*
X97735000Y-119860436D02*
X97735000Y-120314564D01*
X115924064Y-113384000D02*
X115469936Y-113384000D01*
X115924064Y-111914000D02*
X115469936Y-111914000D01*
X125958217Y-97296034D02*
X126412345Y-97296034D01*
X125958217Y-95826034D02*
X126412345Y-95826034D01*
X124737181Y-99667086D02*
X124737181Y-99144582D01*
X126207181Y-99667086D02*
X126207181Y-99144582D01*
X122603581Y-99632898D02*
X122603581Y-99178770D01*
X124073581Y-99632898D02*
X124073581Y-99178770D01*
X154576452Y-99036200D02*
X154053948Y-99036200D01*
X154576452Y-100506200D02*
X154053948Y-100506200D01*
X143127400Y-102506452D02*
X143127400Y-101983948D01*
X141657400Y-102506452D02*
X141657400Y-101983948D01*
X121265000Y-119860436D02*
X121265000Y-120314564D01*
X122735000Y-119860436D02*
X122735000Y-120314564D01*
X124134619Y-95429415D02*
X124134619Y-93629415D01*
X121014619Y-95429415D02*
X121014619Y-94629415D01*
X124134619Y-95429415D02*
X124134619Y-96229415D01*
X121014619Y-95429415D02*
X121014619Y-96229415D01*
X157126000Y-111767252D02*
X157126000Y-111244748D01*
X158596000Y-111767252D02*
X158596000Y-111244748D01*
%LPC*%
D16*
X86250000Y-91500000D03*
X167750000Y-91500000D03*
X167750000Y-126000000D03*
X86250000Y-126000000D03*
D17*
X96900000Y-105100000D03*
X96900000Y-100100000D03*
D18*
X96900000Y-95100000D03*
D19*
X157000000Y-119175000D03*
X157000000Y-121000000D03*
D20*
X138049000Y-96708000D03*
X138049000Y-94808000D03*
D21*
X147000000Y-121000000D03*
X147000000Y-119175000D03*
X126873000Y-109878500D03*
X126873000Y-108053500D03*
D22*
X114874000Y-105100000D03*
X116774000Y-105100000D03*
D23*
X153566500Y-113030000D03*
X151741500Y-113030000D03*
D24*
X138160000Y-102713000D03*
X138160000Y-98963000D03*
X136160000Y-98963000D03*
X136160000Y-102713000D03*
D25*
X135535000Y-100838000D03*
X138785000Y-100838000D03*
D26*
X117090181Y-96567422D03*
X117090181Y-98467422D03*
D19*
X107000000Y-119178700D03*
X107000000Y-121003700D03*
D27*
X157000000Y-128000000D03*
X152000000Y-128000000D03*
X147000000Y-128000000D03*
D21*
X127605781Y-100318334D03*
X127605781Y-98493334D03*
D28*
X151227000Y-107178600D03*
X147477000Y-107178600D03*
X147477000Y-109178600D03*
X151227000Y-109178600D03*
D29*
X149352000Y-109803600D03*
X149352000Y-106553600D03*
D26*
X119401581Y-96572422D03*
X119401581Y-98472422D03*
D30*
X125270881Y-94275034D03*
X127095881Y-94275034D03*
D27*
X132000000Y-128000000D03*
X127000000Y-128000000D03*
X122000000Y-128000000D03*
D20*
X147878800Y-96149200D03*
X147878800Y-94249200D03*
D22*
X153365200Y-103987600D03*
X155265200Y-103987600D03*
D27*
X107000000Y-128000000D03*
X102000000Y-128000000D03*
X97000000Y-128000000D03*
D31*
X162814000Y-104648000D03*
X162814000Y-102108000D03*
D32*
X162814000Y-99568000D03*
D26*
X114808000Y-108270000D03*
X114808000Y-110170000D03*
D20*
X119399619Y-94286415D03*
X119399619Y-92386415D03*
D19*
X132000000Y-119175000D03*
X132000000Y-121000000D03*
D31*
X162814000Y-112928400D03*
D32*
X162814000Y-110388400D03*
D33*
X119780619Y-89968415D03*
X121680619Y-89968415D03*
D19*
X145161000Y-107545500D03*
X145161000Y-109370500D03*
D34*
X146034800Y-94640400D03*
X144134800Y-94640400D03*
D35*
X124508500Y-108966000D03*
X122633500Y-109916000D03*
X122633500Y-108016000D03*
D17*
X96900000Y-115100000D03*
D18*
X96900000Y-110100000D03*
D21*
X140081000Y-96670500D03*
X140081000Y-94845500D03*
D17*
X108559600Y-114805000D03*
X108559600Y-92205000D03*
D20*
X117090181Y-94286415D03*
X117090181Y-92386415D03*
D36*
X147711600Y-101041200D03*
D37*
X151161600Y-98291200D03*
X151161600Y-98791200D03*
X151161600Y-99291200D03*
X151161600Y-99791200D03*
X151161600Y-100291200D03*
X151161600Y-100791200D03*
X151161600Y-101291200D03*
X151161600Y-101791200D03*
X151161600Y-102291200D03*
X151161600Y-102791200D03*
X151161600Y-103291200D03*
X151161600Y-103791200D03*
D38*
X150461600Y-104491200D03*
X149961600Y-104491200D03*
X149461600Y-104491200D03*
X148961600Y-104491200D03*
X148461600Y-104491200D03*
X147961600Y-104491200D03*
X147461600Y-104491200D03*
X146961600Y-104491200D03*
X146461600Y-104491200D03*
X145961600Y-104491200D03*
X145461600Y-104491200D03*
X144961600Y-104491200D03*
D37*
X144261600Y-103791200D03*
X144261600Y-103291200D03*
X144261600Y-102791200D03*
X144261600Y-102291200D03*
X144261600Y-101791200D03*
X144261600Y-101291200D03*
X144261600Y-100791200D03*
X144261600Y-100291200D03*
X144261600Y-99791200D03*
X144261600Y-99291200D03*
X144261600Y-98791200D03*
X144261600Y-98291200D03*
D38*
X144961600Y-97591200D03*
X145461600Y-97591200D03*
X145961600Y-97591200D03*
X146461600Y-97591200D03*
X146961600Y-97591200D03*
X147461600Y-97591200D03*
X147961600Y-97591200D03*
X148461600Y-97591200D03*
X148961600Y-97591200D03*
X149461600Y-97591200D03*
D39*
X149961600Y-97591200D03*
D38*
X150461600Y-97591200D03*
D21*
X116967000Y-110132500D03*
X116967000Y-108307500D03*
X97000000Y-121000000D03*
X97000000Y-119175000D03*
D30*
X114784500Y-112649000D03*
X116609500Y-112649000D03*
D23*
X127097781Y-96561034D03*
X125272781Y-96561034D03*
D26*
X125472181Y-98455834D03*
X125472181Y-100355834D03*
D19*
X123338581Y-98493334D03*
X123338581Y-100318334D03*
D22*
X153365200Y-99771200D03*
X155265200Y-99771200D03*
D26*
X142392400Y-101295200D03*
X142392400Y-103195200D03*
D21*
X122000000Y-121000000D03*
X122000000Y-119175000D03*
D40*
X123524619Y-96566915D03*
X122574619Y-96566915D03*
X121624619Y-96566915D03*
X121624619Y-94291915D03*
X122574619Y-94291915D03*
X123524619Y-94291915D03*
D26*
X157861000Y-110556000D03*
X157861000Y-112456000D03*
M02*
