M48
; DRILL file {KiCad (6.0.1-0)} date 2022 February 05, Saturday 10:05:22
; FORMAT={-:-/ absolute / metric / decimal}
; #@! TF.CreationDate,2022-02-05T10:05:22+01:00
; #@! TF.GenerationSoftware,Kicad,Pcbnew,(6.0.1-0)
; #@! TF.FileFunction,Plated,1,2,PTH
FMAT,2
METRIC
; #@! TA.AperFunction,Plated,PTH,ViaDrill
T1C0.250
; #@! TA.AperFunction,Plated,PTH,ComponentDrill
T2C0.300
; #@! TA.AperFunction,Plated,PTH,ViaDrill
T3C0.400
; #@! TA.AperFunction,Plated,PTH,ViaDrill
T4C0.600
; #@! TA.AperFunction,Plated,PTH,ComponentDrill
T5C1.000
; #@! TA.AperFunction,Plated,PTH,ComponentDrill
T6C1.320
; #@! TA.AperFunction,Plated,PTH,ComponentDrill
T7C1.500
%
G90
G05
T1
X145.709Y-102.084
X145.71Y-99.989
X145.712Y-101.041
X146.651Y-99.038
X146.659Y-103.04
X146.661Y-99.991
X146.661Y-102.091
X146.662Y-101.041
X147.712Y-99.041
X147.712Y-99.991
X147.712Y-101.041
X147.712Y-102.091
X147.712Y-103.041
X148.757Y-99.039
X148.762Y-99.991
X148.762Y-101.041
X148.762Y-102.091
X148.762Y-103.041
X149.707Y-99.989
X149.708Y-102.09
X149.712Y-101.041
T2
X147.862Y-92.051
T3
X82.296Y-87.376
X82.296Y-91.44
X82.296Y-96.52
X82.296Y-101.6
X82.296Y-106.68
X82.296Y-112.268
X82.296Y-127.0
X82.296Y-130.048
X82.804Y-116.84
X82.804Y-121.92
X86.36Y-87.376
X86.36Y-130.048
X86.868Y-120.015
X87.757Y-112.522
X87.884Y-102.489
X88.138Y-97.79
X90.17Y-122.047
X91.313Y-93.218
X91.44Y-87.376
X91.44Y-130.048
X93.091Y-102.997
X93.091Y-106.807
X94.107Y-113.157
X94.107Y-116.967
X94.869Y-100.838
X95.504Y-118.872
X95.631Y-91.059
X95.631Y-102.489
X95.885Y-122.555
X95.885Y-126.492
X96.52Y-87.376
X96.52Y-130.048
X98.044Y-126.492
X98.171Y-122.555
X98.425Y-98.552
X98.425Y-120.396
X98.933Y-102.489
X100.0Y-119.177
X100.203Y-112.014
X101.092Y-108.331
X101.219Y-122.555
X101.219Y-126.365
X101.6Y-87.376
X101.6Y-130.048
X101.981Y-93.472
X102.489Y-102.489
X102.489Y-114.808
X102.743Y-126.365
X102.87Y-122.555
X103.632Y-117.602
X104.902Y-108.077
X105.537Y-112.014
X105.537Y-120.523
X105.918Y-90.043
X105.918Y-93.345
X105.918Y-96.901
X105.918Y-99.822
X105.918Y-102.489
X105.918Y-126.492
X106.045Y-122.555
X106.553Y-107.442
X106.68Y-87.376
X106.68Y-130.048
X107.442Y-110.617
X108.077Y-122.555
X108.077Y-126.492
X108.458Y-109.22
X109.474Y-100.076
X109.474Y-102.489
X110.363Y-110.998
X110.49Y-107.442
X110.871Y-109.22
X111.125Y-117.094
X111.252Y-89.916
X111.252Y-93.345
X111.252Y-96.901
X111.252Y-114.3
X111.76Y-87.376
X111.76Y-130.048
X112.776Y-113.411
X112.903Y-100.076
X112.903Y-102.489
X112.903Y-109.728
X112.903Y-117.729
X113.665Y-107.442
X113.665Y-111.887
X114.046Y-89.154
X114.3Y-124.968
X114.554Y-111.252
X115.824Y-111.252
X116.586Y-101.219
X116.735Y-91.045
X116.836Y-95.414
X116.84Y-87.376
X116.84Y-100.076
X116.84Y-107.061
X116.84Y-130.048
X117.729Y-111.252
X117.856Y-104.013
X117.856Y-114.681
X118.132Y-90.156
X118.259Y-100.316
X118.638Y-95.429
X119.507Y-101.346
X119.825Y-95.385
X120.396Y-104.013
X120.396Y-106.553
X120.396Y-117.856
X120.523Y-111.252
X120.523Y-114.173
X120.67Y-96.953
X120.7Y-92.061
X120.904Y-122.555
X120.904Y-126.492
X121.285Y-110.363
X121.412Y-87.376
X121.412Y-130.048
X121.434Y-98.538
X121.94Y-100.697
X122.341Y-95.36
X122.549Y-92.04
X122.555Y-105.283
X122.627Y-93.03
X123.063Y-122.555
X123.063Y-126.492
X123.21Y-91.11
X123.339Y-101.891
X123.596Y-119.177
X124.079Y-88.138
X124.079Y-117.602
X124.456Y-95.443
X124.587Y-115.062
X124.714Y-120.396
X124.968Y-111.125
X125.73Y-87.376
X125.73Y-89.916
X125.73Y-103.886
X125.73Y-106.68
X125.857Y-108.966
X126.111Y-92.71
X126.111Y-122.555
X126.111Y-126.365
X126.183Y-95.393
X127.0Y-130.048
X127.127Y-117.475
X127.254Y-101.6
X127.762Y-126.365
X127.889Y-122.555
X128.143Y-112.903
X129.032Y-117.856
X129.083Y-94.437
X129.286Y-120.396
X129.54Y-92.837
X129.667Y-98.425
X129.667Y-115.951
X129.794Y-95.504
X130.302Y-103.886
X130.429Y-106.68
X130.937Y-122.555
X130.937Y-126.492
X131.445Y-109.093
X131.445Y-110.617
X132.08Y-130.048
X132.334Y-98.171
X133.096Y-122.555
X133.096Y-126.492
X133.35Y-92.837
X133.604Y-113.03
X133.858Y-117.856
X133.985Y-103.886
X133.985Y-106.68
X134.239Y-115.951
X136.144Y-110.744
X136.525Y-96.774
X136.525Y-108.966
X137.033Y-122.047
X137.16Y-92.837
X137.16Y-98.425
X137.16Y-100.838
X137.16Y-103.251
X137.16Y-106.68
X137.16Y-130.048
X137.922Y-111.379
X138.684Y-117.856
X138.938Y-104.013
X138.938Y-106.553
X138.938Y-112.141
X138.938Y-114.681
X139.065Y-97.79
X139.446Y-125.095
X139.573Y-101.219
X140.462Y-98.679
X140.716Y-116.84
X141.351Y-97.155
X141.351Y-115.189
X141.478Y-94.361
X141.605Y-92.837
X141.732Y-110.236
X141.732Y-113.03
X141.732Y-120.65
X142.113Y-104.394
X142.113Y-106.045
X142.24Y-130.048
X142.38Y-100.33
X142.494Y-94.996
X142.875Y-113.03
X142.875Y-114.173
X143.129Y-104.223
X143.383Y-95.631
X143.51Y-105.156
X143.764Y-107.061
X143.764Y-109.347
X143.764Y-111.887
X144.145Y-97.155
X145.161Y-106.299
X145.161Y-110.744
X145.184Y-94.361
X145.542Y-117.856
X145.923Y-116.078
X145.923Y-122.555
X145.923Y-126.492
X146.304Y-105.537
X146.305Y-96.041
X146.431Y-92.964
X146.812Y-111.76
X146.812Y-114.173
X147.32Y-130.048
X147.879Y-92.964
X148.082Y-122.555
X148.082Y-126.492
X148.463Y-120.523
X148.895Y-119.177
X148.971Y-92.964
X148.971Y-105.664
X149.098Y-94.488
X149.153Y-96.012
X149.352Y-108.077
X150.114Y-117.983
X150.622Y-111.887
X151.13Y-93.116
X151.13Y-94.285
X151.13Y-95.301
X151.13Y-96.469
X151.13Y-118.999
X151.13Y-122.555
X151.13Y-126.365
X151.257Y-116.332
X151.384Y-104.648
X152.248Y-103.022
X152.298Y-104.648
X152.4Y-109.601
X152.4Y-130.048
X152.527Y-114.3
X152.654Y-93.116
X152.781Y-97.155
X152.781Y-110.744
X152.781Y-126.365
X152.908Y-122.555
X153.035Y-118.364
X153.365Y-98.146
X153.365Y-105.664
X153.67Y-111.506
X153.797Y-115.316
X154.178Y-93.116
X154.4Y-107.6
X154.432Y-101.092
X154.813Y-113.919
X154.94Y-95.758
X155.575Y-119.126
X155.702Y-93.116
X155.829Y-122.555
X155.956Y-126.492
X156.464Y-103.124
X156.464Y-112.014
X156.464Y-113.538
X157.226Y-93.116
X157.48Y-99.441
X157.48Y-130.048
X157.988Y-105.283
X158.115Y-122.555
X158.115Y-126.492
X158.14Y-96.723
X158.496Y-118.618
X158.623Y-109.22
X158.75Y-93.116
X158.75Y-103.124
X158.877Y-100.838
X159.004Y-116.713
X159.385Y-112.014
X159.766Y-107.823
X160.274Y-93.116
X160.68Y-102.565
X160.782Y-95.25
X161.036Y-105.156
X161.036Y-111.887
X161.036Y-113.538
X161.747Y-103.378
X161.849Y-93.116
X162.052Y-130.048
X162.814Y-114.681
X162.941Y-122.682
X163.195Y-118.11
X163.83Y-103.378
X163.83Y-106.807
X164.465Y-92.71
X164.846Y-112.903
X165.1Y-95.377
X166.116Y-104.521
X167.132Y-117.856
X167.259Y-108.077
X167.64Y-130.048
X167.894Y-114.173
X168.148Y-97.409
X168.148Y-100.584
X169.672Y-94.488
X171.704Y-96.52
X171.704Y-101.6
X171.704Y-106.68
X171.704Y-111.76
X171.704Y-116.84
X171.704Y-121.92
X171.704Y-127.0
X171.704Y-130.048
X171.831Y-92.837
T4
X115.16Y-92.315
X115.16Y-93.585
X115.16Y-94.855
T5
X162.814Y-99.568
X162.814Y-102.108
X162.814Y-104.648
X162.814Y-110.388
X162.814Y-112.928
T6
X97.0Y-128.0
X102.0Y-128.0
X107.0Y-128.0
X122.0Y-128.0
X127.0Y-128.0
X132.0Y-128.0
X147.0Y-128.0
X152.0Y-128.0
X157.0Y-128.0
T7
X96.9Y-95.1
X96.9Y-100.1
X96.9Y-105.1
X96.9Y-110.1
X96.9Y-115.1
X108.56Y-92.205
X108.56Y-114.805
T0
M30
