G04 #@! TF.GenerationSoftware,KiCad,Pcbnew,(6.0.1-0)*
G04 #@! TF.CreationDate,2022-02-05T10:05:16+01:00*
G04 #@! TF.ProjectId,esp32-wled-adv-pcb,65737033-322d-4776-9c65-642d6164762d,rev?*
G04 #@! TF.SameCoordinates,Original*
G04 #@! TF.FileFunction,Paste,Top*
G04 #@! TF.FilePolarity,Positive*
%FSLAX46Y46*%
G04 Gerber Fmt 4.6, Leading zero omitted, Abs format (unit mm)*
G04 Created by KiCad (PCBNEW (6.0.1-0)) date 2022-02-05 10:05:16*
%MOMM*%
%LPD*%
G01*
G04 APERTURE LIST*
G04 Aperture macros list*
%AMRoundRect*
0 Rectangle with rounded corners*
0 $1 Rounding radius*
0 $2 $3 $4 $5 $6 $7 $8 $9 X,Y pos of 4 corners*
0 Add a 4 corners polygon primitive as box body*
4,1,4,$2,$3,$4,$5,$6,$7,$8,$9,$2,$3,0*
0 Add four circle primitives for the rounded corners*
1,1,$1+$1,$2,$3*
1,1,$1+$1,$4,$5*
1,1,$1+$1,$6,$7*
1,1,$1+$1,$8,$9*
0 Add four rect primitives between the rounded corners*
20,1,$1+$1,$2,$3,$4,$5,0*
20,1,$1+$1,$4,$5,$6,$7,0*
20,1,$1+$1,$6,$7,$8,$9,0*
20,1,$1+$1,$8,$9,$2,$3,0*%
G04 Aperture macros list end*
%ADD10RoundRect,0.250000X0.450000X-0.262500X0.450000X0.262500X-0.450000X0.262500X-0.450000X-0.262500X0*%
%ADD11RoundRect,0.250000X-0.475000X0.250000X-0.475000X-0.250000X0.475000X-0.250000X0.475000X0.250000X0*%
%ADD12RoundRect,0.250000X-0.450000X0.262500X-0.450000X-0.262500X0.450000X-0.262500X0.450000X0.262500X0*%
%ADD13RoundRect,0.250000X0.250000X0.475000X-0.250000X0.475000X-0.250000X-0.475000X0.250000X-0.475000X0*%
%ADD14RoundRect,0.250000X-0.262500X-0.450000X0.262500X-0.450000X0.262500X0.450000X-0.262500X0.450000X0*%
%ADD15R,0.250000X0.700000*%
%ADD16R,0.700000X1.250000*%
%ADD17RoundRect,0.250000X0.475000X-0.250000X0.475000X0.250000X-0.475000X0.250000X-0.475000X-0.250000X0*%
%ADD18R,0.700000X0.250000*%
%ADD19R,1.250000X0.700000*%
%ADD20RoundRect,0.250000X0.262500X0.450000X-0.262500X0.450000X-0.262500X-0.450000X0.262500X-0.450000X0*%
%ADD21RoundRect,0.225000X0.225000X0.875000X-0.225000X0.875000X-0.225000X-0.875000X0.225000X-0.875000X0*%
%ADD22RoundRect,0.250000X-0.250000X-0.475000X0.250000X-0.475000X0.250000X0.475000X-0.250000X0.475000X0*%
%ADD23RoundRect,0.150000X-0.587500X-0.150000X0.587500X-0.150000X0.587500X0.150000X-0.587500X0.150000X0*%
%ADD24RoundRect,0.250000X-0.285000X0.285000X-0.285000X-0.285000X0.285000X-0.285000X0.285000X0.285000X0*%
%ADD25RoundRect,0.062500X-0.062500X0.337500X-0.062500X-0.337500X0.062500X-0.337500X0.062500X0.337500X0*%
%ADD26RoundRect,0.100000X-0.100000X0.300000X-0.100000X-0.300000X0.100000X-0.300000X0.100000X0.300000X0*%
%ADD27RoundRect,0.062500X-0.337500X0.062500X-0.337500X-0.062500X0.337500X-0.062500X0.337500X0.062500X0*%
%ADD28RoundRect,0.150000X-0.150000X0.512500X-0.150000X-0.512500X0.150000X-0.512500X0.150000X0.512500X0*%
G04 APERTURE END LIST*
D10*
X157000000Y-121000000D03*
X157000000Y-119175000D03*
D11*
X138049000Y-94808000D03*
X138049000Y-96708000D03*
D12*
X147000000Y-119175000D03*
X147000000Y-121000000D03*
X126873000Y-108053500D03*
X126873000Y-109878500D03*
D13*
X116774000Y-105100000D03*
X114874000Y-105100000D03*
D14*
X151741500Y-113030000D03*
X153566500Y-113030000D03*
D15*
X138785000Y-100838000D03*
X135535000Y-100838000D03*
D16*
X136160000Y-102713000D03*
X136160000Y-98963000D03*
X138160000Y-98963000D03*
X138160000Y-102713000D03*
D17*
X117090181Y-98467422D03*
X117090181Y-96567422D03*
D10*
X107000000Y-121003700D03*
X107000000Y-119178700D03*
D12*
X127605781Y-98493334D03*
X127605781Y-100318334D03*
D18*
X149352000Y-106553600D03*
X149352000Y-109803600D03*
D19*
X151227000Y-109178600D03*
X147477000Y-109178600D03*
X147477000Y-107178600D03*
X151227000Y-107178600D03*
D17*
X119401581Y-98472422D03*
X119401581Y-96572422D03*
D20*
X127095881Y-94275034D03*
X125270881Y-94275034D03*
D11*
X147878800Y-94249200D03*
X147878800Y-96149200D03*
D13*
X155265200Y-103987600D03*
X153365200Y-103987600D03*
D17*
X114808000Y-110170000D03*
X114808000Y-108270000D03*
D11*
X119399619Y-92386415D03*
X119399619Y-94286415D03*
D10*
X132000000Y-121000000D03*
X132000000Y-119175000D03*
D21*
X121680619Y-89968415D03*
X119780619Y-89968415D03*
D10*
X145161000Y-109370500D03*
X145161000Y-107545500D03*
D22*
X144134800Y-94640400D03*
X146034800Y-94640400D03*
D23*
X122633500Y-108016000D03*
X122633500Y-109916000D03*
X124508500Y-108966000D03*
D12*
X140081000Y-94845500D03*
X140081000Y-96670500D03*
D11*
X117090181Y-92386415D03*
X117090181Y-94286415D03*
D24*
X147051600Y-103021200D03*
X149691600Y-99061200D03*
X145731600Y-103021200D03*
X145731600Y-100381200D03*
X148371600Y-100381200D03*
X147051600Y-101701200D03*
X147051600Y-100381200D03*
X149691600Y-100381200D03*
X149691600Y-101701200D03*
X148371600Y-103021200D03*
X145731600Y-101701200D03*
X148371600Y-101701200D03*
X149691600Y-103021200D03*
X145731600Y-99061200D03*
X147051600Y-99061200D03*
X148371600Y-99061200D03*
D25*
X150461600Y-97591200D03*
D26*
X149961600Y-97591200D03*
D25*
X149461600Y-97591200D03*
X148961600Y-97591200D03*
X148461600Y-97591200D03*
X147961600Y-97591200D03*
X147461600Y-97591200D03*
X146961600Y-97591200D03*
X146461600Y-97591200D03*
X145961600Y-97591200D03*
X145461600Y-97591200D03*
X144961600Y-97591200D03*
D27*
X144261600Y-98291200D03*
X144261600Y-98791200D03*
X144261600Y-99291200D03*
X144261600Y-99791200D03*
X144261600Y-100291200D03*
X144261600Y-100791200D03*
X144261600Y-101291200D03*
X144261600Y-101791200D03*
X144261600Y-102291200D03*
X144261600Y-102791200D03*
X144261600Y-103291200D03*
X144261600Y-103791200D03*
D25*
X144961600Y-104491200D03*
X145461600Y-104491200D03*
X145961600Y-104491200D03*
X146461600Y-104491200D03*
X146961600Y-104491200D03*
X147461600Y-104491200D03*
X147961600Y-104491200D03*
X148461600Y-104491200D03*
X148961600Y-104491200D03*
X149461600Y-104491200D03*
X149961600Y-104491200D03*
X150461600Y-104491200D03*
D27*
X151161600Y-103791200D03*
X151161600Y-103291200D03*
X151161600Y-102791200D03*
X151161600Y-102291200D03*
X151161600Y-101791200D03*
X151161600Y-101291200D03*
X151161600Y-100791200D03*
X151161600Y-100291200D03*
X151161600Y-99791200D03*
X151161600Y-99291200D03*
X151161600Y-98791200D03*
X151161600Y-98291200D03*
D12*
X116967000Y-108307500D03*
X116967000Y-110132500D03*
X97000000Y-119175000D03*
X97000000Y-121000000D03*
D20*
X116609500Y-112649000D03*
X114784500Y-112649000D03*
D14*
X125272781Y-96561034D03*
X127097781Y-96561034D03*
D17*
X125472181Y-100355834D03*
X125472181Y-98455834D03*
D10*
X123338581Y-100318334D03*
X123338581Y-98493334D03*
D13*
X155265200Y-99771200D03*
X153365200Y-99771200D03*
D17*
X142392400Y-103195200D03*
X142392400Y-101295200D03*
D12*
X122000000Y-119175000D03*
X122000000Y-121000000D03*
D28*
X123524619Y-94291915D03*
X122574619Y-94291915D03*
X121624619Y-94291915D03*
X121624619Y-96566915D03*
X122574619Y-96566915D03*
X123524619Y-96566915D03*
D17*
X157861000Y-112456000D03*
X157861000Y-110556000D03*
M02*
