G04 #@! TF.GenerationSoftware,KiCad,Pcbnew,(6.0.1)*
G04 #@! TF.CreationDate,2022-02-04T15:04:59+01:00*
G04 #@! TF.ProjectId,esp32-wled-adv-pcb,65737033-322d-4776-9c65-642d6164762d,rev?*
G04 #@! TF.SameCoordinates,Original*
G04 #@! TF.FileFunction,Copper,L2,Bot*
G04 #@! TF.FilePolarity,Positive*
%FSLAX46Y46*%
G04 Gerber Fmt 4.6, Leading zero omitted, Abs format (unit mm)*
G04 Created by KiCad (PCBNEW (6.0.1)) date 2022-02-04 15:04:59*
%MOMM*%
%LPD*%
G01*
G04 APERTURE LIST*
G04 #@! TA.AperFunction,ComponentPad*
%ADD10C,3.000000*%
G04 #@! TD*
G04 #@! TA.AperFunction,ComponentPad*
%ADD11R,3.000000X3.000000*%
G04 #@! TD*
G04 #@! TA.AperFunction,ComponentPad*
%ADD12C,2.300000*%
G04 #@! TD*
G04 #@! TA.AperFunction,ComponentPad*
%ADD13O,1.700000X1.700000*%
G04 #@! TD*
G04 #@! TA.AperFunction,ComponentPad*
%ADD14R,1.700000X1.700000*%
G04 #@! TD*
G04 #@! TA.AperFunction,ComponentPad*
%ADD15R,0.900000X0.500000*%
G04 #@! TD*
G04 #@! TA.AperFunction,ViaPad*
%ADD16C,0.800000*%
G04 #@! TD*
G04 #@! TA.AperFunction,ViaPad*
%ADD17C,0.500000*%
G04 #@! TD*
G04 #@! TA.AperFunction,ViaPad*
%ADD18C,1.200000*%
G04 #@! TD*
G04 #@! TA.AperFunction,Conductor*
%ADD19C,0.750000*%
G04 #@! TD*
G04 #@! TA.AperFunction,Conductor*
%ADD20C,1.250000*%
G04 #@! TD*
G04 #@! TA.AperFunction,Conductor*
%ADD21C,0.250000*%
G04 #@! TD*
G04 APERTURE END LIST*
D10*
X96900000Y-105100000D03*
X96900000Y-100100000D03*
D11*
X96900000Y-95100000D03*
D12*
X157000000Y-128000000D03*
X152000000Y-128000000D03*
X147000000Y-128000000D03*
X132000000Y-128000000D03*
X127000000Y-128000000D03*
X122000000Y-128000000D03*
X107000000Y-128000000D03*
X102000000Y-128000000D03*
X97000000Y-128000000D03*
D13*
X162814000Y-104648000D03*
X162814000Y-102108000D03*
D14*
X162814000Y-99568000D03*
D15*
X147861600Y-92050800D03*
D13*
X162814000Y-112928400D03*
D14*
X162814000Y-110388400D03*
D10*
X96900000Y-115100000D03*
D11*
X96900000Y-110100000D03*
D10*
X108559600Y-114805000D03*
X108559600Y-92205000D03*
D16*
X143383000Y-95631000D03*
X158623000Y-109220000D03*
X158496000Y-118618000D03*
X155575000Y-119126000D03*
X105537000Y-120523000D03*
X116840000Y-107061000D03*
X117856000Y-104013000D03*
X129794000Y-95504000D03*
X129667000Y-98425000D03*
X127254000Y-101600000D03*
X124968000Y-111125000D03*
X140462000Y-98679000D03*
X138938000Y-104013000D03*
X139573000Y-101219000D03*
X136525000Y-96774000D03*
X141605000Y-92837000D03*
X137160000Y-92837000D03*
X129540000Y-92837000D03*
X125730000Y-89916000D03*
X126111000Y-92710000D03*
X125730000Y-87376000D03*
X169672000Y-94488000D03*
X171831000Y-92837000D03*
X108077000Y-126492000D03*
X151130000Y-118999000D03*
D17*
X146658755Y-103040360D03*
D16*
X171704000Y-116840000D03*
X154432000Y-107442000D03*
X82296000Y-130048000D03*
X127762000Y-126365000D03*
X108077000Y-122555000D03*
X153670000Y-111506000D03*
X124456181Y-95443434D03*
X121412000Y-130048000D03*
X154178000Y-93116400D03*
X105918000Y-96901000D03*
D17*
X145710225Y-99989484D03*
D16*
X140716000Y-116840000D03*
D17*
X147711600Y-99991200D03*
D16*
X124587000Y-115062000D03*
X95631000Y-102489000D03*
X133096000Y-122555000D03*
X142113000Y-106045000D03*
X154940000Y-95758000D03*
X86868000Y-120015000D03*
X130429000Y-106680000D03*
X158877000Y-100838000D03*
X151257000Y-116332000D03*
X121939619Y-100697422D03*
X147320000Y-130048000D03*
X137160000Y-130048000D03*
X125857000Y-108966000D03*
X87884000Y-102489000D03*
X82296000Y-87376000D03*
X98425000Y-120396000D03*
X163830000Y-103378000D03*
X111252000Y-114300000D03*
X104902000Y-108077000D03*
X116586000Y-101219000D03*
X129286000Y-120396000D03*
X120700119Y-92061422D03*
X120396000Y-106553000D03*
X120669619Y-96953415D03*
X120904000Y-126492000D03*
X148082000Y-122555000D03*
X101600000Y-130048000D03*
X111760000Y-87376000D03*
D17*
X148761600Y-101041200D03*
D16*
X133350000Y-92837000D03*
X113665000Y-111887000D03*
X171704000Y-111760000D03*
X101092000Y-108331000D03*
X167259000Y-108077000D03*
X116840000Y-87376000D03*
X141351000Y-115189000D03*
X82296000Y-101600000D03*
X137160000Y-100838000D03*
X95504000Y-118872000D03*
X90170000Y-122047000D03*
X105537000Y-112014000D03*
X95631000Y-91059000D03*
X136144000Y-110744000D03*
X165100000Y-95377000D03*
X107442000Y-110617000D03*
X152527000Y-114300000D03*
X133858000Y-117856000D03*
X139446000Y-125095000D03*
X171704000Y-101600000D03*
X137160000Y-106680000D03*
X141732000Y-113030000D03*
X121285000Y-110363000D03*
X116840000Y-100076000D03*
X113665000Y-107442000D03*
X116840000Y-130048000D03*
X131445000Y-110617000D03*
X125730000Y-106680000D03*
X138938000Y-114681000D03*
X143510000Y-105156000D03*
X167132000Y-117856000D03*
X126111000Y-126365000D03*
X171704000Y-121920000D03*
X158140400Y-96723200D03*
X117856000Y-114681000D03*
X101219000Y-122555000D03*
X88138000Y-97790000D03*
X162941000Y-122682000D03*
X157226000Y-93116400D03*
X132080000Y-130048000D03*
X137033000Y-122047000D03*
D17*
X148756532Y-99039484D03*
D16*
X86360000Y-130048000D03*
X127889000Y-122555000D03*
X168148000Y-97409000D03*
X161036000Y-113538000D03*
D17*
X148761600Y-103041200D03*
D16*
X82804000Y-116840000D03*
X126183381Y-95392634D03*
X103632000Y-117602000D03*
X162052000Y-130048000D03*
X138938000Y-112141000D03*
X164846000Y-112903000D03*
X160274000Y-93116400D03*
X160782000Y-95250000D03*
X152781000Y-97155000D03*
X159385000Y-112014000D03*
X86360000Y-87376000D03*
X117729000Y-111252000D03*
X127127000Y-117475000D03*
D17*
X145711600Y-101041200D03*
D16*
X157988000Y-105283000D03*
X114046000Y-89154000D03*
X118637619Y-95429415D03*
X112903000Y-117729000D03*
X156464000Y-113538000D03*
X161036000Y-105156000D03*
X111252000Y-93345000D03*
X123209619Y-91110415D03*
X109474000Y-100076000D03*
X128143000Y-112903000D03*
X161036000Y-111887000D03*
X120396000Y-104013000D03*
X105918000Y-99822000D03*
X137160000Y-98425000D03*
X100203000Y-112014000D03*
X148082000Y-126492000D03*
X110363000Y-110998000D03*
D17*
X146660602Y-102091199D03*
D16*
X98044000Y-126492000D03*
X131445000Y-109093000D03*
X159766000Y-107823000D03*
X158115000Y-126492000D03*
X110871000Y-109220000D03*
X130937000Y-122555000D03*
X105918000Y-90043000D03*
X141732000Y-110236000D03*
D17*
X147711600Y-103041200D03*
D16*
X142113000Y-104394000D03*
X91440000Y-87376000D03*
X118131581Y-90156422D03*
X105918000Y-93345000D03*
X129667000Y-115951000D03*
X91313000Y-93218000D03*
D17*
X148761600Y-102091200D03*
D16*
X148971000Y-105664000D03*
X148463000Y-120523000D03*
X155829000Y-122555000D03*
X161848800Y-93116400D03*
X171704000Y-127000000D03*
X82804000Y-121920000D03*
X152247600Y-103022400D03*
X137160000Y-103251000D03*
X82296000Y-112268000D03*
D17*
X149706532Y-99989484D03*
D16*
X136525000Y-108966000D03*
X166116000Y-104521000D03*
X153797000Y-115316000D03*
X145542000Y-117856000D03*
X149098000Y-94488000D03*
X144145000Y-97155000D03*
X111252000Y-89916000D03*
X146304000Y-105537000D03*
X160680400Y-102565200D03*
X123063000Y-126492000D03*
X138938000Y-106553000D03*
X112776000Y-113411000D03*
X130302000Y-103886000D03*
X151130000Y-96469200D03*
X95885000Y-122555000D03*
X133985000Y-103886000D03*
X120396000Y-117856000D03*
X152781000Y-126365000D03*
X101981000Y-93472000D03*
X156464000Y-103124000D03*
X163830000Y-106807000D03*
X132334000Y-98171000D03*
X106045000Y-122555000D03*
X145923000Y-122555000D03*
X167640000Y-130048000D03*
X157480000Y-130048000D03*
D17*
X147711600Y-101041200D03*
D16*
X156464000Y-112014000D03*
X115824000Y-111252000D03*
X120904000Y-122555000D03*
X138684000Y-117856000D03*
X139065000Y-97790000D03*
X124714000Y-120396000D03*
X133604000Y-113030000D03*
D17*
X146660602Y-99991199D03*
D16*
X106680000Y-130048000D03*
X152654000Y-93116400D03*
X118258581Y-100316422D03*
X121412000Y-87376000D03*
X155702000Y-93116400D03*
X93091000Y-102997000D03*
D17*
X146661600Y-101041200D03*
D16*
X133096000Y-126492000D03*
X143764000Y-107061000D03*
X153035000Y-118364000D03*
X96520000Y-87376000D03*
X143764000Y-109347000D03*
D17*
X146651419Y-99038477D03*
D16*
X116836181Y-95414222D03*
X98425000Y-98552000D03*
X102743000Y-126365000D03*
D17*
X149711600Y-101041200D03*
D16*
X146812000Y-111760000D03*
X101219000Y-126365000D03*
X168148000Y-100584000D03*
X111125000Y-117094000D03*
X127000000Y-130048000D03*
X96520000Y-130048000D03*
X146431000Y-92964000D03*
X112903000Y-109728000D03*
X152400000Y-130048000D03*
X126111000Y-122555000D03*
X145923000Y-116078000D03*
X124079000Y-117602000D03*
X110490000Y-107442000D03*
X145923000Y-126492000D03*
X94869000Y-100838000D03*
X142240000Y-130048000D03*
X112903000Y-102489000D03*
X151130000Y-126365000D03*
X105918000Y-126492000D03*
X158115000Y-122555000D03*
X149153300Y-96012000D03*
X98171000Y-122555000D03*
X119825398Y-95384636D03*
X109474000Y-102489000D03*
X149352000Y-108077000D03*
X129032000Y-117856000D03*
X82296000Y-91440000D03*
X114300000Y-124968000D03*
X147878800Y-92964000D03*
X95885000Y-126492000D03*
X155956000Y-126492000D03*
X120523000Y-114173000D03*
X94107000Y-113157000D03*
X94107000Y-116967000D03*
D17*
X147711600Y-99041200D03*
D16*
X122627381Y-93030434D03*
X87757000Y-112522000D03*
X120523000Y-111252000D03*
X152298400Y-104648000D03*
X91440000Y-130048000D03*
X122549119Y-92039834D03*
X130937000Y-126492000D03*
X152908000Y-122555000D03*
X161747200Y-103378000D03*
X163195000Y-118110000D03*
X154813000Y-113919000D03*
X122340696Y-95359967D03*
X141732000Y-120650000D03*
X154432000Y-101092000D03*
X151130000Y-122555000D03*
X171704000Y-106680000D03*
X141478000Y-94361000D03*
X106680000Y-87376000D03*
X112903000Y-100076000D03*
X143764000Y-111887000D03*
X108458000Y-109220000D03*
X148971000Y-92964000D03*
D17*
X147711600Y-102091200D03*
D16*
X162814000Y-114681000D03*
X158750000Y-93116400D03*
D17*
X148761600Y-99991200D03*
D16*
X151384000Y-104648000D03*
X159004000Y-116713000D03*
X146305165Y-96041430D03*
X133985000Y-106680000D03*
X111760000Y-130048000D03*
X93091000Y-106807000D03*
X102489000Y-102489000D03*
X102870000Y-122555000D03*
X141351000Y-97155000D03*
X142875000Y-114173000D03*
X98933000Y-102489000D03*
X123063000Y-122555000D03*
X164465000Y-92710000D03*
X167894000Y-114173000D03*
X124079000Y-88138000D03*
X151130000Y-95300800D03*
X111252000Y-96901000D03*
X157480000Y-99441000D03*
X82296000Y-106680000D03*
X114554000Y-111252000D03*
X150622000Y-111887000D03*
X158750000Y-103124000D03*
X106553000Y-107442000D03*
D17*
X145709218Y-102084371D03*
D16*
X82296000Y-127000000D03*
X125730000Y-103886000D03*
X151130000Y-93116400D03*
X116734581Y-91045422D03*
X105918000Y-102489000D03*
D17*
X149707967Y-102090063D03*
D16*
X134239000Y-115951000D03*
X151130000Y-94284800D03*
X171704000Y-130048000D03*
X146812000Y-114173000D03*
X150114000Y-117983000D03*
X171704000Y-96520000D03*
X152400000Y-109601000D03*
X119507000Y-101346000D03*
X82296000Y-96520000D03*
X101600000Y-87376000D03*
X121433581Y-98538422D03*
X129082800Y-94437200D03*
X145184300Y-94361000D03*
X142380000Y-100330000D03*
D18*
X115159781Y-92315422D03*
X115159781Y-94855422D03*
D16*
X152781000Y-110744000D03*
X153365200Y-105664000D03*
D18*
X115159781Y-93585422D03*
D16*
X100000000Y-119176800D03*
X153365200Y-98145600D03*
X122555000Y-105283000D03*
X123596400Y-119176800D03*
X142494000Y-94996000D03*
X123338581Y-101891222D03*
X145161000Y-110744000D03*
X148894800Y-119176800D03*
X143129000Y-104223141D03*
X145161000Y-106299000D03*
X142875000Y-113030000D03*
X137922000Y-111379000D03*
X102489000Y-114808000D03*
D19*
X128723381Y-97831034D02*
X127126993Y-99427422D01*
X127126993Y-99427422D02*
X122322581Y-99427422D01*
X129082800Y-94437200D02*
X128723381Y-94796619D01*
X122322581Y-99427422D02*
X121433581Y-98538422D01*
X128723381Y-94796619D02*
X128723381Y-97831034D01*
D20*
X119146834Y-114727234D02*
X123596400Y-119176800D01*
D19*
X141097000Y-108077000D02*
X141097000Y-105097000D01*
D20*
X116076038Y-102646834D02*
X115159781Y-101730577D01*
X104176800Y-119176800D02*
X123596400Y-119176800D01*
X119146834Y-102646834D02*
X119146834Y-104746834D01*
X123338581Y-101891222D02*
X122582969Y-102646834D01*
D19*
X153365200Y-98145600D02*
X153365200Y-105664000D01*
D20*
X119146834Y-104746834D02*
X119146834Y-114727234D01*
D19*
X153365200Y-105664000D02*
X153365200Y-110159800D01*
D20*
X123596400Y-119176800D02*
X148894800Y-119176800D01*
X115159781Y-101730577D02*
X115159781Y-94855422D01*
X100000000Y-119176800D02*
X104176800Y-119176800D01*
X122555000Y-105283000D02*
X140843000Y-105283000D01*
X119683000Y-105283000D02*
X122555000Y-105283000D01*
D19*
X142494000Y-94996000D02*
X143129000Y-94361000D01*
X142380000Y-95110000D02*
X142380000Y-100330000D01*
X141097000Y-105097000D02*
X141097000Y-101613000D01*
D20*
X122582969Y-102646834D02*
X119146834Y-102646834D01*
D19*
X153365200Y-110159800D02*
X152781000Y-110744000D01*
X143129000Y-94361000D02*
X145184300Y-94361000D01*
X152781000Y-110744000D02*
X145161000Y-110744000D01*
X142494000Y-94996000D02*
X142380000Y-95110000D01*
D20*
X119146834Y-102646834D02*
X116076038Y-102646834D01*
X115159781Y-101730577D02*
X115784600Y-102355396D01*
D19*
X141097000Y-101613000D02*
X142380000Y-100330000D01*
X143764000Y-110744000D02*
X141097000Y-108077000D01*
X145161000Y-110744000D02*
X143764000Y-110744000D01*
D20*
X119146834Y-104746834D02*
X119683000Y-105283000D01*
D21*
X143764000Y-103251000D02*
X143129000Y-103886000D01*
X145161000Y-103632000D02*
X144780000Y-103251000D01*
X143129000Y-103886000D02*
X143129000Y-104223141D01*
X144780000Y-103251000D02*
X143764000Y-103251000D01*
X143129000Y-104013000D02*
X143129000Y-104223141D01*
X145161000Y-106299000D02*
X145161000Y-103632000D01*
X137922000Y-111379000D02*
X141224000Y-111379000D01*
X141224000Y-111379000D02*
X142875000Y-113030000D01*
G04 #@! TA.AperFunction,Conductor*
G36*
X110542121Y-112820002D02*
G01*
X110588614Y-112873658D01*
X110600000Y-112926000D01*
X110600000Y-116774000D01*
X110579998Y-116842121D01*
X110526342Y-116888614D01*
X110474000Y-116900000D01*
X95026000Y-116900000D01*
X94957879Y-116879998D01*
X94911386Y-116826342D01*
X94900000Y-116774000D01*
X94900000Y-112926000D01*
X94920002Y-112857879D01*
X94973658Y-112811386D01*
X95026000Y-112800000D01*
X110474000Y-112800000D01*
X110542121Y-112820002D01*
G37*
G04 #@! TD.AperFunction*
G04 #@! TA.AperFunction,Conductor*
G36*
X115863902Y-91649624D02*
G01*
X115910395Y-91703280D01*
X115921781Y-91755622D01*
X115921781Y-95364422D01*
X115901779Y-95432543D01*
X115848123Y-95479036D01*
X115795781Y-95490422D01*
X114523781Y-95490422D01*
X114455660Y-95470420D01*
X114409167Y-95416764D01*
X114397781Y-95364422D01*
X114397781Y-91755622D01*
X114417783Y-91687501D01*
X114471439Y-91641008D01*
X114523781Y-91629622D01*
X115795781Y-91629622D01*
X115863902Y-91649624D01*
G37*
G04 #@! TD.AperFunction*
G04 #@! TA.AperFunction,Conductor*
G36*
X126307121Y-86720002D02*
G01*
X126353614Y-86773658D01*
X126365000Y-86826000D01*
X126365000Y-92329000D01*
X147218400Y-92252800D01*
X147364959Y-91875538D01*
X147408271Y-91819284D01*
X147475121Y-91795376D01*
X147482464Y-91795165D01*
X148232773Y-91795559D01*
X148300883Y-91815597D01*
X148345405Y-91865210D01*
X148539200Y-92252800D01*
X165974453Y-92252800D01*
X166042574Y-92272802D01*
X166084383Y-92319660D01*
X166085182Y-92319192D01*
X166220875Y-92550938D01*
X166223728Y-92554505D01*
X166335225Y-92693925D01*
X166388601Y-92760669D01*
X166584846Y-92943991D01*
X166677039Y-93007948D01*
X166801746Y-93094461D01*
X166801751Y-93094464D01*
X166805499Y-93097064D01*
X166809584Y-93099096D01*
X166809587Y-93099098D01*
X166925719Y-93156872D01*
X167045938Y-93216680D01*
X167050272Y-93218101D01*
X167050275Y-93218102D01*
X167296793Y-93298915D01*
X167296798Y-93298916D01*
X167301126Y-93300335D01*
X167305617Y-93301115D01*
X167305618Y-93301115D01*
X167561936Y-93345620D01*
X167561944Y-93345621D01*
X167565717Y-93346276D01*
X167569554Y-93346467D01*
X167648996Y-93350422D01*
X167649004Y-93350422D01*
X167650567Y-93350500D01*
X167818223Y-93350500D01*
X167820491Y-93350335D01*
X167820503Y-93350335D01*
X167950823Y-93340879D01*
X168017846Y-93336016D01*
X168022301Y-93335032D01*
X168022304Y-93335032D01*
X168275620Y-93279105D01*
X168275624Y-93279104D01*
X168280080Y-93278120D01*
X168447617Y-93214646D01*
X168526941Y-93184593D01*
X168526944Y-93184592D01*
X168531211Y-93182975D01*
X168765976Y-93052574D01*
X168908254Y-92943991D01*
X168975833Y-92892417D01*
X168975837Y-92892413D01*
X168979458Y-92889650D01*
X169167185Y-92697614D01*
X169325225Y-92480491D01*
X169409595Y-92320130D01*
X169459012Y-92269160D01*
X169521101Y-92252800D01*
X172424000Y-92252800D01*
X172492121Y-92272802D01*
X172538614Y-92326458D01*
X172550000Y-92378800D01*
X172550000Y-130674000D01*
X172529998Y-130742121D01*
X172476342Y-130788614D01*
X172424000Y-130800000D01*
X81576000Y-130800000D01*
X81507879Y-130779998D01*
X81461386Y-130726342D01*
X81450000Y-130674000D01*
X81450000Y-128000000D01*
X95644341Y-128000000D01*
X95664937Y-128235408D01*
X95726097Y-128463663D01*
X95825965Y-128677829D01*
X95961505Y-128871401D01*
X96128599Y-129038495D01*
X96133107Y-129041652D01*
X96133110Y-129041654D01*
X96317661Y-129170878D01*
X96322170Y-129174035D01*
X96327152Y-129176358D01*
X96327157Y-129176361D01*
X96531355Y-129271580D01*
X96536337Y-129273903D01*
X96541645Y-129275325D01*
X96541647Y-129275326D01*
X96759277Y-129333639D01*
X96764592Y-129335063D01*
X97000000Y-129355659D01*
X97235408Y-129335063D01*
X97240723Y-129333639D01*
X97458353Y-129275326D01*
X97458355Y-129275325D01*
X97463663Y-129273903D01*
X97468645Y-129271580D01*
X97672843Y-129176361D01*
X97672848Y-129176358D01*
X97677830Y-129174035D01*
X97682339Y-129170878D01*
X97866890Y-129041654D01*
X97866893Y-129041652D01*
X97871401Y-129038495D01*
X98038495Y-128871401D01*
X98174035Y-128677829D01*
X98273903Y-128463663D01*
X98335063Y-128235408D01*
X98355659Y-128000000D01*
X100644341Y-128000000D01*
X100664937Y-128235408D01*
X100726097Y-128463663D01*
X100825965Y-128677829D01*
X100961505Y-128871401D01*
X101128599Y-129038495D01*
X101133107Y-129041652D01*
X101133110Y-129041654D01*
X101317661Y-129170878D01*
X101322170Y-129174035D01*
X101327152Y-129176358D01*
X101327157Y-129176361D01*
X101531355Y-129271580D01*
X101536337Y-129273903D01*
X101541645Y-129275325D01*
X101541647Y-129275326D01*
X101759277Y-129333639D01*
X101764592Y-129335063D01*
X102000000Y-129355659D01*
X102235408Y-129335063D01*
X102240723Y-129333639D01*
X102458353Y-129275326D01*
X102458355Y-129275325D01*
X102463663Y-129273903D01*
X102468645Y-129271580D01*
X102672843Y-129176361D01*
X102672848Y-129176358D01*
X102677830Y-129174035D01*
X102682339Y-129170878D01*
X102866890Y-129041654D01*
X102866893Y-129041652D01*
X102871401Y-129038495D01*
X103038495Y-128871401D01*
X103174035Y-128677829D01*
X103273903Y-128463663D01*
X103335063Y-128235408D01*
X103355659Y-128000000D01*
X105644341Y-128000000D01*
X105664937Y-128235408D01*
X105726097Y-128463663D01*
X105825965Y-128677829D01*
X105961505Y-128871401D01*
X106128599Y-129038495D01*
X106133107Y-129041652D01*
X106133110Y-129041654D01*
X106317661Y-129170878D01*
X106322170Y-129174035D01*
X106327152Y-129176358D01*
X106327157Y-129176361D01*
X106531355Y-129271580D01*
X106536337Y-129273903D01*
X106541645Y-129275325D01*
X106541647Y-129275326D01*
X106759277Y-129333639D01*
X106764592Y-129335063D01*
X107000000Y-129355659D01*
X107235408Y-129335063D01*
X107240723Y-129333639D01*
X107458353Y-129275326D01*
X107458355Y-129275325D01*
X107463663Y-129273903D01*
X107468645Y-129271580D01*
X107672843Y-129176361D01*
X107672848Y-129176358D01*
X107677830Y-129174035D01*
X107682339Y-129170878D01*
X107866890Y-129041654D01*
X107866893Y-129041652D01*
X107871401Y-129038495D01*
X108038495Y-128871401D01*
X108174035Y-128677829D01*
X108273903Y-128463663D01*
X108335063Y-128235408D01*
X108355659Y-128000000D01*
X120644341Y-128000000D01*
X120664937Y-128235408D01*
X120726097Y-128463663D01*
X120825965Y-128677829D01*
X120961505Y-128871401D01*
X121128599Y-129038495D01*
X121133107Y-129041652D01*
X121133110Y-129041654D01*
X121317661Y-129170878D01*
X121322170Y-129174035D01*
X121327152Y-129176358D01*
X121327157Y-129176361D01*
X121531355Y-129271580D01*
X121536337Y-129273903D01*
X121541645Y-129275325D01*
X121541647Y-129275326D01*
X121759277Y-129333639D01*
X121764592Y-129335063D01*
X122000000Y-129355659D01*
X122235408Y-129335063D01*
X122240723Y-129333639D01*
X122458353Y-129275326D01*
X122458355Y-129275325D01*
X122463663Y-129273903D01*
X122468645Y-129271580D01*
X122672843Y-129176361D01*
X122672848Y-129176358D01*
X122677830Y-129174035D01*
X122682339Y-129170878D01*
X122866890Y-129041654D01*
X122866893Y-129041652D01*
X122871401Y-129038495D01*
X123038495Y-128871401D01*
X123174035Y-128677829D01*
X123273903Y-128463663D01*
X123335063Y-128235408D01*
X123355659Y-128000000D01*
X125644341Y-128000000D01*
X125664937Y-128235408D01*
X125726097Y-128463663D01*
X125825965Y-128677829D01*
X125961505Y-128871401D01*
X126128599Y-129038495D01*
X126133107Y-129041652D01*
X126133110Y-129041654D01*
X126317661Y-129170878D01*
X126322170Y-129174035D01*
X126327152Y-129176358D01*
X126327157Y-129176361D01*
X126531355Y-129271580D01*
X126536337Y-129273903D01*
X126541645Y-129275325D01*
X126541647Y-129275326D01*
X126759277Y-129333639D01*
X126764592Y-129335063D01*
X127000000Y-129355659D01*
X127235408Y-129335063D01*
X127240723Y-129333639D01*
X127458353Y-129275326D01*
X127458355Y-129275325D01*
X127463663Y-129273903D01*
X127468645Y-129271580D01*
X127672843Y-129176361D01*
X127672848Y-129176358D01*
X127677830Y-129174035D01*
X127682339Y-129170878D01*
X127866890Y-129041654D01*
X127866893Y-129041652D01*
X127871401Y-129038495D01*
X128038495Y-128871401D01*
X128174035Y-128677829D01*
X128273903Y-128463663D01*
X128335063Y-128235408D01*
X128355659Y-128000000D01*
X130644341Y-128000000D01*
X130664937Y-128235408D01*
X130726097Y-128463663D01*
X130825965Y-128677829D01*
X130961505Y-128871401D01*
X131128599Y-129038495D01*
X131133107Y-129041652D01*
X131133110Y-129041654D01*
X131317661Y-129170878D01*
X131322170Y-129174035D01*
X131327152Y-129176358D01*
X131327157Y-129176361D01*
X131531355Y-129271580D01*
X131536337Y-129273903D01*
X131541645Y-129275325D01*
X131541647Y-129275326D01*
X131759277Y-129333639D01*
X131764592Y-129335063D01*
X132000000Y-129355659D01*
X132235408Y-129335063D01*
X132240723Y-129333639D01*
X132458353Y-129275326D01*
X132458355Y-129275325D01*
X132463663Y-129273903D01*
X132468645Y-129271580D01*
X132672843Y-129176361D01*
X132672848Y-129176358D01*
X132677830Y-129174035D01*
X132682339Y-129170878D01*
X132866890Y-129041654D01*
X132866893Y-129041652D01*
X132871401Y-129038495D01*
X133038495Y-128871401D01*
X133174035Y-128677829D01*
X133273903Y-128463663D01*
X133335063Y-128235408D01*
X133355659Y-128000000D01*
X145644341Y-128000000D01*
X145664937Y-128235408D01*
X145726097Y-128463663D01*
X145825965Y-128677829D01*
X145961505Y-128871401D01*
X146128599Y-129038495D01*
X146133107Y-129041652D01*
X146133110Y-129041654D01*
X146317661Y-129170878D01*
X146322170Y-129174035D01*
X146327152Y-129176358D01*
X146327157Y-129176361D01*
X146531355Y-129271580D01*
X146536337Y-129273903D01*
X146541645Y-129275325D01*
X146541647Y-129275326D01*
X146759277Y-129333639D01*
X146764592Y-129335063D01*
X147000000Y-129355659D01*
X147235408Y-129335063D01*
X147240723Y-129333639D01*
X147458353Y-129275326D01*
X147458355Y-129275325D01*
X147463663Y-129273903D01*
X147468645Y-129271580D01*
X147672843Y-129176361D01*
X147672848Y-129176358D01*
X147677830Y-129174035D01*
X147682339Y-129170878D01*
X147866890Y-129041654D01*
X147866893Y-129041652D01*
X147871401Y-129038495D01*
X148038495Y-128871401D01*
X148174035Y-128677829D01*
X148273903Y-128463663D01*
X148335063Y-128235408D01*
X148355659Y-128000000D01*
X150644341Y-128000000D01*
X150664937Y-128235408D01*
X150726097Y-128463663D01*
X150825965Y-128677829D01*
X150961505Y-128871401D01*
X151128599Y-129038495D01*
X151133107Y-129041652D01*
X151133110Y-129041654D01*
X151317661Y-129170878D01*
X151322170Y-129174035D01*
X151327152Y-129176358D01*
X151327157Y-129176361D01*
X151531355Y-129271580D01*
X151536337Y-129273903D01*
X151541645Y-129275325D01*
X151541647Y-129275326D01*
X151759277Y-129333639D01*
X151764592Y-129335063D01*
X152000000Y-129355659D01*
X152235408Y-129335063D01*
X152240723Y-129333639D01*
X152458353Y-129275326D01*
X152458355Y-129275325D01*
X152463663Y-129273903D01*
X152468645Y-129271580D01*
X152672843Y-129176361D01*
X152672848Y-129176358D01*
X152677830Y-129174035D01*
X152682339Y-129170878D01*
X152866890Y-129041654D01*
X152866893Y-129041652D01*
X152871401Y-129038495D01*
X153038495Y-128871401D01*
X153174035Y-128677829D01*
X153273903Y-128463663D01*
X153335063Y-128235408D01*
X153355659Y-128000000D01*
X155644341Y-128000000D01*
X155664937Y-128235408D01*
X155726097Y-128463663D01*
X155825965Y-128677829D01*
X155961505Y-128871401D01*
X156128599Y-129038495D01*
X156133107Y-129041652D01*
X156133110Y-129041654D01*
X156317661Y-129170878D01*
X156322170Y-129174035D01*
X156327152Y-129176358D01*
X156327157Y-129176361D01*
X156531355Y-129271580D01*
X156536337Y-129273903D01*
X156541645Y-129275325D01*
X156541647Y-129275326D01*
X156759277Y-129333639D01*
X156764592Y-129335063D01*
X157000000Y-129355659D01*
X157235408Y-129335063D01*
X157240723Y-129333639D01*
X157458353Y-129275326D01*
X157458355Y-129275325D01*
X157463663Y-129273903D01*
X157468645Y-129271580D01*
X157672843Y-129176361D01*
X157672848Y-129176358D01*
X157677830Y-129174035D01*
X157682339Y-129170878D01*
X157866890Y-129041654D01*
X157866893Y-129041652D01*
X157871401Y-129038495D01*
X158038495Y-128871401D01*
X158174035Y-128677829D01*
X158273903Y-128463663D01*
X158335063Y-128235408D01*
X158355659Y-128000000D01*
X158335063Y-127764592D01*
X158273903Y-127536337D01*
X158230841Y-127443991D01*
X158176358Y-127327152D01*
X158176356Y-127327149D01*
X158174035Y-127322171D01*
X158038495Y-127128599D01*
X157871401Y-126961505D01*
X157866893Y-126958348D01*
X157866890Y-126958346D01*
X157682339Y-126829122D01*
X157682336Y-126829120D01*
X157677830Y-126825965D01*
X157672848Y-126823642D01*
X157672843Y-126823639D01*
X157468645Y-126728420D01*
X157468644Y-126728419D01*
X157463663Y-126726097D01*
X157458355Y-126724675D01*
X157458353Y-126724674D01*
X157240723Y-126666361D01*
X157240722Y-126666361D01*
X157235408Y-126664937D01*
X157000000Y-126644341D01*
X156764592Y-126664937D01*
X156759278Y-126666361D01*
X156759277Y-126666361D01*
X156541647Y-126724674D01*
X156541645Y-126724675D01*
X156536337Y-126726097D01*
X156531357Y-126728419D01*
X156531355Y-126728420D01*
X156327152Y-126823642D01*
X156327149Y-126823644D01*
X156322171Y-126825965D01*
X156128599Y-126961505D01*
X155961505Y-127128599D01*
X155825965Y-127322171D01*
X155823644Y-127327149D01*
X155823642Y-127327152D01*
X155769159Y-127443991D01*
X155726097Y-127536337D01*
X155664937Y-127764592D01*
X155644341Y-128000000D01*
X153355659Y-128000000D01*
X153335063Y-127764592D01*
X153273903Y-127536337D01*
X153230841Y-127443991D01*
X153176358Y-127327152D01*
X153176356Y-127327149D01*
X153174035Y-127322171D01*
X153038495Y-127128599D01*
X152871401Y-126961505D01*
X152866893Y-126958348D01*
X152866890Y-126958346D01*
X152682339Y-126829122D01*
X152682336Y-126829120D01*
X152677830Y-126825965D01*
X152672848Y-126823642D01*
X152672843Y-126823639D01*
X152468645Y-126728420D01*
X152468644Y-126728419D01*
X152463663Y-126726097D01*
X152458355Y-126724675D01*
X152458353Y-126724674D01*
X152240723Y-126666361D01*
X152240722Y-126666361D01*
X152235408Y-126664937D01*
X152000000Y-126644341D01*
X151764592Y-126664937D01*
X151759278Y-126666361D01*
X151759277Y-126666361D01*
X151541647Y-126724674D01*
X151541645Y-126724675D01*
X151536337Y-126726097D01*
X151531357Y-126728419D01*
X151531355Y-126728420D01*
X151327152Y-126823642D01*
X151327149Y-126823644D01*
X151322171Y-126825965D01*
X151128599Y-126961505D01*
X150961505Y-127128599D01*
X150825965Y-127322171D01*
X150823644Y-127327149D01*
X150823642Y-127327152D01*
X150769159Y-127443991D01*
X150726097Y-127536337D01*
X150664937Y-127764592D01*
X150644341Y-128000000D01*
X148355659Y-128000000D01*
X148335063Y-127764592D01*
X148273903Y-127536337D01*
X148230841Y-127443991D01*
X148176358Y-127327152D01*
X148176356Y-127327149D01*
X148174035Y-127322171D01*
X148038495Y-127128599D01*
X147871401Y-126961505D01*
X147866893Y-126958348D01*
X147866890Y-126958346D01*
X147682339Y-126829122D01*
X147682336Y-126829120D01*
X147677830Y-126825965D01*
X147672848Y-126823642D01*
X147672843Y-126823639D01*
X147468645Y-126728420D01*
X147468644Y-126728419D01*
X147463663Y-126726097D01*
X147458355Y-126724675D01*
X147458353Y-126724674D01*
X147240723Y-126666361D01*
X147240722Y-126666361D01*
X147235408Y-126664937D01*
X147000000Y-126644341D01*
X146764592Y-126664937D01*
X146759278Y-126666361D01*
X146759277Y-126666361D01*
X146541647Y-126724674D01*
X146541645Y-126724675D01*
X146536337Y-126726097D01*
X146531357Y-126728419D01*
X146531355Y-126728420D01*
X146327152Y-126823642D01*
X146327149Y-126823644D01*
X146322171Y-126825965D01*
X146128599Y-126961505D01*
X145961505Y-127128599D01*
X145825965Y-127322171D01*
X145823644Y-127327149D01*
X145823642Y-127327152D01*
X145769159Y-127443991D01*
X145726097Y-127536337D01*
X145664937Y-127764592D01*
X145644341Y-128000000D01*
X133355659Y-128000000D01*
X133335063Y-127764592D01*
X133273903Y-127536337D01*
X133230841Y-127443991D01*
X133176358Y-127327152D01*
X133176356Y-127327149D01*
X133174035Y-127322171D01*
X133038495Y-127128599D01*
X132871401Y-126961505D01*
X132866893Y-126958348D01*
X132866890Y-126958346D01*
X132682339Y-126829122D01*
X132682336Y-126829120D01*
X132677830Y-126825965D01*
X132672848Y-126823642D01*
X132672843Y-126823639D01*
X132468645Y-126728420D01*
X132468644Y-126728419D01*
X132463663Y-126726097D01*
X132458355Y-126724675D01*
X132458353Y-126724674D01*
X132240723Y-126666361D01*
X132240722Y-126666361D01*
X132235408Y-126664937D01*
X132000000Y-126644341D01*
X131764592Y-126664937D01*
X131759278Y-126666361D01*
X131759277Y-126666361D01*
X131541647Y-126724674D01*
X131541645Y-126724675D01*
X131536337Y-126726097D01*
X131531357Y-126728419D01*
X131531355Y-126728420D01*
X131327152Y-126823642D01*
X131327149Y-126823644D01*
X131322171Y-126825965D01*
X131128599Y-126961505D01*
X130961505Y-127128599D01*
X130825965Y-127322171D01*
X130823644Y-127327149D01*
X130823642Y-127327152D01*
X130769159Y-127443991D01*
X130726097Y-127536337D01*
X130664937Y-127764592D01*
X130644341Y-128000000D01*
X128355659Y-128000000D01*
X128335063Y-127764592D01*
X128273903Y-127536337D01*
X128230841Y-127443991D01*
X128176358Y-127327152D01*
X128176356Y-127327149D01*
X128174035Y-127322171D01*
X128038495Y-127128599D01*
X127871401Y-126961505D01*
X127866893Y-126958348D01*
X127866890Y-126958346D01*
X127682339Y-126829122D01*
X127682336Y-126829120D01*
X127677830Y-126825965D01*
X127672848Y-126823642D01*
X127672843Y-126823639D01*
X127468645Y-126728420D01*
X127468644Y-126728419D01*
X127463663Y-126726097D01*
X127458355Y-126724675D01*
X127458353Y-126724674D01*
X127240723Y-126666361D01*
X127240722Y-126666361D01*
X127235408Y-126664937D01*
X127000000Y-126644341D01*
X126764592Y-126664937D01*
X126759278Y-126666361D01*
X126759277Y-126666361D01*
X126541647Y-126724674D01*
X126541645Y-126724675D01*
X126536337Y-126726097D01*
X126531357Y-126728419D01*
X126531355Y-126728420D01*
X126327152Y-126823642D01*
X126327149Y-126823644D01*
X126322171Y-126825965D01*
X126128599Y-126961505D01*
X125961505Y-127128599D01*
X125825965Y-127322171D01*
X125823644Y-127327149D01*
X125823642Y-127327152D01*
X125769159Y-127443991D01*
X125726097Y-127536337D01*
X125664937Y-127764592D01*
X125644341Y-128000000D01*
X123355659Y-128000000D01*
X123335063Y-127764592D01*
X123273903Y-127536337D01*
X123230841Y-127443991D01*
X123176358Y-127327152D01*
X123176356Y-127327149D01*
X123174035Y-127322171D01*
X123038495Y-127128599D01*
X122871401Y-126961505D01*
X122866893Y-126958348D01*
X122866890Y-126958346D01*
X122682339Y-126829122D01*
X122682336Y-126829120D01*
X122677830Y-126825965D01*
X122672848Y-126823642D01*
X122672843Y-126823639D01*
X122468645Y-126728420D01*
X122468644Y-126728419D01*
X122463663Y-126726097D01*
X122458355Y-126724675D01*
X122458353Y-126724674D01*
X122240723Y-126666361D01*
X122240722Y-126666361D01*
X122235408Y-126664937D01*
X122000000Y-126644341D01*
X121764592Y-126664937D01*
X121759278Y-126666361D01*
X121759277Y-126666361D01*
X121541647Y-126724674D01*
X121541645Y-126724675D01*
X121536337Y-126726097D01*
X121531357Y-126728419D01*
X121531355Y-126728420D01*
X121327152Y-126823642D01*
X121327149Y-126823644D01*
X121322171Y-126825965D01*
X121128599Y-126961505D01*
X120961505Y-127128599D01*
X120825965Y-127322171D01*
X120823644Y-127327149D01*
X120823642Y-127327152D01*
X120769159Y-127443991D01*
X120726097Y-127536337D01*
X120664937Y-127764592D01*
X120644341Y-128000000D01*
X108355659Y-128000000D01*
X108335063Y-127764592D01*
X108273903Y-127536337D01*
X108230841Y-127443991D01*
X108176358Y-127327152D01*
X108176356Y-127327149D01*
X108174035Y-127322171D01*
X108038495Y-127128599D01*
X107871401Y-126961505D01*
X107866893Y-126958348D01*
X107866890Y-126958346D01*
X107682339Y-126829122D01*
X107682336Y-126829120D01*
X107677830Y-126825965D01*
X107672848Y-126823642D01*
X107672843Y-126823639D01*
X107468645Y-126728420D01*
X107468644Y-126728419D01*
X107463663Y-126726097D01*
X107458355Y-126724675D01*
X107458353Y-126724674D01*
X107240723Y-126666361D01*
X107240722Y-126666361D01*
X107235408Y-126664937D01*
X107000000Y-126644341D01*
X106764592Y-126664937D01*
X106759278Y-126666361D01*
X106759277Y-126666361D01*
X106541647Y-126724674D01*
X106541645Y-126724675D01*
X106536337Y-126726097D01*
X106531357Y-126728419D01*
X106531355Y-126728420D01*
X106327152Y-126823642D01*
X106327149Y-126823644D01*
X106322171Y-126825965D01*
X106128599Y-126961505D01*
X105961505Y-127128599D01*
X105825965Y-127322171D01*
X105823644Y-127327149D01*
X105823642Y-127327152D01*
X105769159Y-127443991D01*
X105726097Y-127536337D01*
X105664937Y-127764592D01*
X105644341Y-128000000D01*
X103355659Y-128000000D01*
X103335063Y-127764592D01*
X103273903Y-127536337D01*
X103230841Y-127443991D01*
X103176358Y-127327152D01*
X103176356Y-127327149D01*
X103174035Y-127322171D01*
X103038495Y-127128599D01*
X102871401Y-126961505D01*
X102866893Y-126958348D01*
X102866890Y-126958346D01*
X102682339Y-126829122D01*
X102682336Y-126829120D01*
X102677830Y-126825965D01*
X102672848Y-126823642D01*
X102672843Y-126823639D01*
X102468645Y-126728420D01*
X102468644Y-126728419D01*
X102463663Y-126726097D01*
X102458355Y-126724675D01*
X102458353Y-126724674D01*
X102240723Y-126666361D01*
X102240722Y-126666361D01*
X102235408Y-126664937D01*
X102000000Y-126644341D01*
X101764592Y-126664937D01*
X101759278Y-126666361D01*
X101759277Y-126666361D01*
X101541647Y-126724674D01*
X101541645Y-126724675D01*
X101536337Y-126726097D01*
X101531357Y-126728419D01*
X101531355Y-126728420D01*
X101327152Y-126823642D01*
X101327149Y-126823644D01*
X101322171Y-126825965D01*
X101128599Y-126961505D01*
X100961505Y-127128599D01*
X100825965Y-127322171D01*
X100823644Y-127327149D01*
X100823642Y-127327152D01*
X100769159Y-127443991D01*
X100726097Y-127536337D01*
X100664937Y-127764592D01*
X100644341Y-128000000D01*
X98355659Y-128000000D01*
X98335063Y-127764592D01*
X98273903Y-127536337D01*
X98230841Y-127443991D01*
X98176358Y-127327152D01*
X98176356Y-127327149D01*
X98174035Y-127322171D01*
X98038495Y-127128599D01*
X97871401Y-126961505D01*
X97866893Y-126958348D01*
X97866890Y-126958346D01*
X97682339Y-126829122D01*
X97682336Y-126829120D01*
X97677830Y-126825965D01*
X97672848Y-126823642D01*
X97672843Y-126823639D01*
X97468645Y-126728420D01*
X97468644Y-126728419D01*
X97463663Y-126726097D01*
X97458355Y-126724675D01*
X97458353Y-126724674D01*
X97240723Y-126666361D01*
X97240722Y-126666361D01*
X97235408Y-126664937D01*
X97000000Y-126644341D01*
X96764592Y-126664937D01*
X96759278Y-126666361D01*
X96759277Y-126666361D01*
X96541647Y-126724674D01*
X96541645Y-126724675D01*
X96536337Y-126726097D01*
X96531357Y-126728419D01*
X96531355Y-126728420D01*
X96327152Y-126823642D01*
X96327149Y-126823644D01*
X96322171Y-126825965D01*
X96128599Y-126961505D01*
X95961505Y-127128599D01*
X95825965Y-127322171D01*
X95823644Y-127327149D01*
X95823642Y-127327152D01*
X95769159Y-127443991D01*
X95726097Y-127536337D01*
X95664937Y-127764592D01*
X95644341Y-128000000D01*
X81450000Y-128000000D01*
X81450000Y-126042095D01*
X84395028Y-126042095D01*
X84420534Y-126309431D01*
X84484364Y-126570285D01*
X84486076Y-126574511D01*
X84486077Y-126574515D01*
X84548415Y-126728420D01*
X84585182Y-126819192D01*
X84720875Y-127050938D01*
X84831789Y-127189629D01*
X84835225Y-127193925D01*
X84888601Y-127260669D01*
X85084846Y-127443991D01*
X85177039Y-127507948D01*
X85301746Y-127594461D01*
X85301751Y-127594464D01*
X85305499Y-127597064D01*
X85309584Y-127599096D01*
X85309587Y-127599098D01*
X85425718Y-127656872D01*
X85545938Y-127716680D01*
X85550272Y-127718101D01*
X85550275Y-127718102D01*
X85796793Y-127798915D01*
X85796798Y-127798916D01*
X85801126Y-127800335D01*
X85805617Y-127801115D01*
X85805618Y-127801115D01*
X86061936Y-127845620D01*
X86061944Y-127845621D01*
X86065717Y-127846276D01*
X86069554Y-127846467D01*
X86148996Y-127850422D01*
X86149004Y-127850422D01*
X86150567Y-127850500D01*
X86318223Y-127850500D01*
X86320491Y-127850335D01*
X86320503Y-127850335D01*
X86450823Y-127840879D01*
X86517846Y-127836016D01*
X86522301Y-127835032D01*
X86522304Y-127835032D01*
X86775620Y-127779105D01*
X86775624Y-127779104D01*
X86780080Y-127778120D01*
X86947617Y-127714646D01*
X87026941Y-127684593D01*
X87026944Y-127684592D01*
X87031211Y-127682975D01*
X87265976Y-127552574D01*
X87408254Y-127443991D01*
X87475833Y-127392417D01*
X87475837Y-127392413D01*
X87479458Y-127389650D01*
X87667185Y-127197614D01*
X87825225Y-126980491D01*
X87907747Y-126823642D01*
X87948140Y-126746868D01*
X87948143Y-126746862D01*
X87950265Y-126742828D01*
X87956174Y-126726097D01*
X88038165Y-126493916D01*
X88038165Y-126493915D01*
X88039688Y-126489603D01*
X88091620Y-126226122D01*
X88091847Y-126221566D01*
X88100781Y-126042095D01*
X165895028Y-126042095D01*
X165920534Y-126309431D01*
X165984364Y-126570285D01*
X165986076Y-126574511D01*
X165986077Y-126574515D01*
X166048415Y-126728420D01*
X166085182Y-126819192D01*
X166220875Y-127050938D01*
X166331789Y-127189629D01*
X166335225Y-127193925D01*
X166388601Y-127260669D01*
X166584846Y-127443991D01*
X166677039Y-127507948D01*
X166801746Y-127594461D01*
X166801751Y-127594464D01*
X166805499Y-127597064D01*
X166809584Y-127599096D01*
X166809587Y-127599098D01*
X166925718Y-127656872D01*
X167045938Y-127716680D01*
X167050272Y-127718101D01*
X167050275Y-127718102D01*
X167296793Y-127798915D01*
X167296798Y-127798916D01*
X167301126Y-127800335D01*
X167305617Y-127801115D01*
X167305618Y-127801115D01*
X167561936Y-127845620D01*
X167561944Y-127845621D01*
X167565717Y-127846276D01*
X167569554Y-127846467D01*
X167648996Y-127850422D01*
X167649004Y-127850422D01*
X167650567Y-127850500D01*
X167818223Y-127850500D01*
X167820491Y-127850335D01*
X167820503Y-127850335D01*
X167950823Y-127840879D01*
X168017846Y-127836016D01*
X168022301Y-127835032D01*
X168022304Y-127835032D01*
X168275620Y-127779105D01*
X168275624Y-127779104D01*
X168280080Y-127778120D01*
X168447617Y-127714646D01*
X168526941Y-127684593D01*
X168526944Y-127684592D01*
X168531211Y-127682975D01*
X168765976Y-127552574D01*
X168908254Y-127443991D01*
X168975833Y-127392417D01*
X168975837Y-127392413D01*
X168979458Y-127389650D01*
X169167185Y-127197614D01*
X169325225Y-126980491D01*
X169407747Y-126823642D01*
X169448140Y-126746868D01*
X169448143Y-126746862D01*
X169450265Y-126742828D01*
X169456174Y-126726097D01*
X169538165Y-126493916D01*
X169538165Y-126493915D01*
X169539688Y-126489603D01*
X169591620Y-126226122D01*
X169591847Y-126221566D01*
X169604745Y-125962474D01*
X169604745Y-125962468D01*
X169604972Y-125957905D01*
X169579466Y-125690569D01*
X169515636Y-125429715D01*
X169414818Y-125180808D01*
X169279125Y-124949062D01*
X169168211Y-124810371D01*
X169114251Y-124742897D01*
X169114250Y-124742895D01*
X169111399Y-124739331D01*
X168915154Y-124556009D01*
X168755436Y-124445208D01*
X168698254Y-124405539D01*
X168698249Y-124405536D01*
X168694501Y-124402936D01*
X168690416Y-124400904D01*
X168690413Y-124400902D01*
X168518560Y-124315407D01*
X168454062Y-124283320D01*
X168449728Y-124281899D01*
X168449725Y-124281898D01*
X168203207Y-124201085D01*
X168203202Y-124201084D01*
X168198874Y-124199665D01*
X168194382Y-124198885D01*
X167938064Y-124154380D01*
X167938056Y-124154379D01*
X167934283Y-124153724D01*
X167925622Y-124153293D01*
X167851004Y-124149578D01*
X167850996Y-124149578D01*
X167849433Y-124149500D01*
X167681777Y-124149500D01*
X167679509Y-124149665D01*
X167679497Y-124149665D01*
X167549177Y-124159121D01*
X167482154Y-124163984D01*
X167477699Y-124164968D01*
X167477696Y-124164968D01*
X167224380Y-124220895D01*
X167224376Y-124220896D01*
X167219920Y-124221880D01*
X167094354Y-124269453D01*
X166973059Y-124315407D01*
X166973056Y-124315408D01*
X166968789Y-124317025D01*
X166734024Y-124447426D01*
X166730392Y-124450198D01*
X166524167Y-124607583D01*
X166524163Y-124607587D01*
X166520542Y-124610350D01*
X166332815Y-124802386D01*
X166174775Y-125019509D01*
X166172651Y-125023547D01*
X166051860Y-125253132D01*
X166051857Y-125253138D01*
X166049735Y-125257172D01*
X166048215Y-125261477D01*
X166048213Y-125261481D01*
X165988804Y-125429715D01*
X165960312Y-125510397D01*
X165908380Y-125773878D01*
X165908153Y-125778431D01*
X165908153Y-125778434D01*
X165898992Y-125962474D01*
X165895028Y-126042095D01*
X88100781Y-126042095D01*
X88104745Y-125962474D01*
X88104745Y-125962468D01*
X88104972Y-125957905D01*
X88079466Y-125690569D01*
X88015636Y-125429715D01*
X87914818Y-125180808D01*
X87779125Y-124949062D01*
X87668211Y-124810371D01*
X87614251Y-124742897D01*
X87614250Y-124742895D01*
X87611399Y-124739331D01*
X87415154Y-124556009D01*
X87255436Y-124445208D01*
X87198254Y-124405539D01*
X87198249Y-124405536D01*
X87194501Y-124402936D01*
X87190416Y-124400904D01*
X87190413Y-124400902D01*
X87018560Y-124315407D01*
X86954062Y-124283320D01*
X86949728Y-124281899D01*
X86949725Y-124281898D01*
X86703207Y-124201085D01*
X86703202Y-124201084D01*
X86698874Y-124199665D01*
X86694382Y-124198885D01*
X86438064Y-124154380D01*
X86438056Y-124154379D01*
X86434283Y-124153724D01*
X86425622Y-124153293D01*
X86351004Y-124149578D01*
X86350996Y-124149578D01*
X86349433Y-124149500D01*
X86181777Y-124149500D01*
X86179509Y-124149665D01*
X86179497Y-124149665D01*
X86049177Y-124159121D01*
X85982154Y-124163984D01*
X85977699Y-124164968D01*
X85977696Y-124164968D01*
X85724380Y-124220895D01*
X85724376Y-124220896D01*
X85719920Y-124221880D01*
X85594354Y-124269453D01*
X85473059Y-124315407D01*
X85473056Y-124315408D01*
X85468789Y-124317025D01*
X85234024Y-124447426D01*
X85230392Y-124450198D01*
X85024167Y-124607583D01*
X85024163Y-124607587D01*
X85020542Y-124610350D01*
X84832815Y-124802386D01*
X84674775Y-125019509D01*
X84672651Y-125023547D01*
X84551860Y-125253132D01*
X84551857Y-125253138D01*
X84549735Y-125257172D01*
X84548215Y-125261477D01*
X84548213Y-125261481D01*
X84488804Y-125429715D01*
X84460312Y-125510397D01*
X84408380Y-125773878D01*
X84408153Y-125778431D01*
X84408153Y-125778434D01*
X84398992Y-125962474D01*
X84395028Y-126042095D01*
X81450000Y-126042095D01*
X81450000Y-119130448D01*
X99170927Y-119130448D01*
X99171284Y-119137265D01*
X99171284Y-119137269D01*
X99178999Y-119284469D01*
X99180314Y-119309560D01*
X99182125Y-119316133D01*
X99182125Y-119316136D01*
X99203399Y-119393370D01*
X99227943Y-119482479D01*
X99311594Y-119641136D01*
X99315999Y-119646349D01*
X99316002Y-119646353D01*
X99369223Y-119709331D01*
X99427362Y-119778129D01*
X99432786Y-119782276D01*
X99432787Y-119782277D01*
X99564426Y-119882923D01*
X99564430Y-119882926D01*
X99569847Y-119887067D01*
X99732401Y-119962867D01*
X99907440Y-120001993D01*
X99912931Y-120002300D01*
X123582685Y-120002300D01*
X123586203Y-120002349D01*
X123656175Y-120004304D01*
X123656180Y-120004304D01*
X123662995Y-120004494D01*
X123669696Y-120003216D01*
X123676028Y-120002706D01*
X123686134Y-120002300D01*
X148939610Y-120002300D01*
X149073109Y-119987797D01*
X149243100Y-119930589D01*
X149396840Y-119838213D01*
X149455991Y-119782277D01*
X149460377Y-119778129D01*
X149527157Y-119714978D01*
X149627971Y-119566634D01*
X149630503Y-119560304D01*
X149630505Y-119560300D01*
X149692045Y-119406439D01*
X149692046Y-119406434D01*
X149694579Y-119400102D01*
X149695693Y-119393375D01*
X149695694Y-119393370D01*
X149722758Y-119229890D01*
X149722758Y-119229886D01*
X149723873Y-119223152D01*
X149718662Y-119123710D01*
X149714843Y-119050853D01*
X149714486Y-119044040D01*
X149712675Y-119037464D01*
X149668670Y-118877702D01*
X149668669Y-118877699D01*
X149666857Y-118871121D01*
X149583206Y-118712464D01*
X149578801Y-118707251D01*
X149578798Y-118707247D01*
X149471844Y-118580685D01*
X149467438Y-118575471D01*
X149462013Y-118571323D01*
X149330374Y-118470677D01*
X149330370Y-118470674D01*
X149324953Y-118466533D01*
X149162399Y-118390733D01*
X148987360Y-118351607D01*
X148981869Y-118351300D01*
X123990523Y-118351300D01*
X123922402Y-118331298D01*
X123901428Y-118314395D01*
X120009239Y-114422206D01*
X119975213Y-114359894D01*
X119972334Y-114333111D01*
X119972334Y-111379000D01*
X137316318Y-111379000D01*
X137336956Y-111535762D01*
X137397464Y-111681841D01*
X137493718Y-111807282D01*
X137619159Y-111903536D01*
X137765238Y-111964044D01*
X137922000Y-111984682D01*
X137930188Y-111983604D01*
X138070574Y-111965122D01*
X138078762Y-111964044D01*
X138224841Y-111903536D01*
X138350282Y-111807282D01*
X138391323Y-111753796D01*
X138448661Y-111711929D01*
X138491286Y-111704500D01*
X141036984Y-111704500D01*
X141105105Y-111724502D01*
X141126079Y-111741405D01*
X142242291Y-112857617D01*
X142276317Y-112919929D01*
X142278118Y-112963157D01*
X142269318Y-113030000D01*
X142289956Y-113186762D01*
X142350464Y-113332841D01*
X142446718Y-113458282D01*
X142572159Y-113554536D01*
X142718238Y-113615044D01*
X142875000Y-113635682D01*
X142883188Y-113634604D01*
X143023574Y-113616122D01*
X143031762Y-113615044D01*
X143177841Y-113554536D01*
X143303282Y-113458282D01*
X143399536Y-113332841D01*
X143460044Y-113186762D01*
X143480682Y-113030000D01*
X143465366Y-112913662D01*
X161758520Y-112913662D01*
X161775759Y-113118953D01*
X161832544Y-113316986D01*
X161835359Y-113322463D01*
X161835360Y-113322466D01*
X161856247Y-113363107D01*
X161926712Y-113500218D01*
X162054677Y-113661670D01*
X162211564Y-113795191D01*
X162391398Y-113895697D01*
X162486238Y-113926513D01*
X162581471Y-113957456D01*
X162581475Y-113957457D01*
X162587329Y-113959359D01*
X162791894Y-113983751D01*
X162798029Y-113983279D01*
X162798031Y-113983279D01*
X162854039Y-113978969D01*
X162997300Y-113967946D01*
X163003230Y-113966290D01*
X163003232Y-113966290D01*
X163189797Y-113914200D01*
X163189796Y-113914200D01*
X163195725Y-113912545D01*
X163201214Y-113909772D01*
X163201220Y-113909770D01*
X163374116Y-113822433D01*
X163379610Y-113819658D01*
X163541951Y-113692824D01*
X163609089Y-113615044D01*
X163672540Y-113541534D01*
X163672540Y-113541533D01*
X163676564Y-113536872D01*
X163697387Y-113500218D01*
X163775276Y-113363107D01*
X163778323Y-113357744D01*
X163843351Y-113162263D01*
X163869171Y-112957874D01*
X163869583Y-112928400D01*
X163849480Y-112723370D01*
X163789935Y-112526149D01*
X163693218Y-112344249D01*
X163619859Y-112254302D01*
X163566906Y-112189375D01*
X163566903Y-112189372D01*
X163563011Y-112184600D01*
X163545786Y-112170350D01*
X163409025Y-112057211D01*
X163409021Y-112057209D01*
X163404275Y-112053282D01*
X163223055Y-111955297D01*
X163026254Y-111894377D01*
X163020129Y-111893733D01*
X163020128Y-111893733D01*
X162827498Y-111873487D01*
X162827496Y-111873487D01*
X162821369Y-111872843D01*
X162734529Y-111880746D01*
X162622342Y-111890955D01*
X162622339Y-111890956D01*
X162616203Y-111891514D01*
X162418572Y-111949680D01*
X162236002Y-112045126D01*
X162231201Y-112048986D01*
X162231198Y-112048988D01*
X162220971Y-112057211D01*
X162075447Y-112174215D01*
X161943024Y-112332030D01*
X161940056Y-112337428D01*
X161940053Y-112337433D01*
X161879205Y-112448116D01*
X161843776Y-112512562D01*
X161781484Y-112708932D01*
X161780798Y-112715049D01*
X161780797Y-112715053D01*
X161761527Y-112886851D01*
X161758520Y-112913662D01*
X143465366Y-112913662D01*
X143460044Y-112873238D01*
X143399536Y-112727159D01*
X143303282Y-112601718D01*
X143177841Y-112505464D01*
X143031762Y-112444956D01*
X142875000Y-112424318D01*
X142808157Y-112433118D01*
X142738010Y-112422179D01*
X142702617Y-112397291D01*
X141468111Y-111162785D01*
X141460684Y-111154681D01*
X141443541Y-111134251D01*
X141443542Y-111134251D01*
X141436455Y-111125806D01*
X141423679Y-111118430D01*
X141403815Y-111106961D01*
X141394544Y-111101055D01*
X141372715Y-111085770D01*
X141363684Y-111079446D01*
X141353034Y-111076592D01*
X141349866Y-111075115D01*
X141346590Y-111073923D01*
X141337045Y-111068412D01*
X141303301Y-111062462D01*
X141299942Y-111061870D01*
X141289215Y-111059492D01*
X141252807Y-111049736D01*
X141241822Y-111050697D01*
X141241820Y-111050697D01*
X141215272Y-111053020D01*
X141204290Y-111053500D01*
X138491286Y-111053500D01*
X138423165Y-111033498D01*
X138391323Y-111004204D01*
X138355305Y-110957264D01*
X138350282Y-110950718D01*
X138224841Y-110854464D01*
X138078762Y-110793956D01*
X137922000Y-110773318D01*
X137765238Y-110793956D01*
X137619159Y-110854464D01*
X137493718Y-110950718D01*
X137397464Y-111076159D01*
X137336956Y-111222238D01*
X137335878Y-111230426D01*
X137331523Y-111263509D01*
X137316318Y-111379000D01*
X119972334Y-111379000D01*
X119972334Y-106234500D01*
X119992336Y-106166379D01*
X120045992Y-106119886D01*
X120098334Y-106108500D01*
X140395500Y-106108500D01*
X140463621Y-106128502D01*
X140510114Y-106182158D01*
X140521500Y-106234500D01*
X140521500Y-108031028D01*
X140520422Y-108047474D01*
X140516535Y-108077000D01*
X140521500Y-108114714D01*
X140521500Y-108114720D01*
X140536313Y-108227235D01*
X140594302Y-108367233D01*
X140663388Y-108457268D01*
X140663391Y-108457271D01*
X140686549Y-108487451D01*
X140693099Y-108492477D01*
X140710179Y-108505583D01*
X140722570Y-108516450D01*
X143324550Y-111118430D01*
X143335417Y-111130821D01*
X143353549Y-111154451D01*
X143383729Y-111177609D01*
X143383732Y-111177612D01*
X143473768Y-111246699D01*
X143481398Y-111249859D01*
X143481399Y-111249860D01*
X143526488Y-111268536D01*
X143613764Y-111304687D01*
X143726280Y-111319500D01*
X143764000Y-111324466D01*
X143772188Y-111323388D01*
X143772189Y-111323388D01*
X143793533Y-111320578D01*
X143809979Y-111319500D01*
X144956194Y-111319500D01*
X144988803Y-111323793D01*
X144996613Y-111325886D01*
X145004238Y-111329044D01*
X145012422Y-111330121D01*
X145012424Y-111330122D01*
X145152812Y-111348604D01*
X145161000Y-111349682D01*
X145169188Y-111348604D01*
X145309576Y-111330122D01*
X145309578Y-111330121D01*
X145317762Y-111329044D01*
X145325387Y-111325886D01*
X145333197Y-111323793D01*
X145365806Y-111319500D01*
X152576194Y-111319500D01*
X152608803Y-111323793D01*
X152616613Y-111325886D01*
X152624238Y-111329044D01*
X152632422Y-111330121D01*
X152632424Y-111330122D01*
X152772812Y-111348604D01*
X152781000Y-111349682D01*
X152789188Y-111348604D01*
X152929574Y-111330122D01*
X152937762Y-111329044D01*
X153083841Y-111268536D01*
X153209282Y-111172282D01*
X153305536Y-111046841D01*
X153308695Y-111039215D01*
X153312737Y-111032214D01*
X153332761Y-111006119D01*
X153739630Y-110599250D01*
X153752021Y-110588383D01*
X153769101Y-110575277D01*
X153775651Y-110570251D01*
X153798809Y-110540071D01*
X153798812Y-110540068D01*
X153867899Y-110450032D01*
X153903645Y-110363732D01*
X153925887Y-110310036D01*
X153940700Y-110197520D01*
X153945666Y-110159800D01*
X153941778Y-110130267D01*
X153940700Y-110113821D01*
X153940700Y-105868806D01*
X153944993Y-105836197D01*
X153947086Y-105828387D01*
X153950244Y-105820762D01*
X153953263Y-105797835D01*
X153969804Y-105672188D01*
X153970882Y-105664000D01*
X153954825Y-105542033D01*
X153951322Y-105515424D01*
X153951321Y-105515422D01*
X153950244Y-105507238D01*
X153947086Y-105499613D01*
X153944993Y-105491803D01*
X153940700Y-105459194D01*
X153940700Y-104633262D01*
X161758520Y-104633262D01*
X161759036Y-104639406D01*
X161772944Y-104805025D01*
X161775759Y-104838553D01*
X161832544Y-105036586D01*
X161835359Y-105042063D01*
X161835360Y-105042066D01*
X161912610Y-105192378D01*
X161926712Y-105219818D01*
X162054677Y-105381270D01*
X162059370Y-105385264D01*
X162059371Y-105385265D01*
X162146238Y-105459194D01*
X162211564Y-105514791D01*
X162391398Y-105615297D01*
X162486238Y-105646113D01*
X162581471Y-105677056D01*
X162581475Y-105677057D01*
X162587329Y-105678959D01*
X162791894Y-105703351D01*
X162798029Y-105702879D01*
X162798031Y-105702879D01*
X162854039Y-105698569D01*
X162997300Y-105687546D01*
X163003230Y-105685890D01*
X163003232Y-105685890D01*
X163189797Y-105633800D01*
X163189796Y-105633800D01*
X163195725Y-105632145D01*
X163201214Y-105629372D01*
X163201220Y-105629370D01*
X163338314Y-105560118D01*
X163379610Y-105539258D01*
X163541951Y-105412424D01*
X163676564Y-105256472D01*
X163697387Y-105219818D01*
X163763657Y-105103160D01*
X163778323Y-105077344D01*
X163843351Y-104881863D01*
X163869171Y-104677474D01*
X163869583Y-104648000D01*
X163849480Y-104442970D01*
X163789935Y-104245749D01*
X163693218Y-104063849D01*
X163572163Y-103915421D01*
X163566906Y-103908975D01*
X163566903Y-103908972D01*
X163563011Y-103904200D01*
X163515095Y-103864560D01*
X163409025Y-103776811D01*
X163409021Y-103776809D01*
X163404275Y-103772882D01*
X163223055Y-103674897D01*
X163026254Y-103613977D01*
X163020129Y-103613333D01*
X163020128Y-103613333D01*
X162827498Y-103593087D01*
X162827496Y-103593087D01*
X162821369Y-103592443D01*
X162734529Y-103600346D01*
X162622342Y-103610555D01*
X162622339Y-103610556D01*
X162616203Y-103611114D01*
X162418572Y-103669280D01*
X162236002Y-103764726D01*
X162231201Y-103768586D01*
X162231198Y-103768588D01*
X162111833Y-103864560D01*
X162075447Y-103893815D01*
X161943024Y-104051630D01*
X161940056Y-104057028D01*
X161940053Y-104057033D01*
X161853237Y-104214953D01*
X161843776Y-104232162D01*
X161781484Y-104428532D01*
X161780798Y-104434649D01*
X161780797Y-104434653D01*
X161771409Y-104518352D01*
X161758520Y-104633262D01*
X153940700Y-104633262D01*
X153940700Y-102093262D01*
X161758520Y-102093262D01*
X161759036Y-102099406D01*
X161772016Y-102253975D01*
X161775759Y-102298553D01*
X161832544Y-102496586D01*
X161835359Y-102502063D01*
X161835360Y-102502066D01*
X161856247Y-102542707D01*
X161926712Y-102679818D01*
X162054677Y-102841270D01*
X162059370Y-102845264D01*
X162059371Y-102845265D01*
X162184134Y-102951446D01*
X162211564Y-102974791D01*
X162391398Y-103075297D01*
X162486238Y-103106113D01*
X162581471Y-103137056D01*
X162581475Y-103137057D01*
X162587329Y-103138959D01*
X162791894Y-103163351D01*
X162798029Y-103162879D01*
X162798031Y-103162879D01*
X162854039Y-103158569D01*
X162997300Y-103147546D01*
X163003230Y-103145890D01*
X163003232Y-103145890D01*
X163189797Y-103093800D01*
X163189796Y-103093800D01*
X163195725Y-103092145D01*
X163201214Y-103089372D01*
X163201220Y-103089370D01*
X163374116Y-103002033D01*
X163379610Y-102999258D01*
X163409107Y-102976213D01*
X163537101Y-102876213D01*
X163541951Y-102872424D01*
X163676564Y-102716472D01*
X163697387Y-102679818D01*
X163775276Y-102542707D01*
X163778323Y-102537344D01*
X163843351Y-102341863D01*
X163869171Y-102137474D01*
X163869583Y-102108000D01*
X163849480Y-101902970D01*
X163789935Y-101705749D01*
X163693218Y-101523849D01*
X163591766Y-101399457D01*
X163566906Y-101368975D01*
X163566903Y-101368972D01*
X163563011Y-101364200D01*
X163537751Y-101343303D01*
X163409025Y-101236811D01*
X163409021Y-101236809D01*
X163404275Y-101232882D01*
X163250666Y-101149826D01*
X163228474Y-101137827D01*
X163223055Y-101134897D01*
X163026254Y-101073977D01*
X163020129Y-101073333D01*
X163020128Y-101073333D01*
X162827498Y-101053087D01*
X162827496Y-101053087D01*
X162821369Y-101052443D01*
X162734529Y-101060346D01*
X162622342Y-101070555D01*
X162622339Y-101070556D01*
X162616203Y-101071114D01*
X162418572Y-101129280D01*
X162236002Y-101224726D01*
X162231201Y-101228586D01*
X162231198Y-101228588D01*
X162114063Y-101322767D01*
X162075447Y-101353815D01*
X161943024Y-101511630D01*
X161940056Y-101517028D01*
X161940053Y-101517033D01*
X161867809Y-101648446D01*
X161843776Y-101692162D01*
X161781484Y-101888532D01*
X161780798Y-101894649D01*
X161780797Y-101894653D01*
X161759232Y-102086917D01*
X161758520Y-102093262D01*
X153940700Y-102093262D01*
X153940700Y-98350406D01*
X153944993Y-98317797D01*
X153947086Y-98309987D01*
X153950244Y-98302362D01*
X153955872Y-98259617D01*
X153969804Y-98153788D01*
X153970882Y-98145600D01*
X153950244Y-97988838D01*
X153889736Y-97842759D01*
X153793482Y-97717318D01*
X153668041Y-97621064D01*
X153521962Y-97560556D01*
X153365200Y-97539918D01*
X153208438Y-97560556D01*
X153062359Y-97621064D01*
X152936918Y-97717318D01*
X152840664Y-97842759D01*
X152780156Y-97988838D01*
X152759518Y-98145600D01*
X152760596Y-98153788D01*
X152774529Y-98259617D01*
X152780156Y-98302362D01*
X152783314Y-98309987D01*
X152785407Y-98317797D01*
X152789700Y-98350406D01*
X152789700Y-105459194D01*
X152785407Y-105491803D01*
X152783314Y-105499613D01*
X152780156Y-105507238D01*
X152779079Y-105515422D01*
X152779078Y-105515424D01*
X152775575Y-105542033D01*
X152759518Y-105664000D01*
X152760596Y-105672188D01*
X152777138Y-105797835D01*
X152780156Y-105820762D01*
X152783314Y-105828387D01*
X152785407Y-105836197D01*
X152789700Y-105868806D01*
X152789700Y-109869230D01*
X152769698Y-109937351D01*
X152752795Y-109958325D01*
X152579525Y-110131595D01*
X152517213Y-110165621D01*
X152490430Y-110168500D01*
X145365806Y-110168500D01*
X145333197Y-110164207D01*
X145325387Y-110162114D01*
X145317762Y-110158956D01*
X145309578Y-110157879D01*
X145309576Y-110157878D01*
X145169188Y-110139396D01*
X145161000Y-110138318D01*
X145152812Y-110139396D01*
X145012424Y-110157878D01*
X145012422Y-110157879D01*
X145004238Y-110158956D01*
X144996613Y-110162114D01*
X144988803Y-110164207D01*
X144956194Y-110168500D01*
X144054570Y-110168500D01*
X143986449Y-110148498D01*
X143965475Y-110131595D01*
X141709405Y-107875525D01*
X141675379Y-107813213D01*
X141672500Y-107786430D01*
X141672500Y-104223141D01*
X142523318Y-104223141D01*
X142543956Y-104379903D01*
X142604464Y-104525982D01*
X142700718Y-104651423D01*
X142826159Y-104747677D01*
X142972238Y-104808185D01*
X143129000Y-104828823D01*
X143137188Y-104827745D01*
X143277574Y-104809263D01*
X143285762Y-104808185D01*
X143431841Y-104747677D01*
X143557282Y-104651423D01*
X143653536Y-104525982D01*
X143714044Y-104379903D01*
X143734682Y-104223141D01*
X143714044Y-104066379D01*
X143656901Y-103928424D01*
X143649312Y-103857834D01*
X143684215Y-103791111D01*
X143861921Y-103613405D01*
X143924233Y-103579379D01*
X143951016Y-103576500D01*
X144592983Y-103576500D01*
X144661104Y-103596502D01*
X144682079Y-103613405D01*
X144798596Y-103729923D01*
X144832621Y-103792235D01*
X144835500Y-103819018D01*
X144835500Y-105729714D01*
X144815498Y-105797835D01*
X144786204Y-105829677D01*
X144732718Y-105870718D01*
X144636464Y-105996159D01*
X144575956Y-106142238D01*
X144555318Y-106299000D01*
X144575956Y-106455762D01*
X144636464Y-106601841D01*
X144732718Y-106727282D01*
X144858159Y-106823536D01*
X145004238Y-106884044D01*
X145161000Y-106904682D01*
X145169188Y-106903604D01*
X145309574Y-106885122D01*
X145317762Y-106884044D01*
X145463841Y-106823536D01*
X145589282Y-106727282D01*
X145685536Y-106601841D01*
X145746044Y-106455762D01*
X145766682Y-106299000D01*
X145746044Y-106142238D01*
X145685536Y-105996159D01*
X145589282Y-105870718D01*
X145535796Y-105829677D01*
X145493929Y-105772339D01*
X145486500Y-105729714D01*
X145486500Y-103651710D01*
X145486980Y-103640728D01*
X145489303Y-103614175D01*
X145489303Y-103614170D01*
X145490263Y-103603193D01*
X145480508Y-103566783D01*
X145478133Y-103556072D01*
X145471588Y-103518955D01*
X145466078Y-103509411D01*
X145464886Y-103506135D01*
X145463407Y-103502964D01*
X145460554Y-103492316D01*
X145438940Y-103461448D01*
X145433036Y-103452179D01*
X145419707Y-103429092D01*
X145419704Y-103429088D01*
X145414194Y-103419545D01*
X145385330Y-103395325D01*
X145377227Y-103387900D01*
X145024104Y-103034778D01*
X145016677Y-103026673D01*
X144999541Y-103006251D01*
X144992455Y-102997806D01*
X144982906Y-102992293D01*
X144959815Y-102978961D01*
X144950544Y-102973055D01*
X144928715Y-102957770D01*
X144919684Y-102951446D01*
X144909034Y-102948592D01*
X144905866Y-102947115D01*
X144902590Y-102945923D01*
X144893045Y-102940412D01*
X144859301Y-102934462D01*
X144855942Y-102933870D01*
X144845215Y-102931492D01*
X144808807Y-102921736D01*
X144797822Y-102922697D01*
X144797820Y-102922697D01*
X144771272Y-102925020D01*
X144760290Y-102925500D01*
X143783710Y-102925500D01*
X143772728Y-102925020D01*
X143746180Y-102922697D01*
X143746178Y-102922697D01*
X143735193Y-102921736D01*
X143698785Y-102931492D01*
X143688058Y-102933870D01*
X143684699Y-102934462D01*
X143650955Y-102940412D01*
X143641410Y-102945923D01*
X143638134Y-102947115D01*
X143634966Y-102948592D01*
X143624316Y-102951446D01*
X143615285Y-102957770D01*
X143593456Y-102973055D01*
X143584185Y-102978961D01*
X143561094Y-102992293D01*
X143551545Y-102997806D01*
X143544459Y-103006251D01*
X143527315Y-103026682D01*
X143519889Y-103034785D01*
X142912785Y-103641889D01*
X142904682Y-103649315D01*
X142880081Y-103669958D01*
X142847309Y-103689844D01*
X142826159Y-103698605D01*
X142819605Y-103703634D01*
X142743712Y-103761869D01*
X142700718Y-103794859D01*
X142604464Y-103920300D01*
X142543956Y-104066379D01*
X142523318Y-104223141D01*
X141672500Y-104223141D01*
X141672500Y-101903570D01*
X141692502Y-101835449D01*
X141709405Y-101814475D01*
X142642119Y-100881761D01*
X142668214Y-100861737D01*
X142675215Y-100857695D01*
X142682841Y-100854536D01*
X142808282Y-100758282D01*
X142904536Y-100632841D01*
X142965044Y-100486762D01*
X142985682Y-100330000D01*
X142965044Y-100173238D01*
X142961886Y-100165613D01*
X142959793Y-100157803D01*
X142955500Y-100125194D01*
X142955500Y-95423762D01*
X142975502Y-95355641D01*
X142981529Y-95347070D01*
X143018536Y-95298841D01*
X143021694Y-95291216D01*
X143025739Y-95284211D01*
X143045761Y-95258119D01*
X143330475Y-94973405D01*
X143392787Y-94939379D01*
X143419570Y-94936500D01*
X144979494Y-94936500D01*
X145012103Y-94940793D01*
X145019913Y-94942886D01*
X145027538Y-94946044D01*
X145035722Y-94947121D01*
X145035724Y-94947122D01*
X145176112Y-94965604D01*
X145184300Y-94966682D01*
X145192488Y-94965604D01*
X145332874Y-94947122D01*
X145341062Y-94946044D01*
X145487141Y-94885536D01*
X145612582Y-94789282D01*
X145708836Y-94663841D01*
X145769344Y-94517762D01*
X145789982Y-94361000D01*
X145779376Y-94280438D01*
X145770422Y-94212426D01*
X145769344Y-94204238D01*
X145708836Y-94058159D01*
X145612582Y-93932718D01*
X145487141Y-93836464D01*
X145341062Y-93775956D01*
X145298678Y-93770376D01*
X145192488Y-93756396D01*
X145184300Y-93755318D01*
X145176112Y-93756396D01*
X145035724Y-93774878D01*
X145035722Y-93774879D01*
X145027538Y-93775956D01*
X145019913Y-93779114D01*
X145012103Y-93781207D01*
X144979494Y-93785500D01*
X143174979Y-93785500D01*
X143158533Y-93784422D01*
X143137189Y-93781612D01*
X143137188Y-93781612D01*
X143129000Y-93780534D01*
X143091280Y-93785500D01*
X142978764Y-93800313D01*
X142937602Y-93817363D01*
X142838768Y-93858301D01*
X142748732Y-93927388D01*
X142748729Y-93927391D01*
X142718549Y-93950549D01*
X142713523Y-93957099D01*
X142700417Y-93974179D01*
X142689550Y-93986570D01*
X142231881Y-94444239D01*
X142205786Y-94464263D01*
X142198785Y-94468305D01*
X142191159Y-94471464D01*
X142065718Y-94567718D01*
X141969464Y-94693159D01*
X141966305Y-94700786D01*
X141963462Y-94705710D01*
X141954311Y-94719408D01*
X141946391Y-94729729D01*
X141946384Y-94729737D01*
X141890225Y-94802925D01*
X141882331Y-94813212D01*
X141882329Y-94813216D01*
X141877302Y-94819767D01*
X141848751Y-94888696D01*
X141824550Y-94947122D01*
X141819313Y-94959764D01*
X141818235Y-94967952D01*
X141809408Y-95034999D01*
X141804500Y-95072280D01*
X141804500Y-95072286D01*
X141799535Y-95110000D01*
X141800613Y-95118188D01*
X141800613Y-95118189D01*
X141803422Y-95139526D01*
X141804500Y-95155972D01*
X141804500Y-100039430D01*
X141784498Y-100107551D01*
X141767595Y-100128525D01*
X140722570Y-101173550D01*
X140710179Y-101184417D01*
X140686549Y-101202549D01*
X140681523Y-101209099D01*
X140681521Y-101209101D01*
X140663394Y-101232724D01*
X140663385Y-101232735D01*
X140656067Y-101242271D01*
X140656068Y-101242272D01*
X140594302Y-101322767D01*
X140536313Y-101462764D01*
X140521500Y-101575280D01*
X140521500Y-101575286D01*
X140516535Y-101613000D01*
X140517613Y-101621188D01*
X140517613Y-101621189D01*
X140520422Y-101642526D01*
X140521500Y-101658972D01*
X140521500Y-104331500D01*
X140501498Y-104399621D01*
X140447842Y-104446114D01*
X140395500Y-104457500D01*
X120098334Y-104457500D01*
X120030213Y-104437498D01*
X119983720Y-104383842D01*
X119972334Y-104331500D01*
X119972334Y-103598334D01*
X119992336Y-103530213D01*
X120045992Y-103483720D01*
X120098334Y-103472334D01*
X122542959Y-103472334D01*
X122553501Y-103472776D01*
X122603257Y-103476954D01*
X122610016Y-103476052D01*
X122610021Y-103476052D01*
X122680630Y-103466631D01*
X122683684Y-103466261D01*
X122754494Y-103458568D01*
X122761278Y-103457831D01*
X122767750Y-103455653D01*
X122770063Y-103455144D01*
X122770626Y-103455045D01*
X122771417Y-103454861D01*
X122771937Y-103454710D01*
X122774278Y-103454135D01*
X122781040Y-103453233D01*
X122854406Y-103426529D01*
X122857314Y-103425511D01*
X122924797Y-103402801D01*
X122931269Y-103400623D01*
X122937121Y-103397107D01*
X122939309Y-103396096D01*
X122939829Y-103395882D01*
X122940518Y-103395553D01*
X122941021Y-103395279D01*
X122943169Y-103394222D01*
X122949581Y-103391888D01*
X123015513Y-103350047D01*
X123018080Y-103348462D01*
X123079163Y-103311760D01*
X123079165Y-103311758D01*
X123085009Y-103308247D01*
X123089967Y-103303559D01*
X123091886Y-103302102D01*
X123092809Y-103301461D01*
X123096655Y-103298553D01*
X123101019Y-103295783D01*
X123105119Y-103292118D01*
X123157011Y-103240226D01*
X123159533Y-103237773D01*
X123210363Y-103189706D01*
X123210366Y-103189702D01*
X123215326Y-103185012D01*
X123219164Y-103179364D01*
X123223270Y-103174540D01*
X123230127Y-103167110D01*
X123951577Y-102445659D01*
X123953983Y-102443253D01*
X124012174Y-102370878D01*
X124033851Y-102343918D01*
X124033854Y-102343913D01*
X124038126Y-102338600D01*
X124117876Y-102177946D01*
X124120933Y-102165688D01*
X124159616Y-102010538D01*
X124159616Y-102010537D01*
X124161267Y-102003916D01*
X124164251Y-101897068D01*
X124166084Y-101831448D01*
X124166084Y-101831443D01*
X124166274Y-101824627D01*
X124132666Y-101648446D01*
X124118090Y-101614436D01*
X124076342Y-101517033D01*
X124062009Y-101483591D01*
X123979952Y-101368975D01*
X123961573Y-101343303D01*
X123961571Y-101343301D01*
X123957600Y-101337754D01*
X123824311Y-101217741D01*
X123668360Y-101129147D01*
X123525171Y-101084823D01*
X123503543Y-101078128D01*
X123503541Y-101078128D01*
X123497023Y-101076110D01*
X123318294Y-101061102D01*
X123311534Y-101062004D01*
X123311532Y-101062004D01*
X123221799Y-101073977D01*
X123140511Y-101084823D01*
X123134093Y-101087159D01*
X122978386Y-101143831D01*
X122978383Y-101143833D01*
X122971969Y-101146167D01*
X122883125Y-101202549D01*
X122835564Y-101232732D01*
X122820531Y-101242272D01*
X122816432Y-101245938D01*
X122277941Y-101784429D01*
X122215629Y-101818455D01*
X122188846Y-101821334D01*
X119225127Y-101821334D01*
X119204548Y-101819642D01*
X119199923Y-101818876D01*
X119199920Y-101818876D01*
X119193186Y-101817761D01*
X119186369Y-101818118D01*
X119186365Y-101818118D01*
X119128311Y-101821161D01*
X119121717Y-101821334D01*
X116470163Y-101821334D01*
X116402042Y-101801332D01*
X116381068Y-101784430D01*
X116022186Y-101425549D01*
X115988161Y-101363236D01*
X115985281Y-101336453D01*
X115985281Y-98538422D01*
X120827899Y-98538422D01*
X120848537Y-98695184D01*
X120909045Y-98841263D01*
X121005299Y-98966704D01*
X121130740Y-99062958D01*
X121138366Y-99066117D01*
X121145367Y-99070159D01*
X121171462Y-99090183D01*
X121883131Y-99801852D01*
X121893998Y-99814243D01*
X121912130Y-99837873D01*
X121942310Y-99861031D01*
X121942313Y-99861034D01*
X122032348Y-99930121D01*
X122123827Y-99968012D01*
X122172345Y-99988109D01*
X122284861Y-100002922D01*
X122284862Y-100002922D01*
X122284872Y-100002923D01*
X122314391Y-100006809D01*
X122314393Y-100006809D01*
X122322581Y-100007887D01*
X122352109Y-100004000D01*
X122368552Y-100002922D01*
X127081021Y-100002922D01*
X127097467Y-100004000D01*
X127118804Y-100006809D01*
X127118805Y-100006809D01*
X127126993Y-100007887D01*
X127135181Y-100006809D01*
X127135183Y-100006809D01*
X127164702Y-100002923D01*
X127164712Y-100002922D01*
X127164713Y-100002922D01*
X127277229Y-99988109D01*
X127417226Y-99930120D01*
X127458435Y-99898499D01*
X127507261Y-99861034D01*
X127507264Y-99861031D01*
X127537444Y-99837873D01*
X127555576Y-99814243D01*
X127566443Y-99801852D01*
X129097811Y-98270484D01*
X129110202Y-98259617D01*
X129127282Y-98246511D01*
X129133832Y-98241485D01*
X129156990Y-98211305D01*
X129156993Y-98211302D01*
X129226080Y-98121266D01*
X129271261Y-98012188D01*
X129284068Y-97981270D01*
X129298881Y-97868754D01*
X129303847Y-97831034D01*
X129299959Y-97801501D01*
X129298881Y-97785055D01*
X129298881Y-95087189D01*
X129318883Y-95019068D01*
X129335786Y-94998094D01*
X129344919Y-94988961D01*
X129371014Y-94968937D01*
X129378015Y-94964895D01*
X129385641Y-94961736D01*
X129511082Y-94865482D01*
X129607336Y-94740041D01*
X129667844Y-94593962D01*
X129676872Y-94525391D01*
X129687404Y-94445388D01*
X129688482Y-94437200D01*
X129667844Y-94280438D01*
X129607336Y-94134359D01*
X129511082Y-94008918D01*
X129385641Y-93912664D01*
X129239562Y-93852156D01*
X129082800Y-93831518D01*
X128926038Y-93852156D01*
X128779959Y-93912664D01*
X128654518Y-94008918D01*
X128558264Y-94134359D01*
X128555105Y-94141985D01*
X128551063Y-94148986D01*
X128531039Y-94175081D01*
X128348951Y-94357169D01*
X128336560Y-94368036D01*
X128312930Y-94386168D01*
X128289772Y-94416348D01*
X128289769Y-94416351D01*
X128234156Y-94488828D01*
X128220683Y-94506386D01*
X128217524Y-94514012D01*
X128217523Y-94514014D01*
X128165854Y-94638754D01*
X128162694Y-94646383D01*
X128147881Y-94758899D01*
X128147881Y-94758905D01*
X128142916Y-94796619D01*
X128143994Y-94804807D01*
X128143994Y-94804808D01*
X128146803Y-94826145D01*
X128147881Y-94842591D01*
X128147881Y-97540464D01*
X128127879Y-97608585D01*
X128110976Y-97629559D01*
X126925518Y-98815017D01*
X126863206Y-98849043D01*
X126836423Y-98851922D01*
X122613151Y-98851922D01*
X122545030Y-98831920D01*
X122524056Y-98815017D01*
X121985342Y-98276303D01*
X121965318Y-98250208D01*
X121961276Y-98243207D01*
X121958117Y-98235581D01*
X121861863Y-98110140D01*
X121736422Y-98013886D01*
X121590343Y-97953378D01*
X121433581Y-97932740D01*
X121276819Y-97953378D01*
X121130740Y-98013886D01*
X121005299Y-98110140D01*
X121000276Y-98116686D01*
X120978090Y-98145600D01*
X120909045Y-98235581D01*
X120848537Y-98381660D01*
X120827899Y-98538422D01*
X115985281Y-98538422D01*
X115985281Y-95682367D01*
X116005283Y-95614246D01*
X116028770Y-95587142D01*
X116032751Y-95583693D01*
X116050226Y-95566571D01*
X116093678Y-95488889D01*
X116113680Y-95420768D01*
X116115669Y-95406934D01*
X116121142Y-95368870D01*
X116121142Y-95368863D01*
X116121781Y-95364422D01*
X116121781Y-91755622D01*
X116117211Y-91713110D01*
X116105825Y-91660768D01*
X116103403Y-91650860D01*
X116061545Y-91572308D01*
X116015052Y-91518652D01*
X115997930Y-91501177D01*
X115982266Y-91492415D01*
X120288619Y-91492415D01*
X121051619Y-91492415D01*
X121119740Y-91512417D01*
X121166233Y-91566073D01*
X121177619Y-91618415D01*
X121177619Y-95048415D01*
X122066619Y-95048415D01*
X122066619Y-91618415D01*
X122086621Y-91550294D01*
X122140277Y-91503801D01*
X122192619Y-91492415D01*
X122701619Y-91492415D01*
X122701619Y-88444415D01*
X120288619Y-88444415D01*
X120288619Y-91492415D01*
X115982266Y-91492415D01*
X115943736Y-91470863D01*
X115926425Y-91461180D01*
X115926424Y-91461180D01*
X115920248Y-91457725D01*
X115878879Y-91445578D01*
X115856450Y-91438992D01*
X115856446Y-91438991D01*
X115852127Y-91437723D01*
X115847679Y-91437083D01*
X115847672Y-91437082D01*
X115800229Y-91430261D01*
X115800222Y-91430261D01*
X115795781Y-91429622D01*
X114523781Y-91429622D01*
X114520435Y-91429982D01*
X114520429Y-91429982D01*
X114506345Y-91431496D01*
X114481269Y-91434192D01*
X114428927Y-91445578D01*
X114419019Y-91448000D01*
X114340467Y-91489858D01*
X114286811Y-91536351D01*
X114269336Y-91553473D01*
X114225884Y-91631155D01*
X114205882Y-91699276D01*
X114205242Y-91703724D01*
X114205241Y-91703731D01*
X114203410Y-91716473D01*
X114197781Y-91755622D01*
X114197781Y-95364422D01*
X114202351Y-95406934D01*
X114213737Y-95459276D01*
X114216159Y-95469184D01*
X114258017Y-95547736D01*
X114292159Y-95587138D01*
X114303505Y-95600232D01*
X114332998Y-95664813D01*
X114334281Y-95682745D01*
X114334281Y-101690567D01*
X114333839Y-101701109D01*
X114329661Y-101750865D01*
X114330563Y-101757624D01*
X114330563Y-101757629D01*
X114339984Y-101828238D01*
X114340354Y-101831292D01*
X114345935Y-101882659D01*
X114348784Y-101908886D01*
X114350962Y-101915358D01*
X114351471Y-101917671D01*
X114351570Y-101918234D01*
X114351754Y-101919025D01*
X114351905Y-101919545D01*
X114352480Y-101921886D01*
X114353382Y-101928648D01*
X114355716Y-101935059D01*
X114380086Y-102002014D01*
X114381104Y-102004922D01*
X114405992Y-102078877D01*
X114409508Y-102084729D01*
X114410519Y-102086917D01*
X114410733Y-102087437D01*
X114411062Y-102088126D01*
X114411336Y-102088629D01*
X114412393Y-102090777D01*
X114414727Y-102097189D01*
X114456568Y-102163121D01*
X114458143Y-102165672D01*
X114498368Y-102232617D01*
X114503056Y-102237575D01*
X114504513Y-102239494D01*
X114505154Y-102240417D01*
X114508062Y-102244263D01*
X114510832Y-102248627D01*
X114514497Y-102252727D01*
X114566389Y-102304619D01*
X114568842Y-102307141D01*
X114616909Y-102357971D01*
X114616913Y-102357974D01*
X114621603Y-102362934D01*
X114627251Y-102366772D01*
X114632075Y-102370878D01*
X114639505Y-102377735D01*
X115464028Y-103202257D01*
X115471171Y-103210025D01*
X115503400Y-103248163D01*
X115565480Y-103295627D01*
X115567788Y-103297437D01*
X115628660Y-103346379D01*
X115634771Y-103349413D01*
X115636793Y-103350706D01*
X115637257Y-103351031D01*
X115637923Y-103351445D01*
X115638399Y-103351707D01*
X115640470Y-103352961D01*
X115645885Y-103357101D01*
X115711933Y-103387900D01*
X115716623Y-103390087D01*
X115719394Y-103391421D01*
X115789314Y-103426129D01*
X115795937Y-103427780D01*
X115798195Y-103428611D01*
X115798716Y-103428828D01*
X115799450Y-103429088D01*
X115800000Y-103429250D01*
X115802258Y-103430019D01*
X115808439Y-103432901D01*
X115879062Y-103448687D01*
X115884636Y-103449933D01*
X115887634Y-103450642D01*
X115963344Y-103469519D01*
X115970167Y-103469710D01*
X115972547Y-103470036D01*
X115973701Y-103470244D01*
X115978445Y-103470902D01*
X115983478Y-103472027D01*
X115988969Y-103472334D01*
X116062358Y-103472334D01*
X116065876Y-103472383D01*
X116142633Y-103474527D01*
X116149339Y-103473248D01*
X116155651Y-103472740D01*
X116165758Y-103472334D01*
X118195334Y-103472334D01*
X118263455Y-103492336D01*
X118309948Y-103545992D01*
X118321334Y-103598334D01*
X118321334Y-104706824D01*
X118320892Y-104717366D01*
X118316714Y-104767122D01*
X118317616Y-104773882D01*
X118317616Y-104773884D01*
X118320227Y-104793451D01*
X118321334Y-104810115D01*
X118321334Y-114687224D01*
X118320892Y-114697766D01*
X118316714Y-114747522D01*
X118317616Y-114754281D01*
X118317616Y-114754286D01*
X118327037Y-114824895D01*
X118327407Y-114827949D01*
X118335837Y-114905543D01*
X118338015Y-114912015D01*
X118338524Y-114914328D01*
X118338623Y-114914891D01*
X118338807Y-114915682D01*
X118338958Y-114916202D01*
X118339533Y-114918543D01*
X118340435Y-114925305D01*
X118342769Y-114931716D01*
X118367139Y-114998671D01*
X118368157Y-115001579D01*
X118393045Y-115075534D01*
X118396561Y-115081386D01*
X118397572Y-115083574D01*
X118397786Y-115084094D01*
X118398115Y-115084783D01*
X118398389Y-115085286D01*
X118399446Y-115087434D01*
X118401780Y-115093846D01*
X118443621Y-115159778D01*
X118445196Y-115162329D01*
X118485421Y-115229274D01*
X118490109Y-115234232D01*
X118491566Y-115236151D01*
X118492207Y-115237074D01*
X118495115Y-115240920D01*
X118497885Y-115245284D01*
X118501550Y-115249384D01*
X118553443Y-115301277D01*
X118555896Y-115303799D01*
X118603965Y-115354631D01*
X118603968Y-115354633D01*
X118608656Y-115359591D01*
X118614301Y-115363427D01*
X118619129Y-115367536D01*
X118626561Y-115374395D01*
X120086836Y-116834669D01*
X121388372Y-118136205D01*
X121422398Y-118198517D01*
X121417333Y-118269332D01*
X121374786Y-118326168D01*
X121308266Y-118350979D01*
X121299277Y-118351300D01*
X99955190Y-118351300D01*
X99821691Y-118365803D01*
X99651700Y-118423011D01*
X99497960Y-118515387D01*
X99493000Y-118520078D01*
X99492998Y-118520079D01*
X99437219Y-118572827D01*
X99367643Y-118638622D01*
X99266829Y-118786966D01*
X99264297Y-118793296D01*
X99264295Y-118793300D01*
X99202755Y-118947161D01*
X99202754Y-118947166D01*
X99200221Y-118953498D01*
X99199107Y-118960225D01*
X99199106Y-118960230D01*
X99172042Y-119123710D01*
X99170927Y-119130448D01*
X81450000Y-119130448D01*
X81450000Y-116774000D01*
X94700000Y-116774000D01*
X94704570Y-116816512D01*
X94715956Y-116868854D01*
X94718378Y-116878762D01*
X94760236Y-116957314D01*
X94806729Y-117010970D01*
X94823851Y-117028445D01*
X94901533Y-117071897D01*
X94934654Y-117081622D01*
X94965331Y-117090630D01*
X94965335Y-117090631D01*
X94969654Y-117091899D01*
X94974102Y-117092539D01*
X94974109Y-117092540D01*
X95021552Y-117099361D01*
X95021559Y-117099361D01*
X95026000Y-117100000D01*
X110474000Y-117100000D01*
X110477346Y-117099640D01*
X110477352Y-117099640D01*
X110491436Y-117098126D01*
X110516512Y-117095430D01*
X110568854Y-117084044D01*
X110578762Y-117081622D01*
X110657314Y-117039764D01*
X110710970Y-116993271D01*
X110728445Y-116976149D01*
X110771897Y-116898467D01*
X110791899Y-116830346D01*
X110793888Y-116816512D01*
X110799361Y-116778448D01*
X110799361Y-116778441D01*
X110800000Y-116774000D01*
X110800000Y-112926000D01*
X110799348Y-112919929D01*
X110797372Y-112901554D01*
X110795430Y-112883488D01*
X110784044Y-112831146D01*
X110781622Y-112821238D01*
X110739764Y-112742686D01*
X110693271Y-112689030D01*
X110676149Y-112671555D01*
X110598467Y-112628103D01*
X110557098Y-112615956D01*
X110534669Y-112609370D01*
X110534665Y-112609369D01*
X110530346Y-112608101D01*
X110525898Y-112607461D01*
X110525891Y-112607460D01*
X110478448Y-112600639D01*
X110478441Y-112600639D01*
X110474000Y-112600000D01*
X95026000Y-112600000D01*
X95022654Y-112600360D01*
X95022648Y-112600360D01*
X95010018Y-112601718D01*
X94983488Y-112604570D01*
X94931146Y-112615956D01*
X94921238Y-112618378D01*
X94842686Y-112660236D01*
X94789030Y-112706729D01*
X94771555Y-112723851D01*
X94728103Y-112801533D01*
X94708101Y-112869654D01*
X94707461Y-112874102D01*
X94707460Y-112874109D01*
X94700873Y-112919929D01*
X94700000Y-112926000D01*
X94700000Y-116774000D01*
X81450000Y-116774000D01*
X81450000Y-105055361D01*
X95195316Y-105055361D01*
X95195540Y-105060027D01*
X95195540Y-105060033D01*
X95197309Y-105096851D01*
X95207443Y-105307820D01*
X95208356Y-105312409D01*
X95247110Y-105507238D01*
X95256752Y-105555713D01*
X95258331Y-105560111D01*
X95258333Y-105560118D01*
X95304254Y-105688018D01*
X95342160Y-105793595D01*
X95461792Y-106016240D01*
X95464587Y-106019984D01*
X95464589Y-106019986D01*
X95610226Y-106215018D01*
X95610231Y-106215024D01*
X95613018Y-106218756D01*
X95616327Y-106222036D01*
X95616332Y-106222042D01*
X95789200Y-106393408D01*
X95792517Y-106396696D01*
X95796279Y-106399454D01*
X95796282Y-106399457D01*
X95992575Y-106543384D01*
X95996346Y-106546149D01*
X96000481Y-106548325D01*
X96000485Y-106548327D01*
X96102199Y-106601841D01*
X96220026Y-106663833D01*
X96458644Y-106747162D01*
X96463237Y-106748034D01*
X96702369Y-106793435D01*
X96702372Y-106793435D01*
X96706958Y-106794306D01*
X96827081Y-106799026D01*
X96954845Y-106804046D01*
X96954850Y-106804046D01*
X96959513Y-106804229D01*
X97037657Y-106795671D01*
X97206107Y-106777223D01*
X97206112Y-106777222D01*
X97210760Y-106776713D01*
X97328861Y-106745620D01*
X97450658Y-106713554D01*
X97450661Y-106713553D01*
X97455181Y-106712363D01*
X97687405Y-106612591D01*
X97794774Y-106546149D01*
X97898358Y-106482050D01*
X97898362Y-106482047D01*
X97902331Y-106479591D01*
X97996989Y-106399457D01*
X98091672Y-106319302D01*
X98091673Y-106319301D01*
X98095238Y-106316283D01*
X98177886Y-106222042D01*
X98258806Y-106129771D01*
X98258810Y-106129766D01*
X98261888Y-106126256D01*
X98264418Y-106122323D01*
X98396094Y-105917610D01*
X98396096Y-105917607D01*
X98398619Y-105913684D01*
X98502428Y-105683236D01*
X98571034Y-105439976D01*
X98587263Y-105312409D01*
X98602533Y-105192378D01*
X98602533Y-105192372D01*
X98602931Y-105189247D01*
X98605268Y-105100000D01*
X98600115Y-105030662D01*
X98586883Y-104852597D01*
X98586882Y-104852593D01*
X98586537Y-104847945D01*
X98530756Y-104601428D01*
X98439150Y-104365863D01*
X98313731Y-104146426D01*
X98157255Y-103947938D01*
X97973160Y-103774758D01*
X97795788Y-103651710D01*
X97769331Y-103633356D01*
X97769328Y-103633354D01*
X97765489Y-103630691D01*
X97731998Y-103614175D01*
X97542993Y-103520968D01*
X97542990Y-103520967D01*
X97538805Y-103518903D01*
X97494379Y-103504682D01*
X97427540Y-103483287D01*
X97298087Y-103441849D01*
X97293480Y-103441099D01*
X97293477Y-103441098D01*
X97053235Y-103401972D01*
X97053236Y-103401972D01*
X97048624Y-103401221D01*
X96926026Y-103399616D01*
X96800573Y-103397974D01*
X96800570Y-103397974D01*
X96795896Y-103397913D01*
X96545455Y-103431996D01*
X96540965Y-103433305D01*
X96540959Y-103433306D01*
X96454291Y-103458568D01*
X96302803Y-103502723D01*
X96298556Y-103504681D01*
X96298553Y-103504682D01*
X96267593Y-103518955D01*
X96073270Y-103608539D01*
X96066690Y-103612853D01*
X95865812Y-103744554D01*
X95865807Y-103744558D01*
X95861899Y-103747120D01*
X95833035Y-103772882D01*
X95697541Y-103893815D01*
X95673333Y-103915421D01*
X95511715Y-104109746D01*
X95380595Y-104325825D01*
X95378786Y-104330139D01*
X95378785Y-104330141D01*
X95299862Y-104518352D01*
X95282854Y-104558911D01*
X95220639Y-104803883D01*
X95195316Y-105055361D01*
X81450000Y-105055361D01*
X81450000Y-100055361D01*
X95195316Y-100055361D01*
X95195540Y-100060027D01*
X95195540Y-100060033D01*
X95197309Y-100096851D01*
X95207443Y-100307820D01*
X95256752Y-100555713D01*
X95258331Y-100560111D01*
X95258333Y-100560118D01*
X95327131Y-100751736D01*
X95342160Y-100793595D01*
X95461792Y-101016240D01*
X95464587Y-101019984D01*
X95464589Y-101019986D01*
X95610226Y-101215018D01*
X95610231Y-101215024D01*
X95613018Y-101218756D01*
X95616327Y-101222036D01*
X95616332Y-101222042D01*
X95755773Y-101360271D01*
X95792517Y-101396696D01*
X95796279Y-101399454D01*
X95796282Y-101399457D01*
X95973353Y-101529290D01*
X95996346Y-101546149D01*
X96000481Y-101548325D01*
X96000485Y-101548327D01*
X96051726Y-101575286D01*
X96220026Y-101663833D01*
X96458644Y-101747162D01*
X96463237Y-101748034D01*
X96702369Y-101793435D01*
X96702372Y-101793435D01*
X96706958Y-101794306D01*
X96827081Y-101799026D01*
X96954845Y-101804046D01*
X96954850Y-101804046D01*
X96959513Y-101804229D01*
X97037657Y-101795671D01*
X97206107Y-101777223D01*
X97206112Y-101777222D01*
X97210760Y-101776713D01*
X97334760Y-101744067D01*
X97450658Y-101713554D01*
X97450661Y-101713553D01*
X97455181Y-101712363D01*
X97687405Y-101612591D01*
X97794774Y-101546149D01*
X97898358Y-101482050D01*
X97898362Y-101482047D01*
X97902331Y-101479591D01*
X97996989Y-101399457D01*
X98091672Y-101319302D01*
X98091673Y-101319301D01*
X98095238Y-101316283D01*
X98156929Y-101245938D01*
X98258806Y-101129771D01*
X98258810Y-101129766D01*
X98261888Y-101126256D01*
X98288539Y-101084823D01*
X98396094Y-100917610D01*
X98396096Y-100917607D01*
X98398619Y-100913684D01*
X98502428Y-100683236D01*
X98571034Y-100439976D01*
X98585025Y-100330000D01*
X98602533Y-100192378D01*
X98602533Y-100192372D01*
X98602931Y-100189247D01*
X98603755Y-100157803D01*
X98605185Y-100103160D01*
X98605268Y-100100000D01*
X98587510Y-99861034D01*
X98586883Y-99852597D01*
X98586882Y-99852593D01*
X98586537Y-99847945D01*
X98530756Y-99601428D01*
X98439150Y-99365863D01*
X98313731Y-99146426D01*
X98157255Y-98947938D01*
X97973160Y-98774758D01*
X97765489Y-98630691D01*
X97761296Y-98628623D01*
X97542993Y-98520968D01*
X97542990Y-98520967D01*
X97538805Y-98518903D01*
X97494379Y-98504682D01*
X97442403Y-98488045D01*
X97298087Y-98441849D01*
X97293480Y-98441099D01*
X97293477Y-98441098D01*
X97053235Y-98401972D01*
X97053236Y-98401972D01*
X97048624Y-98401221D01*
X96926026Y-98399616D01*
X96800573Y-98397974D01*
X96800570Y-98397974D01*
X96795896Y-98397913D01*
X96545455Y-98431996D01*
X96540965Y-98433305D01*
X96540959Y-98433306D01*
X96437851Y-98463360D01*
X96302803Y-98502723D01*
X96298556Y-98504681D01*
X96298553Y-98504682D01*
X96263226Y-98520968D01*
X96073270Y-98608539D01*
X96069361Y-98611102D01*
X95865812Y-98744554D01*
X95865807Y-98744558D01*
X95861899Y-98747120D01*
X95830933Y-98774758D01*
X95747704Y-98849043D01*
X95673333Y-98915421D01*
X95511715Y-99109746D01*
X95380595Y-99325825D01*
X95378786Y-99330139D01*
X95378785Y-99330141D01*
X95363806Y-99365863D01*
X95282854Y-99558911D01*
X95220639Y-99803883D01*
X95195316Y-100055361D01*
X81450000Y-100055361D01*
X81450000Y-91542095D01*
X84395028Y-91542095D01*
X84420534Y-91809431D01*
X84421619Y-91813865D01*
X84421620Y-91813871D01*
X84463525Y-91985121D01*
X84484364Y-92070285D01*
X84486076Y-92074511D01*
X84486077Y-92074515D01*
X84558290Y-92252800D01*
X84585182Y-92319192D01*
X84720875Y-92550938D01*
X84723728Y-92554505D01*
X84835225Y-92693925D01*
X84888601Y-92760669D01*
X85084846Y-92943991D01*
X85177039Y-93007948D01*
X85301746Y-93094461D01*
X85301751Y-93094464D01*
X85305499Y-93097064D01*
X85309584Y-93099096D01*
X85309587Y-93099098D01*
X85425719Y-93156872D01*
X85545938Y-93216680D01*
X85550272Y-93218101D01*
X85550275Y-93218102D01*
X85796793Y-93298915D01*
X85796798Y-93298916D01*
X85801126Y-93300335D01*
X85805617Y-93301115D01*
X85805618Y-93301115D01*
X86061936Y-93345620D01*
X86061944Y-93345621D01*
X86065717Y-93346276D01*
X86069554Y-93346467D01*
X86148996Y-93350422D01*
X86149004Y-93350422D01*
X86150567Y-93350500D01*
X86318223Y-93350500D01*
X86320491Y-93350335D01*
X86320503Y-93350335D01*
X86450823Y-93340879D01*
X86517846Y-93336016D01*
X86522301Y-93335032D01*
X86522304Y-93335032D01*
X86775620Y-93279105D01*
X86775624Y-93279104D01*
X86780080Y-93278120D01*
X86947617Y-93214646D01*
X87026941Y-93184593D01*
X87026944Y-93184592D01*
X87031211Y-93182975D01*
X87265976Y-93052574D01*
X87408254Y-92943991D01*
X87475833Y-92892417D01*
X87475837Y-92892413D01*
X87479458Y-92889650D01*
X87667185Y-92697614D01*
X87773948Y-92550938D01*
X87822538Y-92484183D01*
X87822540Y-92484180D01*
X87825225Y-92480491D01*
X87905849Y-92327250D01*
X87948140Y-92246868D01*
X87948143Y-92246862D01*
X87950265Y-92242828D01*
X87953282Y-92234286D01*
X87979387Y-92160361D01*
X106854916Y-92160361D01*
X106855140Y-92165027D01*
X106855140Y-92165033D01*
X106860142Y-92269160D01*
X106867043Y-92412820D01*
X106916352Y-92660713D01*
X106917931Y-92665111D01*
X106917933Y-92665118D01*
X106997378Y-92886391D01*
X107001760Y-92898595D01*
X107121392Y-93121240D01*
X107124187Y-93124984D01*
X107124189Y-93124986D01*
X107269826Y-93320018D01*
X107269831Y-93320024D01*
X107272618Y-93323756D01*
X107275927Y-93327036D01*
X107275932Y-93327042D01*
X107448800Y-93498408D01*
X107452117Y-93501696D01*
X107455879Y-93504454D01*
X107455882Y-93504457D01*
X107652175Y-93648384D01*
X107655946Y-93651149D01*
X107660081Y-93653325D01*
X107660085Y-93653327D01*
X107777552Y-93715129D01*
X107879626Y-93768833D01*
X107924266Y-93784422D01*
X108059129Y-93831518D01*
X108118244Y-93852162D01*
X108122837Y-93853034D01*
X108361969Y-93898435D01*
X108361972Y-93898435D01*
X108366558Y-93899306D01*
X108486681Y-93904026D01*
X108614445Y-93909046D01*
X108614450Y-93909046D01*
X108619113Y-93909229D01*
X108697257Y-93900671D01*
X108865707Y-93882223D01*
X108865712Y-93882222D01*
X108870360Y-93881713D01*
X108982627Y-93852156D01*
X109110258Y-93818554D01*
X109110261Y-93818553D01*
X109114781Y-93817363D01*
X109347005Y-93717591D01*
X109454374Y-93651149D01*
X109557958Y-93587050D01*
X109557962Y-93587047D01*
X109561931Y-93584591D01*
X109656589Y-93504457D01*
X109751272Y-93424302D01*
X109751273Y-93424301D01*
X109754838Y-93421283D01*
X109829616Y-93336016D01*
X109918406Y-93234771D01*
X109918410Y-93234766D01*
X109921488Y-93231256D01*
X109951503Y-93184593D01*
X110055694Y-93022610D01*
X110055696Y-93022607D01*
X110058219Y-93018684D01*
X110162028Y-92788236D01*
X110230634Y-92544976D01*
X110246863Y-92417409D01*
X110262133Y-92297378D01*
X110262133Y-92297372D01*
X110262531Y-92294247D01*
X110264868Y-92205000D01*
X110254857Y-92070285D01*
X110246483Y-91957597D01*
X110246482Y-91957593D01*
X110246137Y-91952945D01*
X110190356Y-91706428D01*
X110138200Y-91572308D01*
X110100443Y-91475216D01*
X110100442Y-91475214D01*
X110098750Y-91470863D01*
X110084299Y-91445578D01*
X109975650Y-91255484D01*
X109973331Y-91251426D01*
X109816855Y-91052938D01*
X109632760Y-90879758D01*
X109425089Y-90735691D01*
X109420896Y-90733623D01*
X109202593Y-90625968D01*
X109202590Y-90625967D01*
X109198405Y-90623903D01*
X109153979Y-90609682D01*
X109102003Y-90593045D01*
X108957687Y-90546849D01*
X108953080Y-90546099D01*
X108953077Y-90546098D01*
X108712835Y-90506972D01*
X108712836Y-90506972D01*
X108708224Y-90506221D01*
X108585626Y-90504616D01*
X108460173Y-90502974D01*
X108460170Y-90502974D01*
X108455496Y-90502913D01*
X108205055Y-90536996D01*
X108200565Y-90538305D01*
X108200559Y-90538306D01*
X108097451Y-90568360D01*
X107962403Y-90607723D01*
X107958156Y-90609681D01*
X107958153Y-90609682D01*
X107922826Y-90625968D01*
X107732870Y-90713539D01*
X107728961Y-90716102D01*
X107525412Y-90849554D01*
X107525407Y-90849558D01*
X107521499Y-90852120D01*
X107332933Y-91020421D01*
X107171315Y-91214746D01*
X107040195Y-91430825D01*
X107038386Y-91435139D01*
X107038385Y-91435141D01*
X106944715Y-91658520D01*
X106942454Y-91663911D01*
X106941303Y-91668443D01*
X106941302Y-91668446D01*
X106910389Y-91790168D01*
X106880239Y-91908883D01*
X106854916Y-92160361D01*
X87979387Y-92160361D01*
X88038165Y-91993916D01*
X88038165Y-91993915D01*
X88039688Y-91989603D01*
X88078021Y-91795120D01*
X88090739Y-91730594D01*
X88090740Y-91730588D01*
X88091620Y-91726122D01*
X88091847Y-91721566D01*
X88104745Y-91462474D01*
X88104745Y-91462468D01*
X88104972Y-91457905D01*
X88079466Y-91190569D01*
X88037832Y-91020421D01*
X88016721Y-90934149D01*
X88015636Y-90929715D01*
X87995402Y-90879758D01*
X87916531Y-90685037D01*
X87916531Y-90685036D01*
X87914818Y-90680808D01*
X87779125Y-90449062D01*
X87668211Y-90310371D01*
X87614251Y-90242897D01*
X87614250Y-90242895D01*
X87611399Y-90239331D01*
X87415154Y-90056009D01*
X87255436Y-89945208D01*
X87198254Y-89905539D01*
X87198249Y-89905536D01*
X87194501Y-89902936D01*
X87190416Y-89900904D01*
X87190413Y-89900902D01*
X87018560Y-89815407D01*
X86954062Y-89783320D01*
X86949728Y-89781899D01*
X86949725Y-89781898D01*
X86703207Y-89701085D01*
X86703202Y-89701084D01*
X86698874Y-89699665D01*
X86694382Y-89698885D01*
X86438064Y-89654380D01*
X86438056Y-89654379D01*
X86434283Y-89653724D01*
X86425622Y-89653293D01*
X86351004Y-89649578D01*
X86350996Y-89649578D01*
X86349433Y-89649500D01*
X86181777Y-89649500D01*
X86179509Y-89649665D01*
X86179497Y-89649665D01*
X86049177Y-89659121D01*
X85982154Y-89663984D01*
X85977699Y-89664968D01*
X85977696Y-89664968D01*
X85724380Y-89720895D01*
X85724376Y-89720896D01*
X85719920Y-89721880D01*
X85594354Y-89769453D01*
X85473059Y-89815407D01*
X85473056Y-89815408D01*
X85468789Y-89817025D01*
X85234024Y-89947426D01*
X85230392Y-89950198D01*
X85024167Y-90107583D01*
X85024163Y-90107587D01*
X85020542Y-90110350D01*
X84832815Y-90302386D01*
X84830130Y-90306075D01*
X84684492Y-90506160D01*
X84674775Y-90519509D01*
X84660786Y-90546098D01*
X84551860Y-90753132D01*
X84551857Y-90753138D01*
X84549735Y-90757172D01*
X84548215Y-90761477D01*
X84548213Y-90761481D01*
X84488804Y-90929715D01*
X84460312Y-91010397D01*
X84408380Y-91273878D01*
X84408153Y-91278431D01*
X84408153Y-91278434D01*
X84395314Y-91536351D01*
X84395028Y-91542095D01*
X81450000Y-91542095D01*
X81450000Y-86826000D01*
X81470002Y-86757879D01*
X81523658Y-86711386D01*
X81576000Y-86700000D01*
X126239000Y-86700000D01*
X126307121Y-86720002D01*
G37*
G04 #@! TD.AperFunction*
M02*
